<svg width="24" height="24" viewBox="0 0 24 24" fill="none" xmlns="http://www.w3.org/2000/svg">
<path d="M17.9748 12.5176C18.5616 11.5498 19.5085 11.5498 20.0953 12.5176L23.7496 18.6427C24.3364 19.6105 23.8562 20.4 22.6826 20.4H15.3208C14.1605 20.4 13.6804 19.6105 14.2539 18.6427L17.9748 12.5176ZM10.9064 0.725843C11.4932 -0.241948 12.4268 -0.241948 13.0136 0.725843L13.8271 2.12659L15.7476 5.34832C16.2144 6.26517 16.2144 7.34757 15.7476 8.26442L9.306 18.9228C8.71919 19.7888 7.74562 20.3363 6.66536 20.4H1.31738C0.143754 20.4 -0.336364 19.6232 0.250447 18.6427L10.9064 0.725843Z" fill="#E84142"/>
</svg>
