<svg width="515" height="338" viewBox="0 0 515 338" fill="none" xmlns="http://www.w3.org/2000/svg">
<path d="M267.21 0L496.444 113.951L514.187 170.214L307.663 64.8094L267.21 0Z" fill="#A7ACB9"/>
<path d="M230.05 337.09L9.66437 226.446L298.243 61.188L514.187 170.414L421.843 226.446L324.526 271.129L230.05 337.09Z" fill="#1C1E2D"/>
<path d="M267.339 0L496.387 113.643L417.955 218.052L189.334 102.278L267.339 0Z" fill="#EDEFF7"/>
<path d="M83.8189 122.376L312.823 238.283L229.613 329.303L1.32056 215.528L83.8189 122.376Z" fill="#EDEFF7"/>
<path d="M189.335 102.351L417.955 218.052L312.302 238.077L83.6462 122.248L189.335 102.351Z" fill="#DBDBE9"/>
<path d="M267.339 0L496.387 113.643L417.955 218.052L189.334 102.278L267.339 0Z" fill="#EDEFF7"/>
<path d="M83.8189 122.376L312.823 238.283L229.613 329.303L1.32056 215.528L83.8189 122.376Z" fill="#EDEFF7"/>
<path d="M189.335 102.351L417.955 218.052L312.302 238.077L83.6462 122.248L189.335 102.351Z" fill="#DBDBE9"/>
<g opacity="0.8">
<mask id="mask0" style="mask-type:alpha" maskUnits="userSpaceOnUse" x="1" y="0" width="496" height="330">
<path fill-rule="evenodd" clip-rule="evenodd" d="M267.339 0L496.387 113.643L417.955 218.052L312.384 238.061L312.823 238.283L229.613 329.303L1.32056 215.528L83.8189 122.376L178.814 170.456L83.6462 122.248L189.335 102.351L417.906 218.027L189.335 102.278L267.339 0Z" fill="#DBDBE9"/>
</mask>
<g mask="url(#mask0)">
<path d="M331.179 57.8504C331.179 50.0628 331.179 52.2878 343.417 35.0439L422.961 70.6442C420.736 72.4984 414.284 76.6518 406.274 78.4318C396.261 80.6568 396.817 82.3256 384.58 76.2068C372.342 70.088 363.442 75.6505 337.854 76.2068C312.267 76.763 331.179 65.6379 331.179 57.8504Z" fill="#669EF2"/>
<path fill-rule="evenodd" clip-rule="evenodd" d="M448.404 106.474L443.08 135.222C443.018 135.553 443.042 135.893 443.147 136.213L458.247 182.016C458.792 183.671 461.045 183.885 461.893 182.364L493.519 125.627C493.872 124.994 494.541 124.601 495.266 124.601H504.109C505.635 124.601 506.598 122.961 505.856 121.628L484.134 82.6268C483.55 81.5791 482.182 81.2769 481.212 81.9814L449.195 105.219C448.78 105.52 448.497 105.969 448.404 106.474ZM177.652 102.605L162.67 105.578L135.934 112.147L186.8 121.959L210.472 112.146L184.883 102.513L177.652 102.605ZM414.061 135.726L399.042 138.507L407.386 145.183L422.961 155.195H434.086L421.293 135.726H414.061ZM130.372 188.57L144.278 175.776L152.622 185.789L169.309 202.477L154.29 205.258L138.715 195.245L130.372 188.57ZM295.579 128.495L308.373 103.463H399.599L376.236 117.37L333.961 121.82L304.479 142.401H292.242L295.579 128.495ZM207.196 297.594L157.56 249.956L146.348 245.05L111.089 252.087L70.5752 239.216L43.5971 242.591L214.366 327.634L214.366 313.171L207.196 297.594Z" fill="#56B693"/>
<path fill-rule="evenodd" clip-rule="evenodd" d="M314.263 57.5449L291.677 29.6441L290.255 29.9423L260.576 57.4623L295.242 89.6736L314.263 57.5449ZM314.807 56.627L292.777 29.4135L324.607 22.7394L324.402 21.7607L292.07 28.54L268.711 -0.314697L267.934 0.314501L290.97 28.7706L289.914 28.992L289.778 29.0205L289.677 29.1147L259.842 56.7797L233.063 31.8964L232.382 32.6289L259.107 57.4615L259.083 57.4837L259.423 57.8503L258.989 57.6018L244.66 82.6127L212.976 61.3291L212.418 62.1592L244.161 83.4826L228.395 111.002L229.262 111.499L244.993 84.0416L283.33 109.794L278.999 117.109C277.385 119.835 275.527 122.366 273.462 124.683L273.464 124.676L190.026 101.313L189.756 102.276L272.712 125.504C263.866 134.977 251.466 140.631 238.216 140.891L161.053 142.404L130.719 113.116L130.024 113.835L159.642 142.432L145.002 142.719C131.302 142.988 118.274 148.705 108.801 158.606L98.8009 169.058L63.4385 129.275L62.6911 129.939L98.1073 169.783L69.8884 199.276L31.0051 181.994L30.5989 182.908L69.1538 200.044L51.1059 218.907L9.82619 204.785L9.5025 205.731L50.344 219.703L36.9495 233.702L39.1171 235.776L53.3742 220.875L85.6751 234.643L86.0107 234.786L86.0938 234.69L159.282 236.908L159.282 236.887L209.003 256.936C209.569 266.528 217.774 274.065 227.716 274.065C227.921 274.065 228.125 274.061 228.329 274.055V335.421V336.708L229.197 335.759L277.591 282.915L277.701 282.795L277.719 282.635L282.147 244.45L310.849 238.757L311.172 239.102L311.725 238.584L311.808 238.567L311.798 238.516L313.362 237.052L303.718 226.751C300.012 222.792 297.035 218.283 294.863 213.433H294.909H295.012H295.115H295.217H295.319H295.422H295.524H295.627H295.729H295.831H295.933H296.036H296.138H296.24H296.342H296.444H296.546H296.648H296.749H296.851H296.953H297.055H297.156H297.258H297.359H297.461H297.562H297.664H297.765H297.866H297.967H298.069H298.17H298.271H298.372H298.472H298.573H298.674H298.775H298.875H298.976H299.077H299.177H299.277H299.378H299.478H299.578H299.678H299.778H299.878H299.978H300.078H300.178H300.277H300.377H300.476H300.576H300.675H300.775H300.874H300.973H301.072H301.171H301.27H301.369H301.467H301.566H301.665H301.763H301.861H301.96H302.058H302.156H302.254H302.352H302.45H302.548H302.646H302.743H302.841H302.938H303.035H303.133H303.23H303.327H303.424H303.521H303.618H303.714H303.811H303.907H304.004H304.1H304.196H304.292H304.388H304.484H304.58H304.675H304.771H304.866H304.962H305.057H305.152H305.247H305.342H305.437H305.532H305.626H305.721H305.815H305.909H306.003H306.097H306.191H306.285H306.379H306.472H306.566H306.659H306.752H306.845H306.938H307.031H307.124H307.217H307.309H307.401H307.494H307.586H307.678H307.769H307.861H307.953H308.044H308.136H308.227H308.318H308.409H308.5H308.59H308.681H308.771H308.862H308.952H309.042H309.132H309.221H309.311H309.4H309.49H309.579H309.668H309.757H309.845H309.934H310.023H310.111H310.199H310.287H310.375H310.463H310.55H310.638H310.725H310.812H310.899H310.986H311.073H311.159H311.246H311.332H311.418H311.504H311.59H311.675H311.761H311.846H311.931H312.016H312.101H312.185H312.27H312.354H312.438H312.522H312.606H312.69H312.773H312.857H312.94H313.023H313.106H313.189H313.271H313.353H313.436H313.518H313.599H313.681H313.762H313.844H313.925H314.006H314.087H314.167H314.248H314.328H314.408H314.488H314.568H314.647H314.726H314.806H314.885H314.963H315.042H315.12H315.199H315.277H315.354H315.432H315.51H315.587H315.664H315.741H315.818H315.894H315.971H316.047H316.123H316.198H316.274H316.349H316.424H316.499H316.574H316.649H316.723H316.797H316.871H316.945H317.019H317.092H317.165H317.238H317.311H317.384H317.456H317.528H317.6H317.672H317.743H317.815H317.886H317.956H318.027H318.098H318.168H318.238H318.308H318.377H318.447H318.516H318.585H318.654H318.722H318.79H318.859H318.926H318.994H319.061H319.129H319.196H319.262H319.329H319.395H319.461H319.527H319.593H319.658H319.723H319.788H319.853H319.917H319.982H320.046H320.109H320.173H320.236H320.299H320.362H320.425H320.487H320.549H320.611H320.673H320.734H320.795H320.856H320.917H320.978H321.038H321.098H321.157H321.217H321.276H321.335H321.394H321.452H321.511H321.569H321.626H321.684H321.741H321.798H321.855H321.911H321.967H322.023H322.079H322.135H322.19H322.245H322.299H322.354H322.408H322.462H322.516H322.569H322.622H322.675H322.728H322.78H322.832H322.884H322.935H322.987H323.038H323.088H323.139H323.189H323.239H323.289H323.338H323.387H323.436H323.485H323.533H323.581H323.629H323.676H323.723H323.77H323.817H323.863H323.909H323.955H324.001H324.046H324.091H324.136H324.18H324.224H324.268H324.311H324.355H324.398H324.44H324.483H324.525H324.567H324.608H324.649H324.69H324.731H324.771H324.811H324.851H324.891H324.93H324.969H325.007H325.045H325.083H325.121H325.158H325.196H325.232H325.269H325.305H325.341H325.376H325.412H325.447H325.481H325.516H325.55H325.583H325.617C327.479 213.433 330.508 214.107 334.34 215.311C338.121 216.499 342.526 218.151 347.065 219.997C356.142 223.689 365.677 228.123 371.68 231.079L373.005 228.387C366.955 225.409 357.355 220.943 348.196 217.218C343.617 215.356 339.129 213.671 335.239 212.449C333.49 211.899 331.828 211.432 330.314 211.086L342.457 182.751L342.478 182.702L343.279 182.177L342.94 181.66C348.82 168.802 359.595 159.791 372.003 155.744L372.842 155.762L372.848 155.477C384.946 151.773 398.51 152.757 410.566 159.446L448.377 180.425L449.833 177.802L449.466 177.598L425.637 128.277L425.582 128.304L425.653 128.118L433.72 107.142L449.826 95.0632H465.237V94.0632H451.159L453.343 92.4257L451.543 90.0257L446.707 93.6527L420.957 85.8792L430.664 76.7428L428.608 74.5582L410.144 91.9362L298.978 89.251L333.583 30.8019L331.001 29.2736L314.807 56.627ZM85.7316 233.58L54.113 220.103L110.969 160.68C114.834 156.64 119.328 153.34 124.229 150.876L143.366 170.243L175.562 202.828L176.258 203.531L158.857 235.613L159.033 235.709L104.31 213.643L142.979 171.106L142.239 170.434L103.321 213.244L72.7081 200.9L72.3341 201.828L102.628 214.043L85.7316 233.58ZM208.972 255.845L159.78 236.01L176.992 204.275L214.882 242.621C211.256 245.925 208.981 250.616 208.972 255.845ZM156.654 235.828L86.937 233.715L103.609 214.438L156.654 235.828ZM229.329 273.998V334.135L276.745 282.359L281.116 244.655L245.947 251.63C246.282 252.992 246.46 254.413 246.46 255.877C246.46 265.436 238.887 273.206 229.329 273.998ZM245.68 250.664L280.738 243.71L263.12 217.801C256.918 220.629 251.312 224.763 246.723 230.013L237.615 240.431C241.445 242.746 244.359 246.366 245.68 250.664ZM234.977 239.106L234.871 239.013L244.464 228.038C249.553 222.217 255.821 217.687 262.756 214.68L251.398 191.422L176.963 202.822L177.256 203.119L177.536 203.271L177.49 203.356L215.641 241.966C218.909 239.295 223.128 237.689 227.716 237.689C230.287 237.689 232.741 238.193 234.977 239.106ZM252.126 190.372L287.704 196.471C287.588 194.386 287.598 192.285 287.738 190.179L288.946 172.065C288.128 172.471 287.323 172.852 286.534 173.206C282.494 175.014 278.711 176.164 275.554 176.164C271.79 176.164 264.691 174.834 255.837 172.76C251.519 171.749 246.742 170.55 241.667 169.218L251.974 190.323L252.116 190.301L252.126 190.372ZM287.771 197.497L252.527 191.455L263.679 214.291C269.816 211.771 276.45 210.433 283.235 210.433H283.338H283.44H283.543H283.646H283.748H283.851H283.954H284.057H284.16H284.263H284.366H284.469H284.572H284.675H284.778H284.881H284.984H285.087H285.19H285.293H285.397H285.5H285.603H285.706H285.81H285.913H286.016H286.12H286.223H286.327H286.43H286.533H286.637H286.74H286.844H286.947H287.051H287.154H287.258H287.362H287.465H287.569H287.672H287.776H287.88H287.983H288.087H288.19H288.294H288.398H288.501H288.605H288.709H288.812H288.916H289.02H289.123H289.227H289.331H289.435H289.538H289.642H289.746H289.849H289.953H290.056H290.16H290.264H290.367H290.451C289.013 206.272 288.107 201.925 287.771 197.497ZM250.938 190.481L240.468 169.042L240.448 169.175L239.609 169.05L144.902 170.376L176.095 201.944L250.938 190.481ZM291.594 213.433H291.507H291.403H291.3H291.196H291.093H290.989H290.885H290.782H290.678H290.575H290.471H290.367H290.264H290.16H290.056H289.953H289.849H289.746H289.642H289.538H289.435H289.331H289.227H289.123H289.02H288.916H288.812H288.709H288.605H288.501H288.398H288.294H288.19H288.087H287.983H287.88H287.776H287.672H287.569H287.465H287.362H287.258H287.154H287.051H286.947H286.844H286.74H286.637H286.533H286.43H286.327H286.223H286.12H286.016H285.913H285.81H285.706H285.603H285.5H285.397H285.293H285.19H285.087H284.984H284.881H284.778H284.675H284.572H284.469H284.366H284.263H284.16H284.057H283.954H283.851H283.748H283.646H283.543H283.44H283.338H283.235C276.561 213.433 270.042 214.808 264.049 217.39L281.804 243.499L310.044 237.898L301.528 228.801C297.282 224.265 293.938 219.051 291.594 213.433ZM293.637 210.433H293.676H293.779H293.882H293.984H294.087H294.19H294.293H294.396H294.499H294.601H294.704H294.807H294.909H295.012H295.115H295.217H295.319H295.422H295.524H295.627H295.729H295.831H295.933H296.036H296.138H296.24H296.342H296.444H296.546H296.648H296.749H296.851H296.953H297.055H297.156H297.258H297.359H297.461H297.562H297.664H297.765H297.866H297.967H298.069H298.17H298.271H298.372H298.472H298.573H298.674H298.775H298.875H298.976H299.077H299.177H299.277H299.378H299.478H299.578H299.678H299.778H299.878H299.978H300.078H300.178H300.277H300.377H300.476H300.576H300.675H300.775H300.874H300.973H301.072H301.171H301.27H301.369H301.467H301.566H301.665H301.763H301.861H301.96H302.058H302.156H302.254H302.352H302.45H302.548H302.646H302.743H302.841H302.938H303.035H303.133H303.23H303.327H303.424H303.521H303.618H303.714H303.811H303.907H304.004H304.1H304.196H304.292H304.388H304.484H304.58H304.675H304.771H304.866H304.962H305.057H305.152H305.247H305.342H305.437H305.532H305.626H305.721H305.815H305.909H306.003H306.097H306.191H306.285H306.379H306.472H306.566H306.659H306.752H306.845H306.938H307.031H307.124H307.217H307.309H307.401H307.494H307.586H307.678H307.769H307.861H307.953H308.044H308.136H308.227H308.318H308.409H308.5H308.59H308.681H308.771H308.862H308.952H309.042H309.132H309.221H309.311H309.4H309.49H309.579H309.668H309.757H309.845H309.934H310.023H310.111H310.199H310.287H310.375H310.463H310.55H310.638H310.725H310.812H310.899H310.986H311.073H311.159H311.246H311.332H311.418H311.504H311.59H311.675H311.761H311.846H311.931H312.016H312.101H312.185H312.27H312.354H312.438H312.522H312.606H312.69H312.773H312.857H312.94H313.023H313.106H313.189H313.271H313.353H313.436H313.518H313.599H313.681H313.762H313.844H313.925H314.006H314.087H314.167H314.248H314.328H314.408H314.488H314.568H314.647H314.726H314.806H314.885H314.963H315.042H315.12H315.199H315.277H315.354H315.432H315.51H315.587H315.664H315.741H315.818H315.894H315.971H316.047H316.123H316.198H316.274H316.349H316.424H316.499H316.574H316.649H316.723H316.797H316.871H316.945H317.019H317.092H317.165H317.238H317.311H317.384H317.456H317.528H317.6H317.672H317.743H317.815H317.886H317.956H318.027H318.098H318.168H318.238H318.308H318.377H318.447H318.516H318.585H318.654H318.722H318.79H318.859H318.926H318.994H319.061H319.129H319.196H319.262H319.329H319.395H319.461H319.527H319.593H319.658H319.723H319.788H319.853H319.917H319.982H320.046H320.109H320.173H320.236H320.299H320.362H320.425H320.487H320.549H320.611H320.673H320.734H320.795H320.856H320.917H320.978H321.038H321.098H321.157H321.217H321.276H321.335H321.394H321.452H321.511H321.569H321.626H321.684H321.741H321.798H321.855H321.911H321.967H322.023H322.079H322.135H322.19H322.245H322.299H322.354H322.408H322.462H322.516H322.569H322.622H322.675H322.728H322.78H322.832H322.884H322.935H322.987H323.038H323.088H323.139H323.189H323.239H323.289H323.338H323.387H323.436H323.485H323.533H323.581H323.629H323.676H323.723H323.77H323.817H323.863H323.909H323.955H324.001H324.046H324.091H324.136H324.18H324.224H324.268H324.311H324.355H324.398H324.44H324.483H324.525H324.567H324.608H324.649H324.69H324.731H324.771H324.811H324.851H324.891H324.93H324.969H325.007H325.045H325.083H325.121H325.158H325.196H325.232H325.269H325.305H325.341H325.376H325.412H325.447H325.481H325.516H325.55H325.583H325.617C326.126 210.433 326.683 210.47 327.283 210.541L339.7 181.569C339.959 180.963 340.229 180.365 340.509 179.774L321.305 150.463L322.141 149.915L341.019 178.728C347.552 165.69 358.933 156.619 371.907 152.628L372.389 129.51L350.285 133.899C341.534 135.637 333.457 139.814 326.585 145.602C318.57 152.354 308.839 159.95 299.666 165.868C297.079 167.537 294.526 169.078 292.061 170.432L290.732 190.378C290.273 197.266 291.292 204.093 293.637 210.433ZM283.84 108.932L294.721 90.5542L259.841 58.1441L259.818 58.1651L245.492 83.1717L283.84 108.932ZM237.381 168.081C233.257 166.976 228.975 165.798 224.613 164.574C201.869 158.191 176.898 150.54 160.747 145.411L145.061 145.718C138.108 145.855 131.338 147.482 125.177 150.412L143.928 169.389L237.381 168.081ZM297.227 92.2096L281.581 118.637C273.525 132.244 259.735 141.297 244.284 143.421L240.933 165.922C246.546 167.407 251.812 168.736 256.521 169.839C265.446 171.93 272.198 173.164 275.554 173.164C278.075 173.164 281.393 172.22 285.308 170.467C289.191 168.729 293.526 166.258 298.04 163.347C307.065 157.524 316.688 150.016 324.652 143.308C331.862 137.236 340.392 132.805 349.7 130.957L403.166 120.339C410.291 118.924 417.008 115.927 422.819 111.568L445.714 94.3975L420.117 86.6701L411.752 94.5429L411.303 94.9651L410.687 94.9502L297.227 92.2096ZM239.96 165.664L243.253 143.552C241.61 143.744 239.948 143.858 238.274 143.891L170.151 145.226C185.814 150.119 206.403 156.348 225.423 161.686C230.419 163.087 235.303 164.427 239.96 165.664ZM447.949 176.757L424.736 128.712L425.365 128.408L425.315 128.422L373.122 142.303L372.914 152.329C385.519 148.729 399.532 149.893 412.022 156.823L447.949 176.757ZM432.215 108.272L424.619 113.968C418.448 118.597 411.316 121.78 403.75 123.282L373.393 129.31L373.144 141.262L424.811 127.521L432.215 108.272ZM387.816 154.431L422.86 231.194L421.95 231.609L386.906 154.846L387.816 154.431ZM211.972 255.877C211.972 247.535 218.974 240.689 227.716 240.689C236.458 240.689 243.46 247.535 243.46 255.877C243.46 264.219 236.458 271.065 227.716 271.065C218.974 271.065 211.972 264.219 211.972 255.877Z" fill="white"/>
<path d="M378.461 170.77C367.892 161.314 366.223 170.77 358.992 180.227C353.429 185.047 336.967 202.913 345.086 204.702C362.33 208.5 345.642 198.027 362.33 194.689C379.017 191.352 378.461 195.802 386.248 194.689C394.036 193.577 389.03 180.227 378.461 170.77Z" fill="#669EF2"/>
</g>
</g>
<path fill-rule="evenodd" clip-rule="evenodd" d="M188.801 102.09L267.21 0L276.11 4.45003L197.678 106.245L91.99 126.826L14.3966 212.673L227.015 318.714L303.682 234.081L407.386 212.489L488.043 109.582L496.387 113.476L418.082 218.034L312.026 237.975L229.048 329.674L0 215.438L83.3165 122.077L188.801 102.09Z" fill="#FAFAFF"/>
<g style="mix-blend-mode:multiply">
<path d="M230.05 337.09L9.66437 226.446L298.243 61.188L514.187 170.414L421.843 226.446L324.526 271.129L230.05 337.09Z" fill="#1C1E2D"/>
<path d="M267.21 0L496.444 113.951L514.187 170.214L307.663 64.8094L267.21 0Z" fill="#7161B0"/>
<path d="M267.339 0L496.387 113.643L417.955 218.052L189.334 102.278L267.339 0Z" fill="#EDEFF7"/>
<path d="M83.8189 122.376L312.823 238.283L229.613 329.303L1.32056 215.528L83.8189 122.376Z" fill="#EDEFF7"/>
<path d="M189.335 102.351L417.955 218.052L312.302 238.077L83.6462 122.248L189.335 102.351Z" fill="#DBDBE9"/>
<path d="M267.339 0L496.387 113.643L417.955 218.052L189.334 102.278L267.339 0Z" fill="#EDEFF7"/>
<path d="M83.8189 122.376L312.823 238.283L229.613 329.303L1.32056 215.528L83.8189 122.376Z" fill="#EEF1F9"/>
<path d="M189.335 102.351L417.955 218.052L312.302 238.077L83.6462 122.248L189.335 102.351Z" fill="#DBDBE9"/>
<g style="mix-blend-mode:multiply" opacity="0.1">
<path d="M205.241 234.833C204.314 234.833 200.235 234.833 201.903 229.827L234.166 162.52L324.279 219.258L259.198 224.264L205.241 234.833Z" fill="url(#paint0_linear)"/>
</g>
</g>
<g clip-path="url(#clip0)">
<path d="M241.202 145.929C241.202 172.096 214.244 203.792 203.636 212.489C205.077 212.489 210.257 211.19 210.831 211.046C216.417 209.644 248.397 175.673 248.397 144.486C248.393 138.596 247.014 132.79 244.37 127.531C241.726 122.273 237.892 117.708 233.174 114.204C228.456 110.699 222.985 108.352 217.2 107.349C211.415 106.347 205.476 106.718 199.859 108.432C201.1 108.309 202.358 108.244 203.631 108.244C208.565 108.243 213.45 109.218 218.008 111.111C222.567 113.005 226.708 115.781 230.197 119.28C233.686 122.78 236.453 126.934 238.342 131.507C240.23 136.079 241.202 140.98 241.202 145.929Z" fill="url(#paint1_linear)"/>
<path d="M203.636 108.244C198.702 108.244 193.818 109.219 189.26 111.113C184.702 113.006 180.561 115.782 177.073 119.282C173.585 122.781 170.818 126.936 168.931 131.508C167.043 136.08 166.071 140.98 166.072 145.929C166.072 177.116 197.878 212.489 203.636 212.489C209.393 212.489 241.202 177.116 241.202 145.929C241.202 135.934 237.244 126.349 230.199 119.282C223.154 112.214 213.599 108.244 203.636 108.244ZM203.636 164.987C199.878 164.987 196.204 163.869 193.08 161.774C189.955 159.68 187.52 156.703 186.082 153.22C184.644 149.737 184.268 145.905 185.001 142.208C185.735 138.51 187.544 135.114 190.202 132.449C192.859 129.783 196.245 127.968 199.93 127.233C203.616 126.498 207.436 126.876 210.908 128.318C214.38 129.761 217.347 132.205 219.434 135.339C221.522 138.474 222.636 142.159 222.635 145.929C222.635 148.432 222.144 150.91 221.189 153.223C220.234 155.535 218.834 157.636 217.07 159.406C215.306 161.175 213.211 162.579 210.906 163.537C208.601 164.494 206.131 164.987 203.636 164.987Z" fill="url(#paint2_linear)"/>
<path d="M184.638 145.929C184.64 149.062 185.411 152.147 186.884 154.91C188.357 157.673 190.485 160.029 193.082 161.77C195.678 163.512 198.662 164.585 201.77 164.894C204.878 165.203 208.014 164.739 210.901 163.544H210.831C206.432 163.547 202.167 162.019 198.765 159.22C195.364 156.421 193.035 152.524 192.178 148.195C191.321 143.866 191.988 139.373 194.065 135.482C196.142 131.591 199.501 128.544 203.568 126.861C198.54 126.879 193.724 128.897 190.175 132.471C186.627 136.045 184.636 140.885 184.638 145.929Z" fill="url(#paint3_linear)"/>
</g>
<defs>
<linearGradient id="paint0_linear" x1="178.541" y1="252.077" x2="284.785" y2="202.57" gradientUnits="userSpaceOnUse">
<stop stop-color="#3F345F"/>
<stop offset="1" stop-color="#3F345F" stop-opacity="0"/>
</linearGradient>
<linearGradient id="paint1_linear" x1="248.397" y1="159.644" x2="199.859" y2="159.644" gradientUnits="userSpaceOnUse">
<stop stop-color="#6C0505"/>
<stop offset="1" stop-color="#D83822"/>
</linearGradient>
<linearGradient id="paint2_linear" x1="181.091" y1="178.557" x2="241.722" y2="160.201" gradientUnits="userSpaceOnUse">
<stop stop-color="#BF4923"/>
<stop offset="1" stop-color="#DD5745"/>
</linearGradient>
<linearGradient id="paint3_linear" x1="210.901" y1="145.924" x2="154.39" y2="142.401" gradientUnits="userSpaceOnUse">
<stop stop-color="#6C0505"/>
<stop offset="1" stop-color="#D83822"/>
</linearGradient>
<clipPath id="clip0">
<rect width="82.3256" height="105.688" fill="white" transform="translate(166.072 106.801)"/>
</clipPath>
</defs>
</svg>
