<svg width="80" height="53" viewBox="0 0 80 53" fill="none" xmlns="http://www.w3.org/2000/svg">
<path d="M38.4171 31.466H38.84L39.8181 34.0774L40.7961 31.466H41.2191L40.0296 34.4467H39.6331L38.4171 31.466Z" fill="#D7E6EE"/>
<path d="M44.259 34.4995C43.836 34.4995 43.4924 34.3676 43.2281 34.0774C42.9637 33.7873 42.8316 33.418 42.8316 32.9432C42.8316 32.4684 42.9637 32.0991 43.2281 31.8353C43.4924 31.5452 43.8625 31.4133 44.2854 31.4133C44.7084 31.4133 45.052 31.5452 45.3163 31.8089C45.5807 32.0727 45.6864 32.4156 45.6864 32.7849C45.6864 32.8904 45.6864 32.9959 45.66 33.0751H43.2016C43.2281 33.418 43.3074 33.6818 43.5188 33.8928C43.7039 34.0774 43.9682 34.1829 44.259 34.1829C44.4969 34.1829 44.6819 34.1302 44.8405 34.0247C44.9991 33.9192 45.1049 33.7873 45.1842 33.6026H45.6071C45.5014 33.8664 45.3428 34.0774 45.1313 34.2357C44.8934 34.4204 44.6026 34.4995 44.259 34.4995ZM45.2899 32.7849C45.2899 32.4684 45.1842 32.2046 44.9991 31.9936C44.7877 31.8089 44.5497 31.7034 44.259 31.7034C43.9682 31.7034 43.7303 31.8089 43.5188 31.9936C43.3338 32.1782 43.2281 32.442 43.2016 32.7849H45.2899Z" fill="#D7E6EE"/>
<path d="M47.6689 31.466V31.9408C47.8804 31.5715 48.1976 31.4133 48.647 31.4133C48.9906 31.4133 49.255 31.5188 49.4664 31.7298C49.6779 31.9408 49.8101 32.2574 49.8101 32.653V34.4203H49.44V32.7058C49.44 32.3892 49.3607 32.1255 49.2021 31.9672C49.0435 31.8089 48.832 31.7034 48.5412 31.7034C48.2769 31.7034 48.039 31.7826 47.8804 31.9672C47.7218 32.1255 47.6425 32.3892 47.6425 32.7058V34.4203H47.2724V31.466H47.6689Z" fill="#D7E6EE"/>
<path d="M53.0614 31.7562H52.242V33.7345C52.242 33.8928 52.2684 33.9983 52.3213 34.051C52.3741 34.1038 52.4799 34.1302 52.6385 34.1302H53.0614V34.4203H52.5592C52.0834 34.4203 51.8719 34.1829 51.8719 33.7081V31.7298H51.449V31.4396H51.8719V30.7011H52.242V31.4396H53.0614V31.7562Z" fill="#D7E6EE"/>
<path d="M56.815 31.466H57.1851V34.4467H56.815V33.9719C56.6036 34.3412 56.2864 34.4995 55.837 34.4995C55.4933 34.4995 55.229 34.394 55.0175 34.1829C54.8061 33.9719 54.6739 33.6554 54.6739 33.2597V31.4924H55.044V33.207C55.044 33.5235 55.1233 33.7873 55.2819 33.9455C55.4405 34.1038 55.6519 34.2093 55.9427 34.2093C56.207 34.2093 56.445 34.1302 56.6036 33.9455C56.7622 33.7873 56.8415 33.5235 56.8415 33.207V31.466H56.815Z" fill="#D7E6EE"/>
<path d="M59.1676 31.466V31.9672C59.3262 31.5979 59.6434 31.4133 60.0928 31.4133V31.8089H59.9871C59.7228 31.8089 59.5113 31.8881 59.3791 32.02C59.2469 32.1518 59.1676 32.4156 59.1676 32.7585V34.4467H58.7976V31.466H59.1676Z" fill="#D7E6EE"/>
<path d="M63.1327 34.4995C62.7098 34.4995 62.3661 34.3676 62.1018 34.0774C61.8375 33.7873 61.7053 33.418 61.7053 32.9432C61.7053 32.4684 61.8375 32.0991 62.1018 31.8353C62.3661 31.5452 62.7362 31.4133 63.1591 31.4133C63.5821 31.4133 63.9257 31.5452 64.1901 31.8089C64.4544 32.0727 64.5601 32.4156 64.5601 32.7849C64.5601 32.8904 64.5601 32.9959 64.5337 33.0751H62.0754C62.1018 33.418 62.1811 33.6818 62.3926 33.8928C62.5776 34.0774 62.8419 34.1829 63.1327 34.1829C63.3706 34.1829 63.5557 34.1302 63.7143 34.0247C63.8729 33.9192 63.9786 33.7873 64.0579 33.6026H64.4808C64.3751 33.8664 64.2165 34.0774 64.005 34.2357C63.7671 34.4204 63.4763 34.4995 63.1327 34.4995ZM64.1901 32.7849C64.1901 32.4684 64.0843 32.2046 63.8993 31.9936C63.6878 31.8089 63.4499 31.7034 63.1591 31.7034C62.8684 31.7034 62.6305 31.8089 62.419 31.9936C62.234 32.1782 62.1282 32.442 62.1018 32.7849H64.1901Z" fill="#D7E6EE"/>
<path d="M66.1726 32.2837C66.1726 32.0463 66.2783 31.8353 66.4898 31.6507C66.7013 31.4924 66.9656 31.3869 67.2828 31.3869C67.6 31.3869 67.8379 31.466 68.0229 31.6243C68.208 31.7826 68.2873 32.02 68.3137 32.3101H67.9172C67.9172 32.1255 67.8379 31.9672 67.7322 31.8617C67.6264 31.7562 67.4414 31.677 67.2564 31.677C67.0449 31.677 66.8863 31.7298 66.7541 31.8353C66.6484 31.9408 66.5691 32.0727 66.5691 32.2046C66.5691 32.3365 66.622 32.4684 66.7013 32.5475C66.7806 32.6266 66.8863 32.6794 67.0449 32.7058C67.1771 32.7322 67.3092 32.7585 67.4678 32.8113C67.6264 32.8641 67.7586 32.8904 67.8908 32.9432C68.0229 32.9959 68.1287 33.0751 68.2344 33.1806C68.3137 33.2861 68.3666 33.4444 68.3666 33.629C68.3666 33.8664 68.2609 34.0774 68.0758 34.2093C67.8643 34.3676 67.6 34.4467 67.2828 34.4467C66.9656 34.4467 66.7013 34.3676 66.5162 34.1829C66.3312 34.0247 66.2255 33.7873 66.199 33.4971H66.5955C66.5955 33.6818 66.6748 33.84 66.7806 33.9455C66.9127 34.0511 67.0713 34.1302 67.2828 34.1302C67.4943 34.1302 67.6793 34.0774 67.785 33.9983C67.9172 33.8928 67.9701 33.7873 67.9701 33.629C67.9701 33.4707 67.9172 33.3652 67.8379 33.2861C67.7586 33.207 67.6529 33.1542 67.4943 33.1014C67.3621 33.0751 67.2299 33.0223 67.0713 32.9959C66.9127 32.9432 66.7806 32.9168 66.6484 32.864C66.5162 32.8113 66.4105 32.7322 66.3048 32.6266C66.2255 32.6003 66.1726 32.442 66.1726 32.2837Z" fill="#D7E6EE"/>
<path d="M44.5497 19.3849H46.8495V28.8018H44.5497L40.7168 22.8668V28.8018H38.4171V19.3849H40.7168L44.5497 25.32V19.3849Z" fill="#D7E6EE"/>
<path d="M49.8365 27.5357C48.9113 26.6389 48.4355 25.4782 48.4355 24.0802C48.4355 22.6822 48.9113 21.5479 49.8365 20.6247C50.7617 19.7279 51.9248 19.2531 53.2729 19.2531C54.3302 19.2531 55.2554 19.5168 56.0749 20.0708C56.8943 20.6247 57.4494 21.3897 57.7666 22.3656H55.0175C54.6475 21.6798 54.0923 21.3369 53.2993 21.3369C52.5063 21.3369 51.8983 21.5743 51.449 22.0755C50.9996 22.5767 50.7617 23.2097 50.7617 24.0538C50.7617 24.8715 50.9996 25.531 51.449 26.0322C51.8983 26.5334 52.5063 26.7708 53.2729 26.7708C53.828 26.7708 54.2509 26.6389 54.621 26.3751C54.9647 26.1113 55.2026 25.742 55.3083 25.2936H52.6385V23.5526H57.7402V25.2936C57.5816 26.1377 57.1058 26.9554 56.3392 27.694C55.9691 28.0633 55.5198 28.3534 54.9647 28.5645C54.436 28.7755 53.8544 28.9074 53.2465 28.9074C51.8983 28.9074 50.7617 28.4589 49.8365 27.5357Z" fill="#D7E6EE"/>
<path d="M60.7272 27.5357C59.8021 26.6389 59.3262 25.4782 59.3262 24.0802C59.3262 22.6822 59.8021 21.5479 60.7272 20.6247C61.6524 19.7279 62.8155 19.2531 64.1636 19.2531C65.221 19.2531 66.1462 19.5168 66.9656 20.0708C67.785 20.6247 68.3402 21.3897 68.6574 22.3656H65.9082C65.5382 21.6798 64.9831 21.3369 64.1901 21.3369C63.397 21.3369 62.7891 21.5743 62.3397 22.0755C61.8903 22.5767 61.6524 23.2097 61.6524 24.0538C61.6524 24.8715 61.8903 25.531 62.3397 26.0322C62.7891 26.5334 63.4235 26.7708 64.1901 26.7708C64.9831 26.7708 65.5382 26.4278 65.9082 25.742H68.6574C68.3402 26.718 67.7586 27.483 66.9656 28.0369C66.1462 28.5908 65.221 28.8546 64.1636 28.8546C62.7891 28.9074 61.6524 28.4589 60.7272 27.5357Z" fill="#D7E6EE"/>
<path d="M13.7808 18.7783L10.9524 17.1428V31.9936L13.7808 33.6026L16.5828 35.2381V20.3873L13.7808 18.7783Z" fill="#D7E6EE"/>
<path d="M22.2396 18.7783L19.4112 17.1428V31.9936L22.2396 33.6026L25.0416 35.2381V20.3873L22.2396 18.7783Z" fill="#D7E6EE"/>
<path d="M30.6984 18.7783L27.87 17.1428V31.9936L30.6984 33.6026L33.5004 35.2381V20.3873L30.6984 18.7783Z" fill="#D7E6EE"/>
</svg>
