<svg width="29" height="30" viewBox="0 0 29 30" fill="none" xmlns="http://www.w3.org/2000/svg">
<path d="M9.54316 6.45529C11.0665 5.46417 12.7509 4.96128 14.5964 4.96128C16.4224 4.9564 18.1068 5.45929 19.6545 6.46994L22.8964 3.22804C20.3771 1.29461 17.6088 0.323017 14.5964 0.327899C11.5693 0.332782 8.80592 1.29461 6.30127 3.22315L9.54316 6.45529Z" fill="#0D0235"/>
<path d="M6.35006 19.7742C5.31988 18.2118 4.80723 16.5225 4.81211 14.7111C4.817 12.8705 5.32476 11.1861 6.3403 9.65302L3.10816 6.41602C1.20892 8.89137 0.256854 11.6548 0.251972 14.7111C0.247089 17.7382 1.20403 20.5016 3.11793 23.0112L6.35006 19.7742Z" fill="#0D0235"/>
<path d="M19.6834 22.9917C18.1454 24.0268 16.461 24.5541 14.6301 24.5687C12.7699 24.5834 11.066 24.0561 9.51826 23.0015L6.2959 26.2238C8.80055 28.1719 11.5835 29.1337 14.6496 29.1093C17.6816 29.0849 20.4352 28.1231 22.9106 26.2189L19.6834 22.9917Z" fill="#0D0235"/>
<path d="M22.8723 9.64838C23.9122 11.2156 24.42 12.9342 24.4005 14.8041C24.381 16.6057 23.8683 18.2657 22.8674 19.7841L26.1044 23.0211C28.0085 20.5409 28.9752 17.7872 28.9996 14.7651C29.024 11.699 28.0622 8.91602 26.1142 6.41138L22.8723 9.64838Z" fill="#0D0235"/>
<path d="M26.0515 26.458C26.0027 26.4091 25.9783 26.3506 25.9783 26.2871C25.9783 26.2236 26.0027 26.165 26.0515 26.1162C26.1443 26.0234 26.2956 26.0234 26.3933 26.1162C26.4421 26.165 26.4665 26.2236 26.4665 26.2871C26.4665 26.3506 26.4421 26.4091 26.3933 26.458C26.3445 26.5068 26.2859 26.5263 26.2224 26.5263C26.1589 26.5263 26.1004 26.5019 26.0515 26.458ZM25.368 25.7744C25.3192 25.7256 25.2996 25.667 25.2996 25.6036C25.2996 25.5401 25.3241 25.4815 25.368 25.4327C25.4608 25.3399 25.617 25.3399 25.7098 25.4327C25.7586 25.4815 25.7781 25.5401 25.7781 25.6036C25.7781 25.667 25.7537 25.7256 25.7098 25.7744C25.6609 25.8233 25.6024 25.8428 25.5389 25.8428C25.4803 25.8428 25.4168 25.8233 25.368 25.7744ZM24.6893 25.0909C24.6405 25.0421 24.6161 24.9835 24.6161 24.92C24.6161 24.8566 24.6405 24.798 24.6893 24.7491C24.7821 24.6564 24.9383 24.6564 25.0311 24.7491C25.0799 24.798 25.0995 24.8566 25.0995 24.92C25.0995 24.9835 25.0751 25.0421 25.0311 25.0909C24.9823 25.1397 24.9237 25.1641 24.8602 25.1641C24.7968 25.1641 24.7333 25.1397 24.6893 25.0909ZM24.0058 24.4074C23.957 24.3586 23.9375 24.3 23.9375 24.2365C23.9375 24.173 23.9619 24.1144 24.0058 24.0656C24.0986 23.9728 24.2548 23.9728 24.3476 24.0656C24.3964 24.1144 24.4159 24.173 24.4159 24.2365C24.4159 24.3 24.3915 24.3586 24.3476 24.4074C24.2988 24.4562 24.2402 24.4806 24.1767 24.4806C24.1132 24.4806 24.0546 24.4562 24.0058 24.4074ZM23.3223 23.7287C23.2735 23.6799 23.249 23.6213 23.249 23.5578C23.249 23.4944 23.2735 23.4358 23.3223 23.387C23.415 23.2942 23.5664 23.2942 23.6641 23.387C23.7129 23.4358 23.7324 23.4944 23.7324 23.5578C23.7324 23.6213 23.708 23.6799 23.6641 23.7287C23.6152 23.7775 23.5566 23.7971 23.4932 23.7971C23.4346 23.7971 23.3711 23.7727 23.3223 23.7287ZM22.6436 23.0452C22.5948 22.9964 22.5704 22.9378 22.5704 22.8743C22.5704 22.8108 22.5948 22.7523 22.6436 22.7034C22.7364 22.6107 22.8878 22.6107 22.9854 22.7034C23.0342 22.7523 23.0586 22.8108 23.0586 22.8743C23.0586 22.9378 23.0342 22.9964 22.9854 23.0452C22.9366 23.094 22.878 23.1135 22.8145 23.1135C22.751 23.1135 22.6876 23.094 22.6436 23.0452ZM21.9601 22.3617C21.9113 22.3128 21.8918 22.2543 21.8918 22.1908C21.8918 22.1273 21.9162 22.0687 21.9601 22.0199C22.0529 21.9271 22.2091 21.9271 22.3019 22.0199C22.3507 22.0687 22.3751 22.1273 22.3751 22.1908C22.3751 22.2543 22.3507 22.3128 22.3019 22.3617C22.253 22.4105 22.1945 22.4349 22.131 22.4349C22.0675 22.4349 22.0089 22.4105 21.9601 22.3617ZM21.2766 21.683C21.2278 21.6342 21.2033 21.5756 21.2033 21.5121C21.2033 21.4487 21.2278 21.3901 21.2766 21.3413C21.3693 21.2485 21.5256 21.2485 21.6183 21.3413C21.6672 21.3901 21.6867 21.4487 21.6867 21.5121C21.6867 21.5756 21.6623 21.6342 21.6183 21.683C21.5695 21.7318 21.5109 21.7514 21.4475 21.7514C21.3889 21.7514 21.3254 21.727 21.2766 21.683ZM20.593 20.9995C20.5442 20.9507 20.5198 20.8921 20.5198 20.8286C20.5198 20.7651 20.5442 20.7065 20.593 20.6577C20.6858 20.565 20.842 20.565 20.9348 20.6577C20.9836 20.7065 21.008 20.7651 21.008 20.8286C21.008 20.8921 20.9836 20.9507 20.9348 20.9995C20.886 21.0483 20.8274 21.0727 20.7639 21.0727C20.7053 21.0678 20.6419 21.0434 20.593 20.9995ZM19.9144 20.316C19.8656 20.2671 19.8412 20.2085 19.8412 20.1451C19.8412 20.0816 19.8656 20.023 19.9144 19.9742C20.0072 19.8814 20.1585 19.8814 20.2562 19.9742C20.305 20.023 20.3294 20.0816 20.3294 20.1451C20.3294 20.2085 20.305 20.2671 20.2562 20.316C20.2073 20.3648 20.1487 20.3892 20.0853 20.3892C20.0218 20.3892 19.9583 20.3648 19.9144 20.316ZM19.2309 19.6373C19.182 19.5885 19.1576 19.5299 19.1576 19.4664C19.1576 19.403 19.182 19.3444 19.2309 19.2955C19.3236 19.2028 19.475 19.2028 19.5726 19.2955C19.6215 19.3444 19.6459 19.403 19.6459 19.4664C19.6459 19.5299 19.6215 19.5885 19.5726 19.6373C19.5238 19.6861 19.4652 19.7057 19.4017 19.7057C19.3383 19.7057 19.2797 19.6812 19.2309 19.6373ZM18.5473 18.9538C18.4985 18.905 18.479 18.8464 18.479 18.7829C18.479 18.7194 18.5034 18.6608 18.5473 18.612C18.6401 18.5192 18.7963 18.5192 18.8891 18.612C18.9379 18.6608 18.9623 18.7194 18.9623 18.7829C18.9623 18.8464 18.9379 18.905 18.8891 18.9538C18.8403 19.0026 18.7817 19.027 18.7182 19.027C18.6596 19.0221 18.5962 18.9977 18.5473 18.9538ZM17.8687 18.2702C17.8199 18.2214 17.8003 18.1628 17.8003 18.0994C17.8003 18.0359 17.8247 17.9773 17.8687 17.9285C17.9614 17.8357 18.1177 17.8357 18.2104 17.9285C18.2593 17.9773 18.2837 18.0359 18.2837 18.0994C18.2837 18.1628 18.2593 18.2214 18.2104 18.2702C18.1616 18.3191 18.103 18.3435 18.0396 18.3435C17.9761 18.3386 17.9126 18.3191 17.8687 18.2702ZM17.1852 17.5867C17.1363 17.5379 17.1119 17.4793 17.1119 17.4158C17.1119 17.3524 17.1363 17.2938 17.1852 17.245C17.2779 17.1522 17.4342 17.1522 17.5269 17.245C17.5757 17.2938 17.5953 17.3524 17.5953 17.4158C17.5953 17.4793 17.5709 17.5379 17.5269 17.5867C17.4781 17.6355 17.4195 17.66 17.356 17.66C17.2926 17.66 17.2291 17.6355 17.1852 17.5867ZM16.5016 16.9081C16.4528 16.8592 16.4284 16.8007 16.4284 16.7372C16.4284 16.6737 16.4528 16.6151 16.5016 16.5663C16.5944 16.4735 16.7506 16.4735 16.8434 16.5663C16.8922 16.6151 16.9166 16.6737 16.9166 16.7372C16.9166 16.8007 16.8922 16.8592 16.8434 16.9081C16.7946 16.9569 16.736 16.9813 16.6725 16.9813C16.609 16.9764 16.5504 16.952 16.5016 16.9081ZM15.823 16.2245C15.7741 16.1757 15.7497 16.1171 15.7497 16.0537C15.7497 15.9902 15.7741 15.9316 15.823 15.8828C15.9157 15.79 16.0671 15.79 16.1647 15.8828C16.2136 15.9316 16.238 15.9902 16.238 16.0537C16.238 16.1171 16.2136 16.1757 16.1647 16.2245C16.1159 16.2734 16.0573 16.2929 15.9939 16.2929C15.9304 16.2929 15.8669 16.2685 15.823 16.2245ZM15.1394 15.541C15.0906 15.4922 15.0711 15.4336 15.0711 15.3701C15.0711 15.3067 15.0955 15.2481 15.1394 15.1992C15.2322 15.1065 15.3884 15.1065 15.4812 15.1992C15.53 15.2481 15.5544 15.3067 15.5544 15.3701C15.5544 15.4336 15.53 15.4922 15.4812 15.541C15.4324 15.5898 15.3738 15.6094 15.3103 15.6094C15.2469 15.6142 15.1834 15.5898 15.1394 15.541ZM14.4559 14.8575C14.4071 14.8087 14.3876 14.7501 14.3876 14.6866C14.3876 14.6231 14.412 14.5645 14.4559 14.5157C14.5487 14.4229 14.7049 14.4229 14.7977 14.5157C14.8465 14.5645 14.866 14.6231 14.866 14.6866C14.866 14.7501 14.8416 14.8087 14.7977 14.8575C14.7489 14.9063 14.6903 14.9307 14.6268 14.9307C14.5633 14.9307 14.5047 14.9063 14.4559 14.8575ZM13.7724 14.1788C13.7236 14.13 13.6991 14.0714 13.6991 14.0079C13.6991 13.9445 13.7236 13.8859 13.7724 13.8371C13.8651 13.7443 14.0214 13.7443 14.1141 13.8371C14.163 13.8859 14.1825 13.9445 14.1825 14.0079C14.1825 14.0714 14.1581 14.13 14.1141 14.1788C14.0653 14.2277 14.0067 14.2521 13.9433 14.2521C13.8847 14.2472 13.8212 14.2228 13.7724 14.1788ZM13.0937 13.4953C13.0449 13.4465 13.0205 13.3879 13.0205 13.3244C13.0205 13.2609 13.0449 13.2024 13.0937 13.1535C13.1865 13.0608 13.3427 13.0608 13.4355 13.1535C13.4843 13.2024 13.5038 13.2609 13.5038 13.3244C13.5038 13.3879 13.4794 13.4465 13.4355 13.4953C13.3867 13.5441 13.3281 13.5637 13.2646 13.5637C13.2011 13.5637 13.1377 13.5441 13.0937 13.4953ZM12.4102 12.8118C12.3614 12.7629 12.337 12.7044 12.337 12.6409C12.337 12.5774 12.3614 12.5188 12.4102 12.47C12.503 12.3772 12.6543 12.3772 12.752 12.47C12.8008 12.5188 12.8252 12.5774 12.8252 12.6409C12.8252 12.7044 12.8008 12.7629 12.752 12.8118C12.7031 12.8606 12.6446 12.885 12.5811 12.885C12.5176 12.885 12.4541 12.8606 12.4102 12.8118ZM11.7267 12.1331C11.6778 12.0843 11.6583 12.0257 11.6583 11.9622C11.6583 11.8988 11.6827 11.8402 11.7267 11.7914C11.8194 11.6986 11.9757 11.6986 12.0684 11.7914C12.1173 11.8402 12.1417 11.8988 12.1417 11.9622C12.1417 12.0257 12.1173 12.0843 12.0684 12.1331C12.0196 12.1819 11.961 12.2015 11.8975 12.2015C11.8341 12.2015 11.7755 12.1771 11.7267 12.1331ZM11.0431 11.4496C10.9943 11.4008 10.9699 11.3422 10.9699 11.2787C10.9699 11.2152 10.9943 11.1566 11.0431 11.1078C11.1359 11.0151 11.2873 11.0151 11.3849 11.1078C11.4337 11.1566 11.4533 11.2152 11.4533 11.2787C11.4533 11.3422 11.4288 11.4008 11.3849 11.4496C11.3361 11.4984 11.2775 11.5179 11.214 11.5179C11.1554 11.5179 11.092 11.4935 11.0431 11.4496ZM10.3645 10.7661C10.3157 10.7172 10.2961 10.6586 10.2961 10.5952C10.2961 10.5317 10.3205 10.4731 10.3645 10.4243C10.4573 10.3315 10.6135 10.3315 10.7063 10.4243C10.7551 10.4731 10.7795 10.5317 10.7795 10.5952C10.7795 10.6586 10.7551 10.7172 10.7063 10.7661C10.6574 10.8149 10.5988 10.8393 10.5354 10.8393C10.4719 10.8393 10.4084 10.8149 10.3645 10.7661ZM9.68095 10.0825C9.63213 10.0337 9.6126 9.97512 9.6126 9.91165C9.6126 9.84818 9.63701 9.78959 9.68095 9.74076C9.77372 9.648 9.92996 9.648 10.0227 9.74076C10.0715 9.78959 10.0911 9.84818 10.0911 9.91165C10.0911 9.97512 10.0667 10.0337 10.0227 10.0825C9.9739 10.1314 9.91531 10.1558 9.85184 10.1558C9.78837 10.1558 9.72978 10.1314 9.68095 10.0825ZM8.99742 9.40388C8.9486 9.35506 8.92419 9.29647 8.92419 9.233C8.92419 9.16953 8.9486 9.11094 8.99742 9.06212C9.09019 8.96935 9.24642 8.96935 9.33919 9.06212C9.38801 9.11094 9.40754 9.16953 9.40754 9.233C9.40754 9.29647 9.38313 9.35506 9.33919 9.40388C9.29037 9.4527 9.23178 9.47223 9.16831 9.47223C9.10972 9.47223 9.04625 9.44782 8.99742 9.40388ZM8.31877 8.72035C8.26995 8.67153 8.25042 8.61294 8.25042 8.54947C8.25042 8.486 8.27483 8.42741 8.31877 8.37859C8.41154 8.28582 8.56777 8.28582 8.66054 8.37859C8.70936 8.42741 8.73377 8.486 8.73377 8.54947C8.73377 8.61294 8.70936 8.67153 8.66054 8.72035C8.61172 8.76917 8.55313 8.7887 8.48966 8.7887C8.42619 8.7887 8.36271 8.76917 8.31877 8.72035ZM7.63524 8.03682C7.58642 7.988 7.56201 7.92941 7.56201 7.86594C7.56201 7.80247 7.58642 7.74388 7.63524 7.69505C7.72801 7.60229 7.87936 7.60229 7.97701 7.69505C8.02583 7.74388 8.04536 7.80247 8.04536 7.86594C8.04536 7.92941 8.02095 7.988 7.97701 8.03682C7.92818 8.08564 7.8696 8.11006 7.80612 8.11006C7.74265 8.11006 7.68407 8.08564 7.63524 8.03682ZM6.95171 7.35329C6.90289 7.30447 6.88336 7.24588 6.88336 7.18241C6.88336 7.11894 6.90777 7.06035 6.95171 7.01152C7.04448 6.91876 7.20071 6.91876 7.29348 7.01152C7.3423 7.06035 7.36671 7.11894 7.36671 7.18241C7.36671 7.24588 7.3423 7.30447 7.29348 7.35329C7.24465 7.40211 7.18606 7.42164 7.12259 7.42164C7.05912 7.42652 7.00053 7.40211 6.95171 7.35329ZM6.26818 6.67464C6.21936 6.62582 6.19494 6.56723 6.19494 6.50376C6.19494 6.44029 6.21936 6.3817 6.26818 6.33287C6.36094 6.24011 6.51718 6.24011 6.60994 6.33287C6.65877 6.3817 6.6783 6.44029 6.6783 6.50376C6.6783 6.56723 6.65389 6.62582 6.60994 6.67464C6.56112 6.72346 6.50253 6.74788 6.43906 6.74788C6.38047 6.74299 6.317 6.71858 6.26818 6.67464ZM5.58953 5.99111C5.54071 5.94229 5.52118 5.8837 5.52118 5.82023C5.52118 5.75676 5.54559 5.69817 5.58953 5.64934C5.6823 5.55658 5.83853 5.55658 5.9313 5.64934C5.98012 5.69817 6.00453 5.75676 6.00453 5.82023C6.00453 5.8837 5.98012 5.94229 5.9313 5.99111C5.88247 6.03993 5.82388 6.05946 5.76041 6.05946C5.69694 6.06435 5.63347 6.03993 5.58953 5.99111ZM4.906 5.30758C4.85718 5.25876 4.83276 5.20017 4.83276 5.1367C4.83276 5.07323 4.85718 5.01464 4.906 4.96581C4.99876 4.87305 5.15012 4.87305 5.24776 4.96581C5.29659 5.01464 5.31612 5.07323 5.31612 5.1367C5.31612 5.20017 5.29171 5.25876 5.24776 5.30758C5.19894 5.3564 5.14035 5.38081 5.07688 5.38081C5.01341 5.38081 4.95482 5.3564 4.906 5.30758Z" fill="#0D0235"/>
<path d="M2.8601 26.4583C2.81128 26.4095 2.79175 26.3509 2.79175 26.2874C2.79175 26.2239 2.81616 26.1654 2.8601 26.1165C2.95287 26.0238 3.1091 26.0238 3.20187 26.1165C3.25069 26.1654 3.2751 26.2239 3.2751 26.2874C3.2751 26.3509 3.25069 26.4095 3.20187 26.4583C3.15304 26.5071 3.09445 26.5266 3.03098 26.5266C2.96751 26.5266 2.90404 26.5022 2.8601 26.4583ZM3.54363 25.7748C3.49481 25.7259 3.47039 25.6673 3.47039 25.6039C3.47039 25.5404 3.49481 25.4818 3.54363 25.433C3.63639 25.3402 3.79263 25.3402 3.88539 25.433C3.93422 25.4818 3.95375 25.5404 3.95375 25.6039C3.95375 25.6673 3.92933 25.7259 3.88539 25.7748C3.83657 25.8236 3.77798 25.8431 3.71451 25.8431C3.65104 25.8431 3.58757 25.8236 3.54363 25.7748ZM4.22228 25.0912C4.17345 25.0424 4.15392 24.9838 4.15392 24.9203C4.15392 24.8569 4.17833 24.7983 4.22228 24.7495C4.31504 24.6567 4.47128 24.6567 4.56404 24.7495C4.61286 24.7983 4.63239 24.8569 4.63239 24.9203C4.63239 24.9838 4.60798 25.0424 4.56404 25.0912C4.51522 25.1401 4.45663 25.1645 4.39316 25.1645C4.33457 25.1645 4.2711 25.1401 4.22228 25.0912ZM4.9058 24.4077C4.85698 24.3589 4.83745 24.3003 4.83745 24.2368C4.83745 24.1733 4.86186 24.1148 4.9058 24.0659C4.99857 23.9732 5.1548 23.9732 5.24757 24.0659C5.29639 24.1148 5.3208 24.1733 5.3208 24.2368C5.3208 24.3003 5.29639 24.3589 5.24757 24.4077C5.19875 24.4565 5.14016 24.4809 5.07669 24.4809C5.01322 24.4809 4.95463 24.4565 4.9058 24.4077ZM5.58933 23.729C5.54051 23.6802 5.5161 23.6216 5.5161 23.5582C5.5161 23.4947 5.54051 23.4361 5.58933 23.3873C5.6821 23.2945 5.83345 23.2945 5.9311 23.3873C5.97992 23.4361 6.00433 23.4947 6.00433 23.5582C6.00433 23.6216 5.97992 23.6802 5.9311 23.729C5.88227 23.7779 5.82369 23.7974 5.76022 23.7974C5.69674 23.7974 5.63327 23.773 5.58933 23.729ZM6.26798 23.0455C6.21916 22.9967 6.19963 22.9381 6.19963 22.8746C6.19963 22.8112 6.22404 22.7526 6.26798 22.7038C6.36074 22.611 6.51698 22.611 6.60974 22.7038C6.65857 22.7526 6.68298 22.8112 6.68298 22.8746C6.68298 22.9381 6.65857 22.9967 6.60974 23.0455C6.56092 23.0943 6.50233 23.1139 6.43886 23.1139C6.38027 23.1139 6.3168 23.0943 6.26798 23.0455ZM6.95151 22.362C6.90268 22.3132 6.87827 22.2546 6.87827 22.1911C6.87827 22.1276 6.90268 22.069 6.95151 22.0202C7.04427 21.9275 7.20051 21.9275 7.29327 22.0202C7.3421 22.069 7.36163 22.1276 7.36163 22.1911C7.36163 22.2546 7.33721 22.3132 7.29327 22.362C7.24445 22.4108 7.18586 22.4352 7.12239 22.4352C7.05892 22.4352 7.00033 22.4108 6.95151 22.362ZM7.63504 21.6833C7.58621 21.6345 7.5618 21.5759 7.5618 21.5125C7.5618 21.449 7.58621 21.3904 7.63504 21.3416C7.7278 21.2488 7.88404 21.2488 7.9768 21.3416C8.02562 21.3904 8.05004 21.449 8.05004 21.5125C8.05004 21.5759 8.02562 21.6345 7.9768 21.6833C7.92798 21.7322 7.86939 21.7517 7.80592 21.7517C7.74245 21.7517 7.68386 21.7273 7.63504 21.6833ZM8.31857 20.9998C8.26974 20.951 8.25021 20.8924 8.25021 20.8289C8.25021 20.7655 8.27462 20.7069 8.31857 20.658C8.41133 20.5653 8.56757 20.5653 8.66033 20.658C8.70915 20.7069 8.72868 20.7655 8.72868 20.8289C8.72868 20.8924 8.70427 20.951 8.66033 20.9998C8.61151 21.0486 8.55292 21.073 8.48945 21.073C8.42598 21.0682 8.36251 21.0437 8.31857 20.9998ZM8.99721 20.3163C8.94839 20.2675 8.92886 20.2089 8.92886 20.1454C8.92886 20.0819 8.95327 20.0233 8.99721 19.9745C9.08998 19.8817 9.24621 19.8817 9.33898 19.9745C9.3878 20.0233 9.41221 20.0819 9.41221 20.1454C9.41221 20.2089 9.3878 20.2675 9.33898 20.3163C9.29015 20.3651 9.23157 20.3895 9.1681 20.3895C9.10951 20.3895 9.04604 20.3651 8.99721 20.3163ZM9.68074 19.6376C9.63192 19.5888 9.60751 19.5302 9.60751 19.4667C9.60751 19.4033 9.63192 19.3447 9.68074 19.2959C9.77351 19.2031 9.92486 19.2031 10.0225 19.2959C10.0713 19.3447 10.0909 19.4033 10.0909 19.4667C10.0909 19.5302 10.0664 19.5888 10.0225 19.6376C9.97368 19.6864 9.91509 19.706 9.85162 19.706C9.78815 19.706 9.72957 19.6816 9.68074 19.6376ZM10.3643 18.9541C10.3154 18.9053 10.2959 18.8467 10.2959 18.7832C10.2959 18.7197 10.3203 18.6612 10.3643 18.6123C10.457 18.5196 10.6133 18.5196 10.706 18.6123C10.7549 18.6612 10.7744 18.7197 10.7744 18.7832C10.7744 18.8467 10.75 18.9053 10.706 18.9541C10.6572 19.0029 10.5986 19.0273 10.5352 19.0273C10.4717 19.0224 10.4082 18.998 10.3643 18.9541ZM11.0429 18.2706C10.9941 18.2217 10.9697 18.1632 10.9697 18.0997C10.9697 18.0362 10.9941 17.9776 11.0429 17.9288C11.1357 17.836 11.2919 17.836 11.3847 17.9288C11.4335 17.9776 11.453 18.0362 11.453 18.0997C11.453 18.1632 11.4286 18.2217 11.3847 18.2706C11.3359 18.3194 11.2773 18.3438 11.2138 18.3438C11.1552 18.3389 11.0917 18.3194 11.0429 18.2706ZM11.7264 17.587C11.6776 17.5382 11.6581 17.4796 11.6581 17.4161C11.6581 17.3527 11.6825 17.2941 11.7264 17.2453C11.8192 17.1525 11.9754 17.1525 12.0682 17.2453C12.117 17.2941 12.1414 17.3527 12.1414 17.4161C12.1414 17.4796 12.117 17.5382 12.0682 17.587C12.0194 17.6359 11.9608 17.6603 11.8973 17.6603C11.8339 17.6603 11.7753 17.6359 11.7264 17.587ZM12.41 16.9084C12.3612 16.8596 12.3416 16.801 12.3416 16.7375C12.3416 16.674 12.366 16.6154 12.41 16.5666C12.5027 16.4739 12.659 16.4739 12.7517 16.5666C12.8006 16.6154 12.825 16.674 12.825 16.7375C12.825 16.801 12.8006 16.8596 12.7517 16.9084C12.7029 16.9572 12.6443 16.9816 12.5809 16.9816C12.5174 16.9767 12.4588 16.9523 12.41 16.9084ZM13.0935 16.2249C13.0447 16.176 13.0203 16.1174 13.0203 16.054C13.0203 15.9905 13.0447 15.9319 13.0935 15.8831C13.1863 15.7903 13.3376 15.7903 13.4353 15.8831C13.4841 15.9319 13.5085 15.9905 13.5085 16.054C13.5085 16.1174 13.4841 16.176 13.4353 16.2249C13.3864 16.2737 13.3279 16.2932 13.2644 16.2932C13.2009 16.2932 13.1374 16.2688 13.0935 16.2249ZM13.7721 15.5413C13.7233 15.4925 13.6989 15.4339 13.6989 15.3704C13.6989 15.307 13.7233 15.2484 13.7721 15.1996C13.8649 15.1068 14.0163 15.1068 14.1139 15.1996C14.1627 15.2484 14.1823 15.307 14.1823 15.3704C14.1823 15.4339 14.1579 15.4925 14.1139 15.5413C14.0651 15.5901 14.0065 15.6097 13.943 15.6097C13.8844 15.6146 13.821 15.5901 13.7721 15.5413ZM14.4557 14.8578C14.4069 14.809 14.3873 14.7504 14.3873 14.6869C14.3873 14.6234 14.4117 14.5648 14.4557 14.516C14.5484 14.4233 14.7047 14.4233 14.7974 14.516C14.8463 14.5648 14.8658 14.6234 14.8658 14.6869C14.8658 14.7504 14.8414 14.809 14.7974 14.8578C14.7486 14.9066 14.69 14.931 14.6266 14.931C14.5631 14.931 14.5045 14.9066 14.4557 14.8578ZM15.1392 14.1791C15.0904 14.1303 15.0709 14.0717 15.0709 14.0083C15.0709 13.9448 15.0953 13.8862 15.1392 13.8374C15.232 13.7446 15.3882 13.7446 15.481 13.8374C15.5298 13.8862 15.5493 13.9448 15.5493 14.0083C15.5493 14.0717 15.5249 14.1303 15.481 14.1791C15.4321 14.228 15.3736 14.2524 15.3101 14.2524C15.2466 14.2475 15.188 14.2231 15.1392 14.1791ZM15.8227 13.4956C15.7739 13.4468 15.7544 13.3882 15.7544 13.3247C15.7544 13.2613 15.7788 13.2027 15.8227 13.1538C15.9155 13.0611 16.0717 13.0611 16.1645 13.1538C16.2133 13.2027 16.2377 13.2613 16.2377 13.3247C16.2377 13.3882 16.2133 13.4468 16.1645 13.4956C16.1157 13.5444 16.0571 13.564 15.9936 13.564C15.9301 13.564 15.8667 13.5444 15.8227 13.4956ZM16.5014 12.8121C16.4526 12.7633 16.4281 12.7047 16.4281 12.6412C16.4281 12.5777 16.4526 12.5191 16.5014 12.4703C16.5941 12.3775 16.7455 12.3775 16.8431 12.4703C16.892 12.5191 16.9115 12.5777 16.9115 12.6412C16.9115 12.7047 16.8871 12.7633 16.8431 12.8121C16.7943 12.8609 16.7357 12.8804 16.6723 12.8804C16.6088 12.8853 16.5502 12.8609 16.5014 12.8121ZM17.1849 12.1334C17.1361 12.0846 17.1166 12.026 17.1166 11.9625C17.1166 11.8991 17.141 11.8405 17.1849 11.7917C17.2777 11.6989 17.4339 11.6989 17.5267 11.7917C17.5755 11.8405 17.5999 11.8991 17.5999 11.9625C17.5999 12.026 17.5755 12.0846 17.5267 12.1334C17.4779 12.1823 17.4193 12.2018 17.3558 12.2018C17.2923 12.2018 17.2337 12.1774 17.1849 12.1334ZM17.8684 11.4499C17.8196 11.4011 17.7952 11.3425 17.7952 11.279C17.7952 11.2155 17.8196 11.157 17.8684 11.1081C17.9612 11.0154 18.1174 11.0154 18.2102 11.1081C18.259 11.157 18.2834 11.2155 18.2834 11.279C18.2834 11.3425 18.259 11.4011 18.2102 11.4499C18.1614 11.4987 18.1028 11.5231 18.0393 11.5231C17.9759 11.5183 17.9124 11.4938 17.8684 11.4499ZM18.5471 10.7664C18.4983 10.7175 18.4738 10.659 18.4738 10.5955C18.4738 10.532 18.4983 10.4734 18.5471 10.4246C18.6398 10.3318 18.7961 10.3318 18.8888 10.4246C18.9377 10.4734 18.9572 10.532 18.9572 10.5955C18.9572 10.659 18.9328 10.7175 18.8888 10.7664C18.84 10.8152 18.7814 10.8396 18.718 10.8396C18.6594 10.8396 18.5959 10.8152 18.5471 10.7664ZM19.2306 10.0828C19.1818 10.034 19.1623 9.97542 19.1623 9.91195C19.1623 9.84848 19.1867 9.78989 19.2306 9.74107C19.3234 9.64831 19.4796 9.64831 19.5724 9.74107C19.6212 9.78989 19.6456 9.84848 19.6456 9.91195C19.6456 9.97542 19.6212 10.034 19.5724 10.0828C19.5236 10.1317 19.465 10.1561 19.4015 10.1561C19.338 10.1561 19.2794 10.1317 19.2306 10.0828ZM19.9141 9.40419C19.8653 9.35536 19.8409 9.29678 19.8409 9.2333C19.8409 9.16983 19.8653 9.11125 19.9141 9.06242C20.0069 8.96966 20.1583 8.96966 20.2559 9.06242C20.3047 9.11125 20.3291 9.16983 20.3291 9.2333C20.3291 9.29678 20.3047 9.35536 20.2559 9.40419C20.2071 9.45301 20.1485 9.47254 20.085 9.47254C20.0216 9.47254 19.9581 9.44813 19.9141 9.40419ZM20.5977 8.72066C20.5488 8.67183 20.5244 8.61324 20.5244 8.54977C20.5244 8.4863 20.5488 8.42771 20.5977 8.37889C20.6904 8.28613 20.8418 8.28613 20.9394 8.37889C20.9883 8.42771 21.0078 8.4863 21.0078 8.54977C21.0078 8.61324 20.9834 8.67183 20.9394 8.72066C20.8906 8.76948 20.832 8.78901 20.7686 8.78901C20.7051 8.78901 20.6416 8.76948 20.5977 8.72066ZM21.2763 8.03713C21.2275 7.9883 21.208 7.92971 21.208 7.86624C21.208 7.80277 21.2324 7.74418 21.2763 7.69536C21.3691 7.60259 21.5253 7.60259 21.6181 7.69536C21.6669 7.74418 21.6913 7.80277 21.6913 7.86624C21.6913 7.92971 21.6669 7.9883 21.6181 8.03713C21.5693 8.08595 21.5107 8.11036 21.4472 8.11036C21.3886 8.11036 21.3251 8.08595 21.2763 8.03713ZM21.9598 7.35359C21.911 7.30477 21.8866 7.24618 21.8866 7.18271C21.8866 7.11924 21.911 7.06065 21.9598 7.01183C22.0526 6.91906 22.2088 6.91906 22.3016 7.01183C22.3504 7.06065 22.37 7.11924 22.37 7.18271C22.37 7.24618 22.3456 7.30477 22.3016 7.35359C22.2528 7.40242 22.1942 7.42195 22.1307 7.42195C22.0673 7.42683 22.0087 7.40242 21.9598 7.35359ZM22.6434 6.67494C22.5946 6.62612 22.575 6.56753 22.575 6.50406C22.575 6.44059 22.5994 6.382 22.6434 6.33318C22.7361 6.24041 22.8924 6.24041 22.9851 6.33318C23.034 6.382 23.0535 6.44059 23.0535 6.50406C23.0535 6.56753 23.0291 6.62612 22.9851 6.67494C22.9363 6.72377 22.8777 6.74818 22.8143 6.74818C22.7508 6.7433 22.6873 6.71888 22.6434 6.67494ZM23.322 5.99141C23.2732 5.94259 23.2537 5.884 23.2537 5.82053C23.2537 5.75706 23.2781 5.69847 23.322 5.64965C23.4148 5.55688 23.571 5.55688 23.6638 5.64965C23.7126 5.69847 23.737 5.75706 23.737 5.82053C23.737 5.884 23.7126 5.94259 23.6638 5.99141C23.615 6.04024 23.5564 6.05977 23.4929 6.05977C23.4343 6.06465 23.3708 6.04024 23.322 5.99141ZM24.0056 5.30788C23.9567 5.25906 23.9323 5.20047 23.9323 5.137C23.9323 5.07353 23.9567 5.01494 24.0056 4.96612C24.0983 4.87335 24.2497 4.87335 24.3473 4.96612C24.3961 5.01494 24.4205 5.07353 24.4205 5.137C24.4205 5.20047 24.3961 5.25906 24.3473 5.30788C24.2985 5.3567 24.2399 5.38112 24.1764 5.38112C24.113 5.38112 24.0544 5.3567 24.0056 5.30788ZM24.6891 4.62923C24.6403 4.58041 24.6158 4.52182 24.6158 4.45835C24.6158 4.39488 24.6403 4.33629 24.6891 4.28747C24.7818 4.1947 24.9381 4.1947 25.0308 4.28747C25.0797 4.33629 25.1041 4.39488 25.1041 4.45835C25.1041 4.52182 25.0797 4.58041 25.0308 4.62923C24.982 4.67806 24.9234 4.69758 24.86 4.69758C24.7965 4.69758 24.733 4.67317 24.6891 4.62923ZM25.3726 3.9457C25.3238 3.89688 25.2994 3.83829 25.2994 3.77482C25.2994 3.71135 25.3238 3.65276 25.3726 3.60394C25.4654 3.51117 25.6216 3.51117 25.7144 3.60394C25.7632 3.65276 25.7827 3.71135 25.7827 3.77482C25.7827 3.83829 25.7583 3.89688 25.7144 3.9457C25.6655 3.99452 25.607 4.01405 25.5435 4.01405C25.48 4.01405 25.4165 3.99452 25.3726 3.9457ZM26.0513 3.26217C25.9585 3.1694 25.9585 3.01317 26.0513 2.9204C26.144 2.82764 26.3003 2.82764 26.393 2.9204C26.4858 3.01317 26.4858 3.16452 26.393 3.26217C26.3442 3.31099 26.2856 3.33052 26.2221 3.33052C26.1635 3.3354 26.1001 3.31099 26.0513 3.26217Z" fill="#0D0235"/>
<path d="M26.2359 28.5333C27.4789 28.5333 28.4866 27.5256 28.4866 26.2825C28.4866 25.0394 27.4789 24.0317 26.2359 24.0317C24.9928 24.0317 23.9851 25.0394 23.9851 26.2825C23.9851 27.5256 24.9928 28.5333 26.2359 28.5333Z" fill="#0D0235"/>
<path d="M3.04448 28.5379C4.28755 28.5379 5.29526 27.5302 5.29526 26.2871C5.29526 25.0441 4.28755 24.0364 3.04448 24.0364C1.80141 24.0364 0.793701 25.0441 0.793701 26.2871C0.793701 27.5302 1.80141 28.5379 3.04448 28.5379Z" fill="#0D0235"/>
<path d="M26.2559 5.32209C27.499 5.32209 28.5067 4.31439 28.5067 3.07132C28.5067 1.82826 27.499 0.820557 26.2559 0.820557C25.0128 0.820557 24.0051 1.82826 24.0051 3.07132C24.0051 4.31439 25.0128 5.32209 26.2559 5.32209Z" fill="#0D0235"/>
<path d="M2.98588 5.28326C4.22894 5.28326 5.23665 4.27556 5.23665 3.0325C5.23665 1.78944 4.22894 0.781738 2.98588 0.781738C1.74281 0.781738 0.735107 1.78944 0.735107 3.0325C0.735107 4.27556 1.74281 5.28326 2.98588 5.28326Z" fill="#0D0235"/>
</svg>
