<svg width="24" height="24" viewBox="0 0 24 24" fill="none" xmlns="http://www.w3.org/2000/svg">
<path d="M7.92897 5.30957C9.18428 4.49281 10.5724 4.0784 12.0932 4.0784C13.598 4.07437 14.9861 4.48879 16.2615 5.32164L18.933 2.65007C16.857 1.05679 14.5757 0.256123 12.0932 0.260147C9.59869 0.26417 7.32143 1.05679 5.25742 2.64605L7.92897 5.30957Z" fill="#0D0235"/>
<path d="M5.29751 16.2853C4.44856 14.9978 4.0261 13.6057 4.03013 12.113C4.03415 10.5962 4.45259 9.20811 5.28946 7.94475L2.62595 5.27722C1.06083 7.3171 0.276256 9.59436 0.272232 12.113C0.268209 14.6075 1.0568 16.8848 2.63399 18.9528L5.29751 16.2853Z" fill="#0D0235"/>
<path d="M16.2852 18.9368C15.0179 19.7897 13.6298 20.2243 12.121 20.2363C10.5881 20.2484 9.18388 19.8139 7.90846 18.9448L5.25299 21.6003C7.31701 23.2056 9.61037 23.9982 12.1371 23.9781C14.6356 23.958 16.9049 23.1654 18.9447 21.5963L16.2852 18.9368Z" fill="#0D0235"/>
<path d="M18.913 7.94084C19.77 9.23236 20.1884 10.6486 20.1723 12.1896C20.1562 13.6742 19.7338 15.0422 18.909 16.2935L21.5765 18.961C23.1456 16.9171 23.9423 14.6479 23.9624 12.1574C23.9825 9.63068 23.1899 7.33733 21.5845 5.27332L18.913 7.94084Z" fill="#0D0235"/>
</svg>
