<svg width="17" height="26" viewBox="0 0 17 26" fill="none" xmlns="http://www.w3.org/2000/svg">
<g clip-path="url(#clip0)">
<path d="M11.0037 7.92786C11.0037 4.23029 9.2145 1.04469 7.84405 0.00178141C7.84405 0.00178141 7.74888 -0.0551043 7.74888 0.096591C7.63467 7.24523 3.99916 9.19831 1.98155 11.7961C-2.64373 17.826 1.65797 24.4247 6.03581 25.6383C8.49121 26.3209 5.46479 24.4247 5.08411 20.4427C4.62729 15.6074 11.0037 11.9288 11.0037 7.92786Z" fill="#282E5B"/>
<path d="M13.3995 10.3721C13.3805 10.3532 13.3424 10.3532 13.3044 10.3721C13.3044 10.3721 13.3044 10.3721 13.2853 10.3911C13.2092 11.2823 12.2194 13.2164 10.9822 14.9799C6.77566 20.9718 9.17395 23.854 10.5254 25.4089C11.3058 26.3191 10.5254 25.4089 12.4859 24.4798C12.6382 24.4039 16.2927 22.4698 16.6924 18.0896C17.0921 13.8232 14.3703 11.1496 13.3995 10.3721Z" fill="#059BDC"/>
</g>
<defs>
<clipPath id="clip0">
<rect width="16.75" height="25.7692" fill="white"/>
</clipPath>
</defs>
</svg>
