<svg width="20" height="20" viewBox="0 0 20 20" fill="none" xmlns="http://www.w3.org/2000/svg">
<mask id="mask0" style="mask-type:alpha" maskUnits="userSpaceOnUse" x="0" y="0" width="20" height="20">
<circle cx="10" cy="10" r="10" fill="#C4C4C4"/>
</mask>
<g mask="url(#mask0)">
<path d="M60.4993 -17H-28V42H60.4993V-17Z" fill="#DF2515"/>
<path d="M5.74973 4.10077L6.4572 6.27641H8.74631L6.89428 7.6213L7.60175 9.79834L5.74973 8.45345L3.8991 9.79834L4.60517 7.6213L2.75455 6.27641H5.04226L5.74973 4.10077Z" fill="#FFE00A"/>
<path d="M13.0626 8.30072L13.3245 9.01799L14.0867 8.98998L13.4857 9.46069L13.7476 10.1766L13.1144 9.75068L12.5134 10.2214L12.7235 9.4873L12.0903 9.06142L12.8524 9.0348L13.0626 8.30072Z" fill="#FFE00A"/>
<path d="M12.6367 5.25787L13.169 5.80423L13.8541 5.46941L13.4969 6.14326L14.0278 6.69102L13.2769 6.56073L12.9197 7.23458L12.8118 6.47948L12.0609 6.34779L12.746 6.01297L12.6367 5.25787Z" fill="#FFE00A"/>
<path d="M10.2075 3.41008L10.9093 3.70847L11.4108 3.13409L11.3436 3.8934L12.0455 4.19179L11.303 4.36271L11.2357 5.12341L10.8435 4.46918L10.0996 4.64009L10.6011 4.06431L10.2075 3.41008Z" fill="#FFE00A"/>
<path d="M11.3702 10.468L11.3352 11.2301L12.0483 11.499L11.3128 11.7008L11.2778 12.4629L10.8589 11.8255L10.1234 12.0272L10.5997 11.4318L10.1794 10.7944L10.8939 11.0634L11.3702 10.468Z" fill="#FFE00A"/>
</g>
</svg>
