<svg width="21" height="21" viewBox="0 0 21 21" fill="none" xmlns="http://www.w3.org/2000/svg">
<path d="M16.828 1.07333L12.4462 7.58333C12.1432 8.02667 12.7259 8.56333 13.1454 8.19L17.4573 4.43333C17.5738 4.34 17.737 4.41 17.737 4.57333V16.31C17.737 16.4733 17.5272 16.5433 17.434 16.4267L4.3818 0.793333C3.96226 0.28 3.35627 0 2.68036 0H2.21421C1.00222 0 0 1.00333 0 2.24V18.76C0 19.9967 1.00222 21 2.23751 21C3.00666 21 3.72919 20.6033 4.14872 19.9267L8.53052 13.4167C8.83352 12.9733 8.25083 12.4367 7.8313 12.81L3.51942 16.5433C3.40289 16.6367 3.23973 16.5667 3.23973 16.4033V4.69C3.23973 4.52667 3.4495 4.45667 3.54273 4.57333L16.5949 20.2067C17.0144 20.72 17.6437 21 18.2963 21H18.7625C19.9978 21 21 19.9967 21 18.76V2.24C20.9767 1.00333 19.9745 0 18.7392 0C17.97 0 17.2475 0.396667 16.828 1.07333Z" fill="black"/>
</svg>
