<svg width="25" height="21" viewBox="0 0 25 21" fill="none" xmlns="http://www.w3.org/2000/svg">
<path d="M20.7141 2.72255L17.81 4.231L3.78669 11.5132C3.73927 11.1445 3.71541 10.773 3.71526 10.4011C3.71718 8.91731 4.09929 7.45975 4.82374 6.17282C5.54819 4.88589 6.58985 3.81425 7.84553 3.06405C9.10121 2.31384 10.5273 1.91111 11.9827 1.89573C13.438 1.88035 14.872 2.25287 16.1427 2.97638L17.8049 2.11292L18.0529 1.98392C16.5302 0.857143 14.7315 0.181534 12.8557 0.031762C10.98 -0.11801 9.10011 0.263889 7.42391 1.13525C5.74771 2.00661 4.34046 3.3335 3.35769 4.96927C2.37491 6.60504 1.85489 8.486 1.85508 10.4042C1.85508 10.6692 1.86494 10.9331 1.88467 11.1959C1.9123 11.5682 1.83133 11.9404 1.65194 12.2658C1.47255 12.5913 1.20276 12.8553 0.876521 13.0248L0 13.4805V15.6058L2.58058 14.2649L3.41629 13.83L4.23975 13.4024L19.0233 5.72282L20.6845 4.8604L24.1181 3.07625V0.951927L20.7141 2.72255Z" fill="black"/>
<path d="M24.1181 5.20203L5.07953 15.0878L3.41833 15.9526L0 17.7289V19.8528L3.39486 18.089L6.29891 16.5801L20.3365 9.28539C20.384 9.65666 20.4078 10.0307 20.4079 10.4051C20.407 11.891 20.025 13.3509 19.2999 14.6398C18.5747 15.9286 17.5316 17.0017 16.2741 17.7523C15.0166 18.503 13.5885 18.9052 12.1315 18.9189C10.6744 18.9327 9.23921 18.5576 7.96828 17.8309L7.86624 17.8861L6.06422 18.8226C7.58657 19.9497 9.38484 20.6257 11.2603 20.7759C13.1358 20.9261 15.0155 20.5446 16.6917 19.6736C18.3679 18.8026 19.7753 17.4759 20.7585 15.8403C21.7417 14.2046 22.2624 12.3236 22.263 10.4051C22.263 10.1377 22.2528 9.87022 22.2334 9.6059C22.2058 9.23369 22.2867 8.86147 22.4659 8.53599C22.6451 8.21051 22.9146 7.94628 23.2406 7.7765L24.1181 7.32071V5.20203Z" fill="black"/>
</svg>
