<svg width="25" height="25" viewBox="0 0 25 25" fill="none" xmlns="http://www.w3.org/2000/svg">
<g clip-path="url(#clip0)">
<path d="M19.6069 1.63104e-06C18.179 -0.0011099 16.809 0.565942 15.7977 1.57668C14.7863 2.58743 14.2162 3.95926 14.2125 5.39107V11.3685C13.6569 11.4061 13.0889 11.4297 12.5 11.4297C11.9111 11.4297 11.3458 11.4534 10.7875 11.4868V5.39107C10.7648 3.97168 10.1865 2.61814 9.17747 1.62243C8.16842 0.626733 6.80945 0.0686884 5.39375 0.0686884C3.97805 0.0686884 2.61908 0.626733 1.61003 1.62243C0.600974 2.61814 0.0227153 3.97168 0 5.39107V19.6772C0.0227153 21.0966 0.600974 22.4501 1.61003 23.4458C2.61908 24.4415 3.97805 24.9996 5.39375 24.9996C6.80945 24.9996 8.16842 24.4415 9.17747 23.4458C10.1865 22.4501 10.7648 21.0966 10.7875 19.6772V13.6998C11.3431 13.6622 11.9111 13.6385 12.5 13.6385C13.0889 13.6385 13.6542 13.6148 14.2125 13.5814V19.6772C14.2352 21.0966 14.8135 22.4501 15.8225 23.4458C16.8316 24.4415 18.1905 24.9996 19.6063 24.9996C21.022 24.9996 22.3809 24.4415 23.39 23.4458C24.399 22.4501 24.9773 21.0966 25 19.6772V5.39107C24.9963 3.95951 24.4264 2.58788 23.4153 1.57718C22.4043 0.566474 21.0346 -0.000740851 19.6069 1.63104e-06ZM5.39306 2.20879C6.23576 2.20842 7.04419 2.54327 7.64099 3.13986C8.23778 3.73645 8.57418 4.54607 8.57639 5.39107V11.7208C6.99831 11.9501 5.45726 12.387 3.99306 13.0202C3.35866 13.2994 2.76146 13.6568 2.21528 14.0842V5.39107C2.21748 4.54703 2.55312 3.73826 3.14871 3.14182C3.7443 2.54539 4.55132 2.20989 5.39306 2.20879ZM8.57639 19.6772C8.57639 20.5238 8.241 21.3357 7.64401 21.9343C7.04702 22.5329 6.23733 22.8692 5.39306 22.8692C4.54878 22.8692 3.73909 22.5329 3.1421 21.9343C2.54511 21.3357 2.20972 20.5238 2.20972 19.6772V18.2441C2.20972 16.9782 3.20972 15.7791 4.88611 15.0326C6.06733 14.5216 7.30672 14.1582 8.57639 13.9505V19.6772ZM19.6069 22.8595C18.7642 22.8598 17.9558 22.525 17.359 21.9284C16.7622 21.3318 16.4258 20.5222 16.4236 19.6772V13.3474C18.0017 13.1182 19.5427 12.6813 21.0069 12.0481C21.6413 11.7689 22.2385 11.4115 22.7847 10.9841V19.6772C22.7825 20.5212 22.4469 21.33 21.8513 21.9264C21.2557 22.5229 20.4487 22.8584 19.6069 22.8595ZM20.1139 10.0273C18.9327 10.5383 17.6933 10.9017 16.4236 11.1094V5.39107C16.4236 4.54449 16.759 3.73259 17.356 3.13397C17.953 2.53535 18.7627 2.19904 19.6069 2.19904C20.4512 2.19904 21.2609 2.53535 21.8579 3.13397C22.4549 3.73259 22.7903 4.54449 22.7903 5.39107V6.82413C22.7903 8.08451 21.7903 9.28361 20.1139 10.0273Z" fill="url(#paint0_linear)"/>
</g>
<defs>
<linearGradient id="paint0_linear" x1="1.58333" y1="23.137" x2="23.3333" y2="1.38702" gradientUnits="userSpaceOnUse">
<stop stop-color="#00AEE9"/>
<stop offset="1" stop-color="#69FABD"/>
</linearGradient>
<clipPath id="clip0">
<rect width="25" height="25" fill="white"/>
</clipPath>
</defs>
</svg>
