<svg width="299" height="219" viewBox="0 0 299 219" fill="none" xmlns="http://www.w3.org/2000/svg">
<rect x="107.268" y="140.209" width="77.7062" height="77.7062" fill="#252A3B"/>
<rect x="1" y="142.054" width="75.7062" height="75.7062" stroke="#252A3B" stroke-width="2"/>
<rect x="223.983" y="141.209" width="74.017" height="75.7062" stroke="#252A3B" stroke-width="2"/>
<circle cx="146.966" cy="179.907" r="16.048" fill="white"/>
<path d="M40.5424 164.703L56.6348 192.576H24.45L40.5424 164.703Z" fill="#252A3B"/>
<path d="M73.0608 177.795L102.623 24.9166H191.309L225.517 177.795H73.0608Z" fill="url(#paint0_linear)"/>
<rect x="247.477" y="163.859" width="27.8729" height="30.4068" fill="#252A3B"/>
<path d="M103.731 24.9672C103.606 24.7907 103.498 24.6351 103.406 24.5024C103.501 24.3683 103.614 24.2107 103.745 24.0316C104.221 23.3785 104.938 22.4399 105.888 21.3111C107.789 19.0523 110.621 16.0377 114.335 13.0237C121.767 6.99357 132.685 1 146.736 1C161.287 1 172.203 6.9983 179.501 13.0185C183.15 16.0293 185.887 19.0402 187.71 21.2956C188.62 22.4228 189.302 23.3597 189.753 24.0113C189.873 24.1853 189.978 24.3389 190.065 24.4703C189.967 24.6058 189.85 24.7655 189.714 24.9474C189.224 25.6012 188.49 26.5405 187.52 27.6702C185.579 29.9306 182.7 32.947 178.953 35.9625C171.455 41.9975 160.537 47.9887 146.736 47.9887C132.434 47.9887 121.517 41.9928 114.153 35.9676C110.471 32.9552 107.687 29.9424 105.825 27.6852C104.894 26.5572 104.196 25.6195 103.731 24.9672Z" fill="white" stroke="#252A3B" stroke-width="2"/>
<path fill-rule="evenodd" clip-rule="evenodd" d="M137.272 21.1541C141.268 21.1541 144.509 17.914 144.509 13.9172C144.509 11.7425 143.549 9.79185 142.031 8.46524C143.523 8.02808 145.102 7.79358 146.735 7.79358C155.959 7.79358 163.436 15.2707 163.436 24.4943C163.436 33.7178 155.959 41.195 146.735 41.195C137.512 41.195 130.034 33.7178 130.034 24.4943C130.034 22.2077 130.494 20.0284 131.326 18.0438C132.633 19.9236 134.809 21.1541 137.272 21.1541Z" fill="#252A3B"/>
<defs>
<linearGradient id="paint0_linear" x1="149.289" y1="-24.4944" x2="154.146" y2="142.743" gradientUnits="userSpaceOnUse">
<stop stop-color="#252A3B"/>
<stop offset="0.309983" stop-color="#175CD8" stop-opacity="0.144903"/>
<stop offset="1" stop-color="#1764D8" stop-opacity="0"/>
</linearGradient>
</defs>
</svg>
