<svg width="37" height="18" viewBox="0 0 37 18" fill="none" xmlns="http://www.w3.org/2000/svg">
<g clip-path="url(#clip0)">
<path d="M28.0078 0C25.9454 0 23.687 1.09121 21.3049 3.2436C20.1809 4.25473 19.1909 5.35595 18.4691 6.22692C18.4691 6.22692 19.624 7.51835 20.8924 8.9099C21.5833 8.06896 22.563 6.9277 23.7076 5.89655C25.8216 3.97442 27.2035 3.58398 27.9975 3.58398C30.9674 3.58398 33.3804 6.00667 33.3804 9C33.3804 11.9633 30.9674 14.386 27.9975 14.416C27.8531 14.416 27.6881 14.396 27.4819 14.356C28.3481 14.7464 29.2865 15.0267 30.1631 15.0267C35.6079 15.0267 36.6803 11.3726 36.7422 11.1123C36.8969 10.4416 36.9897 9.74082 36.9897 9.02002C36.9794 4.04449 32.9576 0 28.0078 0Z" fill="url(#paint0_linear)"/>
<path d="M8.98189 18C11.0443 18 13.3027 16.9088 15.6848 14.7564C16.8088 13.7453 17.7988 12.644 18.5206 11.7731C18.5206 11.7731 17.3657 10.4816 16.0973 9.09008C15.4064 9.93102 14.4267 11.0723 13.2821 12.1034C11.1681 14.0055 9.77592 14.416 8.9922 14.416C6.0223 14.416 3.60925 11.9933 3.60925 8.99998C3.60925 6.03669 6.0223 3.614 8.9922 3.58397C9.13657 3.58397 9.30156 3.60399 9.50781 3.64403C8.64159 3.2536 7.70318 2.97329 6.82665 2.97329C1.38183 2.96328 0.309365 6.61734 0.247492 6.88764C0.0928094 7.55838 0 8.25916 0 8.97996C0 13.9555 4.02174 18 8.98189 18Z" fill="url(#paint1_linear)"/>
<path fill-rule="evenodd" clip-rule="evenodd" d="M13.1274 5.97664C12.5293 5.41602 9.62124 3.12347 6.83696 3.04338C1.8665 2.92325 0.412485 6.42714 0.278427 6.87764C1.23746 2.95328 4.78484 0.0200222 8.9922 0C12.4261 0 15.9013 3.27364 18.4691 6.22692L18.4794 6.21691C18.4794 6.21691 19.6343 7.50834 20.9027 8.89989C20.9027 8.89989 22.3464 10.5517 23.8726 12.0033C24.4707 12.564 27.3685 14.8265 30.1527 14.9066C35.2572 15.0467 36.67 11.3426 36.7422 11.0623C35.8038 15.0167 32.2461 17.96 28.0181 17.98C24.5842 17.98 21.109 14.7063 18.5309 11.7531C18.5309 11.7631 18.5206 11.7631 18.5206 11.7731C18.5206 11.7731 17.3657 10.4816 16.0973 9.0901C16.1076 9.0901 14.6639 7.42825 13.1274 5.97664ZM0.278427 6.91769C0.278427 6.90767 0.278427 6.89766 0.288739 6.88765C0.278427 6.89766 0.278427 6.90767 0.278427 6.91769Z" fill="#29ABE2"/>
</g>
<defs>
<linearGradient id="paint0_linear" x1="23.1802" y1="1.42622" x2="35.5136" y2="14.235" gradientUnits="userSpaceOnUse">
<stop offset="0.21" stop-color="#F15A24"/>
<stop offset="0.6841" stop-color="#FBB03B"/>
</linearGradient>
<linearGradient id="paint1_linear" x1="13.8127" y1="16.5758" x2="1.47934" y2="3.76699" gradientUnits="userSpaceOnUse">
<stop offset="0.21" stop-color="#ED1E79"/>
<stop offset="0.8929" stop-color="#522785"/>
</linearGradient>
<clipPath id="clip0">
<rect width="37" height="18" fill="white"/>
</clipPath>
</defs>
</svg>
