<svg width="28" height="23" viewBox="0 0 28 23" fill="none" xmlns="http://www.w3.org/2000/svg">
<path d="M20.4553 7.02642C19.9551 6.73475 19.305 6.73475 18.755 7.02642L14.8539 9.26317L12.2032 10.7221L8.30214 12.9588C7.80206 13.2505 7.15183 13.2505 6.6018 12.9588L3.50092 11.2083C3.00078 10.9164 2.65069 10.3817 2.65069 9.79806V6.34562C2.65069 5.76214 2.95077 5.22724 3.50092 4.93557L6.5517 3.23357C7.05179 2.9419 7.70201 2.9419 8.25219 3.23357L11.3029 4.93557C11.803 5.22724 12.1531 5.76214 12.1531 6.34562V8.58251L14.8038 7.07501V4.83825C14.8038 4.25477 14.5038 3.71988 13.9536 3.42807L8.30214 0.218816C7.80206 -0.0729388 7.15183 -0.0729388 6.6018 0.218816L0.850231 3.42807C0.30008 3.71988 0 4.25477 0 4.83825V11.3056C0 11.8891 0.30008 12.4239 0.850231 12.7158L6.6018 15.925C7.10188 16.2168 7.75196 16.2168 8.30214 15.925L12.2032 13.7368L14.8539 12.2295L18.755 10.0413C19.2551 9.74948 19.9051 9.74948 20.4553 10.0413L23.5061 11.7431C24.0062 12.035 24.3564 12.5699 24.3564 13.1533V16.6056C24.3564 17.1893 24.0563 17.7242 23.5061 18.0158L20.4553 19.7664C19.9551 20.0582 19.305 20.0582 18.755 19.7664L15.7041 18.0646C15.204 17.7727 14.8539 17.2378 14.8539 16.6544V14.4176L12.2032 15.925V18.1617C12.2032 18.7452 12.5033 19.2801 13.0534 19.5719L18.8049 22.7811C19.305 23.073 19.9551 23.073 20.5053 22.7811L26.257 19.5719C26.7571 19.2801 27.1071 18.7452 27.1071 18.1617V11.6946C27.1071 11.1109 26.807 10.5762 26.257 10.2844L20.4553 7.02642Z" fill="#8247E5"/>
</svg>
