<svg width="28" height="28" viewBox="0 0 28 28" fill="none" xmlns="http://www.w3.org/2000/svg">
<circle cx="14" cy="14" r="14" fill="#F3BA2F"/>
<g clip-path="url(#clip0)">
<path d="M10.6032 12.6034L14.002 9.20597L17.4022 12.6062L19.3787 10.6283L14.002 5.25012L8.62524 10.6269L10.6032 12.6034Z" fill="white"/>
<path d="M5.24997 14.0006L7.22651 12.0227L9.20444 14.0006L7.22651 15.9772L5.24997 14.0006Z" fill="white"/>
<path d="M10.6032 15.3969L14.002 18.7957L17.4022 15.3955L19.3801 17.3707L14.0034 22.7488L8.62524 17.3748L10.6032 15.3969Z" fill="white"/>
<path d="M18.7956 14.0006L20.7722 12.0227L22.7501 13.9992L20.7722 15.9786L18.7956 14.0006Z" fill="white"/>
<path d="M16.0079 13.9994L14.0023 11.9924L12.5192 13.4755L12.3478 13.6455L11.9967 13.9966L14.0023 16.0008L16.0079 14.0008V13.9994Z" fill="white"/>
</g>
<defs>
<clipPath id="clip0">
<rect width="17.5" height="17.5" fill="white" transform="translate(5.24997 5.25012)"/>
</clipPath>
</defs>
</svg>
