<svg width="21" height="27" viewBox="0 0 21 27" fill="none" xmlns="http://www.w3.org/2000/svg">
<path d="M9.34584 0.2544C9.70205 0.086868 10.0909 0 10.4846 0C10.8783 0 11.2671 0.086868 11.6233 0.2544L18.2227 3.72531C18.3892 3.79972 18.5347 3.91384 18.6467 4.05765C18.7586 4.20146 18.8334 4.37054 18.8646 4.55003H18.8714V21.9714C18.8551 22.1668 18.7862 22.3542 18.6719 22.5136C18.5576 22.673 18.4023 22.7985 18.2224 22.8768L11.6233 26.3451C11.2671 26.5127 10.8783 26.5995 10.4846 26.5995C10.0909 26.5995 9.70205 26.5127 9.34584 26.3451L2.7464 22.8742C2.56848 22.7949 2.41548 22.6687 2.30375 22.5093C2.19202 22.3498 2.12578 22.1629 2.11209 21.9687C2.11209 21.9389 2.11209 21.9137 2.11209 21.8933V4.54475C2.13967 4.36542 2.21232 4.196 2.32326 4.05236C2.43419 3.90872 2.57978 3.79555 2.7464 3.72343L9.34584 0.2544ZM17.832 14.2675L11.6233 17.526C11.2672 17.6938 10.8783 17.7809 10.4846 17.7809C10.0908 17.7809 9.70196 17.6938 9.34584 17.526L3.15039 14.2746V21.9371L9.34584 25.1744C9.65368 25.3602 9.99206 25.49 10.3453 25.5578L10.4868 25.5664C10.8743 25.5284 11.2484 25.4044 11.5818 25.2035L17.8361 21.9076V14.2675H17.832ZM1.03906 21.5926C1.00835 22.0761 1.08801 22.5603 1.27201 23.0085C1.42939 23.2952 1.66166 23.5338 1.94408 23.6989L1.96409 23.7121C2.04187 23.7638 2.1272 23.8185 2.23027 23.8823L2.3526 23.9577L2.72714 24.1841L2.18987 25.0658L1.77078 24.813L1.69904 24.77C1.57708 24.6945 1.47665 24.6315 1.38302 24.5704C0.38134 23.8966 0.00717372 23.1643 0 21.639V21.5926H1.0383H1.03906ZM9.96354 9.59531C9.91791 9.61122 9.87338 9.63012 9.83026 9.6519L3.23233 13.1202L3.21231 13.1315H3.20665L3.21722 13.1383L3.2327 13.1462L9.83177 16.613C9.87473 16.6351 9.91928 16.654 9.96505 16.6696L9.96354 9.59531ZM11.0052 9.59531V16.6722C11.051 16.6567 11.0956 16.6378 11.1385 16.6156L17.738 13.1489L17.758 13.1375H17.764L17.7534 13.1322L17.738 13.1236L11.1381 9.65794C11.0952 9.6358 11.0506 9.61689 11.0049 9.60135L11.0052 9.59531ZM17.832 5.78485L11.9087 8.89471L17.832 12.0042V5.78183V5.78485ZM3.15039 5.79202V11.997L9.05625 8.89471L3.15039 5.79202ZM11.1381 1.16929C10.9317 1.08043 10.7093 1.0346 10.4846 1.0346C10.2598 1.0346 10.0374 1.08043 9.83101 1.16929L3.23195 4.63454L3.21194 4.64511L3.2059 4.6485L3.21647 4.65454L3.23195 4.66171L9.83139 8.12847C10.0376 8.21794 10.2601 8.26411 10.485 8.26411C10.7098 8.26411 10.9323 8.21794 11.1385 8.12847L17.738 4.66171L17.758 4.65454L17.764 4.65114L17.7534 4.64511L17.738 4.63718L11.1381 1.16929ZM18.8065 1.55184L19.2256 1.80386L19.3011 1.84159C19.4223 1.91704 19.5227 1.98043 19.6167 2.04117C20.6195 2.71271 20.9929 3.44651 21.0009 4.97107V5.01748H19.9584C19.9891 4.53385 19.9094 4.04958 19.7255 3.60119C19.5679 3.31461 19.3353 3.07622 19.0526 2.91154L19.0326 2.89833C18.9571 2.84589 18.8703 2.79194 18.7664 2.72818L18.6445 2.65839L18.2699 2.43202L18.8076 1.55033L18.8065 1.55184Z" fill="#1F6AF8"/>
</svg>
