<svg width="35" height="35" viewBox="0 0 35 35" fill="none" xmlns="http://www.w3.org/2000/svg">
<g clip-path="url(#clip0)">
<path fill-rule="evenodd" clip-rule="evenodd" d="M32.0523 27.2223C33.9752 24.3447 35.0017 20.9615 35.0019 17.5005C35.002 15.2023 34.5495 12.9265 33.67 10.8032C32.7906 8.67988 31.5015 6.75058 29.8764 5.12549C28.2513 3.50039 26.322 2.21132 24.1987 1.33188C22.0754 0.452445 19.7996 -0.000130208 17.5014 2.81003e-08C14.0404 0.000196325 10.6572 1.02667 7.77959 2.94961C4.90196 4.87256 2.65916 7.60562 1.33479 10.8032C0.0104145 14.0008 -0.33605 17.5193 0.339203 20.9137C1.01446 24.3082 2.6811 27.4262 5.12839 29.8735C7.57568 32.3208 10.6937 33.9875 14.0882 34.6627C17.4827 35.338 21.0011 34.9915 24.1987 33.6671C27.3963 32.3428 30.1293 30.1 32.0523 27.2223ZM28.739 16.0937C29.0154 16.5107 29.163 16.9998 29.1635 17.5001C29.1631 17.9938 29.0195 18.4767 28.7502 18.8904C28.4807 19.3043 28.097 19.631 27.6455 19.8311C27.6848 20.0849 27.7047 20.3413 27.705 20.598C27.705 24.524 23.1342 27.7078 17.4968 27.7078C11.8594 27.7078 7.28862 24.524 7.28862 20.598C7.28926 20.3395 7.30982 20.0815 7.35013 19.8261C7.01026 19.6744 6.70771 19.4502 6.4637 19.1691C6.2197 18.888 6.04016 18.557 5.93769 18.1992C5.83522 17.8414 5.81229 17.4654 5.87052 17.0978C5.92874 16.7302 6.06672 16.3798 6.27475 16.0712C6.48278 15.7625 6.75584 15.5032 7.07475 15.3112C7.39367 15.1193 7.75072 14.9996 8.12084 14.9603C8.49097 14.921 8.8652 14.9632 9.21728 15.084C9.56936 15.2047 9.89075 15.401 10.1589 15.6591C11.9249 14.3902 14.3676 13.5726 17.0841 13.4972L18.3818 7.39454C18.3944 7.33589 18.4184 7.28029 18.4524 7.23093C18.4865 7.18156 18.5299 7.13938 18.5803 7.10681C18.6302 7.07395 18.6862 7.0514 18.745 7.04049C18.8038 7.02959 18.8641 7.03055 18.9225 7.04331L23.164 7.94418C23.3606 7.54572 23.6959 7.23265 24.1068 7.06368C24.5178 6.89471 24.9763 6.88143 25.3964 7.02634C25.8164 7.17125 26.1692 7.46439 26.3886 7.85082C26.608 8.23724 26.6789 8.69041 26.588 9.12537C26.4971 9.56034 26.2508 9.94723 25.895 10.2135C25.5393 10.4798 25.0987 10.6072 24.6557 10.5719C24.2128 10.5365 23.798 10.3408 23.489 10.0214C23.18 9.70207 22.9981 9.28099 22.9775 8.83712L19.1795 8.02951L18.0167 13.5032C20.6935 13.5965 23.0965 14.41 24.8417 15.669C25.2015 15.3213 25.6558 15.0871 26.1478 14.9956C26.6398 14.9042 27.1478 14.9596 27.6086 15.1548C28.0694 15.3501 28.4625 15.6766 28.739 16.0937ZM29.1635 17.5001C29.1635 17.5003 29.1635 17.5004 29.1635 17.5006V17.4996C29.1635 17.4997 29.1635 17.4999 29.1635 17.5001ZM11.9741 18.3107C11.7738 18.6104 11.667 18.9627 11.667 19.3231C11.6678 19.8064 11.8602 20.2697 12.202 20.6114C12.5439 20.953 13.0072 21.1452 13.4905 21.1457C13.851 21.1455 14.2032 21.0385 14.5028 20.8381C14.8024 20.6377 15.0359 20.353 15.1737 20.0199C15.3115 19.6869 15.3474 19.3204 15.277 18.967C15.2065 18.6135 15.0329 18.2888 14.7779 18.034C14.523 17.7792 14.1983 17.6057 13.8447 17.5355C13.4912 17.4653 13.1248 17.5014 12.7918 17.6394C12.4589 17.7774 12.1743 18.011 11.9741 18.3107ZM17.5028 25.4784C18.2032 25.4784 20.5874 25.3822 21.8315 24.14C21.877 24.0966 21.9134 24.0445 21.9385 23.9869C21.9637 23.9292 21.977 23.8671 21.9778 23.8042C21.9786 23.7413 21.9668 23.6789 21.9431 23.6206C21.9195 23.5623 21.8844 23.5094 21.84 23.4648C21.7956 23.4203 21.7427 23.3851 21.6845 23.3612C21.6263 23.3374 21.5639 23.3254 21.501 23.326C21.4381 23.3266 21.376 23.3398 21.3183 23.3647C21.2605 23.3897 21.2083 23.4259 21.1648 23.4713C20.38 24.2561 18.7013 24.5339 17.5028 24.5339C16.3043 24.5339 14.6265 24.2561 13.8427 23.4713C13.7989 23.4274 13.7468 23.3925 13.6895 23.3688C13.6322 23.345 13.5708 23.3327 13.5087 23.3327C13.4467 23.3326 13.3852 23.3448 13.3279 23.3685C13.2706 23.3922 13.2184 23.427 13.1745 23.4708C13.1306 23.5146 13.0958 23.5667 13.072 23.624C13.0482 23.6813 13.0359 23.7428 13.0359 23.8048C13.0359 23.8669 13.048 23.9283 13.0717 23.9857C13.0954 24.043 13.1302 24.0951 13.174 24.139C14.4172 25.3792 16.8023 25.4784 17.5028 25.4784ZM20.4985 20.8385C20.7982 21.0388 21.1506 21.1457 21.5111 21.1457C21.9943 21.1452 22.4575 20.953 22.7992 20.6113C23.1409 20.2696 23.3331 19.8063 23.3336 19.3231C23.3336 18.9627 23.2267 18.6103 23.0265 18.3106C22.8262 18.0108 22.5416 17.7772 22.2085 17.6393C21.8755 17.5013 21.509 17.4653 21.1555 17.5356C20.8019 17.6059 20.4772 17.7795 20.2223 18.0344C19.9674 18.2893 19.7938 18.614 19.7235 18.9676C19.6532 19.3211 19.6893 19.6876 19.8272 20.0206C19.9652 20.3536 20.1988 20.6383 20.4985 20.8385Z" fill="#3D63F3"/>
</g>
<defs>
<clipPath id="clip0">
<rect width="35" height="35" fill="white"/>
</clipPath>
</defs>
</svg>
