<svg width="292" height="256" viewBox="0 0 292 256" fill="none" xmlns="http://www.w3.org/2000/svg">
<rect width="292" height="256" rx="10" fill="#3B473F"/>
<rect width="292" height="256" rx="10" fill="#0A72D1"/>
<g clip-path="url(#clip0)">
<path d="M279.451 31.6045H277.542V33.4982H279.451V31.6045Z" fill="black"/>
<path d="M279.451 29.6914H277.542V31.6045H279.451V29.6914Z" fill="black"/>
<path d="M279.451 27.8074H277.542V29.7011H279.451V27.8074Z" fill="black"/>
<path d="M279.451 25.8943H277.542V27.8074H279.451V25.8943Z" fill="black"/>
<path d="M279.451 24.0006H277.542V25.8943H279.451V24.0006Z" fill="black"/>
<path d="M279.451 22.0874H277.542V24.0006H279.451V22.0874Z" fill="black"/>
<path d="M277.542 35.4113H275.653V37.305H277.542V35.4113Z" fill="black"/>
<path d="M277.542 33.4981H275.653V35.4113H277.542V33.4981Z" fill="black"/>
<path d="M277.542 31.6045H275.653V33.4982H277.542V31.6045Z" fill="#FFDD1A"/>
<path d="M277.542 29.6914H275.653V31.6045H277.542V29.6914Z" fill="#FFDD1A"/>
<path d="M277.542 27.8074H275.653V29.7011H277.542V27.8074Z" fill="#FFDD1A"/>
<path d="M277.542 25.8943H275.653V27.8074H277.542V25.8943Z" fill="#FFDD1A"/>
<path d="M277.542 24.0006H275.653V25.8943H277.542V24.0006Z" fill="#FFDD1A"/>
<path d="M277.542 22.0874H275.653V24.0006H277.542V22.0874Z" fill="#FFDD1A"/>
<path d="M277.542 20.1938H275.653V22.0875H277.542V20.1938Z" fill="black"/>
<path d="M277.542 18.2806H275.653V20.1938H277.542V18.2806Z" fill="black"/>
<path d="M275.653 37.305H273.745V39.2181H275.653V37.305Z" fill="black"/>
<path d="M275.653 35.4113H273.745V37.305H275.653V35.4113Z" fill="#FFDD1A"/>
<path d="M275.653 33.4981H273.745V35.4113H275.653V33.4981Z" fill="#FFDD1A"/>
<path d="M275.653 31.6045H273.745V33.4982H275.653V31.6045Z" fill="#EA9E09"/>
<path d="M275.653 29.6914H273.745V31.6045H275.653V29.6914Z" fill="#EA9E09"/>
<path d="M275.653 27.8074H273.745V29.7011H275.653V27.8074Z" fill="#EA9E09"/>
<path d="M275.653 25.8943H273.745V27.8074H275.653V25.8943Z" fill="#EA9E09"/>
<path d="M275.653 24.0006H273.745V25.8943H275.653V24.0006Z" fill="#EA9E09"/>
<path d="M275.653 22.0874H273.745V24.0006H275.653V22.0874Z" fill="#EA9E09"/>
<path d="M275.653 20.1938H273.745V22.0875H275.653V20.1938Z" fill="#FFDD1A"/>
<path d="M275.653 18.2806H273.745V20.1938H275.653V18.2806Z" fill="#FFDD1A"/>
<path d="M275.653 16.3967H273.745V18.2904H275.653V16.3967Z" fill="black"/>
<path d="M273.754 39.2084H271.846V41.1021H273.754V39.2084Z" fill="black"/>
<path d="M273.754 37.305H271.846V39.2181H273.754V37.305Z" fill="#FFDD1A"/>
<path d="M273.754 35.4113H271.846V37.305H273.754V35.4113Z" fill="#EA9E09"/>
<path d="M273.754 33.4981H271.846V35.4113H273.754V33.4981Z" fill="#EA9E09"/>
<path d="M273.754 31.6045H271.846V33.4982H273.754V31.6045Z" fill="#FFDD1A"/>
<path d="M273.754 29.6914H271.846V31.6045H273.754V29.6914Z" fill="#FFDD1A"/>
<path d="M273.754 27.8074H271.846V29.7011H273.754V27.8074Z" fill="#FFDD1A"/>
<path d="M273.754 25.8943H271.846V27.8074H273.754V25.8943Z" fill="#FFDD1A"/>
<path d="M273.754 24.0006H271.846V25.8943H273.754V24.0006Z" fill="#FFDD1A"/>
<path d="M273.754 22.0874H271.846V24.0006H273.754V22.0874Z" fill="#FFDD1A"/>
<path d="M273.754 20.1938H271.846V22.0875H273.754V20.1938Z" fill="#EA9E09"/>
<path d="M273.754 18.2806H271.846V20.1938H273.754V18.2806Z" fill="#EA9E09"/>
<path d="M273.754 16.3967H271.846V18.2904H273.754V16.3967Z" fill="#FFDD1A"/>
<path d="M273.754 14.4835H271.846V16.3966H273.754V14.4835Z" fill="black"/>
<path d="M271.846 39.2084H269.957V41.1021H271.846V39.2084Z" fill="black"/>
<path d="M271.846 37.305H269.957V39.2181H271.846V37.305Z" fill="#FFDD1A"/>
<path d="M271.846 35.4113H269.957V37.305H271.846V35.4113Z" fill="#EA9E09"/>
<path d="M271.846 33.4981H269.957V35.4113H271.846V33.4981Z" fill="#FFDD1A"/>
<path d="M271.846 31.6045H269.957V33.4982H271.846V31.6045Z" fill="#FFDD1A"/>
<path d="M271.846 29.6914H269.957V31.6045H271.846V29.6914Z" fill="#FFDD1A"/>
<path d="M271.846 27.8074H269.957V29.7011H271.846V27.8074Z" fill="#FFDD1A"/>
<path d="M271.846 25.8943H269.957V27.8074H271.846V25.8943Z" fill="#FFDD1A"/>
<path d="M271.846 24.0006H269.957V25.8943H271.846V24.0006Z" fill="#FFDD1A"/>
<path d="M271.846 22.0874H269.957V24.0006H271.846V22.0874Z" fill="#FFDD1A"/>
<path d="M271.846 20.1938H269.957V22.0875H271.846V20.1938Z" fill="#FFDD1A"/>
<path d="M271.846 18.2806H269.957V20.1938H271.846V18.2806Z" fill="white"/>
<path d="M271.846 16.3967H269.957V18.2904H271.846V16.3967Z" fill="#FFDD1A"/>
<path d="M271.846 14.4835H269.957V16.3966H271.846V14.4835Z" fill="black"/>
<path d="M269.966 41.1021H268.058V43.0152H269.966V41.1021Z" fill="black"/>
<path d="M269.966 39.2084H268.058V41.1021H269.966V39.2084Z" fill="#FFDD1A"/>
<path d="M269.966 37.305H268.058V39.2181H269.966V37.305Z" fill="#EA9E09"/>
<path d="M269.966 35.4113H268.058V37.305H269.966V35.4113Z" fill="#FFDD1A"/>
<path d="M269.966 33.4981H268.058V35.4113H269.966V33.4981Z" fill="#FFDD1A"/>
<path d="M269.966 31.6045H268.058V33.4982H269.966V31.6045Z" fill="#FFDD1A"/>
<path d="M269.966 29.6914H268.058V31.6045H269.966V29.6914Z" fill="#FFDD1A"/>
<path d="M269.966 27.8074H268.058V29.7011H269.966V27.8074Z" fill="#FFDD1A"/>
<path d="M269.966 25.8943H268.058V27.8074H269.966V25.8943Z" fill="#FFDD1A"/>
<path d="M269.966 24.0006H268.058V25.8943H269.966V24.0006Z" fill="#FFDD1A"/>
<path d="M269.966 22.0874H268.058V24.0006H269.966V22.0874Z" fill="#FFDD1A"/>
<path d="M269.966 20.1938H268.058V22.0875H269.966V20.1938Z" fill="#FFDD1A"/>
<path d="M269.966 18.2806H268.058V20.1938H269.966V18.2806Z" fill="#FFDD1A"/>
<path d="M269.966 16.3967H268.058V18.2904H269.966V16.3967Z" fill="white"/>
<path d="M269.966 14.4835H268.058V16.3966H269.966V14.4835Z" fill="#FFDD1A"/>
<path d="M269.966 12.5898H268.058V14.4835H269.966V12.5898Z" fill="black"/>
<path d="M268.058 41.1021H266.149V43.0152H268.058V41.1021Z" fill="black"/>
<path d="M268.058 39.2084H266.149V41.1021H268.058V39.2084Z" fill="#FFDD1A"/>
<path d="M268.058 37.305H266.149V39.2181H268.058V37.305Z" fill="#EA9E09"/>
<path d="M268.058 35.4113H266.149V37.305H268.058V35.4113Z" fill="#FFDD1A"/>
<path d="M268.058 33.4981H266.149V35.4113H268.058V33.4981Z" fill="#EA9E09"/>
<path d="M268.058 31.6045H266.149V33.4982H268.058V31.6045Z" fill="#EA9E09"/>
<path d="M268.058 29.6914H266.149V31.6045H268.058V29.6914Z" fill="#EA9E09"/>
<path d="M268.058 27.8074H266.149V29.7011H268.058V27.8074Z" fill="#EA9E09"/>
<path d="M268.058 25.8943H266.149V27.8074H268.058V25.8943Z" fill="#EA9E09"/>
<path d="M268.058 24.0006H266.149V25.8943H268.058V24.0006Z" fill="#EA9E09"/>
<path d="M268.058 22.0874H266.149V24.0006H268.058V22.0874Z" fill="#EA9E09"/>
<path d="M268.058 20.1938H266.149V22.0875H268.058V20.1938Z" fill="#EA9E09"/>
<path d="M268.058 18.2806H266.149V20.1938H268.058V18.2806Z" fill="#FFDD1A"/>
<path d="M268.058 16.3967H266.149V18.2904H268.058V16.3967Z" fill="white"/>
<path d="M268.058 14.4835H266.149V16.3966H268.058V14.4835Z" fill="#FFDD1A"/>
<path d="M268.058 12.5898H266.149V14.4835H268.058V12.5898Z" fill="black"/>
<path d="M266.159 41.1021H264.27V43.0152H266.159V41.1021Z" fill="black"/>
<path d="M266.159 39.2084H264.27V41.1021H266.159V39.2084Z" fill="#FFDD1A"/>
<path d="M266.159 37.305H264.27V39.2181H266.159V37.305Z" fill="#EA9E09"/>
<path d="M266.159 35.4113H264.27V37.305H266.159V35.4113Z" fill="#FFDD1A"/>
<path d="M266.159 33.4981H264.27V35.4113H266.159V33.4981Z" fill="#EA9E09"/>
<path d="M266.159 31.6045H264.27V33.4982H266.159V31.6045Z" fill="#FFDD1A"/>
<path d="M266.159 29.6914H264.27V31.6045H266.159V29.6914Z" fill="#FFDD1A"/>
<path d="M266.159 27.8074H264.27V29.7011H266.159V27.8074Z" fill="#FFDD1A"/>
<path d="M266.159 25.8943H264.27V27.8074H266.159V25.8943Z" fill="#FFDD1A"/>
<path d="M266.159 24.0006H264.27V25.8943H266.159V24.0006Z" fill="#FFDD1A"/>
<path d="M266.159 22.0874H264.27V24.0006H266.159V22.0874Z" fill="#FFDD1A"/>
<path d="M266.159 20.1938H264.27V22.0875H266.159V20.1938Z" fill="white"/>
<path d="M266.159 18.2806H264.27V20.1938H266.159V18.2806Z" fill="#FFDD1A"/>
<path d="M266.159 16.3967H264.27V18.2904H266.159V16.3967Z" fill="white"/>
<path d="M266.159 14.4835H264.27V16.3966H266.159V14.4835Z" fill="#FFDD1A"/>
<path d="M266.159 12.5898H264.27V14.4835H266.159V12.5898Z" fill="black"/>
<path d="M264.27 41.1021H262.362V43.0152H264.27V41.1021Z" fill="black"/>
<path d="M264.27 39.2084H262.362V41.1021H264.27V39.2084Z" fill="#FFDD1A"/>
<path d="M264.27 37.305H262.362V39.2181H264.27V37.305Z" fill="#EA9E09"/>
<path d="M264.27 35.4113H262.362V37.305H264.27V35.4113Z" fill="#FFDD1A"/>
<path d="M264.27 33.4981H262.362V35.4113H264.27V33.4981Z" fill="#EA9E09"/>
<path d="M264.27 31.6045H262.362V33.4982H264.27V31.6045Z" fill="#FFDD1A"/>
<path d="M264.27 29.6914H262.362V31.6045H264.27V29.6914Z" fill="#FFDD1A"/>
<path d="M264.27 27.8074H262.362V29.7011H264.27V27.8074Z" fill="#FFDD1A"/>
<path d="M264.27 25.8943H262.362V27.8074H264.27V25.8943Z" fill="#FFDD1A"/>
<path d="M264.27 24.0006H262.362V25.8943H264.27V24.0006Z" fill="#FFDD1A"/>
<path d="M264.27 22.0874H262.362V24.0006H264.27V22.0874Z" fill="#FFDD1A"/>
<path d="M264.27 20.1938H262.362V22.0875H264.27V20.1938Z" fill="white"/>
<path d="M264.27 18.2806H262.362V20.1938H264.27V18.2806Z" fill="#FFDD1A"/>
<path d="M264.27 16.3967H262.362V18.2904H264.27V16.3967Z" fill="white"/>
<path d="M264.27 14.4835H262.362V16.3966H264.27V14.4835Z" fill="#FFDD1A"/>
<path d="M264.27 12.5898H262.362V14.4835H264.27V12.5898Z" fill="black"/>
<path d="M262.362 41.1021H260.473V43.0152H262.362V41.1021Z" fill="black"/>
<path d="M262.362 39.2084H260.473V41.1021H262.362V39.2084Z" fill="#FFDD1A"/>
<path d="M262.362 37.305H260.473V39.2181H262.362V37.305Z" fill="#EA9E09"/>
<path d="M262.362 35.4113H260.473V37.305H262.362V35.4113Z" fill="#FFDD1A"/>
<path d="M262.362 33.4981H260.473V35.4113H262.362V33.4981Z" fill="white"/>
<path d="M262.362 31.6045H260.473V33.4982H262.362V31.6045Z" fill="white"/>
<path d="M262.362 29.6914H260.473V31.6045H262.362V29.6914Z" fill="white"/>
<path d="M262.362 27.8074H260.473V29.7011H262.362V27.8074Z" fill="white"/>
<path d="M262.362 25.8943H260.473V27.8074H262.362V25.8943Z" fill="white"/>
<path d="M262.362 24.0006H260.473V25.8943H262.362V24.0006Z" fill="white"/>
<path d="M262.362 22.0874H260.473V24.0006H262.362V22.0874Z" fill="white"/>
<path d="M262.362 20.1938H260.473V22.0875H262.362V20.1938Z" fill="white"/>
<path d="M262.362 18.2806H260.473V20.1938H262.362V18.2806Z" fill="#FFDD1A"/>
<path d="M262.362 16.3967H260.473V18.2904H262.362V16.3967Z" fill="white"/>
<path d="M262.362 14.4835H260.473V16.3966H262.362V14.4835Z" fill="#FFDD1A"/>
<path d="M262.362 12.5898H260.473V14.4835H262.362V12.5898Z" fill="black"/>
<path d="M260.482 41.1021H258.574V43.0152H260.482V41.1021Z" fill="black"/>
<path d="M260.482 39.2084H258.574V41.1021H260.482V39.2084Z" fill="#FFDD1A"/>
<path d="M260.482 37.305H258.574V39.2181H260.482V37.305Z" fill="#EA9E09"/>
<path d="M260.482 35.4113H258.574V37.305H260.482V35.4113Z" fill="#FFDD1A"/>
<path d="M260.482 33.4981H258.574V35.4113H260.482V33.4981Z" fill="#FFDD1A"/>
<path d="M260.482 31.6045H258.574V33.4982H260.482V31.6045Z" fill="#FFDD1A"/>
<path d="M260.482 29.6914H258.574V31.6045H260.482V29.6914Z" fill="#FFDD1A"/>
<path d="M260.482 27.8074H258.574V29.7011H260.482V27.8074Z" fill="#FFDD1A"/>
<path d="M260.482 25.8943H258.574V27.8074H260.482V25.8943Z" fill="#FFDD1A"/>
<path d="M260.482 24.0006H258.574V25.8943H260.482V24.0006Z" fill="#FFDD1A"/>
<path d="M260.482 22.0874H258.574V24.0006H260.482V22.0874Z" fill="#FFDD1A"/>
<path d="M260.482 20.1938H258.574V22.0875H260.482V20.1938Z" fill="#FFDD1A"/>
<path d="M260.482 18.2806H258.574V20.1938H260.482V18.2806Z" fill="#FFDD1A"/>
<path d="M260.482 16.3967H258.574V18.2904H260.482V16.3967Z" fill="white"/>
<path d="M260.482 14.4835H258.574V16.3966H260.482V14.4835Z" fill="#FFDD1A"/>
<path d="M260.482 12.5898H258.574V14.4835H260.482V12.5898Z" fill="black"/>
<path d="M258.574 39.2084H256.665V41.1021H258.574V39.2084Z" fill="black"/>
<path d="M258.574 37.305H256.665V39.2181H258.574V37.305Z" fill="#FFDD1A"/>
<path d="M258.574 35.4113H256.665V37.305H258.574V35.4113Z" fill="#EA9E09"/>
<path d="M258.574 33.4981H256.665V35.4113H258.574V33.4981Z" fill="#FFDD1A"/>
<path d="M258.574 31.6045H256.665V33.4982H258.574V31.6045Z" fill="#FFDD1A"/>
<path d="M258.574 29.6914H256.665V31.6045H258.574V29.6914Z" fill="#FFDD1A"/>
<path d="M258.574 27.8074H256.665V29.7011H258.574V27.8074Z" fill="#FFDD1A"/>
<path d="M258.574 25.8943H256.665V27.8074H258.574V25.8943Z" fill="#FFDD1A"/>
<path d="M258.574 24.0006H256.665V25.8943H258.574V24.0006Z" fill="#FFDD1A"/>
<path d="M258.574 22.0874H256.665V24.0006H258.574V22.0874Z" fill="#FFDD1A"/>
<path d="M258.574 20.1938H256.665V22.0875H258.574V20.1938Z" fill="#FFDD1A"/>
<path d="M258.574 18.2806H256.665V20.1938H258.574V18.2806Z" fill="white"/>
<path d="M258.574 16.3967H256.665V18.2904H258.574V16.3967Z" fill="#FFDD1A"/>
<path d="M258.574 14.4835H256.665V16.3966H258.574V14.4835Z" fill="black"/>
<path d="M256.675 39.2084H254.786V41.1021H256.675V39.2084Z" fill="black"/>
<path d="M256.675 37.305H254.786V39.2181H256.675V37.305Z" fill="#FFDD1A"/>
<path d="M256.675 35.4113H254.786V37.305H256.675V35.4113Z" fill="#EA9E09"/>
<path d="M256.675 33.4981H254.786V35.4113H256.675V33.4981Z" fill="white"/>
<path d="M256.675 31.6045H254.786V33.4982H256.675V31.6045Z" fill="#FFDD1A"/>
<path d="M256.675 29.6914H254.786V31.6045H256.675V29.6914Z" fill="#FFDD1A"/>
<path d="M256.675 27.8074H254.786V29.7011H256.675V27.8074Z" fill="#FFDD1A"/>
<path d="M256.675 25.8943H254.786V27.8074H256.675V25.8943Z" fill="#FFDD1A"/>
<path d="M256.675 24.0006H254.786V25.8943H256.675V24.0006Z" fill="#FFDD1A"/>
<path d="M256.675 22.0874H254.786V24.0006H256.675V22.0874Z" fill="#FFDD1A"/>
<path d="M256.675 20.1938H254.786V22.0875H256.675V20.1938Z" fill="white"/>
<path d="M256.675 18.2806H254.786V20.1938H256.675V18.2806Z" fill="white"/>
<path d="M256.675 16.3967H254.786V18.2904H256.675V16.3967Z" fill="#FFDD1A"/>
<path d="M256.675 14.4835H254.786V16.3966H256.675V14.4835Z" fill="black"/>
<path d="M254.786 37.305H252.877V39.2181H254.786V37.305Z" fill="black"/>
<path d="M254.786 35.4113H252.877V37.305H254.786V35.4113Z" fill="#FFDD1A"/>
<path d="M254.786 33.4981H252.877V35.4113H254.786V33.4981Z" fill="#FFDD1A"/>
<path d="M254.786 31.6045H252.877V33.4982H254.786V31.6045Z" fill="white"/>
<path d="M254.786 29.6914H252.877V31.6045H254.786V29.6914Z" fill="white"/>
<path d="M254.786 27.8074H252.877V29.7011H254.786V27.8074Z" fill="white"/>
<path d="M254.786 25.8943H252.877V27.8074H254.786V25.8943Z" fill="white"/>
<path d="M254.786 24.0006H252.877V25.8943H254.786V24.0006Z" fill="white"/>
<path d="M254.786 22.0874H252.877V24.0006H254.786V22.0874Z" fill="white"/>
<path d="M254.786 20.1938H252.877V22.0875H254.786V20.1938Z" fill="#FFDD1A"/>
<path d="M254.786 18.2806H252.877V20.1938H254.786V18.2806Z" fill="#FFDD1A"/>
<path d="M254.786 16.3967H252.877V18.2904H254.786V16.3967Z" fill="black"/>
<path d="M252.887 35.4113H250.979V37.305H252.887V35.4113Z" fill="black"/>
<path d="M252.887 33.4981H250.979V35.4113H252.887V33.4981Z" fill="black"/>
<path d="M252.887 31.6045H250.979V33.4982H252.887V31.6045Z" fill="#FFDD1A"/>
<path d="M252.887 29.6914H250.979V31.6045H252.887V29.6914Z" fill="#FFDD1A"/>
<path d="M252.887 27.8074H250.979V29.7011H252.887V27.8074Z" fill="#FFDD1A"/>
<path d="M252.887 25.8943H250.979V27.8074H252.887V25.8943Z" fill="#FFDD1A"/>
<path d="M252.887 24.0006H250.979V25.8943H252.887V24.0006Z" fill="#FFDD1A"/>
<path d="M252.887 22.0874H250.979V24.0006H252.887V22.0874Z" fill="#FFDD1A"/>
<path d="M252.887 20.1938H250.979V22.0875H252.887V20.1938Z" fill="black"/>
<path d="M252.887 18.2806H250.979V20.1938H252.887V18.2806Z" fill="black"/>
<path d="M250.979 33.4981H249.09V35.4113H250.979V33.4981Z" fill="black"/>
<path d="M250.979 31.6045H249.09V33.4982H250.979V31.6045Z" fill="black"/>
<path d="M250.979 29.6914H249.09V31.6045H250.979V29.6914Z" fill="black"/>
<path d="M250.979 27.8074H249.09V29.7011H250.979V27.8074Z" fill="black"/>
<path d="M250.979 25.8943H249.09V27.8074H250.979V25.8943Z" fill="black"/>
<path d="M250.979 24.0006H249.09V25.8943H250.979V24.0006Z" fill="black"/>
<path d="M250.979 22.0874H249.09V24.0006H250.979V22.0874Z" fill="black"/>
</g>
<g clip-path="url(#clip1)">
<path d="M242.82 31.6045H240.911V33.4982H242.82V31.6045Z" fill="black"/>
<path d="M242.82 29.6914H240.911V31.6045H242.82V29.6914Z" fill="black"/>
<path d="M242.82 27.8074H240.911V29.7011H242.82V27.8074Z" fill="black"/>
<path d="M242.82 25.8943H240.911V27.8074H242.82V25.8943Z" fill="black"/>
<path d="M242.82 24.0006H240.911V25.8943H242.82V24.0006Z" fill="black"/>
<path d="M242.82 22.0874H240.911V24.0006H242.82V22.0874Z" fill="black"/>
<path d="M240.911 35.4113H239.022V37.305H240.911V35.4113Z" fill="black"/>
<path d="M240.911 33.4981H239.022V35.4113H240.911V33.4981Z" fill="black"/>
<path d="M240.911 31.6045H239.022V33.4982H240.911V31.6045Z" fill="#FFDD1A"/>
<path d="M240.911 29.6914H239.022V31.6045H240.911V29.6914Z" fill="#FFDD1A"/>
<path d="M240.911 27.8074H239.022V29.7011H240.911V27.8074Z" fill="#FFDD1A"/>
<path d="M240.911 25.8943H239.022V27.8074H240.911V25.8943Z" fill="#FFDD1A"/>
<path d="M240.911 24.0006H239.022V25.8943H240.911V24.0006Z" fill="#FFDD1A"/>
<path d="M240.911 22.0874H239.022V24.0006H240.911V22.0874Z" fill="#FFDD1A"/>
<path d="M240.911 20.1938H239.022V22.0875H240.911V20.1938Z" fill="black"/>
<path d="M240.911 18.2806H239.022V20.1938H240.911V18.2806Z" fill="black"/>
<path d="M239.022 37.305H237.114V39.2181H239.022V37.305Z" fill="black"/>
<path d="M239.022 35.4113H237.114V37.305H239.022V35.4113Z" fill="#FFDD1A"/>
<path d="M239.022 33.4981H237.114V35.4113H239.022V33.4981Z" fill="#FFDD1A"/>
<path d="M239.022 31.6045H237.114V33.4982H239.022V31.6045Z" fill="#EA9E09"/>
<path d="M239.022 29.6914H237.114V31.6045H239.022V29.6914Z" fill="#EA9E09"/>
<path d="M239.022 27.8074H237.114V29.7011H239.022V27.8074Z" fill="#EA9E09"/>
<path d="M239.022 25.8943H237.114V27.8074H239.022V25.8943Z" fill="#EA9E09"/>
<path d="M239.022 24.0006H237.114V25.8943H239.022V24.0006Z" fill="#EA9E09"/>
<path d="M239.022 22.0874H237.114V24.0006H239.022V22.0874Z" fill="#EA9E09"/>
<path d="M239.022 20.1938H237.114V22.0875H239.022V20.1938Z" fill="#FFDD1A"/>
<path d="M239.022 18.2806H237.114V20.1938H239.022V18.2806Z" fill="#FFDD1A"/>
<path d="M239.022 16.3967H237.114V18.2904H239.022V16.3967Z" fill="black"/>
<path d="M237.123 39.2084H235.215V41.1021H237.123V39.2084Z" fill="black"/>
<path d="M237.123 37.305H235.215V39.2181H237.123V37.305Z" fill="#FFDD1A"/>
<path d="M237.123 35.4113H235.215V37.305H237.123V35.4113Z" fill="#EA9E09"/>
<path d="M237.123 33.4981H235.215V35.4113H237.123V33.4981Z" fill="#EA9E09"/>
<path d="M237.123 31.6045H235.215V33.4982H237.123V31.6045Z" fill="#FFDD1A"/>
<path d="M237.123 29.6914H235.215V31.6045H237.123V29.6914Z" fill="#FFDD1A"/>
<path d="M237.123 27.8074H235.215V29.7011H237.123V27.8074Z" fill="#FFDD1A"/>
<path d="M237.123 25.8943H235.215V27.8074H237.123V25.8943Z" fill="#FFDD1A"/>
<path d="M237.123 24.0006H235.215V25.8943H237.123V24.0006Z" fill="#FFDD1A"/>
<path d="M237.123 22.0874H235.215V24.0006H237.123V22.0874Z" fill="#FFDD1A"/>
<path d="M237.123 20.1938H235.215V22.0875H237.123V20.1938Z" fill="#EA9E09"/>
<path d="M237.123 18.2806H235.215V20.1938H237.123V18.2806Z" fill="#EA9E09"/>
<path d="M237.123 16.3967H235.215V18.2904H237.123V16.3967Z" fill="#FFDD1A"/>
<path d="M237.123 14.4835H235.215V16.3966H237.123V14.4835Z" fill="black"/>
<path d="M235.215 39.2084H233.326V41.1021H235.215V39.2084Z" fill="black"/>
<path d="M235.215 37.305H233.326V39.2181H235.215V37.305Z" fill="#FFDD1A"/>
<path d="M235.215 35.4113H233.326V37.305H235.215V35.4113Z" fill="#EA9E09"/>
<path d="M235.215 33.4981H233.326V35.4113H235.215V33.4981Z" fill="#FFDD1A"/>
<path d="M235.215 31.6045H233.326V33.4982H235.215V31.6045Z" fill="#FFDD1A"/>
<path d="M235.215 29.6914H233.326V31.6045H235.215V29.6914Z" fill="#FFDD1A"/>
<path d="M235.215 27.8074H233.326V29.7011H235.215V27.8074Z" fill="#FFDD1A"/>
<path d="M235.215 25.8943H233.326V27.8074H235.215V25.8943Z" fill="#FFDD1A"/>
<path d="M235.215 24.0006H233.326V25.8943H235.215V24.0006Z" fill="#FFDD1A"/>
<path d="M235.215 22.0874H233.326V24.0006H235.215V22.0874Z" fill="#FFDD1A"/>
<path d="M235.215 20.1938H233.326V22.0875H235.215V20.1938Z" fill="#FFDD1A"/>
<path d="M235.215 18.2806H233.326V20.1938H235.215V18.2806Z" fill="white"/>
<path d="M235.215 16.3967H233.326V18.2904H235.215V16.3967Z" fill="#FFDD1A"/>
<path d="M235.215 14.4835H233.326V16.3966H235.215V14.4835Z" fill="black"/>
<path d="M233.336 41.1021H231.427V43.0152H233.336V41.1021Z" fill="black"/>
<path d="M233.336 39.2084H231.427V41.1021H233.336V39.2084Z" fill="#FFDD1A"/>
<path d="M233.336 37.305H231.427V39.2181H233.336V37.305Z" fill="#EA9E09"/>
<path d="M233.336 35.4113H231.427V37.305H233.336V35.4113Z" fill="#FFDD1A"/>
<path d="M233.336 33.4981H231.427V35.4113H233.336V33.4981Z" fill="#FFDD1A"/>
<path d="M233.336 31.6045H231.427V33.4982H233.336V31.6045Z" fill="#FFDD1A"/>
<path d="M233.336 29.6914H231.427V31.6045H233.336V29.6914Z" fill="#FFDD1A"/>
<path d="M233.336 27.8074H231.427V29.7011H233.336V27.8074Z" fill="#FFDD1A"/>
<path d="M233.336 25.8943H231.427V27.8074H233.336V25.8943Z" fill="#FFDD1A"/>
<path d="M233.336 24.0006H231.427V25.8943H233.336V24.0006Z" fill="#FFDD1A"/>
<path d="M233.336 22.0874H231.427V24.0006H233.336V22.0874Z" fill="#FFDD1A"/>
<path d="M233.336 20.1938H231.427V22.0875H233.336V20.1938Z" fill="#FFDD1A"/>
<path d="M233.336 18.2806H231.427V20.1938H233.336V18.2806Z" fill="#FFDD1A"/>
<path d="M233.336 16.3967H231.427V18.2904H233.336V16.3967Z" fill="white"/>
<path d="M233.336 14.4835H231.427V16.3966H233.336V14.4835Z" fill="#FFDD1A"/>
<path d="M233.336 12.5898H231.427V14.4835H233.336V12.5898Z" fill="black"/>
<path d="M231.427 41.1021H229.519V43.0152H231.427V41.1021Z" fill="black"/>
<path d="M231.427 39.2084H229.519V41.1021H231.427V39.2084Z" fill="#FFDD1A"/>
<path d="M231.427 37.305H229.519V39.2181H231.427V37.305Z" fill="#EA9E09"/>
<path d="M231.427 35.4113H229.519V37.305H231.427V35.4113Z" fill="#FFDD1A"/>
<path d="M231.427 33.4981H229.519V35.4113H231.427V33.4981Z" fill="#EA9E09"/>
<path d="M231.427 31.6045H229.519V33.4982H231.427V31.6045Z" fill="#EA9E09"/>
<path d="M231.427 29.6914H229.519V31.6045H231.427V29.6914Z" fill="#EA9E09"/>
<path d="M231.427 27.8074H229.519V29.7011H231.427V27.8074Z" fill="#EA9E09"/>
<path d="M231.427 25.8943H229.519V27.8074H231.427V25.8943Z" fill="#EA9E09"/>
<path d="M231.427 24.0006H229.519V25.8943H231.427V24.0006Z" fill="#EA9E09"/>
<path d="M231.427 22.0874H229.519V24.0006H231.427V22.0874Z" fill="#EA9E09"/>
<path d="M231.427 20.1938H229.519V22.0875H231.427V20.1938Z" fill="#EA9E09"/>
<path d="M231.427 18.2806H229.519V20.1938H231.427V18.2806Z" fill="#FFDD1A"/>
<path d="M231.427 16.3967H229.519V18.2904H231.427V16.3967Z" fill="white"/>
<path d="M231.427 14.4835H229.519V16.3966H231.427V14.4835Z" fill="#FFDD1A"/>
<path d="M231.427 12.5898H229.519V14.4835H231.427V12.5898Z" fill="black"/>
<path d="M229.528 41.1021H227.639V43.0152H229.528V41.1021Z" fill="black"/>
<path d="M229.528 39.2084H227.639V41.1021H229.528V39.2084Z" fill="#FFDD1A"/>
<path d="M229.528 37.305H227.639V39.2181H229.528V37.305Z" fill="#EA9E09"/>
<path d="M229.528 35.4113H227.639V37.305H229.528V35.4113Z" fill="#FFDD1A"/>
<path d="M229.528 33.4981H227.639V35.4113H229.528V33.4981Z" fill="#EA9E09"/>
<path d="M229.528 31.6045H227.639V33.4982H229.528V31.6045Z" fill="#FFDD1A"/>
<path d="M229.528 29.6914H227.639V31.6045H229.528V29.6914Z" fill="#FFDD1A"/>
<path d="M229.528 27.8074H227.639V29.7011H229.528V27.8074Z" fill="#FFDD1A"/>
<path d="M229.528 25.8943H227.639V27.8074H229.528V25.8943Z" fill="#FFDD1A"/>
<path d="M229.528 24.0006H227.639V25.8943H229.528V24.0006Z" fill="#FFDD1A"/>
<path d="M229.528 22.0874H227.639V24.0006H229.528V22.0874Z" fill="#FFDD1A"/>
<path d="M229.528 20.1938H227.639V22.0875H229.528V20.1938Z" fill="white"/>
<path d="M229.528 18.2806H227.639V20.1938H229.528V18.2806Z" fill="#FFDD1A"/>
<path d="M229.528 16.3967H227.639V18.2904H229.528V16.3967Z" fill="white"/>
<path d="M229.528 14.4835H227.639V16.3966H229.528V14.4835Z" fill="#FFDD1A"/>
<path d="M229.528 12.5898H227.639V14.4835H229.528V12.5898Z" fill="black"/>
<path d="M227.639 41.1021H225.731V43.0152H227.639V41.1021Z" fill="black"/>
<path d="M227.639 39.2084H225.731V41.1021H227.639V39.2084Z" fill="#FFDD1A"/>
<path d="M227.639 37.305H225.731V39.2181H227.639V37.305Z" fill="#EA9E09"/>
<path d="M227.639 35.4113H225.731V37.305H227.639V35.4113Z" fill="#FFDD1A"/>
<path d="M227.639 33.4981H225.731V35.4113H227.639V33.4981Z" fill="#EA9E09"/>
<path d="M227.639 31.6045H225.731V33.4982H227.639V31.6045Z" fill="#FFDD1A"/>
<path d="M227.639 29.6914H225.731V31.6045H227.639V29.6914Z" fill="#FFDD1A"/>
<path d="M227.639 27.8074H225.731V29.7011H227.639V27.8074Z" fill="#FFDD1A"/>
<path d="M227.639 25.8943H225.731V27.8074H227.639V25.8943Z" fill="#FFDD1A"/>
<path d="M227.639 24.0006H225.731V25.8943H227.639V24.0006Z" fill="#FFDD1A"/>
<path d="M227.639 22.0874H225.731V24.0006H227.639V22.0874Z" fill="#FFDD1A"/>
<path d="M227.639 20.1938H225.731V22.0875H227.639V20.1938Z" fill="white"/>
<path d="M227.639 18.2806H225.731V20.1938H227.639V18.2806Z" fill="#FFDD1A"/>
<path d="M227.639 16.3967H225.731V18.2904H227.639V16.3967Z" fill="white"/>
<path d="M227.639 14.4835H225.731V16.3966H227.639V14.4835Z" fill="#FFDD1A"/>
<path d="M227.639 12.5898H225.731V14.4835H227.639V12.5898Z" fill="black"/>
<path d="M225.731 41.1021H223.842V43.0152H225.731V41.1021Z" fill="black"/>
<path d="M225.731 39.2084H223.842V41.1021H225.731V39.2084Z" fill="#FFDD1A"/>
<path d="M225.731 37.305H223.842V39.2181H225.731V37.305Z" fill="#EA9E09"/>
<path d="M225.731 35.4113H223.842V37.305H225.731V35.4113Z" fill="#FFDD1A"/>
<path d="M225.731 33.4981H223.842V35.4113H225.731V33.4981Z" fill="white"/>
<path d="M225.731 31.6045H223.842V33.4982H225.731V31.6045Z" fill="white"/>
<path d="M225.731 29.6914H223.842V31.6045H225.731V29.6914Z" fill="white"/>
<path d="M225.731 27.8074H223.842V29.7011H225.731V27.8074Z" fill="white"/>
<path d="M225.731 25.8943H223.842V27.8074H225.731V25.8943Z" fill="white"/>
<path d="M225.731 24.0006H223.842V25.8943H225.731V24.0006Z" fill="white"/>
<path d="M225.731 22.0874H223.842V24.0006H225.731V22.0874Z" fill="white"/>
<path d="M225.731 20.1938H223.842V22.0875H225.731V20.1938Z" fill="white"/>
<path d="M225.731 18.2806H223.842V20.1938H225.731V18.2806Z" fill="#FFDD1A"/>
<path d="M225.731 16.3967H223.842V18.2904H225.731V16.3967Z" fill="white"/>
<path d="M225.731 14.4835H223.842V16.3966H225.731V14.4835Z" fill="#FFDD1A"/>
<path d="M225.731 12.5898H223.842V14.4835H225.731V12.5898Z" fill="black"/>
<path d="M223.851 41.1021H221.943V43.0152H223.851V41.1021Z" fill="black"/>
<path d="M223.851 39.2084H221.943V41.1021H223.851V39.2084Z" fill="#FFDD1A"/>
<path d="M223.851 37.305H221.943V39.2181H223.851V37.305Z" fill="#EA9E09"/>
<path d="M223.851 35.4113H221.943V37.305H223.851V35.4113Z" fill="#FFDD1A"/>
<path d="M223.851 33.4981H221.943V35.4113H223.851V33.4981Z" fill="#FFDD1A"/>
<path d="M223.851 31.6045H221.943V33.4982H223.851V31.6045Z" fill="#FFDD1A"/>
<path d="M223.851 29.6914H221.943V31.6045H223.851V29.6914Z" fill="#FFDD1A"/>
<path d="M223.851 27.8074H221.943V29.7011H223.851V27.8074Z" fill="#FFDD1A"/>
<path d="M223.851 25.8943H221.943V27.8074H223.851V25.8943Z" fill="#FFDD1A"/>
<path d="M223.851 24.0006H221.943V25.8943H223.851V24.0006Z" fill="#FFDD1A"/>
<path d="M223.851 22.0874H221.943V24.0006H223.851V22.0874Z" fill="#FFDD1A"/>
<path d="M223.851 20.1938H221.943V22.0875H223.851V20.1938Z" fill="#FFDD1A"/>
<path d="M223.851 18.2806H221.943V20.1938H223.851V18.2806Z" fill="#FFDD1A"/>
<path d="M223.851 16.3967H221.943V18.2904H223.851V16.3967Z" fill="white"/>
<path d="M223.851 14.4835H221.943V16.3966H223.851V14.4835Z" fill="#FFDD1A"/>
<path d="M223.851 12.5898H221.943V14.4835H223.851V12.5898Z" fill="black"/>
<path d="M221.943 39.2084H220.034V41.1021H221.943V39.2084Z" fill="black"/>
<path d="M221.943 37.305H220.034V39.2181H221.943V37.305Z" fill="#FFDD1A"/>
<path d="M221.943 35.4113H220.034V37.305H221.943V35.4113Z" fill="#EA9E09"/>
<path d="M221.943 33.4981H220.034V35.4113H221.943V33.4981Z" fill="#FFDD1A"/>
<path d="M221.943 31.6045H220.034V33.4982H221.943V31.6045Z" fill="#FFDD1A"/>
<path d="M221.943 29.6914H220.034V31.6045H221.943V29.6914Z" fill="#FFDD1A"/>
<path d="M221.943 27.8074H220.034V29.7011H221.943V27.8074Z" fill="#FFDD1A"/>
<path d="M221.943 25.8943H220.034V27.8074H221.943V25.8943Z" fill="#FFDD1A"/>
<path d="M221.943 24.0006H220.034V25.8943H221.943V24.0006Z" fill="#FFDD1A"/>
<path d="M221.943 22.0874H220.034V24.0006H221.943V22.0874Z" fill="#FFDD1A"/>
<path d="M221.943 20.1938H220.034V22.0875H221.943V20.1938Z" fill="#FFDD1A"/>
<path d="M221.943 18.2806H220.034V20.1938H221.943V18.2806Z" fill="white"/>
<path d="M221.943 16.3967H220.034V18.2904H221.943V16.3967Z" fill="#FFDD1A"/>
<path d="M221.943 14.4835H220.034V16.3966H221.943V14.4835Z" fill="black"/>
<path d="M220.044 39.2084H218.155V41.1021H220.044V39.2084Z" fill="black"/>
<path d="M220.044 37.305H218.155V39.2181H220.044V37.305Z" fill="#FFDD1A"/>
<path d="M220.044 35.4113H218.155V37.305H220.044V35.4113Z" fill="#EA9E09"/>
<path d="M220.044 33.4981H218.155V35.4113H220.044V33.4981Z" fill="white"/>
<path d="M220.044 31.6045H218.155V33.4982H220.044V31.6045Z" fill="#FFDD1A"/>
<path d="M220.044 29.6914H218.155V31.6045H220.044V29.6914Z" fill="#FFDD1A"/>
<path d="M220.044 27.8074H218.155V29.7011H220.044V27.8074Z" fill="#FFDD1A"/>
<path d="M220.044 25.8943H218.155V27.8074H220.044V25.8943Z" fill="#FFDD1A"/>
<path d="M220.044 24.0006H218.155V25.8943H220.044V24.0006Z" fill="#FFDD1A"/>
<path d="M220.044 22.0874H218.155V24.0006H220.044V22.0874Z" fill="#FFDD1A"/>
<path d="M220.044 20.1938H218.155V22.0875H220.044V20.1938Z" fill="white"/>
<path d="M220.044 18.2806H218.155V20.1938H220.044V18.2806Z" fill="white"/>
<path d="M220.044 16.3967H218.155V18.2904H220.044V16.3967Z" fill="#FFDD1A"/>
<path d="M220.044 14.4835H218.155V16.3966H220.044V14.4835Z" fill="black"/>
<path d="M218.155 37.305H216.247V39.2181H218.155V37.305Z" fill="black"/>
<path d="M218.155 35.4113H216.247V37.305H218.155V35.4113Z" fill="#FFDD1A"/>
<path d="M218.155 33.4981H216.247V35.4113H218.155V33.4981Z" fill="#FFDD1A"/>
<path d="M218.155 31.6045H216.247V33.4982H218.155V31.6045Z" fill="white"/>
<path d="M218.155 29.6914H216.247V31.6045H218.155V29.6914Z" fill="white"/>
<path d="M218.155 27.8074H216.247V29.7011H218.155V27.8074Z" fill="white"/>
<path d="M218.155 25.8943H216.247V27.8074H218.155V25.8943Z" fill="white"/>
<path d="M218.155 24.0006H216.247V25.8943H218.155V24.0006Z" fill="white"/>
<path d="M218.155 22.0874H216.247V24.0006H218.155V22.0874Z" fill="white"/>
<path d="M218.155 20.1938H216.247V22.0875H218.155V20.1938Z" fill="#FFDD1A"/>
<path d="M218.155 18.2806H216.247V20.1938H218.155V18.2806Z" fill="#FFDD1A"/>
<path d="M218.155 16.3967H216.247V18.2904H218.155V16.3967Z" fill="black"/>
<path d="M216.256 35.4113H214.348V37.305H216.256V35.4113Z" fill="black"/>
<path d="M216.256 33.4981H214.348V35.4113H216.256V33.4981Z" fill="black"/>
<path d="M216.256 31.6045H214.348V33.4982H216.256V31.6045Z" fill="#FFDD1A"/>
<path d="M216.256 29.6914H214.348V31.6045H216.256V29.6914Z" fill="#FFDD1A"/>
<path d="M216.256 27.8074H214.348V29.7011H216.256V27.8074Z" fill="#FFDD1A"/>
<path d="M216.256 25.8943H214.348V27.8074H216.256V25.8943Z" fill="#FFDD1A"/>
<path d="M216.256 24.0006H214.348V25.8943H216.256V24.0006Z" fill="#FFDD1A"/>
<path d="M216.256 22.0874H214.348V24.0006H216.256V22.0874Z" fill="#FFDD1A"/>
<path d="M216.256 20.1938H214.348V22.0875H216.256V20.1938Z" fill="black"/>
<path d="M216.256 18.2806H214.348V20.1938H216.256V18.2806Z" fill="black"/>
<path d="M214.348 33.4981H212.459V35.4113H214.348V33.4981Z" fill="black"/>
<path d="M214.348 31.6045H212.459V33.4982H214.348V31.6045Z" fill="black"/>
<path d="M214.348 29.6914H212.459V31.6045H214.348V29.6914Z" fill="black"/>
<path d="M214.348 27.8074H212.459V29.7011H214.348V27.8074Z" fill="black"/>
<path d="M214.348 25.8943H212.459V27.8074H214.348V25.8943Z" fill="black"/>
<path d="M214.348 24.0006H212.459V25.8943H214.348V24.0006Z" fill="black"/>
<path d="M214.348 22.0874H212.459V24.0006H214.348V22.0874Z" fill="black"/>
</g>
<g clip-path="url(#clip2)">
<path d="M221.91 169.655H215.64V175.859H221.91V169.655Z" fill="black"/>
<path d="M221.91 163.387H215.64V169.655H221.91V163.387Z" fill="black"/>
<path d="M221.91 157.183H215.64V163.387H221.91V157.183Z" fill="black"/>
<path d="M221.91 150.915H215.64V157.183H221.91V150.915Z" fill="black"/>
<path d="M221.91 144.743H215.64V150.947H221.91V144.743Z" fill="black"/>
<path d="M221.91 138.474H215.64V144.742H221.91V138.474Z" fill="black"/>
<path d="M215.64 182.096H209.434V188.3H215.64V182.096Z" fill="black"/>
<path d="M215.64 175.859H209.434V182.128H215.64V175.859Z" fill="black"/>
<path d="M215.64 169.655H209.434V175.859H215.64V169.655Z" fill="#EA9E09"/>
<path d="M215.64 163.387H209.434V169.655H215.64V163.387Z" fill="#EA9E09"/>
<path d="M215.64 157.183H209.434V163.387H215.64V157.183Z" fill="#EA9E09"/>
<path d="M215.64 150.915H209.434V157.183H215.64V150.915Z" fill="#EA9E09"/>
<path d="M215.64 144.743H209.434V150.947H215.64V144.743Z" fill="#EA9E09"/>
<path d="M215.64 138.474H209.434V144.742H215.64V138.474Z" fill="#EA9E09"/>
<path d="M215.64 132.27H209.434V138.474H215.64V132.27Z" fill="black"/>
<path d="M215.64 126.002H209.434V132.27H215.64V126.002Z" fill="black"/>
<path d="M209.433 188.3H203.163V194.568H209.433V188.3Z" fill="black"/>
<path d="M209.433 182.096H203.163V188.3H209.433V182.096Z" fill="#EA9E09"/>
<path d="M209.433 175.859H203.163V182.128H209.433V175.859Z" fill="#EA9E09"/>
<path d="M209.433 169.655H203.163V175.859H209.433V169.655Z" fill="#FFDD1A"/>
<path d="M209.433 163.387H203.163V169.655H209.433V163.387Z" fill="black"/>
<path d="M209.433 157.183H203.163V163.387H209.433V157.183Z" fill="black"/>
<path d="M209.433 150.915H203.163V157.183H209.433V150.915Z" fill="black"/>
<path d="M209.433 144.743H203.163V150.947H209.433V144.743Z" fill="#FFDD1A"/>
<path d="M209.433 138.474H203.163V144.742H209.433V138.474Z" fill="#FFDD1A"/>
<path d="M209.433 132.27H203.163V138.474H209.433V132.27Z" fill="#EA9E09"/>
<path d="M209.433 126.002H203.163V132.27H209.433V126.002Z" fill="#EA9E09"/>
<path d="M209.433 119.734H203.163V126.002H209.433V119.734Z" fill="black"/>
<path d="M203.195 188.3H196.925V194.568H203.195V188.3Z" fill="black"/>
<path d="M203.195 182.096H196.925V188.3H203.195V182.096Z" fill="#FFDD1A"/>
<path d="M203.195 175.859H196.925V182.128H203.195V175.859Z" fill="black"/>
<path d="M203.195 169.655H196.925V175.859H203.195V169.655Z" fill="black"/>
<path d="M203.195 163.387H196.925V169.655H203.195V163.387Z" fill="#AFAFAF"/>
<path d="M203.195 157.183H196.925V163.387H203.195V157.183Z" fill="#AFAFAF"/>
<path d="M203.195 150.915H196.925V157.183H203.195V150.915Z" fill="#AFAFAF"/>
<path d="M203.195 144.743H196.925V150.947H203.195V144.743Z" fill="black"/>
<path d="M203.195 138.474H196.925V144.742H203.195V138.474Z" fill="black"/>
<path d="M203.195 132.27H196.925V138.474H203.195V132.27Z" fill="#FFDD1A"/>
<path d="M203.195 126.002H196.925V132.27H203.195V126.002Z" fill="#FFDD1A"/>
<path d="M203.195 119.734H196.925V126.002H203.195V119.734Z" fill="black"/>
<path d="M196.925 231.953H190.719V238.157H196.925V231.953Z" fill="black"/>
<path d="M196.925 225.685H190.719V231.953H196.925V225.685Z" fill="black"/>
<path d="M196.925 194.568H190.719V200.772H196.925V194.568Z" fill="black"/>
<path d="M196.925 188.3H190.719V194.568H196.925V188.3Z" fill="#EA9E09"/>
<path d="M196.925 182.096H190.719V188.3H196.925V182.096Z" fill="#FFDD1A"/>
<path d="M196.925 175.859H190.719V182.128H196.925V175.859Z" fill="black"/>
<path d="M196.925 169.655H190.719V175.859H196.925V169.655Z" fill="#AFAFAF"/>
<path d="M196.925 163.387H190.719V169.655H196.925V163.387Z" fill="#E6E6E6"/>
<path d="M196.925 157.183H190.719V163.387H196.925V157.183Z" fill="#E6E6E6"/>
<path d="M196.925 150.915H190.719V157.183H196.925V150.915Z" fill="#E6E6E6"/>
<path d="M196.925 144.743H190.719V150.947H196.925V144.743Z" fill="white"/>
<path d="M196.925 138.474H190.719V144.742H196.925V138.474Z" fill="black"/>
<path d="M196.925 132.27H190.719V138.474H196.925V132.27Z" fill="#EA9E09"/>
<path d="M196.925 126.002H190.719V132.27H196.925V126.002Z" fill="#EA9E09"/>
<path d="M196.925 119.734H190.719V126.002H196.925V119.734Z" fill="#EA9E09"/>
<path d="M196.925 113.562H190.719V119.766H196.925V113.562Z" fill="black"/>
<path d="M190.751 231.953H184.481V238.157H190.751V231.953Z" fill="black"/>
<path d="M190.751 225.685H184.481V231.953H190.751V225.685Z" fill="#E6E6E6"/>
<path d="M190.751 219.481H184.481V225.685H190.751V219.481Z" fill="black"/>
<path d="M190.751 213.245H184.481V219.513H190.751V213.245Z" fill="black"/>
<path d="M190.751 194.568H184.481V200.772H190.751V194.568Z" fill="black"/>
<path d="M190.751 188.3H184.481V194.568H190.751V188.3Z" fill="#EA9E09"/>
<path d="M190.751 182.096H184.481V188.3H190.751V182.096Z" fill="#FFDD1A"/>
<path d="M190.751 175.859H184.481V182.128H190.751V175.859Z" fill="black"/>
<path d="M190.751 169.655H184.481V175.859H190.751V169.655Z" fill="black"/>
<path d="M190.751 163.387H184.481V169.655H190.751V163.387Z" fill="#E6E6E6"/>
<path d="M190.751 157.183H184.481V163.387H190.751V157.183Z" fill="#E6E6E6"/>
<path d="M190.751 150.915H184.481V157.183H190.751V150.915Z" fill="white"/>
<path d="M190.751 144.743H184.481V150.947H190.751V144.743Z" fill="black"/>
<path d="M190.751 138.474H184.481V144.742H190.751V138.474Z" fill="black"/>
<path d="M190.751 132.27H184.481V138.474H190.751V132.27Z" fill="#FFDD1A"/>
<path d="M190.751 126.002H184.481V132.27H190.751V126.002Z" fill="#FFDD1A"/>
<path d="M190.751 119.734H184.481V126.002H190.751V119.734Z" fill="#FFDD1A"/>
<path d="M190.751 113.562H184.481V119.766H190.751V113.562Z" fill="black"/>
<path d="M184.481 231.953H178.211V238.157H184.481V231.953Z" fill="black"/>
<path d="M184.481 225.685H178.211V231.953H184.481V225.685Z" fill="white"/>
<path d="M184.481 219.481H178.211V225.685H184.481V219.481Z" fill="black"/>
<path d="M184.481 213.245H178.211V219.513H184.481V213.245Z" fill="#F7A285"/>
<path d="M184.481 207.04H178.211V213.245H184.481V207.04Z" fill="black"/>
<path d="M184.481 200.772H178.211V207.04H184.481V200.772Z" fill="black"/>
<path d="M184.481 194.568H178.211V200.772H184.481V194.568Z" fill="black"/>
<path d="M184.481 188.3H178.211V194.568H184.481V188.3Z" fill="#EA9E09"/>
<path d="M184.481 182.096H178.211V188.3H184.481V182.096Z" fill="#FFDD1A"/>
<path d="M184.481 175.859H178.211V182.128H184.481V175.859Z" fill="#FFDD1A"/>
<path d="M184.481 169.655H178.211V175.859H184.481V169.655Z" fill="#FFDD1A"/>
<path d="M184.481 163.387H178.211V169.655H184.481V163.387Z" fill="black"/>
<path d="M184.481 157.183H178.211V163.387H184.481V157.183Z" fill="black"/>
<path d="M184.481 150.915H178.211V157.183H184.481V150.915Z" fill="black"/>
<path d="M184.481 144.743H178.211V150.947H184.481V144.743Z" fill="#FFDD1A"/>
<path d="M184.481 138.474H178.211V144.742H184.481V138.474Z" fill="#FFDD1A"/>
<path d="M184.481 132.27H178.211V138.474H184.481V132.27Z" fill="#FFDD1A"/>
<path d="M184.481 126.002H178.211V132.27H184.481V126.002Z" fill="#FFDD1A"/>
<path d="M184.481 119.734H178.211V126.002H184.481V119.734Z" fill="white"/>
<path d="M184.481 113.562H178.211V119.766H184.481V113.562Z" fill="black"/>
<path d="M178.242 231.953H172.036V238.157H178.242V231.953Z" fill="black"/>
<path d="M178.242 225.685H172.036V231.953H178.242V225.685Z" fill="#AFAFAF"/>
<path d="M178.242 219.481H172.036V225.685H178.242V219.481Z" fill="black"/>
<path d="M178.242 213.245H172.036V219.513H178.242V213.245Z" fill="#AF370D"/>
<path d="M178.242 207.04H172.036V213.245H178.242V207.04Z" fill="#F7A285"/>
<path d="M178.242 200.772H172.036V207.04H178.242V200.772Z" fill="#F7A285"/>
<path d="M178.242 194.568H172.036V200.772H178.242V194.568Z" fill="black"/>
<path d="M178.242 188.3H172.036V194.568H178.242V188.3Z" fill="black"/>
<path d="M178.242 182.096H172.036V188.3H178.242V182.096Z" fill="#EA9E09"/>
<path d="M178.242 175.859H172.036V182.128H178.242V175.859Z" fill="#FFDD1A"/>
<path d="M178.242 169.655H172.036V175.859H178.242V169.655Z" fill="#EA9E09"/>
<path d="M178.242 163.387H172.036V169.655H178.242V163.387Z" fill="#FFDD1A"/>
<path d="M178.242 157.183H172.036V163.387H178.242V157.183Z" fill="#FFDD1A"/>
<path d="M178.242 150.915H172.036V157.183H178.242V150.915Z" fill="#FFDD1A"/>
<path d="M178.242 144.743H172.036V150.947H178.242V144.743Z" fill="#EA9E09"/>
<path d="M178.242 138.474H172.036V144.742H178.242V138.474Z" fill="#FFDD1A"/>
<path d="M178.242 132.27H172.036V138.474H178.242V132.27Z" fill="#FFDD1A"/>
<path d="M178.242 126.002H172.036V132.27H178.242V126.002Z" fill="#FFDD1A"/>
<path d="M178.242 119.734H172.036V126.002H178.242V119.734Z" fill="black"/>
<path d="M178.242 94.8214H172.036V101.089H178.242V94.8214Z" fill="black"/>
<path d="M178.242 88.6171H172.036V94.8215H178.242V88.6171Z" fill="black"/>
<path d="M178.242 82.3492H172.036V88.6172H178.242V82.3492Z" fill="black"/>
<path d="M172.036 231.953H165.766V238.157H172.036V231.953Z" fill="black"/>
<path d="M172.036 225.685H165.766V231.953H172.036V225.685Z" fill="black"/>
<path d="M172.036 219.481H165.766V225.685H172.036V219.481Z" fill="black"/>
<path d="M172.036 213.245H165.766V219.513H172.036V213.245Z" fill="#AF370D"/>
<path d="M172.036 207.04H165.766V213.245H172.036V207.04Z" fill="#AF370D"/>
<path d="M172.036 200.772H165.766V207.04H172.036V200.772Z" fill="#AF370D"/>
<path d="M172.036 194.568H165.766V200.772H172.036V194.568Z" fill="#AF370D"/>
<path d="M172.036 188.3H165.766V194.568H172.036V188.3Z" fill="black"/>
<path d="M172.036 182.096H165.766V188.3H172.036V182.096Z" fill="#EA9E09"/>
<path d="M172.036 175.859H165.766V182.128H172.036V175.859Z" fill="#EA9E09"/>
<path d="M172.036 169.655H165.766V175.859H172.036V169.655Z" fill="#FFDD1A"/>
<path d="M172.036 163.387H165.766V169.655H172.036V163.387Z" fill="#FFDD1A"/>
<path d="M172.036 157.183H165.766V163.387H172.036V157.183Z" fill="#FFDD1A"/>
<path d="M172.036 150.915H165.766V157.183H172.036V150.915Z" fill="#FFDD1A"/>
<path d="M172.036 144.743H165.766V150.947H172.036V144.743Z" fill="#FFDD1A"/>
<path d="M172.036 138.474H165.766V144.742H172.036V138.474Z" fill="#EA9E09"/>
<path d="M172.036 132.27H165.766V138.474H172.036V132.27Z" fill="#FFDD1A"/>
<path d="M172.036 126.002H165.766V132.27H172.036V126.002Z" fill="white"/>
<path d="M172.036 119.734H165.766V126.002H172.036V119.734Z" fill="black"/>
<path d="M172.036 113.562H165.766V119.766H172.036V113.562Z" fill="black"/>
<path d="M172.036 107.294H165.766V113.562H172.036V107.294Z" fill="black"/>
<path d="M172.036 101.089H165.766V107.294H172.036V101.089Z" fill="black"/>
<path d="M172.036 94.8214H165.766V101.089H172.036V94.8214Z" fill="#AF370D"/>
<path d="M172.036 88.6171H165.766V94.8215H172.036V88.6171Z" fill="#AF370D"/>
<path d="M172.036 82.3492H165.766V88.6172H172.036V82.3492Z" fill="#AF370D"/>
<path d="M172.036 76.1767H165.766V82.3811H172.036V76.1767Z" fill="black"/>
<path d="M165.766 213.245H159.56V219.513H165.766V213.245Z" fill="black"/>
<path d="M165.766 207.04H159.56V213.245H165.766V207.04Z" fill="#AF370D"/>
<path d="M165.766 200.772H159.56V207.04H165.766V200.772Z" fill="black"/>
<path d="M165.766 194.568H159.56V200.772H165.766V194.568Z" fill="black"/>
<path d="M165.766 188.3H159.56V194.568H165.766V188.3Z" fill="black"/>
<path d="M165.766 182.096H159.56V188.3H165.766V182.096Z" fill="black"/>
<path d="M165.766 175.859H159.56V182.128H165.766V175.859Z" fill="black"/>
<path d="M165.766 169.655H159.56V175.859H165.766V169.655Z" fill="white"/>
<path d="M165.766 163.387H159.56V169.655H165.766V163.387Z" fill="white"/>
<path d="M165.766 157.183H159.56V163.387H165.766V157.183Z" fill="white"/>
<path d="M165.766 150.915H159.56V157.183H165.766V150.915Z" fill="white"/>
<path d="M165.766 144.743H159.56V150.947H165.766V144.743Z" fill="white"/>
<path d="M165.766 138.474H159.56V144.742H165.766V138.474Z" fill="white"/>
<path d="M165.766 132.27H159.56V138.474H165.766V132.27Z" fill="black"/>
<path d="M165.766 126.002H159.56V132.27H165.766V126.002Z" fill="black"/>
<path d="M165.766 119.734H159.56V126.002H165.766V119.734Z" fill="#F1B380"/>
<path d="M165.766 113.562H159.56V119.766H165.766V113.562Z" fill="black"/>
<path d="M165.766 107.294H159.56V113.562H165.766V107.294Z" fill="black"/>
<path d="M165.766 101.089H159.56V107.294H165.766V101.089Z" fill="black"/>
<path d="M165.766 94.8214H159.56V101.089H165.766V94.8214Z" fill="#AF370D"/>
<path d="M165.766 88.6171H159.56V94.8215H165.766V88.6171Z" fill="#C53C0D"/>
<path d="M165.766 82.3492H159.56V88.6172H165.766V82.3492Z" fill="#C53C0D"/>
<path d="M165.766 76.1767H159.56V82.3811H165.766V76.1767Z" fill="#F7A285"/>
<path d="M165.766 69.9087H159.56V76.1767H165.766V69.9087Z" fill="black"/>
<path d="M159.591 207.04H153.321V213.245H159.591V207.04Z" fill="black"/>
<path d="M159.591 200.772H153.321V207.04H159.591V200.772Z" fill="#AFAFAF"/>
<path d="M159.591 194.568H153.321V200.772H159.591V194.568Z" fill="#AFAFAF"/>
<path d="M159.591 188.3H153.321V194.568H159.591V188.3Z" fill="black"/>
<path d="M159.591 182.096H153.321V188.3H159.591V182.096Z" fill="black"/>
<path d="M159.591 175.859H153.321V182.128H159.591V175.859Z" fill="#E6E6E6"/>
<path d="M159.591 169.655H153.321V175.859H159.591V169.655Z" fill="black"/>
<path d="M159.591 163.387H153.321V169.655H159.591V163.387Z" fill="black"/>
<path d="M159.591 157.183H153.321V163.387H159.591V157.183Z" fill="black"/>
<path d="M159.591 150.915H153.321V157.183H159.591V150.915Z" fill="black"/>
<path d="M159.591 144.743H153.321V150.947H159.591V144.743Z" fill="black"/>
<path d="M159.591 138.474H153.321V144.742H159.591V138.474Z" fill="black"/>
<path d="M159.591 132.27H153.321V138.474H159.591V132.27Z" fill="black"/>
<path d="M159.591 126.002H153.321V132.27H159.591V126.002Z" fill="#F1B380"/>
<path d="M159.591 119.734H153.321V126.002H159.591V119.734Z" fill="#E4976F"/>
<path d="M159.591 113.562H153.321V119.766H159.591V113.562Z" fill="#F1B380"/>
<path d="M159.591 107.294H153.321V113.562H159.591V107.294Z" fill="#E4976F"/>
<path d="M159.591 101.089H153.321V107.294H159.591V101.089Z" fill="black"/>
<path d="M159.591 94.8214H153.321V101.089H159.591V94.8214Z" fill="#AF370D"/>
<path d="M159.591 88.6171H153.321V94.8215H159.591V88.6171Z" fill="#C53C0D"/>
<path d="M159.591 82.3492H153.321V88.6172H159.591V82.3492Z" fill="#C53C0D"/>
<path d="M159.591 76.1767H153.321V82.3811H159.591V76.1767Z" fill="#F7A285"/>
<path d="M159.591 69.9087H153.321V76.1767H159.591V69.9087Z" fill="black"/>
<path d="M153.321 207.04H147.051V213.245H153.321V207.04Z" fill="black"/>
<path d="M153.321 200.772H147.051V207.04H153.321V200.772Z" fill="#AFAFAF"/>
<path d="M153.321 194.568H147.051V200.772H153.321V194.568Z" fill="#E6E6E6"/>
<path d="M153.321 188.3H147.051V194.568H153.321V188.3Z" fill="#AFAFAF"/>
<path d="M153.321 182.096H147.051V188.3H153.321V182.096Z" fill="#E6E6E6"/>
<path d="M153.321 175.859H147.051V182.128H153.321V175.859Z" fill="black"/>
<path d="M153.321 169.655H147.051V175.859H153.321V169.655Z" fill="#AFAFAF"/>
<path d="M153.321 163.387H147.051V169.655H153.321V163.387Z" fill="#AFAFAF"/>
<path d="M153.321 157.183H147.051V163.387H153.321V157.183Z" fill="#AFAFAF"/>
<path d="M153.321 150.915H147.051V157.183H153.321V150.915Z" fill="#AFAFAF"/>
<path d="M153.321 144.743H147.051V150.947H153.321V144.743Z" fill="#AFAFAF"/>
<path d="M153.321 138.474H147.051V144.742H153.321V138.474Z" fill="#E6E6E6"/>
<path d="M153.321 132.27H147.051V138.474H153.321V132.27Z" fill="black"/>
<path d="M153.321 126.002H147.051V132.27H153.321V126.002Z" fill="#F1B380"/>
<path d="M153.321 119.734H147.051V126.002H153.321V119.734Z" fill="#F1B380"/>
<path d="M153.321 113.562H147.051V119.766H153.321V113.562Z" fill="#F1B380"/>
<path d="M153.321 107.294H147.051V113.562H153.321V107.294Z" fill="#E4976F"/>
<path d="M153.321 101.089H147.051V107.294H153.321V101.089Z" fill="black"/>
<path d="M153.321 94.8214H147.051V101.089H153.321V94.8214Z" fill="#AF370D"/>
<path d="M153.321 88.6171H147.051V94.8215H153.321V88.6171Z" fill="#AF370D"/>
<path d="M153.321 82.3492H147.051V88.6172H153.321V82.3492Z" fill="#C53C0D"/>
<path d="M153.321 76.1767H147.051V82.3811H153.321V76.1767Z" fill="#F7A285"/>
<path d="M153.321 69.9087H147.051V76.1767H153.321V69.9087Z" fill="black"/>
<path d="M147.083 207.04H140.877V213.245H147.083V207.04Z" fill="black"/>
<path d="M147.083 200.772H140.877V207.04H147.083V200.772Z" fill="#AFAFAF"/>
<path d="M147.083 194.568H140.877V200.772H147.083V194.568Z" fill="#AFAFAF"/>
<path d="M147.083 188.3H140.877V194.568H147.083V188.3Z" fill="#E6E6E6"/>
<path d="M147.083 182.096H140.877V188.3H147.083V182.096Z" fill="white"/>
<path d="M147.083 175.859H140.877V182.128H147.083V175.859Z" fill="black"/>
<path d="M147.083 169.655H140.877V175.859H147.083V169.655Z" fill="#AFAFAF"/>
<path d="M147.083 163.387H140.877V169.655H147.083V163.387Z" fill="#E6E6E6"/>
<path d="M147.083 157.183H140.877V163.387H147.083V157.183Z" fill="#AFAFAF"/>
<path d="M147.083 150.915H140.877V157.183H147.083V150.915Z" fill="#E6E6E6"/>
<path d="M147.083 144.743H140.877V150.947H147.083V144.743Z" fill="#E6E6E6"/>
<path d="M147.083 138.474H140.877V144.742H147.083V138.474Z" fill="#AFAFAF"/>
<path d="M147.083 132.27H140.877V138.474H147.083V132.27Z" fill="black"/>
<path d="M147.083 126.002H140.877V132.27H147.083V126.002Z" fill="#F1B380"/>
<path d="M147.083 119.734H140.877V126.002H147.083V119.734Z" fill="#F1B380"/>
<path d="M147.083 113.562H140.877V119.766H147.083V113.562Z" fill="black"/>
<path d="M147.083 107.294H140.877V113.562H147.083V107.294Z" fill="black"/>
<path d="M147.083 101.089H140.877V107.294H147.083V101.089Z" fill="black"/>
<path d="M147.083 94.8214H140.877V101.089H147.083V94.8214Z" fill="#AF370D"/>
<path d="M147.083 88.6171H140.877V94.8215H147.083V88.6171Z" fill="#C53C0D"/>
<path d="M147.083 82.3492H140.877V88.6172H147.083V82.3492Z" fill="#C53C0D"/>
<path d="M147.083 76.1767H140.877V82.3811H147.083V76.1767Z" fill="#F7A285"/>
<path d="M147.083 69.9087H140.877V76.1767H147.083V69.9087Z" fill="black"/>
<path d="M140.877 207.04H134.607V213.245H140.877V207.04Z" fill="black"/>
<path d="M140.877 200.772H134.607V207.04H140.877V200.772Z" fill="#AFAFAF"/>
<path d="M140.877 194.568H134.607V200.772H140.877V194.568Z" fill="#E6E6E6"/>
<path d="M140.877 188.3H134.607V194.568H140.877V188.3Z" fill="white"/>
<path d="M140.877 182.096H134.607V188.3H140.877V182.096Z" fill="#E6E6E6"/>
<path d="M140.877 175.859H134.607V182.128H140.877V175.859Z" fill="black"/>
<path d="M140.877 169.655H134.607V175.859H140.877V169.655Z" fill="#AFAFAF"/>
<path d="M140.877 163.387H134.607V169.655H140.877V163.387Z" fill="#AFAFAF"/>
<path d="M140.877 157.183H134.607V163.387H140.877V157.183Z" fill="#E6E6E6"/>
<path d="M140.877 150.915H134.607V157.183H140.877V150.915Z" fill="white"/>
<path d="M140.877 144.743H134.607V150.947H140.877V144.743Z" fill="#AFAFAF"/>
<path d="M140.877 138.474H134.607V144.742H140.877V138.474Z" fill="#E6E6E6"/>
<path d="M140.877 132.27H134.607V138.474H140.877V132.27Z" fill="black"/>
<path d="M140.877 126.002H134.607V132.27H140.877V126.002Z" fill="#F1B380"/>
<path d="M140.877 119.734H134.607V126.002H140.877V119.734Z" fill="#F1B380"/>
<path d="M140.877 113.562H134.607V119.766H140.877V113.562Z" fill="#E4976F"/>
<path d="M140.877 107.294H134.607V113.562H140.877V107.294Z" fill="#E4976F"/>
<path d="M140.877 101.089H134.607V107.294H140.877V101.089Z" fill="black"/>
<path d="M140.877 94.8214H134.607V101.089H140.877V94.8214Z" fill="#AF370D"/>
<path d="M140.877 88.6171H134.607V94.8215H140.877V88.6171Z" fill="#C53C0D"/>
<path d="M140.877 82.3492H134.607V88.6172H140.877V82.3492Z" fill="#F7A285"/>
<path d="M140.877 76.1767H134.607V82.3811H140.877V76.1767Z" fill="black"/>
<path d="M134.639 207.04H128.369V213.245H134.639V207.04Z" fill="black"/>
<path d="M134.639 200.772H128.369V207.04H134.639V200.772Z" fill="#AFAFAF"/>
<path d="M134.639 194.568H128.369V200.772H134.639V194.568Z" fill="white"/>
<path d="M134.639 188.3H128.369V194.568H134.639V188.3Z" fill="#E6E6E6"/>
<path d="M134.639 182.096H128.369V188.3H134.639V182.096Z" fill="white"/>
<path d="M134.639 175.859H128.369V182.128H134.639V175.859Z" fill="black"/>
<path d="M134.639 169.655H128.369V175.859H134.639V169.655Z" fill="#AFAFAF"/>
<path d="M134.639 163.387H128.369V169.655H134.639V163.387Z" fill="#E6E6E6"/>
<path d="M134.639 157.183H128.369V163.387H134.639V157.183Z" fill="white"/>
<path d="M134.639 150.915H128.369V157.183H134.639V150.915Z" fill="#E6E6E6"/>
<path d="M134.639 144.743H128.369V150.947H134.639V144.743Z" fill="white"/>
<path d="M134.639 138.474H128.369V144.742H134.639V138.474Z" fill="#AFAFAF"/>
<path d="M134.639 132.27H128.369V138.474H134.639V132.27Z" fill="black"/>
<path d="M134.639 126.002H128.369V132.27H134.639V126.002Z" fill="#F1B380"/>
<path d="M134.639 119.734H128.369V126.002H134.639V119.734Z" fill="#E4976F"/>
<path d="M134.639 113.562H128.369V119.766H134.639V113.562Z" fill="black"/>
<path d="M134.639 107.294H128.369V113.562H134.639V107.294Z" fill="black"/>
<path d="M134.639 101.089H128.369V107.294H134.639V101.089Z" fill="#AF370D"/>
<path d="M134.639 94.8214H128.369V101.089H134.639V94.8214Z" fill="#C53C0D"/>
<path d="M134.639 88.6171H128.369V94.8215H134.639V88.6171Z" fill="#F7A285"/>
<path d="M134.639 82.3492H128.369V88.6172H134.639V82.3492Z" fill="black"/>
<path d="M128.368 219.481H122.162V225.685H128.368V219.481Z" fill="black"/>
<path d="M128.368 213.245H122.162V219.513H128.368V213.245Z" fill="black"/>
<path d="M128.368 207.04H122.162V213.245H128.368V207.04Z" fill="#AF370D"/>
<path d="M128.368 200.772H122.162V207.04H128.368V200.772Z" fill="black"/>
<path d="M128.368 194.568H122.162V200.772H128.368V194.568Z" fill="black"/>
<path d="M128.368 188.3H122.162V194.568H128.368V188.3Z" fill="black"/>
<path d="M128.368 182.096H122.162V188.3H128.368V182.096Z" fill="white"/>
<path d="M128.368 175.859H122.162V182.128H128.368V175.859Z" fill="black"/>
<path d="M128.368 169.655H122.162V175.859H128.368V169.655Z" fill="black"/>
<path d="M128.368 163.387H122.162V169.655H128.368V163.387Z" fill="black"/>
<path d="M128.368 157.183H122.162V163.387H128.368V157.183Z" fill="black"/>
<path d="M128.368 150.915H122.162V157.183H128.368V150.915Z" fill="white"/>
<path d="M128.368 144.743H122.162V150.947H128.368V144.743Z" fill="#E6E6E6"/>
<path d="M128.368 138.474H122.162V144.742H128.368V138.474Z" fill="white"/>
<path d="M128.368 132.27H122.162V138.474H128.368V132.27Z" fill="black"/>
<path d="M128.368 126.002H122.162V132.27H128.368V126.002Z" fill="#E4976F"/>
<path d="M128.368 119.734H122.162V126.002H128.368V119.734Z" fill="black"/>
<path d="M128.368 113.562H122.162V119.766H128.368V113.562Z" fill="#AF370D"/>
<path d="M128.368 107.294H122.162V113.562H128.368V107.294Z" fill="#AF370D"/>
<path d="M128.368 101.089H122.162V107.294H128.368V101.089Z" fill="#C53C0D"/>
<path d="M128.368 94.8214H122.162V101.089H128.368V94.8214Z" fill="#C53C0D"/>
<path d="M128.368 88.6171H122.162V94.8215H128.368V88.6171Z" fill="#F7A285"/>
<path d="M128.368 82.3492H122.162V88.6172H128.368V82.3492Z" fill="black"/>
<path d="M122.162 231.953H115.892V238.157H122.162V231.953Z" fill="black"/>
<path d="M122.162 225.685H115.892V231.953H122.162V225.685Z" fill="black"/>
<path d="M122.162 219.481H115.892V225.685H122.162V219.481Z" fill="#AF370D"/>
<path d="M122.162 213.245H115.892V219.513H122.162V213.245Z" fill="#AF370D"/>
<path d="M122.162 207.04H115.892V213.245H122.162V207.04Z" fill="#C53C0D"/>
<path d="M122.162 200.772H115.892V207.04H122.162V200.772Z" fill="#AF370D"/>
<path d="M122.162 194.568H115.892V200.772H122.162V194.568Z" fill="#C53C0D"/>
<path d="M122.162 188.3H115.892V194.568H122.162V188.3Z" fill="black"/>
<path d="M122.162 182.096H115.892V188.3H122.162V182.096Z" fill="black"/>
<path d="M122.162 175.859H115.892V182.128H122.162V175.859Z" fill="black"/>
<path d="M122.162 169.655H115.892V175.859H122.162V169.655Z" fill="#E6E6E6"/>
<path d="M122.162 163.387H115.892V169.655H122.162V163.387Z" fill="#E6E6E6"/>
<path d="M122.162 157.183H115.892V163.387H122.162V157.183Z" fill="white"/>
<path d="M122.162 150.915H115.892V157.183H122.162V150.915Z" fill="#E6E6E6"/>
<path d="M122.162 144.743H115.892V150.947H122.162V144.743Z" fill="white"/>
<path d="M122.162 138.474H115.892V144.742H122.162V138.474Z" fill="black"/>
<path d="M122.162 132.27H115.892V138.474H122.162V132.27Z" fill="white"/>
<path d="M122.162 126.002H115.892V132.27H122.162V126.002Z" fill="black"/>
<path d="M122.162 119.734H115.892V126.002H122.162V119.734Z" fill="#AF370D"/>
<path d="M122.162 113.562H115.892V119.766H122.162V113.562Z" fill="#C53C0D"/>
<path d="M122.162 107.294H115.892V113.562H122.162V107.294Z" fill="#C53C0D"/>
<path d="M122.162 101.089H115.892V107.294H122.162V101.089Z" fill="#C53C0D"/>
<path d="M122.162 94.8214H115.892V101.089H122.162V94.8214Z" fill="#F7A285"/>
<path d="M122.162 88.6171H115.892V94.8215H122.162V88.6171Z" fill="black"/>
<path d="M115.924 231.953H109.718V238.157H115.924V231.953Z" fill="black"/>
<path d="M115.924 225.685H109.718V231.953H115.924V225.685Z" fill="#AFAFAF"/>
<path d="M115.924 219.481H109.718V225.685H115.924V219.481Z" fill="black"/>
<path d="M115.924 213.245H109.718V219.513H115.924V213.245Z" fill="#C53C0D"/>
<path d="M115.924 207.04H109.718V213.245H115.924V207.04Z" fill="#C53C0D"/>
<path d="M115.924 200.772H109.718V207.04H115.924V200.772Z" fill="#C53C0D"/>
<path d="M115.924 194.568H109.718V200.772H115.924V194.568Z" fill="black"/>
<path d="M115.924 188.3H109.718V194.568H115.924V188.3Z" fill="white"/>
<path d="M115.924 182.096H109.718V188.3H115.924V182.096Z" fill="black"/>
<path d="M115.924 175.859H109.718V182.128H115.924V175.859Z" fill="#E6E6E6"/>
<path d="M115.924 169.655H109.718V175.859H115.924V169.655Z" fill="#E6E6E6"/>
<path d="M115.924 163.387H109.718V169.655H115.924V163.387Z" fill="#E6E6E6"/>
<path d="M115.924 157.183H109.718V163.387H115.924V157.183Z" fill="white"/>
<path d="M115.924 150.915H109.718V157.183H115.924V150.915Z" fill="black"/>
<path d="M115.924 144.743H109.718V150.947H115.924V144.743Z" fill="black"/>
<path d="M115.924 138.474H109.718V144.742H115.924V138.474Z" fill="white"/>
<path d="M115.924 132.27H109.718V138.474H115.924V132.27Z" fill="white"/>
<path d="M115.924 126.002H109.718V132.27H115.924V126.002Z" fill="white"/>
<path d="M115.924 119.734H109.718V126.002H115.924V119.734Z" fill="black"/>
<path d="M115.924 113.562H109.718V119.766H115.924V113.562Z" fill="black"/>
<path d="M115.924 107.294H109.718V113.562H115.924V107.294Z" fill="black"/>
<path d="M115.924 101.089H109.718V107.294H115.924V101.089Z" fill="black"/>
<path d="M115.924 94.8214H109.718V101.089H115.924V94.8214Z" fill="black"/>
<path d="M109.718 231.953H103.448V238.157H109.718V231.953Z" fill="black"/>
<path d="M109.718 225.685H103.448V231.953H109.718V225.685Z" fill="#AFAFAF"/>
<path d="M109.718 219.481H103.448V225.685H109.718V219.481Z" fill="black"/>
<path d="M109.718 213.245H103.448V219.513H109.718V213.245Z" fill="#C53C0D"/>
<path d="M109.718 207.04H103.448V213.245H109.718V207.04Z" fill="#F7A285"/>
<path d="M109.718 200.772H103.448V207.04H109.718V200.772Z" fill="black"/>
<path d="M109.718 188.3H103.448V194.568H109.718V188.3Z" fill="black"/>
<path d="M109.718 182.096H103.448V188.3H109.718V182.096Z" fill="black"/>
<path d="M109.718 175.859H103.448V182.128H109.718V175.859Z" fill="#E6E6E6"/>
<path d="M109.718 169.655H103.448V175.859H109.718V169.655Z" fill="black"/>
<path d="M109.718 163.387H103.448V169.655H109.718V163.387Z" fill="black"/>
<path d="M109.718 157.183H103.448V163.387H109.718V157.183Z" fill="black"/>
<path d="M109.718 150.915H103.448V157.183H109.718V150.915Z" fill="#EA9E09"/>
<path d="M109.718 144.743H103.448V150.947H109.718V144.743Z" fill="#EA9E09"/>
<path d="M109.718 138.474H103.448V144.742H109.718V138.474Z" fill="black"/>
<path d="M109.718 132.27H103.448V138.474H109.718V132.27Z" fill="black"/>
<path d="M109.718 126.002H103.448V132.27H109.718V126.002Z" fill="black"/>
<path d="M109.718 119.734H103.448V126.002H109.718V119.734Z" fill="black"/>
<path d="M109.718 113.562H103.448V119.766H109.718V113.562Z" fill="black"/>
<path d="M109.718 107.294H103.448V113.562H109.718V107.294Z" fill="black"/>
<path d="M109.718 101.089H103.448V107.294H109.718V101.089Z" fill="black"/>
<path d="M109.718 94.8214H103.448V101.089H109.718V94.8214Z" fill="black"/>
<path d="M109.718 88.6171H103.448V94.8215H109.718V88.6171Z" fill="black"/>
<path d="M109.718 82.3492H103.448V88.6172H109.718V82.3492Z" fill="black"/>
<path d="M109.718 76.1767H103.448V82.3811H109.718V76.1767Z" fill="black"/>
<path d="M109.718 69.9087H103.448V76.1767H109.718V69.9087Z" fill="black"/>
<path d="M109.718 63.7044H103.448V69.9087H109.718V63.7044Z" fill="black"/>
<path d="M109.718 57.4364H103.448V63.7044H109.718V57.4364Z" fill="black"/>
<path d="M109.718 51.2321H103.448V57.4364H109.718V51.2321Z" fill="black"/>
<path d="M103.479 231.953H97.2092V238.157H103.479V231.953Z" fill="black"/>
<path d="M103.479 225.685H97.2092V231.953H103.479V225.685Z" fill="white"/>
<path d="M103.479 219.481H97.2092V225.685H103.479V219.481Z" fill="black"/>
<path d="M103.479 213.245H97.2092V219.513H103.479V213.245Z" fill="black"/>
<path d="M103.479 207.04H97.2092V213.245H103.479V207.04Z" fill="black"/>
<path d="M103.479 188.3H97.2092V194.568H103.479V188.3Z" fill="black"/>
<path d="M103.479 182.096H97.2092V188.3H103.479V182.096Z" fill="#EA9E09"/>
<path d="M103.479 175.859H97.2092V182.128H103.479V175.859Z" fill="black"/>
<path d="M103.479 169.655H97.2092V175.859H103.479V169.655Z" fill="#E4976F"/>
<path d="M103.479 163.387H97.2092V169.655H103.479V163.387Z" fill="#E4976F"/>
<path d="M103.479 157.183H97.2092V163.387H103.479V157.183Z" fill="#F1B380"/>
<path d="M103.479 150.915H97.2092V157.183H103.479V150.915Z" fill="black"/>
<path d="M103.479 144.743H97.2092V150.947H103.479V144.743Z" fill="#EA9E09"/>
<path d="M103.479 138.474H97.2092V144.742H103.479V138.474Z" fill="black"/>
<path d="M103.479 132.27H97.2092V138.474H103.479V132.27Z" fill="#AFAFAF"/>
<path d="M103.479 126.002H97.2092V132.27H103.479V126.002Z" fill="#AFAFAF"/>
<path d="M103.479 119.734H97.2092V126.002H103.479V119.734Z" fill="#AFAFAF"/>
<path d="M103.479 113.562H97.2092V119.766H103.479V113.562Z" fill="#AFAFAF"/>
<path d="M103.479 107.294H97.2092V113.562H103.479V107.294Z" fill="#AFAFAF"/>
<path d="M103.479 101.089H97.2092V107.294H103.479V101.089Z" fill="#AFAFAF"/>
<path d="M103.479 94.8214H97.2092V101.089H103.479V94.8214Z" fill="#AFAFAF"/>
<path d="M103.479 88.6171H97.2092V94.8215H103.479V88.6171Z" fill="#AFAFAF"/>
<path d="M103.479 82.3492H97.2092V88.6172H103.479V82.3492Z" fill="#AFAFAF"/>
<path d="M103.479 76.1767H97.2092V82.3811H103.479V76.1767Z" fill="#AFAFAF"/>
<path d="M103.479 69.9087H97.2092V76.1767H103.479V69.9087Z" fill="#AFAFAF"/>
<path d="M103.479 63.7044H97.2092V69.9087H103.479V63.7044Z" fill="#AFAFAF"/>
<path d="M103.479 57.4364H97.2092V63.7044H103.479V57.4364Z" fill="#AFAFAF"/>
<path d="M103.479 51.2321H97.2092V57.4364H103.479V51.2321Z" fill="#AFAFAF"/>
<path d="M103.479 44.996H97.2092V51.264H103.479V44.996Z" fill="black"/>
<path d="M97.2093 231.953H91.0029V238.157H97.2093V231.953Z" fill="black"/>
<path d="M97.2093 225.685H91.0029V231.953H97.2093V225.685Z" fill="black"/>
<path d="M97.2093 188.3H91.0029V194.568H97.2093V188.3Z" fill="black"/>
<path d="M97.2093 182.096H91.0029V188.3H97.2093V182.096Z" fill="#FFDD1A"/>
<path d="M97.2093 175.859H91.0029V182.128H97.2093V175.859Z" fill="black"/>
<path d="M97.2093 169.655H91.0029V175.859H97.2093V169.655Z" fill="#E4976F"/>
<path d="M97.2093 163.387H91.0029V169.655H97.2093V163.387Z" fill="#F1B380"/>
<path d="M97.2093 157.183H91.0029V163.387H97.2093V157.183Z" fill="#F1B380"/>
<path d="M97.2093 150.915H91.0029V157.183H97.2093V150.915Z" fill="black"/>
<path d="M97.2093 144.743H91.0029V150.947H97.2093V144.743Z" fill="#FFDD1A"/>
<path d="M97.2093 138.474H91.0029V144.742H97.2093V138.474Z" fill="black"/>
<path d="M97.2093 132.27H91.0029V138.474H97.2093V132.27Z" fill="#E6E6E6"/>
<path d="M97.2093 126.002H91.0029V132.27H97.2093V126.002Z" fill="#E6E6E6"/>
<path d="M97.2093 119.734H91.0029V126.002H97.2093V119.734Z" fill="white"/>
<path d="M97.2093 113.562H91.0029V119.766H97.2093V113.562Z" fill="white"/>
<path d="M97.2093 107.294H91.0029V113.562H97.2093V107.294Z" fill="white"/>
<path d="M97.2093 101.089H91.0029V107.294H97.2093V101.089Z" fill="#E6E6E6"/>
<path d="M97.2093 94.8214H91.0029V101.089H97.2093V94.8214Z" fill="#E6E6E6"/>
<path d="M97.2093 88.6171H91.0029V94.8215H97.2093V88.6171Z" fill="#E6E6E6"/>
<path d="M97.2093 82.3492H91.0029V88.6172H97.2093V82.3492Z" fill="#E6E6E6"/>
<path d="M97.2093 76.1767H91.0029V82.3811H97.2093V76.1767Z" fill="#E6E6E6"/>
<path d="M97.2093 69.9087H91.0029V76.1767H97.2093V69.9087Z" fill="white"/>
<path d="M97.2093 63.7044H91.0029V69.9087H97.2093V63.7044Z" fill="white"/>
<path d="M97.2093 57.4364H91.0029V63.7044H97.2093V57.4364Z" fill="white"/>
<path d="M97.2093 51.2321H91.0029V57.4364H97.2093V51.2321Z" fill="white"/>
<path d="M97.2093 44.996H91.0029V51.264H97.2093V44.996Z" fill="white"/>
<path d="M97.2093 38.7917H91.0029V44.996H97.2093V38.7917Z" fill="black"/>
<path d="M91.0347 182.096H84.7646V188.3H91.0347V182.096Z" fill="black"/>
<path d="M91.0347 169.655H84.7646V175.859H91.0347V169.655Z" fill="black"/>
<path d="M91.0347 163.387H84.7646V169.655H91.0347V163.387Z" fill="black"/>
<path d="M91.0347 157.183H84.7646V163.387H91.0347V157.183Z" fill="black"/>
<path d="M91.0347 150.915H84.7646V157.183H91.0347V150.915Z" fill="#FFDD1A"/>
<path d="M91.0347 144.743H84.7646V150.947H91.0347V144.743Z" fill="white"/>
<path d="M91.0347 138.474H84.7646V144.742H91.0347V138.474Z" fill="black"/>
<path d="M91.0347 132.27H84.7646V138.474H91.0347V132.27Z" fill="black"/>
<path d="M91.0347 126.002H84.7646V132.27H91.0347V126.002Z" fill="black"/>
<path d="M91.0347 119.734H84.7646V126.002H91.0347V119.734Z" fill="black"/>
<path d="M91.0347 113.562H84.7646V119.766H91.0347V113.562Z" fill="black"/>
<path d="M91.0347 107.294H84.7646V113.562H91.0347V107.294Z" fill="black"/>
<path d="M91.0347 101.089H84.7646V107.294H91.0347V101.089Z" fill="black"/>
<path d="M91.0347 94.8214H84.7646V101.089H91.0347V94.8214Z" fill="black"/>
<path d="M91.0347 88.6171H84.7646V94.8215H91.0347V88.6171Z" fill="black"/>
<path d="M91.0347 82.3492H84.7646V88.6172H91.0347V82.3492Z" fill="black"/>
<path d="M91.0347 76.1767H84.7646V82.3811H91.0347V76.1767Z" fill="black"/>
<path d="M91.0347 69.9087H84.7646V76.1767H91.0347V69.9087Z" fill="black"/>
<path d="M91.0347 63.7044H84.7646V69.9087H91.0347V63.7044Z" fill="black"/>
<path d="M91.0347 57.4364H84.7646V63.7044H91.0347V57.4364Z" fill="black"/>
<path d="M91.0347 51.2321H84.7646V57.4364H91.0347V51.2321Z" fill="black"/>
<path d="M91.0347 44.996H84.7646V51.264H91.0347V44.996Z" fill="black"/>
<path d="M91.0347 38.7917H84.7646V44.996H91.0347V38.7917Z" fill="black"/>
<path d="M91.0347 32.5237H84.7646V38.7916H91.0347V32.5237Z" fill="black"/>
<path d="M84.7647 150.915H78.4946V157.183H84.7647V150.915Z" fill="black"/>
<path d="M84.7647 144.743H78.4946V150.947H84.7647V144.743Z" fill="black"/>
</g>
<defs>
<clipPath id="clip0">
<rect x="249.09" y="12.5898" width="30.3513" height="30.4254" rx="10" fill="white"/>
</clipPath>
<clipPath id="clip1">
<rect x="212.459" y="12.5898" width="30.3513" height="30.4254" rx="10" fill="white"/>
</clipPath>
<clipPath id="clip2">
<rect x="78.4946" y="32.5237" width="143.384" height="205.634" rx="10" fill="white"/>
</clipPath>
</defs>
</svg>
