<svg width="26" height="31" viewBox="0 0 26 31" fill="none" xmlns="http://www.w3.org/2000/svg">
<path opacity="0.85" d="M3.3201 15.7605L12.9512 21.3725V0L3.3201 15.7605Z" fill="#D0D9FB"/>
<path d="M12.9502 0V21.3725L22.5775 15.7605L12.9502 0Z" fill="#B9C6F6"/>
<path d="M12.9512 11.4402L3.3201 15.7602L12.9512 21.3722L22.5786 15.7602L12.9512 11.4402Z" fill="#C0CBF6"/>
<path d="M12.9512 11.4402L3.3201 15.7602L12.9512 21.3722L22.5786 15.7602L12.9512 11.4402Z" fill="#C0CBF6"/>
<path d="M12.951 11.4402L12.9517 15.7602L12.951 21.3722L22.5784 15.7602L12.951 11.4402Z" fill="#C0CBF6"/>
<path d="M12.951 11.4402L12.9517 15.7602L12.951 21.3722L22.5784 15.7602L12.951 11.4402Z" fill="#8197EE"/>
<path d="M3.3201 17.5603L12.9512 30.9424V23.1723L3.3201 17.5603Z" fill="#D7DFFB"/>
<path d="M12.9502 23.1723V30.9424L22.5851 17.5603L12.9502 23.1723Z" fill="#B9C6F6"/>
</svg>
