<svg width="392" height="283" viewBox="0 0 392 283" fill="none" xmlns="http://www.w3.org/2000/svg">
<path d="M197 285L174.5 268.5L220.5 283L197 285Z" fill="#2F3037"/>
<path d="M303 278V277L326 275L359.5 282L303 278Z" fill="#2F3037"/>
<path d="M1.00007 169.256C1.00007 169.256 7.64304 184.2 23.7267 196.278C39.8103 208.356 40.5097 208.881 40.5097 208.881L69.4188 144.3C69.4188 144.3 45.8757 139.896 21.4781 126L6.71256 150.314C6.71256 150.313 0.340208 161.016 1.00007 169.256Z" fill="white"/>
<path d="M345.314 157.214C345.314 157.214 360.841 185.014 361.705 199.363C361.705 199.363 369.468 198.466 378.095 189.497C386.721 180.53 391.035 176.045 391.035 167.078C391.035 158.111 391.035 133 391.035 133C391.035 133 380.682 142.866 372.919 147.348C365.154 151.833 345.314 157.214 345.314 157.214Z" fill="white"/>
<path d="M173.133 268.429L219.939 256.687L252.009 273.848L213.871 284.687C213.871 284.687 203.469 284.687 199.136 282.881C194.802 281.072 173.133 268.429 173.133 268.429Z" fill="#DDDEE3"/>
<path d="M224.774 168.408L198.143 195.242C210.17 200.61 226.494 201.504 228.212 184.508C229.929 167.512 213.607 151.412 213.607 151.412C213.607 151.412 224.776 132.627 229.931 123.683C235.086 114.739 233.733 131.5 233.733 131.5L224.774 168.408Z" fill="#C2C7E5"/>
<path d="M232.937 106.773C232.937 106.773 245.877 123.813 247.602 137.264C249.326 150.716 248.464 148.923 245.014 156.994C241.563 165.065 226.038 192 226.038 192C226.038 192 234.214 179.5 213.959 151.613L232.937 106.773Z" fill="white"/>
<path d="M238.071 40.2539L207.151 18.9624C204.686 32.3262 207.344 49.0935 223.681 47.195C240.018 45.2964 251.646 25.2714 251.646 25.2714C251.646 25.2714 271.689 32.5864 281.197 35.9038C290.706 39.2212 274.668 41.4401 274.668 41.4401L238.071 40.2539Z" fill="#C2C7E6"/>
<path d="M297.73 35.3322C297.73 35.3322 284.494 52.1237 272.225 56.7584C259.956 61.3931 261.455 60.133 253.133 58.36C244.811 56.5853 216.176 46.5935 216.176 46.5935C216.176 46.5935 229.673 52.2167 251.533 25.6722L297.73 35.3322Z" fill="white"/>
<path d="M364.569 30.7057C364.569 30.7057 357.668 71.0613 344.728 109.624C344.728 109.624 340.415 115.901 338.69 116.798C338.69 116.798 338.69 89.8942 325.75 68.3716L346.453 54.9197C346.453 54.9197 357.668 50.4352 364.569 30.7057Z" fill="white"/>
<path d="M324.554 255.687L307.8 277.471L319.343 278.36L328.481 277L332.328 279.359L362.572 281.687L374.171 255.687H341.466L336.176 254.5L330.405 255.687H324.554Z" fill="#DDDEE3"/>
</svg>
