<?xml version="1.0" encoding="utf-8"?>
<!-- Generator: Adobe Illustrator 25.4.1, SVG Export Plug-In . SVG Version: 6.00 Build 0)  -->
<svg version="1.1" id="Layer_1" xmlns="http://www.w3.org/2000/svg" xmlns:xlink="http://www.w3.org/1999/xlink" x="0px" y="0px"
	 viewBox="0 0 493 398" style="enable-background:new 0 0 493 398;" xml:space="preserve">
<style type="text/css">
	.st0{fill:#292F46;stroke:#495171;}
	.st1{fill:#0B80D6;}
	.st2{fill:#FFFFFF;}
	.st3{fill:#E4E0BA;}
	.st4{fill:#9FD4FA;}
	.st5{fill:#50A6E4;}
	.st6{fill:#329FEF;}
	.st7{fill:#F3F4F5;}
	.st8{fill:#EF9581;}
	.st9{fill:#5B5B77;}
</style>
<path class="st0" d="M20,0.5h453c10.8,0,19.5,8.7,19.5,19.5v358c0,10.8-8.7,19.5-19.5,19.5H20c-10.8,0-19.5-8.7-19.5-19.5V20
	C0.5,9.2,9.2,0.5,20,0.5z"/>
<path class="st1" d="M53,36v-9.3h2.7c1.1,0,1.9,0.2,2.4,0.6c0.5,0.4,0.8,1,0.8,1.6c0,0.4-0.1,0.9-0.4,1.2c-0.2,0.4-0.6,0.7-1,0.8
	c0.5,0.2,1,0.5,1.3,0.9c0.3,0.4,0.5,0.9,0.5,1.4c0,0.8-0.3,1.4-0.8,1.9c-0.6,0.5-1.4,0.7-2.7,0.7H53z M54,30.5h1.5
	c0.8,0,1.4-0.1,1.7-0.4c0.3-0.3,0.5-0.6,0.5-1.1c0-0.4-0.2-0.8-0.5-1.1c-0.3-0.3-0.8-0.4-1.6-0.4H54V30.5z M54,35.1h1.8
	c0.7,0,1.2-0.1,1.6-0.4c0.4-0.3,0.6-0.7,0.6-1.4c0-0.6-0.2-1-0.6-1.4c-0.4-0.4-1-0.5-1.9-0.5H54V35.1z M61.5,29.1h1.1l0,1.3
	c0.2-0.5,0.5-0.8,0.9-1.1c0.4-0.2,0.8-0.4,1.3-0.4c0.7,0,1.3,0.2,1.8,0.8l-0.5,0.8l-0.1,0.1L66,30.6c0-0.1-0.1-0.2-0.1-0.2
	s-0.1-0.2-0.3-0.3c-0.2-0.1-0.3-0.2-0.4-0.2c-0.1,0-0.3-0.1-0.5-0.1c-0.3,0-0.7,0.1-1,0.3c-0.3,0.2-0.6,0.4-0.8,0.8
	c-0.2,0.4-0.3,0.8-0.3,1.4V36h-1.1V29.1z M68.8,36v-0.9h1.8V30h-1.7v-0.9h2.7v6h1.6V36H68.8z M71,27.7c-0.2,0-0.4-0.1-0.5-0.2
	c-0.2-0.1-0.2-0.3-0.2-0.5c0-0.2,0.1-0.4,0.2-0.6c0.1-0.1,0.3-0.2,0.6-0.2c0.2,0,0.4,0.1,0.5,0.2c0.2,0.1,0.2,0.3,0.2,0.5
	c0,0.2-0.1,0.4-0.2,0.5C71.4,27.6,71.2,27.7,71,27.7z M78.3,36.1c-0.5,0-0.9-0.1-1.3-0.4c-0.4-0.3-0.8-0.7-1.1-1.2
	c-0.3-0.5-0.4-1.2-0.4-2c0-0.8,0.1-1.5,0.4-2c0.3-0.5,0.7-0.9,1.1-1.1c0.5-0.2,0.9-0.4,1.4-0.4c0.5,0,0.9,0.1,1.2,0.3
	c0.3,0.2,0.6,0.5,0.8,0.9V26h1.1v0.1c-0.1,0.1-0.1,0.1-0.1,0.2c0,0.1,0,0.2,0,0.4l0,8.3c0,0.2,0,0.4,0,0.5c0,0.2,0.1,0.3,0.1,0.5
	h-1.1c-0.1-0.2-0.1-0.4-0.1-0.5c0-0.2,0-0.4,0-0.5c-0.2,0.4-0.5,0.7-0.8,0.9C79.1,36,78.7,36.1,78.3,36.1z M78.4,35.2
	c0.4,0,0.8-0.1,1.1-0.4c0.3-0.2,0.5-0.6,0.6-1c0.1-0.4,0.2-0.9,0.2-1.3c0-0.8-0.2-1.4-0.5-1.9c-0.3-0.5-0.8-0.8-1.4-0.8
	c-0.6,0-1.1,0.2-1.4,0.7c-0.3,0.5-0.5,1.1-0.5,1.8c0,0.9,0.2,1.6,0.5,2.1C77.3,34.9,77.8,35.2,78.4,35.2z M85.6,33.7
	c-0.4,0-0.7-0.1-1.1-0.2c-0.2,0.2-0.3,0.4-0.3,0.6c0,0.2,0.1,0.4,0.4,0.5c0.3,0.1,0.8,0.2,1.7,0.2c0.7,0,1.2,0.1,1.6,0.2
	c0.4,0.2,0.6,0.4,0.7,0.6c0.1,0.3,0.2,0.6,0.2,0.9c0,0.4-0.1,0.7-0.3,1c-0.2,0.3-0.5,0.6-0.9,0.8c-0.4,0.2-1,0.3-1.7,0.3
	c-1,0-1.7-0.2-2.3-0.5c-0.6-0.3-0.8-0.7-0.8-1.3c0-0.4,0.1-0.7,0.3-0.9c0.2-0.3,0.5-0.5,0.8-0.6c-0.3-0.2-0.5-0.5-0.5-0.9
	c0-0.2,0.1-0.4,0.2-0.6c0.1-0.2,0.3-0.4,0.4-0.6c-0.5-0.5-0.8-1.1-0.8-1.8c0-0.4,0.1-0.8,0.3-1.2c0.2-0.4,0.5-0.6,0.8-0.9
	c0.4-0.2,0.8-0.3,1.3-0.3c0.4,0,0.7,0.1,1,0.2c0.3,0.1,0.6,0.3,0.8,0.5c0.3-0.2,0.5-0.4,0.8-0.5c0.3-0.1,0.6-0.1,1-0.1l0.1,0.9
	c-0.3,0-0.6,0-0.9,0c-0.3,0-0.5,0.1-0.7,0.3c0.2,0.3,0.3,0.7,0.3,1.1c0,0.4-0.1,0.8-0.3,1.2c-0.2,0.4-0.5,0.6-0.8,0.9
	C86.6,33.6,86.1,33.7,85.6,33.7z M85.6,32.8c0.4,0,0.8-0.1,1.1-0.4c0.3-0.3,0.4-0.7,0.4-1.1s-0.1-0.8-0.4-1
	c-0.3-0.3-0.6-0.5-1.1-0.5c-0.4,0-0.8,0.1-1.1,0.5c-0.3,0.3-0.4,0.6-0.4,1s0.1,0.8,0.4,1.1C84.9,32.6,85.2,32.8,85.6,32.8z
	 M83.8,36.7c0,0.3,0.2,0.6,0.6,0.8c0.4,0.2,0.9,0.3,1.6,0.3c0.7,0,1.2-0.1,1.5-0.3c0.3-0.2,0.5-0.5,0.5-0.8c0-0.2,0-0.4-0.1-0.5
	c-0.1-0.1-0.2-0.2-0.5-0.3s-0.6-0.1-1.1-0.1c-0.4,0-0.7,0-1,0c-0.3,0-0.5-0.1-0.8-0.1c-0.2,0.2-0.4,0.3-0.5,0.5
	C83.9,36.2,83.8,36.4,83.8,36.7z M93.8,36.1c-1,0-1.8-0.3-2.4-0.9c-0.6-0.6-0.9-1.5-0.9-2.6c0-0.8,0.1-1.4,0.4-2
	c0.3-0.5,0.7-0.9,1.1-1.2c0.5-0.3,1-0.4,1.6-0.4c0.5,0,1,0.1,1.4,0.3c0.4,0.2,0.8,0.6,1,1.1c0.2,0.5,0.4,1.1,0.4,1.8
	c0,0.1,0,0.2,0,0.3c0,0.1,0,0.2,0,0.2h-4.9c0,0.9,0.3,1.5,0.7,1.9c0.5,0.4,1,0.6,1.6,0.6c0.7,0,1.3-0.3,1.8-0.8l0.6,0.6
	C95.7,35.8,94.9,36.1,93.8,36.1z M91.6,31.9h3.8c0-0.6-0.2-1.1-0.5-1.5c-0.3-0.4-0.7-0.6-1.3-0.6c-0.5,0-0.9,0.2-1.3,0.5
	C91.9,30.6,91.7,31.2,91.6,31.9z"/>
<path class="st2" d="M100.8,36.2c-0.2,0-0.4-0.1-0.6-0.3c-0.2-0.2-0.3-0.4-0.3-0.6s0.1-0.4,0.3-0.6c0.2-0.2,0.4-0.3,0.6-0.3
	c0.2,0,0.4,0.1,0.6,0.3c0.2,0.2,0.3,0.4,0.3,0.6s-0.1,0.4-0.3,0.6C101.3,36.1,101.1,36.2,100.8,36.2z M193.2,37.6
	c-0.8-0.4-1.6-0.9-2.2-1.6c-0.6-0.7-1.1-1.4-1.4-2.2c-0.3-0.8-0.5-1.7-0.5-2.6c0-0.9,0.2-1.7,0.5-2.5c0.3-0.8,0.8-1.5,1.4-2.2
	c0.6-0.6,1.3-1.1,2.1-1.5l0.3,0.9c-0.6,0.3-1.2,0.8-1.7,1.3c-0.5,0.6-0.9,1.2-1.1,1.8c-0.3,0.7-0.4,1.4-0.4,2.1s0.1,1.5,0.4,2.2
	c0.3,0.7,0.7,1.3,1.2,1.9c0.5,0.6,1.1,1,1.8,1.4L193.2,37.6z M87.8,56.4c-0.7,0-1.3-0.1-1.8-0.2c-0.5-0.1-0.8-0.4-1.1-0.8
	c-0.2-0.4-0.3-0.9-0.3-1.6l0.1-1.5c0-0.7-0.1-1.1-0.4-1.3c-0.2-0.2-0.6-0.3-1-0.3H83v-0.8h0.3c0.5,0,0.8-0.1,1-0.4
	c0.2-0.2,0.4-0.7,0.4-1.2l0-1.1c0-1.7,0.9-2.6,2.7-2.6h0.9v0.9h-1.2c-0.9,0-1.4,0.5-1.4,1.6l0,1c0,1.1-0.4,1.8-1.3,2.2
	c0.9,0.3,1.3,1.1,1.3,2.3l0,1.3c0,0.7,0.1,1.2,0.4,1.4c0.3,0.3,0.8,0.4,1.5,0.4h0.8v0.8H87.8z M162.8,75.4c-0.7,0-1.3-0.1-1.8-0.2
	c-0.5-0.1-0.8-0.4-1.1-0.8c-0.2-0.4-0.3-0.9-0.3-1.6l0.1-1.5c0-0.7-0.1-1.1-0.4-1.3c-0.2-0.2-0.6-0.3-1-0.3H158v-0.8h0.3
	c0.5,0,0.8-0.1,1-0.4c0.2-0.2,0.4-0.7,0.4-1.2l0-1.1c0-1.7,0.9-2.6,2.7-2.6h0.9v0.9h-1.2c-0.9,0-1.4,0.5-1.4,1.6l0,1.1
	c0,1.1-0.4,1.8-1.3,2.2c0.9,0.3,1.3,1.1,1.3,2.3l0,1.3c0,0.7,0.1,1.1,0.4,1.4c0.3,0.3,0.8,0.4,1.5,0.4h0.8v0.8H162.8z M272.7,76.5
	l-0.5-0.4c0.3-0.3,0.5-0.5,0.7-0.8c0.2-0.3,0.3-0.5,0.3-0.7c0-0.1-0.1-0.3-0.2-0.4c-0.1-0.1-0.2-0.2-0.4-0.3
	c-0.1-0.1-0.2-0.3-0.2-0.5c0-0.2,0.1-0.5,0.2-0.6c0.2-0.2,0.4-0.3,0.6-0.3c0.3,0,0.5,0.1,0.7,0.3c0.2,0.2,0.3,0.5,0.3,0.9
	C274.3,74.5,273.8,75.4,272.7,76.5z M332.7,76.5l-0.5-0.4c0.3-0.3,0.5-0.5,0.7-0.8c0.2-0.3,0.3-0.5,0.3-0.7c0-0.1-0.1-0.3-0.2-0.4
	c-0.1-0.1-0.2-0.2-0.4-0.3c-0.1-0.1-0.2-0.3-0.2-0.5c0-0.2,0.1-0.5,0.2-0.6c0.2-0.2,0.4-0.3,0.6-0.3c0.3,0,0.5,0.1,0.7,0.3
	c0.2,0.2,0.3,0.5,0.3,0.9C334.3,74.5,333.8,75.4,332.7,76.5z M376.1,75.4h-0.5v-0.8h0.8c0.7,0,1.1-0.1,1.4-0.4
	c0.3-0.3,0.4-0.7,0.4-1.4l0-1.3c0-1.3,0.4-2,1.3-2.3c-0.9-0.4-1.3-1.1-1.3-2.2l0-1.1c0-1.1-0.5-1.6-1.4-1.6h-1.2v-0.9h0.9
	c1.8,0,2.7,0.9,2.7,2.6l0,1.1c0,0.6,0.1,1,0.3,1.2c0.2,0.2,0.6,0.4,1.1,0.4h0.3v0.8h-0.3c-0.4,0-0.8,0.1-1,0.3
	c-0.2,0.2-0.3,0.7-0.3,1.3l0.1,1.5c0,0.7-0.1,1.2-0.3,1.6c-0.2,0.4-0.6,0.6-1.1,0.8C377.4,75.3,376.8,75.4,376.1,75.4z M385.2,76.5
	l-0.5-0.4c0.3-0.3,0.5-0.5,0.7-0.8c0.2-0.3,0.3-0.5,0.3-0.7c0-0.1-0.1-0.3-0.2-0.4c-0.1-0.1-0.2-0.2-0.4-0.3
	c-0.1-0.1-0.2-0.3-0.2-0.5c0-0.2,0.1-0.5,0.2-0.6c0.2-0.2,0.4-0.3,0.6-0.3c0.3,0,0.5,0.1,0.7,0.3c0.2,0.2,0.3,0.5,0.3,0.9
	C386.8,74.5,386.3,75.4,385.2,76.5z M147.8,94.4c-0.7,0-1.3-0.1-1.8-0.2c-0.5-0.1-0.8-0.4-1.1-0.8c-0.2-0.4-0.3-0.9-0.3-1.6l0.1-1.5
	c0-0.7-0.1-1.1-0.4-1.3c-0.2-0.2-0.6-0.3-1-0.3H143v-0.8h0.3c0.5,0,0.8-0.1,1-0.4c0.2-0.2,0.4-0.7,0.4-1.2l0-1.1
	c0-1.7,0.9-2.6,2.7-2.6h0.9v0.9h-1.2c-0.9,0-1.4,0.5-1.4,1.6l0,1.1c0,1.1-0.4,1.8-1.3,2.2c0.9,0.3,1.3,1.1,1.3,2.3l0,1.3
	c0,0.7,0.1,1.1,0.4,1.4c0.3,0.3,0.8,0.4,1.5,0.4h0.8v0.8H147.8z M280.2,95.5l-0.5-0.4c0.3-0.3,0.5-0.5,0.7-0.8
	c0.2-0.3,0.3-0.5,0.3-0.7c0-0.1-0.1-0.3-0.2-0.4c-0.1-0.1-0.2-0.2-0.4-0.3c-0.1-0.1-0.2-0.3-0.2-0.5c0-0.2,0.1-0.5,0.2-0.6
	c0.2-0.2,0.4-0.3,0.6-0.3c0.3,0,0.5,0.1,0.7,0.3c0.2,0.2,0.3,0.5,0.3,0.9C281.8,93.5,281.3,94.4,280.2,95.5z M451.1,94.4h-0.5v-0.8
	h0.8c0.7,0,1.1-0.1,1.4-0.4c0.3-0.3,0.4-0.7,0.4-1.4l0-1.3c0-1.3,0.4-2,1.3-2.3c-0.9-0.4-1.3-1.1-1.3-2.2l0-1.1
	c0-1.1-0.5-1.6-1.4-1.6h-1.2v-0.9h0.9c1.8,0,2.7,0.9,2.7,2.6l0,1.1c0,0.6,0.1,1,0.3,1.2c0.2,0.2,0.6,0.4,1.1,0.4h0.3v0.8h-0.3
	c-0.4,0-0.8,0.1-1,0.3c-0.2,0.2-0.3,0.7-0.3,1.3l0.1,1.5c0,0.7-0.1,1.2-0.3,1.6c-0.2,0.4-0.6,0.6-1.1,0.8
	C452.4,94.3,451.8,94.4,451.1,94.4z M83.6,113.4h-0.5v-0.8h0.8c0.7,0,1.2-0.1,1.4-0.4c0.3-0.3,0.4-0.7,0.4-1.4l0-1.3
	c0-1.3,0.4-2,1.3-2.3c-0.9-0.4-1.3-1.1-1.3-2.2l0-1.1c0-1.1-0.5-1.6-1.4-1.6h-1.2v-0.9H84c1.8,0,2.7,0.9,2.7,2.6l0,1.1
	c0,0.6,0.1,1,0.3,1.2c0.2,0.2,0.6,0.4,1.1,0.4h0.3v0.8h-0.3c-0.4,0-0.8,0.1-1,0.3c-0.2,0.2-0.3,0.7-0.3,1.3l0.1,1.5
	c0,0.7-0.1,1.2-0.3,1.6c-0.2,0.4-0.6,0.6-1.1,0.8C84.9,113.3,84.3,113.4,83.6,113.4z M54.2,132.6l-0.3-0.9c0.7-0.4,1.3-0.8,1.8-1.4
	c0.5-0.6,0.9-1.2,1.2-1.9c0.3-0.7,0.4-1.4,0.4-2.2s-0.1-1.5-0.4-2.1c-0.3-0.7-0.6-1.3-1.1-1.8c-0.5-0.5-1-1-1.7-1.3l0.3-0.9
	c0.8,0.4,1.5,0.9,2.1,1.5c0.6,0.6,1.1,1.4,1.4,2.2c0.3,0.8,0.5,1.6,0.5,2.5s-0.2,1.8-0.5,2.6c-0.3,0.8-0.8,1.6-1.4,2.2
	C55.8,131.6,55.1,132.2,54.2,132.6z M63.3,131.2c-0.2,0-0.4-0.1-0.6-0.3c-0.2-0.2-0.3-0.4-0.3-0.6s0.1-0.4,0.3-0.6
	c0.2-0.2,0.4-0.3,0.6-0.3c0.2,0,0.4,0.1,0.6,0.3c0.2,0.2,0.3,0.4,0.3,0.6s-0.1,0.4-0.3,0.6C63.8,131.1,63.6,131.2,63.3,131.2z
	 M103.2,132.6c-0.8-0.4-1.6-0.9-2.2-1.6c-0.6-0.7-1.1-1.4-1.4-2.2c-0.3-0.8-0.5-1.7-0.5-2.6s0.2-1.7,0.5-2.5
	c0.3-0.8,0.8-1.5,1.4-2.2c0.6-0.6,1.3-1.1,2.1-1.5l0.3,0.9c-0.6,0.3-1.2,0.8-1.7,1.3c-0.5,0.6-0.9,1.2-1.1,1.8
	c-0.3,0.7-0.4,1.4-0.4,2.1s0.1,1.5,0.4,2.2c0.3,0.7,0.7,1.3,1.2,1.9s1.1,1,1.8,1.4L103.2,132.6z M106.7,132.6l-0.3-0.9
	c0.7-0.4,1.3-0.8,1.8-1.4c0.5-0.6,0.9-1.2,1.2-1.9c0.3-0.7,0.4-1.4,0.4-2.2s-0.1-1.5-0.4-2.1c-0.3-0.7-0.6-1.3-1.1-1.8
	c-0.5-0.5-1-1-1.7-1.3l0.3-0.9c0.8,0.4,1.5,0.9,2.1,1.5c0.6,0.6,1.1,1.4,1.4,2.2c0.3,0.8,0.5,1.6,0.5,2.5s-0.2,1.8-0.5,2.6
	c-0.3,0.8-0.8,1.6-1.4,2.2C108.3,131.6,107.6,132.2,106.7,132.6z M55.8,150.2c-0.2,0-0.4-0.1-0.6-0.3c-0.2-0.2-0.3-0.4-0.3-0.6
	s0.1-0.4,0.3-0.6c0.2-0.2,0.4-0.3,0.6-0.3c0.2,0,0.4,0.1,0.6,0.3c0.2,0.2,0.3,0.4,0.3,0.6s-0.1,0.4-0.3,0.6
	C56.3,150.1,56.1,150.2,55.8,150.2z M80.7,151.6c-0.8-0.4-1.6-0.9-2.2-1.6c-0.6-0.7-1.1-1.4-1.4-2.2c-0.3-0.8-0.5-1.7-0.5-2.6
	s0.2-1.7,0.5-2.5c0.3-0.8,0.8-1.5,1.4-2.2c0.6-0.6,1.3-1.2,2.1-1.5l0.3,0.9c-0.6,0.4-1.2,0.8-1.7,1.4c-0.5,0.5-0.9,1.2-1.1,1.8
	c-0.3,0.7-0.4,1.4-0.4,2.1s0.1,1.5,0.4,2.2c0.3,0.7,0.7,1.3,1.2,1.9s1.1,1,1.8,1.4L80.7,151.6z M182.7,152.5l-0.5-0.4
	c0.3-0.3,0.5-0.5,0.7-0.8c0.2-0.3,0.3-0.5,0.3-0.7c0-0.1-0.1-0.3-0.2-0.4c-0.1-0.1-0.2-0.2-0.4-0.3c-0.1-0.1-0.2-0.3-0.2-0.4
	c0-0.2,0.1-0.5,0.2-0.6c0.2-0.2,0.4-0.3,0.6-0.3s0.5,0.1,0.7,0.3c0.2,0.2,0.3,0.5,0.3,0.9C184.3,150.5,183.8,151.4,182.7,152.5z
	 M200.7,151.6c-0.8-0.4-1.6-0.9-2.2-1.6c-0.6-0.7-1.1-1.4-1.4-2.2c-0.3-0.8-0.5-1.7-0.5-2.6s0.2-1.7,0.5-2.5
	c0.3-0.8,0.8-1.5,1.4-2.2c0.6-0.6,1.3-1.2,2.1-1.5l0.3,0.9c-0.6,0.4-1.2,0.8-1.7,1.4c-0.5,0.5-0.9,1.2-1.1,1.8
	c-0.3,0.7-0.4,1.4-0.4,2.1s0.1,1.5,0.4,2.2c0.3,0.7,0.7,1.3,1.2,1.9s1.1,1,1.8,1.4L200.7,151.6z M204.2,151.6l-0.3-0.9
	c0.7-0.4,1.3-0.8,1.8-1.4c0.5-0.6,0.9-1.2,1.2-1.9s0.4-1.4,0.4-2.2s-0.1-1.5-0.4-2.1c-0.3-0.7-0.6-1.3-1.1-1.8c-0.5-0.6-1-1-1.7-1.4
	l0.3-0.9c0.8,0.4,1.5,0.9,2.1,1.5c0.6,0.6,1.1,1.3,1.4,2.2c0.3,0.8,0.5,1.6,0.5,2.5s-0.2,1.8-0.5,2.6c-0.3,0.8-0.8,1.6-1.4,2.2
	C205.8,150.6,205.1,151.2,204.2,151.6z M245.3,151.4c-0.7,0-1.3-0.1-1.8-0.2c-0.5-0.1-0.8-0.4-1.1-0.8c-0.2-0.4-0.3-0.9-0.3-1.6
	l0.1-1.5c0-0.7-0.1-1.1-0.4-1.3c-0.2-0.2-0.6-0.3-1-0.3h-0.3v-0.8h0.3c0.5,0,0.8-0.1,1-0.4c0.2-0.2,0.4-0.7,0.4-1.2l0-1.1
	c0-1.7,0.9-2.6,2.7-2.6h0.9v0.9h-1.2c-0.9,0-1.4,0.5-1.4,1.6l0,1.1c0,1.1-0.4,1.8-1.3,2.2c0.9,0.3,1.3,1.1,1.3,2.3l0,1.3
	c0,0.7,0.1,1.1,0.4,1.4c0.3,0.3,0.8,0.4,1.5,0.4h0.8v0.8H245.3z M53.6,189.4h-0.5v-0.8h0.8c0.7,0,1.2-0.1,1.4-0.4
	c0.3-0.3,0.4-0.7,0.4-1.4l0-1.3c0-1.3,0.4-2,1.3-2.3c-0.9-0.4-1.3-1.1-1.3-2.2l0-1.1c0-1.1-0.5-1.6-1.4-1.6h-1.2v-0.9H54
	c1.8,0,2.7,0.9,2.7,2.6l0,1.1c0,0.6,0.1,1,0.3,1.2c0.2,0.2,0.6,0.4,1.1,0.4h0.3v0.8h-0.3c-0.4,0-0.8,0.1-1,0.3
	c-0.2,0.2-0.3,0.7-0.3,1.3l0.1,1.5c0,0.7-0.1,1.2-0.3,1.6c-0.2,0.4-0.6,0.6-1.1,0.8C54.9,189.3,54.3,189.4,53.6,189.4z M61.7,189.6
	l-0.3-0.9c0.7-0.4,1.3-0.8,1.8-1.4c0.5-0.6,0.9-1.2,1.2-1.9c0.3-0.7,0.4-1.4,0.4-2.2s-0.1-1.5-0.4-2.1c-0.3-0.7-0.6-1.3-1.1-1.8
	c-0.5-0.6-1-1-1.7-1.4l0.3-0.9c0.8,0.4,1.5,0.9,2.1,1.5c0.6,0.6,1.1,1.3,1.4,2.2c0.3,0.8,0.5,1.6,0.5,2.5s-0.2,1.8-0.5,2.6
	c-0.3,0.8-0.8,1.6-1.4,2.2C63.3,188.6,62.6,189.2,61.7,189.6z M55.8,207.2c-0.2,0-0.4-0.1-0.6-0.3c-0.2-0.2-0.3-0.4-0.3-0.6
	s0.1-0.4,0.3-0.6c0.2-0.2,0.4-0.3,0.6-0.3c0.2,0,0.4,0.1,0.6,0.3c0.2,0.2,0.3,0.4,0.3,0.6s-0.1,0.4-0.3,0.6
	C56.3,207.1,56.1,207.2,55.8,207.2z M80.7,208.6c-0.8-0.4-1.6-0.9-2.2-1.6c-0.6-0.7-1.1-1.4-1.4-2.2c-0.3-0.8-0.5-1.7-0.5-2.6
	s0.2-1.7,0.5-2.5c0.3-0.8,0.8-1.5,1.4-2.2c0.6-0.6,1.3-1.2,2.1-1.5l0.3,0.9c-0.6,0.4-1.2,0.8-1.7,1.4c-0.5,0.5-0.9,1.2-1.1,1.8
	c-0.3,0.7-0.4,1.4-0.4,2.1s0.1,1.5,0.4,2.2c0.3,0.7,0.7,1.3,1.2,1.9s1.1,1,1.8,1.4L80.7,208.6z M182.7,209.5l-0.5-0.4
	c0.3-0.3,0.5-0.5,0.7-0.8c0.2-0.3,0.3-0.5,0.3-0.7c0-0.1-0.1-0.3-0.2-0.4c-0.1-0.1-0.2-0.2-0.4-0.3c-0.1-0.1-0.2-0.3-0.2-0.4
	c0-0.2,0.1-0.5,0.2-0.6c0.2-0.2,0.4-0.3,0.6-0.3s0.5,0.1,0.7,0.3c0.2,0.2,0.3,0.5,0.3,0.9C184.3,207.5,183.8,208.4,182.7,209.5z
	 M200.7,208.6c-0.8-0.4-1.6-0.9-2.2-1.6c-0.6-0.7-1.1-1.4-1.4-2.2c-0.3-0.8-0.5-1.7-0.5-2.6s0.2-1.7,0.5-2.5
	c0.3-0.8,0.8-1.5,1.4-2.2c0.6-0.6,1.3-1.2,2.1-1.5l0.3,0.9c-0.6,0.4-1.2,0.8-1.7,1.4c-0.5,0.5-0.9,1.2-1.1,1.8
	c-0.3,0.7-0.4,1.4-0.4,2.1s0.1,1.5,0.4,2.2c0.3,0.7,0.7,1.3,1.2,1.9s1.1,1,1.8,1.4L200.7,208.6z M204.2,208.6l-0.3-0.9
	c0.7-0.4,1.3-0.8,1.8-1.4c0.5-0.6,0.9-1.2,1.2-1.9s0.4-1.4,0.4-2.2s-0.1-1.5-0.4-2.1c-0.3-0.7-0.6-1.3-1.1-1.8c-0.5-0.6-1-1-1.7-1.4
	l0.3-0.9c0.8,0.4,1.5,0.9,2.1,1.5c0.6,0.6,1.1,1.3,1.4,2.2c0.3,0.8,0.5,1.6,0.5,2.5s-0.2,1.8-0.5,2.6c-0.3,0.8-0.8,1.6-1.4,2.2
	C205.8,207.6,205.1,208.2,204.2,208.6z M245.3,208.4c-0.7,0-1.3-0.1-1.8-0.2c-0.5-0.1-0.8-0.4-1.1-0.8c-0.2-0.4-0.3-0.9-0.3-1.6
	l0.1-1.5c0-0.7-0.1-1.1-0.4-1.3c-0.2-0.2-0.6-0.3-1-0.3h-0.3v-0.8h0.3c0.5,0,0.8-0.1,1-0.4c0.2-0.2,0.4-0.7,0.4-1.2l0-1.1
	c0-1.7,0.9-2.6,2.7-2.6h0.9v0.9h-1.2c-0.9,0-1.4,0.5-1.4,1.6l0,1.1c0,1.1-0.4,1.8-1.3,2.2c0.9,0.3,1.3,1.1,1.3,2.3l0,1.3
	c0,0.7,0.1,1.1,0.4,1.4c0.3,0.3,0.8,0.4,1.5,0.4h0.8v0.8H245.3z M53.6,246.4h-0.5v-0.8h0.8c0.7,0,1.2-0.1,1.4-0.4
	c0.3-0.3,0.4-0.7,0.4-1.4l0-1.3c0-1.3,0.4-2,1.3-2.3c-0.9-0.4-1.3-1.1-1.3-2.2l0-1.1c0-1.1-0.5-1.6-1.4-1.6h-1.2v-0.9H54
	c1.8,0,2.7,0.9,2.7,2.6l0,1.1c0,0.6,0.1,1,0.3,1.2c0.2,0.2,0.6,0.4,1.1,0.4h0.3v0.8h-0.3c-0.4,0-0.8,0.1-1,0.3
	c-0.2,0.2-0.3,0.7-0.3,1.3l0.1,1.5c0,0.7-0.1,1.2-0.3,1.6c-0.2,0.4-0.6,0.6-1.1,0.8C54.9,246.3,54.3,246.4,53.6,246.4z M61.7,246.6
	l-0.3-0.9c0.7-0.4,1.3-0.8,1.8-1.4c0.5-0.6,0.9-1.2,1.2-1.9c0.3-0.7,0.4-1.4,0.4-2.2s-0.1-1.5-0.4-2.1c-0.3-0.7-0.6-1.3-1.1-1.8
	c-0.5-0.6-1-1-1.7-1.4l0.3-0.9c0.8,0.4,1.5,0.9,2.1,1.5c0.6,0.6,1.1,1.3,1.4,2.2c0.3,0.8,0.5,1.6,0.5,2.5s-0.2,1.8-0.5,2.6
	c-0.3,0.8-0.8,1.6-1.4,2.2C63.3,245.6,62.6,246.2,61.7,246.6z M70.8,245.2c-0.2,0-0.4-0.1-0.6-0.3c-0.2-0.2-0.3-0.4-0.3-0.6
	s0.1-0.4,0.3-0.6c0.2-0.2,0.4-0.3,0.6-0.3c0.2,0,0.4,0.1,0.6,0.3c0.2,0.2,0.3,0.4,0.3,0.6s-0.1,0.4-0.3,0.6S71.1,245.2,70.8,245.2z
	 M73.2,265.6c-0.8-0.4-1.6-0.9-2.2-1.6c-0.6-0.7-1.1-1.4-1.4-2.2c-0.3-0.8-0.5-1.7-0.5-2.6c0-0.9,0.2-1.7,0.5-2.5
	c0.3-0.8,0.8-1.5,1.4-2.2c0.6-0.6,1.3-1.2,2.1-1.5l0.3,0.9c-0.6,0.4-1.2,0.8-1.7,1.4c-0.5,0.5-0.9,1.2-1.1,1.8
	c-0.3,0.7-0.4,1.4-0.4,2.1s0.1,1.5,0.4,2.2c0.3,0.7,0.7,1.3,1.2,1.9s1.1,1,1.8,1.4L73.2,265.6z M160.2,266.5l-0.5-0.4
	c0.3-0.3,0.5-0.5,0.7-0.8c0.2-0.3,0.3-0.5,0.3-0.7c0-0.1-0.1-0.3-0.2-0.4c-0.1-0.1-0.2-0.2-0.4-0.3c-0.1-0.1-0.2-0.3-0.2-0.5
	c0-0.2,0.1-0.5,0.2-0.6c0.2-0.2,0.4-0.3,0.6-0.3s0.5,0.1,0.7,0.3c0.2,0.2,0.3,0.5,0.3,0.9C161.8,264.5,161.3,265.4,160.2,266.5z
	 M178.2,265.6c-0.8-0.4-1.6-0.9-2.2-1.6c-0.6-0.7-1.1-1.4-1.4-2.2c-0.3-0.8-0.5-1.7-0.5-2.6c0-0.9,0.2-1.7,0.5-2.5
	c0.3-0.8,0.8-1.5,1.4-2.2c0.6-0.6,1.3-1.2,2.1-1.5l0.3,0.9c-0.6,0.4-1.2,0.8-1.7,1.4c-0.5,0.5-0.9,1.2-1.1,1.8
	c-0.3,0.7-0.4,1.4-0.4,2.1s0.1,1.5,0.4,2.2c0.3,0.7,0.7,1.3,1.2,1.9s1.1,1,1.8,1.4L178.2,265.6z M181.7,265.6l-0.3-0.9
	c0.7-0.4,1.3-0.8,1.8-1.4c0.5-0.6,0.9-1.2,1.2-1.9s0.4-1.4,0.4-2.2s-0.1-1.5-0.4-2.1s-0.6-1.3-1.1-1.8c-0.5-0.6-1-1-1.7-1.4l0.3-0.9
	c0.8,0.4,1.5,0.9,2.1,1.5c0.6,0.6,1.1,1.3,1.4,2.2c0.3,0.8,0.5,1.6,0.5,2.5c0,0.9-0.2,1.8-0.5,2.6c-0.3,0.8-0.8,1.6-1.4,2.2
	C183.3,264.6,182.6,265.2,181.7,265.6z M222.8,265.4c-0.7,0-1.3-0.1-1.8-0.2c-0.5-0.1-0.8-0.4-1.1-0.8c-0.2-0.4-0.3-0.9-0.3-1.6
	l0.1-1.5c0-0.7-0.1-1.1-0.4-1.3c-0.2-0.2-0.6-0.3-1-0.3H218v-0.8h0.3c0.5,0,0.8-0.1,1-0.4c0.2-0.2,0.4-0.7,0.4-1.2l0-1.1
	c0-1.7,0.9-2.6,2.7-2.6h0.9v0.9h-1.2c-0.9,0-1.4,0.5-1.4,1.6l0,1.1c0,1.1-0.4,1.8-1.3,2.2c0.9,0.3,1.3,1.1,1.3,2.3l0,1.3
	c0,0.7,0.1,1.1,0.4,1.4c0.3,0.3,0.8,0.4,1.5,0.4h0.8v0.8H222.8z M53.6,303.4h-0.5v-0.8h0.8c0.7,0,1.2-0.1,1.4-0.4
	c0.3-0.3,0.4-0.7,0.4-1.4l0-1.3c0-1.3,0.4-2,1.3-2.3c-0.9-0.4-1.3-1.1-1.3-2.2l0-1.1c0-1.1-0.5-1.6-1.4-1.6h-1.2v-0.9H54
	c1.8,0,2.7,0.9,2.7,2.6l0,1.1c0,0.6,0.1,1,0.3,1.2c0.2,0.2,0.6,0.4,1.1,0.4h0.3v0.8h-0.3c-0.4,0-0.8,0.1-1,0.3
	c-0.2,0.2-0.3,0.7-0.3,1.3l0.1,1.5c0,0.7-0.1,1.2-0.3,1.6c-0.2,0.4-0.6,0.6-1.1,0.8C54.9,303.3,54.3,303.4,53.6,303.4z M61.7,303.6
	l-0.3-0.9c0.7-0.4,1.3-0.8,1.8-1.4c0.5-0.6,0.9-1.2,1.2-1.9c0.3-0.7,0.4-1.4,0.4-2.2s-0.1-1.5-0.4-2.1c-0.3-0.7-0.6-1.3-1.1-1.8
	c-0.5-0.6-1-1-1.7-1.4l0.3-0.9c0.8,0.4,1.5,0.9,2.1,1.5c0.6,0.6,1.1,1.4,1.4,2.2c0.3,0.8,0.5,1.6,0.5,2.5c0,0.9-0.2,1.8-0.5,2.6
	c-0.3,0.8-0.8,1.6-1.4,2.2C63.3,302.6,62.6,303.2,61.7,303.6z M55.8,321.2c-0.2,0-0.4-0.1-0.6-0.3c-0.2-0.2-0.3-0.4-0.3-0.6
	s0.1-0.4,0.3-0.6c0.2-0.2,0.4-0.3,0.6-0.3c0.2,0,0.4,0.1,0.6,0.3c0.2,0.2,0.3,0.4,0.3,0.6s-0.1,0.4-0.3,0.6
	C56.3,321.1,56.1,321.2,55.8,321.2z M80.7,322.6c-0.8-0.4-1.6-0.9-2.2-1.6c-0.6-0.7-1.1-1.4-1.4-2.2c-0.3-0.8-0.5-1.7-0.5-2.6
	c0-0.9,0.2-1.7,0.5-2.5c0.3-0.8,0.8-1.5,1.4-2.2c0.6-0.6,1.3-1.1,2.1-1.5l0.3,0.9c-0.6,0.4-1.2,0.8-1.7,1.4
	c-0.5,0.5-0.9,1.2-1.1,1.8c-0.3,0.7-0.4,1.4-0.4,2.1s0.1,1.5,0.4,2.2c0.3,0.7,0.7,1.3,1.2,1.9s1.1,1,1.8,1.4L80.7,322.6z
	 M167.7,323.5l-0.5-0.4c0.3-0.3,0.5-0.5,0.7-0.8c0.2-0.3,0.3-0.5,0.3-0.7c0-0.1-0.1-0.3-0.2-0.4c-0.1-0.1-0.2-0.2-0.4-0.3
	c-0.1-0.1-0.2-0.3-0.2-0.5c0-0.2,0.1-0.5,0.2-0.6c0.2-0.2,0.4-0.3,0.6-0.3s0.5,0.1,0.7,0.3c0.2,0.2,0.3,0.5,0.3,0.9
	C169.3,321.5,168.8,322.4,167.7,323.5z M185.7,322.6c-0.8-0.4-1.6-0.9-2.2-1.6c-0.6-0.7-1.1-1.4-1.4-2.2c-0.3-0.8-0.5-1.7-0.5-2.6
	c0-0.9,0.2-1.7,0.5-2.5c0.3-0.8,0.8-1.5,1.4-2.2c0.6-0.6,1.3-1.1,2.1-1.5l0.3,0.9c-0.6,0.4-1.2,0.8-1.7,1.4
	c-0.5,0.5-0.9,1.2-1.1,1.8c-0.3,0.7-0.4,1.4-0.4,2.1s0.1,1.5,0.4,2.2c0.3,0.7,0.7,1.3,1.2,1.9s1.1,1,1.8,1.4L185.7,322.6z
	 M189.2,322.6l-0.3-0.9c0.7-0.4,1.3-0.8,1.8-1.4c0.5-0.6,0.9-1.2,1.2-1.9s0.4-1.4,0.4-2.2s-0.1-1.5-0.4-2.1s-0.6-1.3-1.1-1.8
	c-0.5-0.6-1-1-1.7-1.4l0.3-0.9c0.8,0.4,1.5,0.9,2.1,1.5c0.6,0.6,1.1,1.4,1.4,2.2c0.3,0.8,0.5,1.6,0.5,2.5c0,0.9-0.2,1.8-0.5,2.6
	c-0.3,0.8-0.8,1.6-1.4,2.2C190.8,321.6,190.1,322.2,189.2,322.6z M230.3,322.4c-0.7,0-1.3-0.1-1.8-0.2c-0.5-0.1-0.8-0.4-1.1-0.8
	c-0.2-0.4-0.3-0.9-0.3-1.6l0.1-1.5c0-0.7-0.1-1.1-0.4-1.3c-0.2-0.2-0.6-0.3-1-0.3h-0.3v-0.8h0.3c0.5,0,0.8-0.1,1-0.4
	c0.2-0.2,0.4-0.7,0.4-1.2l0-1.1c0-1.7,0.9-2.6,2.7-2.6h0.9v0.9h-1.2c-0.9,0-1.4,0.5-1.4,1.6l0,1.1c0,1.1-0.4,1.8-1.3,2.2
	c0.9,0.3,1.3,1.1,1.3,2.3l0,1.3c0,0.7,0.1,1.1,0.4,1.4c0.3,0.3,0.8,0.4,1.5,0.4h0.8v0.8H230.3z M53.6,360.4h-0.5v-0.8h0.8
	c0.7,0,1.2-0.1,1.4-0.4c0.3-0.3,0.4-0.7,0.4-1.4l0-1.3c0-1.3,0.4-2,1.3-2.3c-0.9-0.4-1.3-1.1-1.3-2.2l0-1.1c0-1.1-0.5-1.6-1.4-1.6
	h-1.2v-0.9H54c1.8,0,2.7,0.9,2.7,2.6l0,1.1c0,0.6,0.1,1,0.3,1.2c0.2,0.2,0.6,0.4,1.1,0.4h0.3v0.8h-0.3c-0.4,0-0.8,0.1-1,0.3
	c-0.2,0.2-0.3,0.7-0.3,1.3l0.1,1.5c0,0.7-0.1,1.2-0.3,1.6c-0.2,0.4-0.6,0.6-1.1,0.8C54.9,360.3,54.3,360.4,53.6,360.4z M61.7,360.6
	l-0.3-0.9c0.7-0.4,1.3-0.8,1.8-1.4c0.5-0.6,0.9-1.2,1.2-1.9c0.3-0.7,0.4-1.4,0.4-2.2s-0.1-1.5-0.4-2.1c-0.3-0.7-0.6-1.3-1.1-1.8
	c-0.5-0.6-1-1-1.7-1.4l0.3-0.9c0.8,0.4,1.5,0.9,2.1,1.5c0.6,0.6,1.1,1.4,1.4,2.2c0.3,0.8,0.5,1.6,0.5,2.5c0,0.9-0.2,1.8-0.5,2.6
	c-0.3,0.8-0.8,1.6-1.4,2.2C63.3,359.6,62.6,360.2,61.7,360.6z"/>
<path class="st3" d="M109.2,36.1c-0.6,0-1-0.1-1.3-0.4c-0.3-0.3-0.5-0.7-0.6-1.2c-0.1-0.6-0.1-1.3-0.1-2.2l0.1-2.2h-1.5v-0.9h1.5
	l0.1-1.8l1.1-0.1l0.2,0l0,0.1c-0.1,0.1-0.1,0.1-0.1,0.2c0,0.1-0.1,0.2-0.1,0.4l-0.1,1.2h2.4V30h-2.4l-0.1,2.3c0,0.8,0,1.4,0.1,1.8
	c0.1,0.4,0.2,0.7,0.4,0.9c0.2,0.2,0.4,0.2,0.7,0.2c0.3,0,0.6-0.1,0.9-0.2c0.3-0.1,0.5-0.3,0.8-0.5l0.3,0.9c-0.3,0.2-0.7,0.4-1.1,0.6
	S109.6,36.1,109.2,36.1z M114,29.1h1.1l0,1.3c0.2-0.5,0.5-0.8,0.9-1.1c0.4-0.2,0.8-0.4,1.3-0.4c0.7,0,1.3,0.2,1.8,0.8l-0.5,0.8
	l-0.1,0.1l-0.1-0.1c0-0.1,0-0.2-0.1-0.2s-0.1-0.2-0.3-0.3c-0.2-0.1-0.3-0.2-0.4-0.2c-0.1,0-0.3-0.1-0.4-0.1c-0.3,0-0.7,0.1-1,0.3
	c-0.3,0.2-0.6,0.4-0.8,0.8c-0.2,0.4-0.3,0.8-0.3,1.4V36H114V29.1z M122.9,36.2c-0.8,0-1.4-0.2-1.8-0.5c-0.4-0.4-0.6-0.8-0.6-1.4
	c0-0.5,0.2-0.9,0.5-1.3c0.3-0.4,0.7-0.6,1.2-0.8c0.5-0.2,1.1-0.3,1.7-0.3c0.2,0,0.5,0,0.7,0c0.3,0,0.5,0,0.8,0.1
	c-0.1-0.8-0.3-1.4-0.6-1.6c-0.3-0.3-0.9-0.5-1.5-0.5c-0.3,0-0.7,0.1-1,0.2c-0.3,0.1-0.6,0.3-0.9,0.6L121,30c0.3-0.3,0.7-0.6,1.1-0.7
	c0.4-0.2,0.9-0.2,1.3-0.2c0.6,0,1.1,0.1,1.6,0.3s0.8,0.5,1.1,1s0.4,1.2,0.4,2V36h-1.2v-1c-0.2,0.3-0.4,0.6-0.7,0.8
	c-0.3,0.2-0.5,0.3-0.8,0.3C123.5,36.1,123.2,36.2,122.9,36.2z M121.6,34.2c0,0.4,0.1,0.7,0.4,0.9s0.6,0.2,1,0.2
	c0.7,0,1.3-0.2,1.8-0.6c0.4-0.4,0.7-1.1,0.7-1.9c-0.5-0.1-1-0.1-1.5-0.1c-0.7,0-1.3,0.1-1.8,0.4C121.8,33.3,121.6,33.7,121.6,34.2z
	 M128.3,36v-6.9h1.1v1.2c0.3-0.4,0.6-0.8,1-1c0.4-0.2,0.9-0.4,1.3-0.4c0.6,0,1,0.2,1.4,0.7c0.4,0.4,0.6,1.2,0.6,2.2V36h-1.1v-4.1
	c0-0.7-0.1-1.2-0.4-1.5c-0.2-0.3-0.5-0.4-0.9-0.4c-0.3,0-0.6,0.1-0.9,0.3c-0.3,0.2-0.6,0.4-0.8,0.7c-0.2,0.3-0.3,0.7-0.3,1.1V36
	H128.3z M138.5,36.1c-1.2,0-2.1-0.4-2.9-1.1l0.6-1l0.1-0.1l0.1,0.1c0,0.1,0,0.2,0.1,0.3c0,0.1,0.1,0.2,0.2,0.3
	c0.2,0.2,0.5,0.4,0.8,0.5c0.3,0.1,0.7,0.2,1.1,0.2c0.5,0,1-0.1,1.3-0.3c0.3-0.2,0.5-0.5,0.5-0.8c0-0.3-0.1-0.5-0.4-0.7
	c-0.2-0.2-0.7-0.4-1.3-0.6c-0.8-0.2-1.4-0.5-1.9-0.9c-0.5-0.3-0.7-0.8-0.7-1.3c0-0.5,0.2-0.9,0.6-1.2c0.4-0.3,1.1-0.5,1.9-0.5
	c0.6,0,1.2,0.1,1.6,0.3s0.8,0.5,1.1,0.8l-0.6,0.8l-0.1,0.1l-0.1-0.1c0-0.1,0-0.2-0.1-0.2c0-0.1-0.1-0.2-0.2-0.3
	c-0.2-0.2-0.5-0.3-0.8-0.4c-0.3-0.1-0.6-0.1-0.8-0.1c-0.4,0-0.7,0.1-1,0.2c-0.3,0.1-0.4,0.4-0.4,0.6c0,0.1,0,0.3,0.1,0.4
	c0.1,0.1,0.3,0.3,0.6,0.4c0.3,0.1,0.7,0.3,1.2,0.4c0.9,0.3,1.5,0.5,1.8,0.9c0.4,0.3,0.5,0.7,0.5,1.2c0,0.4-0.1,0.7-0.3,1.1
	c-0.2,0.3-0.5,0.6-0.9,0.8C139.7,36.1,139.2,36.1,138.5,36.1z M144.7,30h-1.5v-0.9h1.5v-0.6c0-0.9,0.2-1.6,0.7-2
	c0.5-0.4,1.1-0.6,1.8-0.6c0.4,0,0.8,0.1,1.2,0.2c0.4,0.2,0.7,0.4,0.9,0.7l-0.6,0.8l-0.1,0.1l-0.1-0.1c0-0.1,0-0.2-0.1-0.2
	s-0.1-0.2-0.2-0.3c-0.2-0.1-0.3-0.2-0.5-0.3c-0.2-0.1-0.4-0.1-0.6-0.1c-0.4,0-0.8,0.1-1.1,0.4c-0.3,0.3-0.4,0.7-0.4,1.4v0.6h2.2V30
	h-2.2v6h-1V30z M153.8,36.1c-1,0-1.8-0.3-2.4-0.9c-0.6-0.6-0.9-1.5-0.9-2.6c0-0.8,0.1-1.4,0.4-2c0.3-0.5,0.7-0.9,1.1-1.2
	c0.5-0.3,1-0.4,1.6-0.4c0.5,0,1,0.1,1.4,0.3c0.4,0.2,0.8,0.6,1,1.1c0.2,0.5,0.4,1.1,0.4,1.8c0,0.1,0,0.2,0,0.3c0,0.1,0,0.2,0,0.2
	h-4.9c0,0.9,0.3,1.5,0.7,1.9c0.5,0.4,1,0.6,1.6,0.6c0.7,0,1.3-0.3,1.8-0.8l0.6,0.6C155.7,35.8,154.9,36.1,153.8,36.1z M151.6,31.9
	h3.8c0-0.6-0.2-1.1-0.5-1.5c-0.3-0.4-0.7-0.6-1.3-0.6c-0.5,0-0.9,0.2-1.3,0.5C151.9,30.6,151.7,31.2,151.6,31.9z M159,29.1h1.1
	l0,1.3c0.2-0.5,0.5-0.8,0.9-1.1c0.4-0.2,0.8-0.4,1.3-0.4c0.7,0,1.3,0.2,1.8,0.8l-0.5,0.8l-0.1,0.1l-0.1-0.1c0-0.1-0.1-0.2-0.1-0.2
	c0-0.1-0.1-0.2-0.3-0.3c-0.2-0.1-0.3-0.2-0.4-0.2c-0.1,0-0.3-0.1-0.4-0.1c-0.3,0-0.7,0.1-1,0.3c-0.3,0.2-0.6,0.4-0.8,0.8
	c-0.2,0.4-0.3,0.8-0.3,1.4V36H159V29.1z M165.5,26.7h1l3.9,6.9v-6.9h1.1v0.1c-0.1,0.1-0.1,0.1-0.1,0.2c0,0.1,0,0.2,0,0.4V36h-0.8
	l-4.1-7.4V36h-1V26.7z M173.4,36v-9.4h5.4v0.9h-4.3v2.9h3.5v0.9h-3.5V36H173.4z M182.9,36v-8.4h-2.7v-0.9h6.5v0.9h-2.8V36H182.9z
	 M71,131.1c-1.2,0-2.1-0.4-2.9-1.1l0.6-1l0.1-0.1l0.1,0.1c0,0.1,0,0.2,0.1,0.3c0,0.1,0.1,0.2,0.2,0.3c0.2,0.2,0.5,0.4,0.8,0.5
	c0.3,0.1,0.7,0.2,1.1,0.2c0.5,0,1-0.1,1.3-0.3c0.3-0.2,0.5-0.5,0.5-0.8c0-0.3-0.1-0.5-0.4-0.7c-0.2-0.2-0.7-0.4-1.3-0.6
	c-0.8-0.2-1.4-0.5-1.9-0.9c-0.5-0.3-0.7-0.8-0.7-1.3c0-0.5,0.2-0.9,0.6-1.2c0.4-0.3,1.1-0.5,1.9-0.5c0.6,0,1.2,0.1,1.6,0.3
	s0.8,0.4,1.1,0.8l-0.6,0.8l-0.1,0.1l-0.1-0.1c0-0.1,0-0.2-0.1-0.2c0-0.1-0.1-0.2-0.2-0.3c-0.2-0.2-0.5-0.3-0.8-0.4
	c-0.3-0.1-0.6-0.2-0.8-0.2c-0.4,0-0.7,0.1-1,0.2s-0.4,0.4-0.4,0.6c0,0.2,0.1,0.3,0.2,0.5c0.1,0.1,0.3,0.3,0.6,0.4
	c0.3,0.1,0.7,0.3,1.2,0.4c0.9,0.3,1.5,0.5,1.8,0.9c0.4,0.3,0.5,0.7,0.5,1.2c0,0.4-0.1,0.7-0.3,1.1c-0.2,0.3-0.5,0.6-0.9,0.8
	C72.2,131.1,71.7,131.1,71,131.1z M78.8,131.1c-1,0-1.8-0.3-2.4-0.9c-0.6-0.6-0.9-1.5-0.9-2.6c0-0.8,0.1-1.4,0.4-2
	c0.3-0.5,0.7-0.9,1.1-1.2c0.5-0.3,1-0.4,1.6-0.4c0.5,0,1,0.1,1.4,0.3c0.4,0.2,0.8,0.6,1,1.1c0.2,0.5,0.4,1.1,0.4,1.8
	c0,0.1,0,0.2,0,0.3c0,0.1,0,0.2,0,0.2h-4.9c0,0.9,0.3,1.5,0.7,1.9c0.5,0.4,1,0.6,1.6,0.6c0.7,0,1.3-0.3,1.8-0.8l0.6,0.6
	C80.7,130.8,79.9,131.1,78.8,131.1z M76.6,126.9h3.8c0-0.6-0.2-1.1-0.5-1.5c-0.3-0.4-0.7-0.6-1.3-0.6c-0.5,0-0.9,0.2-1.3,0.5
	C76.9,125.6,76.7,126.2,76.6,126.9z M83.3,131v-6.9h1.1v1.2c0.3-0.4,0.6-0.8,1-1c0.4-0.2,0.9-0.4,1.3-0.4c0.6,0,1,0.2,1.4,0.7
	c0.4,0.4,0.6,1.2,0.6,2.2v4.2h-1.1v-4.1c0-0.7-0.1-1.2-0.4-1.5c-0.2-0.3-0.5-0.4-0.9-0.4c-0.3,0-0.6,0.1-0.9,0.3
	c-0.3,0.2-0.6,0.4-0.8,0.7c-0.2,0.3-0.3,0.7-0.3,1.1v3.9H83.3z M93.3,131.1c-0.5,0-0.9-0.1-1.3-0.4c-0.4-0.3-0.8-0.7-1.1-1.2
	c-0.3-0.5-0.4-1.2-0.4-2c0-0.8,0.1-1.5,0.4-2c0.3-0.5,0.7-0.9,1.1-1.1c0.5-0.2,0.9-0.4,1.4-0.4c0.5,0,0.9,0.1,1.2,0.3
	c0.3,0.2,0.6,0.5,0.8,0.9V121h1.1v0.1c-0.1,0.1-0.1,0.1-0.1,0.2c0,0.1,0,0.2,0,0.4l0,8.2c0,0.2,0,0.4,0,0.5c0,0.2,0.1,0.3,0.1,0.5
	h-1.1c-0.1-0.2-0.1-0.4-0.1-0.5c0-0.2,0-0.4,0-0.5c-0.2,0.4-0.5,0.7-0.8,0.9C94.1,131,93.7,131.1,93.3,131.1z M93.4,130.2
	c0.4,0,0.8-0.1,1.1-0.4c0.3-0.2,0.5-0.6,0.6-1c0.1-0.4,0.2-0.9,0.2-1.3c0-0.8-0.2-1.4-0.5-1.9c-0.3-0.5-0.8-0.8-1.4-0.8
	c-0.6,0-1.1,0.2-1.4,0.7c-0.3,0.4-0.5,1.1-0.5,1.8c0,0.9,0.2,1.6,0.5,2.1C92.3,129.9,92.8,130.2,93.4,130.2z M63.5,150.1
	c-0.6,0-1.2-0.1-1.6-0.4c-0.5-0.3-0.8-0.7-1.1-1.3c-0.3-0.5-0.4-1.2-0.4-1.8c0-0.7,0.1-1.3,0.4-1.8c0.3-0.5,0.6-1,1.1-1.3
	c0.5-0.3,1-0.5,1.6-0.5s1.2,0.2,1.6,0.5c0.5,0.3,0.9,0.7,1.1,1.3c0.3,0.5,0.4,1.1,0.4,1.8c0,0.7-0.1,1.3-0.4,1.8
	c-0.3,0.5-0.6,0.9-1.1,1.3C64.7,150,64.1,150.1,63.5,150.1z M63.5,149.2c0.4,0,0.8-0.1,1-0.3c0.3-0.2,0.5-0.5,0.7-0.9
	c0.2-0.4,0.3-0.9,0.3-1.4c0-0.8-0.2-1.4-0.6-1.9c-0.4-0.5-0.9-0.8-1.5-0.8s-1.1,0.2-1.5,0.8c-0.4,0.5-0.6,1.1-0.6,1.9
	c0,0.5,0.1,1,0.3,1.4c0.2,0.4,0.4,0.7,0.7,0.9C62.8,149.1,63.1,149.2,63.5,149.2z M68.3,150v-6.9h1.1v1.2c0.3-0.4,0.6-0.8,1-1
	c0.4-0.2,0.9-0.4,1.3-0.4c0.6,0,1,0.2,1.4,0.7c0.4,0.4,0.6,1.2,0.6,2.2v4.2h-1.1v-4.1c0-0.7-0.1-1.2-0.4-1.5
	c-0.2-0.3-0.5-0.4-0.9-0.4c-0.3,0-0.6,0.1-0.9,0.3c-0.3,0.2-0.6,0.4-0.8,0.7c-0.2,0.3-0.3,0.7-0.3,1.1v3.9H68.3z M63.5,207.1
	c-0.6,0-1.2-0.1-1.6-0.4c-0.5-0.3-0.8-0.7-1.1-1.3c-0.3-0.5-0.4-1.2-0.4-1.8c0-0.7,0.1-1.3,0.4-1.8c0.3-0.5,0.6-1,1.1-1.3
	c0.5-0.3,1-0.5,1.6-0.5s1.2,0.2,1.6,0.5c0.5,0.3,0.9,0.7,1.1,1.3c0.3,0.5,0.4,1.1,0.4,1.8c0,0.7-0.1,1.3-0.4,1.8
	c-0.3,0.5-0.6,0.9-1.1,1.3C64.7,207,64.1,207.1,63.5,207.1z M63.5,206.2c0.4,0,0.8-0.1,1-0.3c0.3-0.2,0.5-0.5,0.7-0.9
	c0.2-0.4,0.3-0.9,0.3-1.4c0-0.8-0.2-1.4-0.6-1.9c-0.4-0.5-0.9-0.8-1.5-0.8s-1.1,0.2-1.5,0.8c-0.4,0.5-0.6,1.1-0.6,1.9
	c0,0.5,0.1,1,0.3,1.4c0.2,0.4,0.4,0.7,0.7,0.9C62.8,206.1,63.1,206.2,63.5,206.2z M68.3,207v-6.9h1.1v1.2c0.3-0.4,0.6-0.8,1-1
	c0.4-0.2,0.9-0.4,1.3-0.4c0.6,0,1,0.2,1.4,0.7c0.4,0.4,0.6,1.2,0.6,2.2v4.2h-1.1v-4.1c0-0.7-0.1-1.2-0.4-1.5
	c-0.2-0.3-0.5-0.4-0.9-0.4c-0.3,0-0.6,0.1-0.9,0.3c-0.3,0.2-0.6,0.4-0.8,0.7c-0.2,0.3-0.3,0.7-0.3,1.1v3.9H68.3z M56,264.1
	c-0.6,0-1.2-0.1-1.6-0.4c-0.5-0.3-0.8-0.7-1.1-1.3c-0.3-0.5-0.4-1.2-0.4-1.8c0-0.7,0.1-1.3,0.4-1.8c0.3-0.5,0.6-1,1.1-1.3
	c0.5-0.3,1-0.5,1.6-0.5s1.2,0.2,1.6,0.5c0.5,0.3,0.9,0.7,1.1,1.3c0.3,0.5,0.4,1.1,0.4,1.8c0,0.7-0.1,1.3-0.4,1.8
	c-0.3,0.5-0.6,0.9-1.1,1.3C57.2,264,56.6,264.1,56,264.1z M56,263.2c0.4,0,0.8-0.1,1-0.3c0.3-0.2,0.5-0.5,0.7-0.9
	c0.2-0.4,0.3-0.9,0.3-1.4c0-0.8-0.2-1.4-0.6-1.9c-0.4-0.5-0.9-0.8-1.5-0.8s-1.1,0.2-1.5,0.8c-0.4,0.5-0.6,1.1-0.6,1.9
	c0,0.5,0.1,1,0.3,1.4c0.2,0.4,0.4,0.7,0.7,0.9C55.3,263.1,55.6,263.2,56,263.2z M60.8,264v-6.9h1v1.2c0.3-0.4,0.6-0.8,1-1
	c0.4-0.2,0.9-0.4,1.3-0.4c0.6,0,1,0.2,1.4,0.7c0.4,0.4,0.6,1.2,0.6,2.2v4.2h-1.1v-4.1c0-0.7-0.1-1.2-0.4-1.5
	c-0.2-0.3-0.5-0.4-0.9-0.4c-0.3,0-0.6,0.1-0.9,0.3c-0.3,0.2-0.6,0.4-0.8,0.7c-0.2,0.3-0.3,0.7-0.3,1.1v3.9H60.8z M63.5,321.1
	c-0.6,0-1.2-0.1-1.6-0.4c-0.5-0.3-0.8-0.7-1.1-1.3c-0.3-0.5-0.4-1.2-0.4-1.8c0-0.7,0.1-1.3,0.4-1.8c0.3-0.5,0.6-1,1.1-1.3
	c0.5-0.3,1-0.5,1.6-0.5s1.2,0.2,1.6,0.5c0.5,0.3,0.9,0.7,1.1,1.3c0.3,0.5,0.4,1.1,0.4,1.8c0,0.7-0.1,1.3-0.4,1.8
	c-0.3,0.5-0.6,0.9-1.1,1.3C64.7,321,64.1,321.1,63.5,321.1z M63.5,320.2c0.4,0,0.8-0.1,1-0.3c0.3-0.2,0.5-0.5,0.7-0.9
	c0.2-0.4,0.3-0.9,0.3-1.4c0-0.8-0.2-1.4-0.6-1.9c-0.4-0.5-0.9-0.8-1.5-0.8s-1.1,0.2-1.5,0.8c-0.4,0.5-0.6,1.1-0.6,1.9
	c0,0.5,0.1,1,0.3,1.4c0.2,0.4,0.4,0.7,0.7,0.9C62.8,320.1,63.1,320.2,63.5,320.2z M68.3,321v-6.9h1.1v1.2c0.3-0.4,0.6-0.8,1-1
	c0.4-0.2,0.9-0.4,1.3-0.4c0.6,0,1,0.2,1.4,0.7c0.4,0.4,0.6,1.2,0.6,2.2v4.2h-1.1v-4.1c0-0.7-0.1-1.2-0.4-1.5
	c-0.2-0.3-0.5-0.4-0.9-0.4c-0.3,0-0.6,0.1-0.9,0.3c-0.3,0.2-0.6,0.4-0.8,0.7c-0.2,0.3-0.3,0.7-0.3,1.1v3.9H68.3z"/>
<path class="st4" d="M114.7,68h-1.5v-0.9h1.5v-0.6c0-0.9,0.2-1.6,0.7-2c0.5-0.4,1.1-0.6,1.8-0.6c0.4,0,0.8,0.1,1.2,0.2
	c0.4,0.1,0.7,0.4,0.9,0.7l-0.6,0.8l-0.1,0.1l-0.1-0.1c0-0.1,0-0.2-0.1-0.2c0-0.1-0.1-0.2-0.2-0.3c-0.2-0.1-0.3-0.2-0.5-0.3
	c-0.2-0.1-0.4-0.1-0.6-0.1c-0.4,0-0.8,0.1-1.1,0.4c-0.3,0.3-0.4,0.7-0.4,1.4v0.6h2.2V68h-2.2v6h-1V68z M121.5,67.1h1.1l0,1.3
	c0.2-0.5,0.5-0.8,0.9-1c0.4-0.2,0.8-0.4,1.3-0.4c0.7,0,1.3,0.2,1.8,0.8l-0.5,0.8l-0.1,0.1l-0.1-0.1c0-0.1,0-0.2-0.1-0.2
	s-0.1-0.2-0.3-0.3c-0.2-0.1-0.3-0.2-0.4-0.2c-0.1,0-0.3-0.1-0.4-0.1c-0.3,0-0.7,0.1-1,0.3c-0.3,0.2-0.6,0.4-0.8,0.8
	s-0.3,0.8-0.3,1.4V74h-1.1V67.1z M131,74.1c-0.6,0-1.2-0.2-1.7-0.5c-0.5-0.3-0.8-0.7-1.1-1.3c-0.3-0.5-0.4-1.2-0.4-1.8
	c0-0.7,0.1-1.3,0.4-1.8c0.3-0.5,0.6-1,1.1-1.3c0.5-0.3,1-0.5,1.7-0.5c0.6,0,1.2,0.2,1.6,0.5c0.5,0.3,0.9,0.7,1.1,1.3
	c0.3,0.5,0.4,1.1,0.4,1.8c0,0.7-0.1,1.3-0.4,1.8c-0.3,0.5-0.6,0.9-1.1,1.3C132.2,74,131.6,74.1,131,74.1z M131,73.2
	c0.4,0,0.8-0.1,1-0.3c0.3-0.2,0.5-0.5,0.7-0.9c0.2-0.4,0.3-0.9,0.3-1.4c0-0.8-0.2-1.4-0.6-1.9c-0.4-0.5-0.9-0.8-1.5-0.8
	c-0.6,0-1.1,0.2-1.5,0.8c-0.4,0.5-0.6,1.1-0.6,1.9c0,0.5,0.1,1,0.3,1.4c0.2,0.4,0.4,0.7,0.7,0.9C130.3,73.1,130.6,73.2,131,73.2z
	 M135.3,74v-6.9h1v0.7c0.2-0.2,0.4-0.4,0.6-0.6c0.2-0.2,0.5-0.2,0.8-0.2c0.3,0,0.6,0.1,0.8,0.3c0.2,0.2,0.4,0.4,0.4,0.7
	c0.1-0.3,0.3-0.5,0.6-0.7c0.3-0.2,0.6-0.3,0.9-0.3c0.5,0,0.8,0.2,1,0.5c0.2,0.3,0.3,0.7,0.3,1.2V74h-1v-4.9c0-0.4,0-0.7-0.1-0.9
	c0-0.2-0.1-0.3-0.2-0.4c-0.1-0.1-0.2-0.1-0.3-0.1c-0.2,0-0.4,0.1-0.5,0.3c-0.2,0.2-0.3,0.4-0.4,0.6c-0.1,0.3-0.1,0.5-0.1,0.8V74h-1
	v-4.8c0-0.6-0.1-1-0.2-1.1c-0.1-0.2-0.3-0.3-0.6-0.3c-0.2,0-0.4,0.1-0.7,0.4c-0.2,0.3-0.3,0.7-0.3,1.2V74H135.3z M145.8,69.4
	c-0.2,0-0.4-0.1-0.6-0.3c-0.2-0.2-0.3-0.4-0.3-0.6c0-0.2,0.1-0.4,0.3-0.6c0.2-0.2,0.4-0.3,0.6-0.3s0.4,0.1,0.6,0.3
	c0.2,0.2,0.3,0.4,0.3,0.6c0,0.2-0.1,0.4-0.3,0.6C146.3,69.3,146.1,69.4,145.8,69.4z M145.8,74.2c-0.2,0-0.5-0.1-0.6-0.2
	c-0.2-0.2-0.3-0.4-0.3-0.6c0-0.2,0.1-0.4,0.3-0.6c0.2-0.2,0.4-0.3,0.6-0.3s0.4,0.1,0.6,0.3c0.2,0.2,0.3,0.4,0.3,0.6
	c0,0.2-0.1,0.4-0.3,0.6C146.3,74.1,146.1,74.2,145.8,74.2z M173.3,74v-6.9h1.1v1.2c0.3-0.4,0.6-0.8,1-1c0.4-0.2,0.9-0.4,1.3-0.4
	c0.6,0,1,0.2,1.4,0.7c0.4,0.4,0.6,1.2,0.6,2.2V74h-1.1v-4.1c0-0.7-0.1-1.2-0.4-1.5c-0.2-0.3-0.5-0.4-0.9-0.4c-0.3,0-0.6,0.1-0.9,0.3
	c-0.3,0.2-0.6,0.4-0.8,0.7c-0.2,0.3-0.3,0.7-0.3,1.1V74H173.3z M183.8,74.1c-1,0-1.8-0.3-2.4-0.9c-0.6-0.6-0.9-1.5-0.9-2.6
	c0-0.8,0.1-1.4,0.4-2c0.3-0.5,0.7-0.9,1.1-1.2c0.5-0.3,1-0.4,1.6-0.4c0.5,0,1,0.1,1.4,0.3c0.4,0.2,0.8,0.6,1,1.1
	c0.2,0.5,0.4,1.1,0.4,1.8c0,0.1,0,0.2,0,0.3c0,0.1,0,0.2,0,0.2h-4.9c0,0.9,0.3,1.5,0.7,1.9c0.5,0.4,1,0.6,1.6,0.6
	c0.7,0,1.3-0.3,1.8-0.8l0.6,0.6C185.7,73.8,184.9,74.1,183.8,74.1z M181.6,69.9h3.8c0-0.6-0.2-1.1-0.5-1.5c-0.3-0.4-0.7-0.6-1.3-0.6
	c-0.5,0-0.9,0.2-1.3,0.5C181.9,68.6,181.7,69.2,181.6,69.9z M191.7,74.1c-0.6,0-1-0.1-1.3-0.4c-0.3-0.3-0.5-0.7-0.6-1.2
	c-0.1-0.6-0.1-1.3-0.1-2.2l0.1-2.2h-1.5v-0.9h1.5l0.1-1.8l1.1-0.1l0.2,0l0,0.1c-0.1,0.1-0.1,0.1-0.1,0.2c0,0.1-0.1,0.2-0.1,0.4
	l-0.1,1.2h2.4V68h-2.4l-0.1,2.3c0,0.8,0,1.3,0.1,1.8c0.1,0.4,0.2,0.7,0.4,0.9c0.2,0.1,0.4,0.2,0.7,0.2c0.3,0,0.6-0.1,0.9-0.2
	c0.3-0.1,0.5-0.3,0.8-0.5l0.3,0.9c-0.3,0.2-0.7,0.4-1.1,0.6C192.5,74,192.1,74.1,191.7,74.1z M196.4,74l-1.4-6.9h0.9l1.1,5.5
	l1.2-4.9h0.7l1.5,4.8c0.1-0.9,0.2-1.6,0.3-2.2c0.1-0.6,0.2-1,0.2-1.4c0.1-0.4,0.1-0.7,0.1-0.9c0-0.2,0-0.5,0-0.8v-0.2h1
	c-0.3,2.3-0.7,4.6-1.1,6.9h-1l-1.3-4.4l-1.2,4.4H196.4z M206,74.1c-0.6,0-1.2-0.2-1.7-0.5c-0.5-0.3-0.8-0.7-1.1-1.3
	c-0.3-0.5-0.4-1.2-0.4-1.8c0-0.7,0.1-1.3,0.4-1.8c0.3-0.5,0.6-1,1.1-1.3c0.5-0.3,1-0.5,1.7-0.5c0.6,0,1.2,0.2,1.6,0.5
	c0.5,0.3,0.9,0.7,1.1,1.3c0.3,0.5,0.4,1.1,0.4,1.8c0,0.7-0.1,1.3-0.4,1.8c-0.3,0.5-0.6,0.9-1.1,1.3C207.2,74,206.6,74.1,206,74.1z
	 M206,73.2c0.4,0,0.8-0.1,1-0.3c0.3-0.2,0.5-0.5,0.7-0.9c0.2-0.4,0.3-0.9,0.3-1.4c0-0.8-0.2-1.4-0.6-1.9c-0.4-0.5-0.9-0.8-1.5-0.8
	c-0.6,0-1.1,0.2-1.5,0.8c-0.4,0.5-0.6,1.1-0.6,1.9c0,0.5,0.1,1,0.3,1.4c0.2,0.4,0.4,0.7,0.7,0.9C205.3,73.1,205.6,73.2,206,73.2z
	 M211.5,67.1h1.1l0,1.3c0.2-0.5,0.5-0.8,0.9-1c0.4-0.2,0.8-0.4,1.3-0.4c0.7,0,1.3,0.2,1.8,0.8l-0.5,0.8l-0.1,0.1l-0.1-0.1
	c0-0.1-0.1-0.2-0.1-0.2c0-0.1-0.1-0.2-0.3-0.3c-0.2-0.1-0.3-0.2-0.4-0.2c-0.1,0-0.3-0.1-0.4-0.1c-0.3,0-0.7,0.1-1,0.3
	c-0.3,0.2-0.6,0.4-0.8,0.8s-0.3,0.8-0.3,1.4V74h-1.1V67.1z M220.2,70.6l-0.9,0.8V74h-1.1V64h1.2v0.1c-0.1,0.1-0.1,0.1-0.1,0.2
	c0,0.1,0,0.2,0,0.4v5.6l3.4-3.2c0.1,0,0.2,0,0.4,0.1c0.1,0,0.3,0,0.4,0h0.4l-2.9,2.7l3.4,4.1l-1.4,0.1L220.2,70.6z M286.4,74
	l-1.4-6.9h0.9l1.1,5.5l1.2-4.9h0.7l1.5,4.8c0.1-0.9,0.2-1.6,0.3-2.2c0.1-0.6,0.2-1,0.2-1.4c0-0.4,0.1-0.7,0.1-0.9c0-0.2,0-0.5,0-0.8
	v-0.2h1c-0.3,2.3-0.7,4.6-1.1,6.9h-1l-1.3-4.4l-1.2,4.4H286.4z M295.4,74.2c-0.8,0-1.4-0.2-1.8-0.5c-0.4-0.4-0.6-0.8-0.6-1.4
	c0-0.5,0.2-0.9,0.5-1.3c0.3-0.4,0.7-0.6,1.2-0.8c0.5-0.2,1.1-0.3,1.7-0.3c0.2,0,0.5,0,0.7,0c0.3,0,0.5,0,0.8,0.1
	c-0.1-0.8-0.3-1.4-0.6-1.7c-0.4-0.3-0.9-0.5-1.5-0.5c-0.3,0-0.7,0.1-1,0.2c-0.3,0.1-0.6,0.3-0.9,0.6l-0.5-0.7
	c0.3-0.3,0.7-0.6,1.1-0.7c0.4-0.2,0.9-0.2,1.3-0.2c0.6,0,1.1,0.1,1.6,0.3c0.4,0.2,0.8,0.5,1,1c0.2,0.5,0.4,1.2,0.4,2V74h-1.2v-1.1
	c-0.2,0.3-0.4,0.6-0.7,0.8c-0.3,0.2-0.5,0.3-0.8,0.3C296,74.1,295.7,74.2,295.4,74.2z M294.1,72.2c0,0.4,0.1,0.7,0.4,0.9
	c0.3,0.2,0.6,0.2,1,0.2c0.7,0,1.3-0.2,1.8-0.6c0.4-0.4,0.7-1.1,0.7-1.9c-0.5-0.1-1-0.1-1.5-0.1c-0.7,0-1.3,0.1-1.8,0.4
	C294.3,71.3,294.1,71.7,294.1,72.2z M300.9,74v-0.9h2v-8.2H301V64h3v9.1h2V74H300.9z M308.4,74v-0.9h2v-8.2h-1.9V64h3v9.1h2V74
	H308.4z M318.8,74.1c-1,0-1.8-0.3-2.4-0.9c-0.6-0.6-0.9-1.5-0.9-2.6c0-0.8,0.1-1.4,0.4-2c0.3-0.5,0.7-0.9,1.1-1.2
	c0.5-0.3,1-0.4,1.6-0.4c0.5,0,1,0.1,1.4,0.3c0.4,0.2,0.8,0.6,1,1.1c0.2,0.5,0.4,1.1,0.4,1.8c0,0.1,0,0.2,0,0.3c0,0.1,0,0.2,0,0.2
	h-4.9c0,0.9,0.3,1.5,0.7,1.9c0.5,0.4,1,0.6,1.6,0.6c0.7,0,1.3-0.3,1.8-0.8l0.6,0.6C320.7,73.8,319.9,74.1,318.8,74.1z M316.6,69.9
	h3.8c0-0.6-0.2-1.1-0.5-1.5c-0.3-0.4-0.7-0.6-1.3-0.6c-0.5,0-0.9,0.2-1.3,0.5C316.9,68.6,316.7,69.2,316.6,69.9z M326.7,74.1
	c-0.6,0-1-0.1-1.4-0.4c-0.3-0.3-0.5-0.7-0.6-1.2c-0.1-0.6-0.1-1.3-0.1-2.2l0.1-2.2h-1.5v-0.9h1.5l0.1-1.8l1.1-0.1l0.1,0l0,0.1
	c0,0.1-0.1,0.1-0.1,0.2c0,0.1-0.1,0.2-0.1,0.4l-0.1,1.2h2.4V68h-2.4l-0.1,2.3c0,0.8,0,1.3,0.1,1.8c0.1,0.4,0.2,0.7,0.4,0.9
	c0.2,0.1,0.4,0.2,0.7,0.2c0.3,0,0.6-0.1,0.9-0.2c0.3-0.1,0.5-0.3,0.8-0.5l0.3,0.9c-0.3,0.2-0.7,0.4-1.1,0.6
	C327.5,74,327.1,74.1,326.7,74.1z M345.8,74v-6.9h1.1v1.2c0.3-0.4,0.6-0.8,1-1c0.4-0.2,0.9-0.4,1.3-0.4c0.6,0,1,0.2,1.4,0.7
	c0.4,0.4,0.6,1.2,0.6,2.2V74h-1.1v-4.1c0-0.7-0.1-1.2-0.4-1.5c-0.2-0.3-0.5-0.4-0.9-0.4c-0.3,0-0.6,0.1-0.9,0.3
	c-0.3,0.2-0.6,0.4-0.8,0.7c-0.2,0.3-0.3,0.7-0.3,1.1V74H345.8z M354.7,68h-1.5v-0.9h1.5v-0.6c0-0.9,0.2-1.6,0.7-2
	c0.5-0.4,1.1-0.6,1.8-0.6c0.4,0,0.8,0.1,1.2,0.2c0.4,0.1,0.7,0.4,0.9,0.7l-0.6,0.8l-0.1,0.1l-0.1-0.1c0-0.1,0-0.2-0.1-0.2
	c0-0.1-0.1-0.2-0.2-0.3c-0.2-0.1-0.3-0.2-0.5-0.3c-0.2-0.1-0.4-0.1-0.6-0.1c-0.4,0-0.8,0.1-1.1,0.4c-0.3,0.3-0.4,0.7-0.4,1.4v0.6
	h2.2V68h-2.2v6h-1V68z M364.2,74.1c-0.6,0-1-0.1-1.4-0.4c-0.3-0.3-0.5-0.7-0.6-1.2c-0.1-0.6-0.1-1.3-0.1-2.2l0.1-2.2h-1.5v-0.9h1.5
	l0.1-1.8l1.1-0.1l0.1,0l0,0.1c0,0.1-0.1,0.1-0.1,0.2c0,0.1-0.1,0.2-0.1,0.4l-0.1,1.2h2.4V68h-2.4l-0.1,2.3c0,0.8,0,1.3,0.1,1.8
	c0.1,0.4,0.2,0.7,0.4,0.9c0.2,0.1,0.4,0.2,0.7,0.2c0.3,0,0.6-0.1,0.9-0.2c0.3-0.1,0.5-0.3,0.8-0.5l0.3,0.9c-0.3,0.2-0.7,0.4-1.1,0.6
	C365,74,364.6,74.1,364.2,74.1z M116.7,93.1c-0.6,0-1-0.1-1.3-0.4c-0.3-0.3-0.5-0.7-0.6-1.2c-0.1-0.6-0.1-1.3-0.1-2.2l0.1-2.2h-1.5
	v-0.9h1.5l0.1-1.8l1.1-0.1l0.2,0l0,0.1c-0.1,0.1-0.1,0.1-0.1,0.2c0,0.1-0.1,0.2-0.1,0.4l-0.1,1.2h2.4V87h-2.4l-0.1,2.3
	c0,0.8,0,1.3,0.1,1.8c0.1,0.4,0.2,0.7,0.4,0.9c0.2,0.1,0.4,0.2,0.7,0.2c0.3,0,0.6-0.1,0.9-0.2c0.3-0.1,0.5-0.3,0.8-0.5l0.3,0.9
	c-0.3,0.2-0.7,0.4-1.1,0.6C117.5,93,117.1,93.1,116.7,93.1z M123.5,93.1c-0.6,0-1.2-0.2-1.7-0.5c-0.5-0.3-0.8-0.7-1.1-1.3
	c-0.3-0.5-0.4-1.2-0.4-1.8c0-0.7,0.1-1.3,0.4-1.8c0.3-0.5,0.6-1,1.1-1.3c0.5-0.3,1-0.5,1.7-0.5s1.2,0.2,1.6,0.5
	c0.5,0.3,0.9,0.7,1.1,1.3c0.3,0.5,0.4,1.1,0.4,1.8c0,0.7-0.1,1.3-0.4,1.8c-0.3,0.5-0.6,0.9-1.1,1.3C124.7,93,124.1,93.1,123.5,93.1z
	 M123.5,92.2c0.4,0,0.8-0.1,1.1-0.3c0.3-0.2,0.5-0.5,0.7-0.9c0.2-0.4,0.3-0.9,0.3-1.4c0-0.8-0.2-1.4-0.6-1.9
	c-0.4-0.5-0.9-0.8-1.5-0.8c-0.6,0-1.1,0.2-1.5,0.8c-0.4,0.5-0.6,1.1-0.6,1.9c0,0.5,0.1,1,0.3,1.4c0.2,0.4,0.4,0.7,0.7,0.9
	C122.8,92.1,123.1,92.2,123.5,92.2z M130.8,88.4c-0.2,0-0.4-0.1-0.6-0.3c-0.2-0.2-0.3-0.4-0.3-0.6c0-0.2,0.1-0.4,0.3-0.6
	c0.2-0.2,0.4-0.3,0.6-0.3s0.4,0.1,0.6,0.3c0.2,0.2,0.3,0.4,0.3,0.6c0,0.2-0.1,0.4-0.3,0.6C131.3,88.3,131.1,88.4,130.8,88.4z
	 M130.8,93.2c-0.2,0-0.5-0.1-0.6-0.2c-0.2-0.2-0.3-0.4-0.3-0.6c0-0.2,0.1-0.4,0.3-0.6c0.2-0.2,0.4-0.3,0.6-0.3s0.4,0.1,0.6,0.3
	c0.2,0.2,0.3,0.4,0.3,0.6c0,0.2-0.1,0.4-0.3,0.6C131.3,93.1,131.1,93.2,130.8,93.2z M158.3,93v-6.9h1.1v1.2c0.3-0.4,0.6-0.8,1-1
	c0.4-0.2,0.9-0.4,1.3-0.4c0.6,0,1,0.2,1.4,0.7c0.4,0.4,0.6,1.2,0.6,2.2V93h-1.1v-4.1c0-0.7-0.1-1.2-0.4-1.5
	c-0.2-0.3-0.5-0.4-0.9-0.4c-0.3,0-0.6,0.1-0.9,0.3c-0.3,0.2-0.6,0.4-0.8,0.7c-0.2,0.3-0.3,0.7-0.3,1.1V93H158.3z M168.8,93.1
	c-1,0-1.8-0.3-2.4-0.9c-0.6-0.6-0.9-1.5-0.9-2.6c0-0.8,0.1-1.4,0.4-2c0.3-0.5,0.7-0.9,1.1-1.2c0.5-0.3,1-0.4,1.6-0.4
	c0.5,0,1,0.1,1.4,0.3c0.4,0.2,0.8,0.6,1,1.1c0.2,0.5,0.4,1.1,0.4,1.8c0,0.1,0,0.2,0,0.3c0,0.1,0,0.2,0,0.2h-4.9
	c0,0.9,0.3,1.5,0.7,1.9c0.5,0.4,1,0.6,1.6,0.6c0.7,0,1.3-0.3,1.8-0.8l0.6,0.6C170.7,92.8,169.9,93.1,168.8,93.1z M166.6,88.9h3.8
	c0-0.6-0.2-1.1-0.5-1.5c-0.3-0.4-0.7-0.6-1.3-0.6c-0.5,0-0.9,0.2-1.3,0.5C166.9,87.6,166.7,88.2,166.6,88.9z M176.7,93.1
	c-0.6,0-1-0.1-1.3-0.4c-0.3-0.3-0.5-0.7-0.6-1.2c-0.1-0.6-0.1-1.3-0.1-2.2l0.1-2.2h-1.5v-0.9h1.5l0.1-1.8l1.1-0.1l0.2,0l0,0.1
	c-0.1,0.1-0.1,0.1-0.1,0.2c0,0.1-0.1,0.2-0.1,0.4l-0.1,1.2h2.4V87h-2.4l-0.1,2.3c0,0.8,0,1.3,0.1,1.8c0.1,0.4,0.2,0.7,0.4,0.9
	c0.2,0.1,0.4,0.2,0.7,0.2c0.3,0,0.6-0.1,0.9-0.2c0.3-0.1,0.5-0.3,0.8-0.5l0.3,0.9c-0.3,0.2-0.7,0.4-1.1,0.6
	C177.5,93,177.1,93.1,176.7,93.1z M181.4,93l-1.4-6.9h0.9l1.1,5.5l1.2-4.9h0.7l1.5,4.8c0.1-0.9,0.2-1.6,0.3-2.2
	c0.1-0.6,0.2-1,0.2-1.4c0.1-0.4,0.1-0.7,0.1-0.9c0-0.2,0-0.5,0-0.8v-0.2h1c-0.3,2.3-0.7,4.6-1.1,6.9h-1l-1.3-4.4l-1.2,4.4H181.4z
	 M191,93.1c-0.6,0-1.2-0.2-1.7-0.5c-0.5-0.3-0.8-0.7-1.1-1.3c-0.3-0.5-0.4-1.2-0.4-1.8c0-0.7,0.1-1.3,0.4-1.8c0.3-0.5,0.6-1,1.1-1.3
	c0.5-0.3,1-0.5,1.7-0.5c0.6,0,1.2,0.2,1.6,0.5c0.5,0.3,0.9,0.7,1.1,1.3c0.3,0.5,0.4,1.1,0.4,1.8c0,0.7-0.1,1.3-0.4,1.8
	c-0.3,0.5-0.6,0.9-1.1,1.3C192.2,93,191.6,93.1,191,93.1z M191,92.2c0.4,0,0.8-0.1,1-0.3c0.3-0.2,0.5-0.5,0.7-0.9
	c0.2-0.4,0.3-0.9,0.3-1.4c0-0.8-0.2-1.4-0.6-1.9c-0.4-0.5-0.9-0.8-1.5-0.8c-0.6,0-1.1,0.2-1.5,0.8c-0.4,0.5-0.6,1.1-0.6,1.9
	c0,0.5,0.1,1,0.3,1.4c0.2,0.4,0.4,0.7,0.7,0.9C190.3,92.1,190.6,92.2,191,92.2z M196.5,86.1h1.1l0,1.3c0.2-0.5,0.5-0.8,0.9-1
	c0.4-0.2,0.8-0.4,1.3-0.4c0.7,0,1.3,0.2,1.8,0.8l-0.5,0.8l-0.1,0.1l-0.1-0.1c0-0.1-0.1-0.2-0.1-0.2c0-0.1-0.1-0.2-0.3-0.3
	c-0.2-0.1-0.3-0.2-0.4-0.2c-0.1,0-0.3-0.1-0.4-0.1c-0.3,0-0.7,0.1-1,0.3c-0.3,0.2-0.6,0.4-0.8,0.8s-0.3,0.8-0.3,1.4V93h-1.1V86.1z
	 M205.2,89.6l-0.9,0.8V93h-1.1V83h1.2v0.1c-0.1,0.1-0.1,0.1-0.1,0.2c0,0.1,0,0.2,0,0.4v5.6l3.4-3.2c0.1,0,0.2,0,0.4,0.1
	c0.1,0,0.3,0,0.4,0h0.4l-2.9,2.7l3.4,4.1l-1.4,0.1L205.2,89.6z M293.9,93l-1.4-6.9h0.9l1.1,5.5l1.2-4.9h0.7l1.5,4.8
	c0.1-0.9,0.2-1.6,0.3-2.2c0.1-0.6,0.2-1,0.2-1.4c0-0.4,0.1-0.7,0.1-0.9c0-0.2,0-0.5,0-0.8v-0.2h1c-0.3,2.3-0.7,4.6-1.1,6.9h-1
	l-1.3-4.4l-1.2,4.4H293.9z M302.9,93.2c-0.8,0-1.4-0.2-1.8-0.5c-0.4-0.4-0.6-0.8-0.6-1.4c0-0.5,0.2-0.9,0.5-1.3
	c0.3-0.4,0.7-0.6,1.2-0.8c0.5-0.2,1.1-0.3,1.7-0.3c0.2,0,0.5,0,0.7,0c0.3,0,0.5,0,0.8,0.1c-0.1-0.8-0.3-1.4-0.6-1.7
	c-0.4-0.3-0.9-0.5-1.5-0.5c-0.3,0-0.7,0.1-1,0.2c-0.3,0.1-0.6,0.3-0.9,0.6L301,87c0.3-0.3,0.7-0.6,1.1-0.7c0.4-0.2,0.9-0.2,1.3-0.2
	c0.6,0,1.1,0.1,1.6,0.3c0.4,0.2,0.8,0.5,1,1c0.2,0.5,0.4,1.2,0.4,2V93h-1.2v-1.1c-0.2,0.3-0.4,0.6-0.7,0.8c-0.3,0.2-0.5,0.3-0.8,0.3
	C303.5,93.1,303.2,93.2,302.9,93.2z M301.6,91.2c0,0.4,0.1,0.7,0.4,0.9c0.3,0.2,0.6,0.2,1,0.2c0.7,0,1.3-0.2,1.8-0.6
	c0.4-0.4,0.7-1.1,0.7-1.9c-0.5-0.1-1-0.1-1.5-0.1c-0.7,0-1.3,0.1-1.8,0.4C301.8,90.3,301.6,90.7,301.6,91.2z M308.4,93v-0.9h2v-8.2
	h-1.9V83h3v9.1h2V93H308.4z M315.9,93v-0.9h2v-8.2H316V83h3v9.1h2V93H315.9z M326.3,93.1c-1,0-1.8-0.3-2.4-0.9
	c-0.6-0.6-0.9-1.5-0.9-2.6c0-0.8,0.1-1.4,0.4-2c0.3-0.5,0.7-0.9,1.1-1.2c0.5-0.3,1-0.4,1.6-0.4c0.5,0,1,0.1,1.4,0.3
	c0.4,0.2,0.8,0.6,1,1.1c0.2,0.5,0.4,1.1,0.4,1.8c0,0.1,0,0.2,0,0.3c0,0.1,0,0.2,0,0.2H324c0,0.9,0.3,1.5,0.7,1.9
	c0.5,0.4,1,0.6,1.6,0.6c0.7,0,1.3-0.3,1.8-0.8l0.6,0.6C328.2,92.8,327.4,93.1,326.3,93.1z M324.1,88.9h3.8c0-0.6-0.2-1.1-0.5-1.5
	c-0.3-0.4-0.7-0.6-1.3-0.6c-0.5,0-0.9,0.2-1.3,0.5C324.4,87.6,324.2,88.2,324.1,88.9z M334.2,93.1c-0.6,0-1-0.1-1.4-0.4
	c-0.3-0.3-0.5-0.7-0.6-1.2c-0.1-0.6-0.1-1.3-0.1-2.2l0.1-2.2h-1.5v-0.9h1.5l0.1-1.8l1.1-0.1l0.1,0l0,0.1c0,0.1-0.1,0.1-0.1,0.2
	c0,0.1-0.1,0.2-0.1,0.4l-0.1,1.2h2.4V87h-2.4l-0.1,2.3c0,0.8,0,1.3,0.1,1.8c0.1,0.4,0.2,0.7,0.4,0.9c0.2,0.1,0.4,0.2,0.7,0.2
	c0.3,0,0.6-0.1,0.9-0.2c0.3-0.1,0.5-0.3,0.8-0.5l0.3,0.9c-0.3,0.2-0.7,0.4-1.1,0.6C335,93,334.6,93.1,334.2,93.1z M217.9,144.2v-0.9
	h6.2v0.9H217.9z M217.9,147.3v-0.9h6.2v0.9H217.9z M225.4,149.3v-1.1l5.2-2.9l-5.2-2.7v-1.1l6.4,3.3v0.7L225.4,149.3z M217.9,201.2
	v-0.9h6.2v0.9H217.9z M217.9,204.3v-0.9h6.2v0.9H217.9z M225.4,206.3v-1.1l5.2-2.9l-5.2-2.7v-1.1l6.4,3.3v0.7L225.4,206.3z
	 M195.4,258.2v-0.9h6.2v0.9H195.4z M195.4,261.3v-0.9h6.2v0.9H195.4z M202.9,263.3v-1.1l5.2-2.9l-5.2-2.7v-1.1l6.4,3.3v0.7
	L202.9,263.3z M202.9,315.2v-0.9h6.2v0.9H202.9z M202.9,318.3v-0.9h6.2v0.9H202.9z M210.4,320.3v-1.1l5.2-2.9l-5.2-2.7v-1.1l6.4,3.3
	v0.7L210.4,320.3z"/>
<path class="st5" d="M228.3,69.4c-0.2,0-0.4-0.1-0.6-0.3c-0.2-0.2-0.3-0.4-0.3-0.6c0-0.2,0.1-0.4,0.3-0.6c0.2-0.2,0.4-0.3,0.6-0.3
	s0.4,0.1,0.6,0.3c0.2,0.2,0.3,0.4,0.3,0.6c0,0.2-0.1,0.4-0.3,0.6C228.8,69.3,228.6,69.4,228.3,69.4z M228.3,74.2
	c-0.2,0-0.5-0.1-0.6-0.2c-0.2-0.2-0.3-0.4-0.3-0.6c0-0.2,0.1-0.4,0.3-0.6c0.2-0.2,0.4-0.3,0.6-0.3s0.4,0.1,0.6,0.3
	c0.2,0.2,0.3,0.4,0.3,0.6c0,0.2-0.1,0.4-0.3,0.6C228.8,74.1,228.6,74.2,228.3,74.2z M213.3,88.4c-0.2,0-0.4-0.1-0.6-0.3
	c-0.2-0.2-0.3-0.4-0.3-0.6c0-0.2,0.1-0.4,0.3-0.6c0.2-0.2,0.4-0.3,0.6-0.3s0.4,0.1,0.6,0.3c0.2,0.2,0.3,0.4,0.3,0.6
	c0,0.2-0.1,0.4-0.3,0.6C213.8,88.3,213.6,88.4,213.3,88.4z M213.3,93.2c-0.2,0-0.5-0.1-0.6-0.2c-0.2-0.2-0.3-0.4-0.3-0.6
	c0-0.2,0.1-0.4,0.3-0.6c0.2-0.2,0.4-0.3,0.6-0.3s0.4,0.1,0.6,0.3c0.2,0.2,0.3,0.4,0.3,0.6c0,0.2-0.1,0.4-0.3,0.6
	C213.8,93.1,213.6,93.2,213.3,93.2z"/>
<path class="st6" d="M242.9,74v-8.4h-2.7v-0.9h6.5v0.9h-2.8V74H242.9z M248.1,74v-9.3h2.8c1.1,0,1.9,0.2,2.4,0.7
	c0.5,0.5,0.7,1.1,0.7,1.9c0,0.4-0.1,0.7-0.2,1.1c-0.2,0.3-0.4,0.7-0.7,0.9c-0.3,0.3-0.6,0.4-1,0.5l2.2,4.2H253l-2.1-4.1h-1.8V74
	H248.1z M249.2,68.9h1.8c0.7,0,1.2-0.1,1.5-0.4c0.3-0.3,0.5-0.7,0.5-1.2c0-0.5-0.2-0.9-0.5-1.2c-0.3-0.3-0.8-0.5-1.5-0.5h-1.8V68.9z
	 M258.5,74.2c-1.1,0-1.9-0.4-2.5-1.2c-0.6-0.8-0.9-2-0.9-3.5c0-1.5,0.3-2.6,0.9-3.5c0.6-0.9,1.4-1.3,2.5-1.3s1.9,0.4,2.5,1.3
	c0.6,0.8,0.9,2,0.9,3.5c0,1.5-0.3,2.7-0.9,3.5C260.4,73.7,259.6,74.2,258.5,74.2z M258.5,73.2c0.7,0,1.3-0.3,1.7-1
	c0.4-0.7,0.6-1.6,0.6-2.9c0-1.2-0.2-2.1-0.6-2.8c-0.4-0.7-1-1-1.7-1c-0.7,0-1.3,0.3-1.7,1c-0.4,0.7-0.6,1.6-0.6,2.8
	c0,1.2,0.2,2.2,0.6,2.9C257.2,72.9,257.8,73.2,258.5,73.2z M263,64.7h1l3.9,6.9v-6.9h1.1v0.1c-0.1,0.1-0.1,0.1-0.1,0.2
	c0,0.1,0,0.2,0,0.4V74h-0.8l-4.1-7.3V74h-1V64.7z M229,93.1c-0.7,0-1.3-0.2-1.8-0.5c-0.6-0.3-1-0.9-1.3-1.6
	c-0.3-0.7-0.5-1.6-0.5-2.7c0-0.9,0.1-1.7,0.3-2.3c0.2-0.6,0.5-1.1,0.9-1.5c0.4-0.4,0.7-0.6,1.2-0.8c0.4-0.2,0.9-0.2,1.3-0.2
	c0.7,0,1.3,0.2,1.7,0.5c0.5,0.3,0.8,0.8,1.1,1.3l-0.9,0.4l-0.1,0.1l0-0.1c0-0.1,0-0.2,0-0.2c0-0.1-0.1-0.2-0.2-0.3
	c-0.2-0.3-0.5-0.6-0.8-0.7c-0.3-0.1-0.5-0.2-0.8-0.2c-0.8,0-1.4,0.3-1.9,1c-0.5,0.7-0.7,1.6-0.7,2.8c0,0.8,0.1,1.5,0.3,2.1
	c0.2,0.6,0.6,1.1,0.9,1.4c0.4,0.3,0.8,0.5,1.3,0.5c0.4,0,0.7-0.1,1.1-0.3c0.3-0.2,0.6-0.5,0.8-0.8l0.8,0.5c-0.3,0.5-0.7,0.9-1.1,1.1
	C230.2,93,229.6,93.1,229,93.1z M238.4,93l-0.9-2.7h-3l-0.9,2.7h-1l3.4-9.5h0.1l3.4,9.5H238.4z M236,85.9l-1.2,3.6h2.5L236,85.9z
	 M240.6,93v-9.3h2.8c1.1,0,1.9,0.2,2.4,0.7c0.5,0.5,0.7,1.1,0.7,1.9c0,0.4-0.1,0.7-0.2,1.1c-0.2,0.3-0.4,0.7-0.7,0.9
	c-0.3,0.3-0.6,0.4-1,0.5l2.2,4.2h-1.2l-2.1-4.1h-1.8V93H240.6z M241.7,87.9h1.8c0.7,0,1.2-0.1,1.5-0.4c0.3-0.3,0.5-0.7,0.5-1.2
	c0-0.5-0.2-0.9-0.5-1.2c-0.3-0.3-0.8-0.5-1.5-0.5h-1.8V87.9z M248.1,93v-9.4h2.2c0.8,0,1.4,0.1,1.9,0.3c0.5,0.2,0.8,0.5,1.1,0.9
	c0.6,0.8,0.9,2,0.9,3.4c0,1-0.2,1.8-0.5,2.5c-0.3,0.7-0.7,1.2-1.3,1.6c-0.6,0.4-1.4,0.6-2.3,0.6H248.1z M249.1,92.2h1
	c1.1,0,1.9-0.3,2.4-1c0.5-0.7,0.7-1.6,0.7-2.8c0-1.2-0.2-2.2-0.7-2.9c-0.4-0.7-1.2-1-2.2-1h-1.1V92.2z M260.9,93l-0.9-2.7h-3L256,93
	h-1l3.5-9.5h0.1L262,93H260.9z M258.5,85.9l-1.2,3.6h2.5L258.5,85.9z M263,83.7h1l3.9,6.9v-6.9h1.1v0.1c-0.1,0.1-0.1,0.1-0.1,0.2
	c0,0.1,0,0.2,0,0.4V93h-0.8l-4.1-7.3V93h-1V83.7z M273.5,93.2c-1.1,0-1.9-0.4-2.5-1.2s-0.9-2-0.9-3.5c0-1.5,0.3-2.6,0.9-3.5
	c0.6-0.9,1.4-1.3,2.5-1.3s1.9,0.4,2.5,1.3c0.6,0.8,0.9,2,0.9,3.5c0,1.5-0.3,2.7-0.9,3.5C275.4,92.7,274.6,93.2,273.5,93.2z
	 M273.5,92.2c0.7,0,1.3-0.3,1.7-1c0.4-0.7,0.6-1.6,0.6-2.9c0-1.2-0.2-2.1-0.6-2.8c-0.4-0.7-1-1-1.7-1c-0.7,0-1.3,0.3-1.7,1
	c-0.4,0.7-0.6,1.6-0.6,2.8c0,1.2,0.2,2.2,0.6,2.9C272.2,91.9,272.8,92.2,273.5,92.2z M356.7,93.1c-0.6,0-1-0.1-1.4-0.4
	c-0.3-0.3-0.5-0.7-0.6-1.2c-0.1-0.6-0.1-1.3-0.1-2.2l0.1-2.2h-1.5v-0.9h1.5l0.1-1.8l1.1-0.1l0.1,0l0,0.1c0,0.1-0.1,0.1-0.1,0.2
	c0,0.1-0.1,0.2-0.1,0.4l-0.1,1.2h2.4V87h-2.4l-0.1,2.3c0,0.8,0,1.3,0.1,1.8c0.1,0.4,0.2,0.7,0.4,0.9c0.2,0.1,0.4,0.2,0.7,0.2
	c0.3,0,0.6-0.1,0.9-0.2c0.3-0.1,0.5-0.3,0.8-0.5l0.3,0.9c-0.3,0.2-0.7,0.4-1.1,0.6C357.5,93,357.1,93.1,356.7,93.1z M362.9,93.2
	c-0.8,0-1.4-0.2-1.8-0.5c-0.4-0.4-0.6-0.8-0.6-1.4c0-0.5,0.2-0.9,0.5-1.3c0.3-0.4,0.7-0.6,1.2-0.8c0.5-0.2,1.1-0.3,1.7-0.3
	c0.2,0,0.5,0,0.7,0c0.3,0,0.5,0,0.8,0.1c-0.1-0.8-0.3-1.4-0.6-1.7c-0.4-0.3-0.9-0.5-1.5-0.5c-0.3,0-0.7,0.1-1,0.2
	c-0.3,0.1-0.6,0.3-0.9,0.6L361,87c0.3-0.3,0.7-0.6,1.1-0.7c0.4-0.2,0.9-0.2,1.3-0.2c0.6,0,1.1,0.1,1.6,0.3c0.4,0.2,0.8,0.5,1,1
	c0.2,0.5,0.4,1.2,0.4,2V93h-1.2v-1.1c-0.2,0.3-0.4,0.6-0.7,0.8c-0.3,0.2-0.5,0.3-0.8,0.3C363.5,93.1,363.2,93.2,362.9,93.2z
	 M361.6,91.2c0,0.4,0.1,0.7,0.4,0.9c0.3,0.2,0.6,0.2,1,0.2c0.7,0,1.3-0.2,1.8-0.6c0.4-0.4,0.7-1.1,0.7-1.9c-0.5-0.1-1-0.1-1.5-0.1
	c-0.7,0-1.3,0.1-1.8,0.4C361.8,90.3,361.6,90.7,361.6,91.2z M369,86.1h1.1l0,1.3c0.2-0.5,0.5-0.8,0.9-1c0.4-0.2,0.8-0.4,1.3-0.4
	c0.7,0,1.3,0.2,1.8,0.8l-0.5,0.8l-0.1,0.1l-0.1-0.1c0-0.1-0.1-0.2-0.1-0.2c0-0.1-0.1-0.2-0.3-0.3c-0.2-0.1-0.3-0.2-0.5-0.2
	c-0.1,0-0.3-0.1-0.5-0.1c-0.3,0-0.7,0.1-1,0.3c-0.3,0.2-0.6,0.4-0.8,0.8c-0.2,0.4-0.3,0.8-0.3,1.4V93H369V86.1z M378.1,90.7
	c-0.4,0-0.7-0.1-1.1-0.2c-0.2,0.2-0.3,0.4-0.3,0.6c0,0.2,0.1,0.4,0.5,0.5c0.3,0.1,0.8,0.1,1.6,0.1c0.7,0,1.2,0.1,1.6,0.2
	c0.4,0.1,0.6,0.4,0.7,0.6c0.1,0.3,0.2,0.6,0.2,0.9c0,0.3-0.1,0.7-0.3,1s-0.5,0.6-0.9,0.8c-0.4,0.2-1,0.3-1.7,0.3
	c-1,0-1.7-0.2-2.3-0.5c-0.6-0.3-0.8-0.7-0.8-1.3c0-0.4,0.1-0.7,0.3-0.9c0.2-0.3,0.5-0.5,0.8-0.6c-0.3-0.2-0.5-0.5-0.5-0.9
	c0-0.2,0.1-0.4,0.2-0.6s0.3-0.4,0.5-0.6c-0.5-0.4-0.8-1.1-0.8-1.8c0-0.4,0.1-0.8,0.3-1.2c0.2-0.4,0.5-0.6,0.8-0.9
	c0.4-0.2,0.8-0.3,1.3-0.3c0.4,0,0.7,0.1,1,0.2c0.3,0.1,0.6,0.3,0.8,0.5c0.3-0.2,0.5-0.4,0.8-0.5c0.3-0.1,0.6-0.2,1-0.1l0.1,0.9
	c-0.3,0-0.6,0-0.9,0c-0.3,0-0.5,0.1-0.7,0.3c0.2,0.3,0.3,0.7,0.3,1.1c0,0.4-0.1,0.8-0.3,1.2c-0.2,0.4-0.5,0.7-0.8,0.9
	C379.1,90.6,378.6,90.7,378.1,90.7z M378.1,89.8c0.4,0,0.8-0.1,1.1-0.4c0.3-0.3,0.4-0.7,0.4-1.1c0-0.4-0.1-0.8-0.4-1.1
	c-0.3-0.3-0.6-0.4-1.1-0.4c-0.4,0-0.8,0.2-1.1,0.4c-0.3,0.3-0.4,0.6-0.4,1.1c0,0.4,0.1,0.8,0.4,1.1
	C377.4,89.6,377.7,89.8,378.1,89.8z M376.3,93.7c0,0.3,0.2,0.6,0.6,0.8c0.4,0.2,0.9,0.3,1.6,0.3c0.7,0,1.2-0.1,1.5-0.3
	c0.3-0.2,0.5-0.5,0.5-0.8c0-0.2,0-0.4-0.1-0.5c-0.1-0.1-0.2-0.2-0.5-0.3s-0.6-0.1-1.1-0.1c-0.4,0-0.7,0-1,0c-0.3,0-0.5-0.1-0.8-0.2
	c-0.2,0.2-0.4,0.3-0.5,0.5C376.4,93.2,376.3,93.4,376.3,93.7z M386.3,93.1c-1,0-1.8-0.3-2.4-0.9c-0.6-0.6-0.9-1.5-0.9-2.6
	c0-0.8,0.1-1.4,0.4-2c0.3-0.5,0.7-0.9,1.1-1.2c0.5-0.3,1-0.4,1.6-0.4c0.5,0,1,0.1,1.4,0.3c0.4,0.2,0.8,0.6,1,1.1
	c0.2,0.5,0.4,1.1,0.4,1.8c0,0.1,0,0.2,0,0.3c0,0.1,0,0.2,0,0.2H384c0,0.9,0.3,1.5,0.7,1.9c0.5,0.4,1,0.6,1.6,0.6
	c0.7,0,1.3-0.3,1.8-0.8l0.6,0.6C388.2,92.8,387.4,93.1,386.3,93.1z M384.1,88.9h3.8c0-0.6-0.2-1.1-0.5-1.5c-0.3-0.4-0.7-0.6-1.3-0.6
	c-0.5,0-0.9,0.2-1.3,0.5C384.4,87.6,384.2,88.2,384.1,88.9z M394.2,93.1c-0.6,0-1-0.1-1.4-0.4c-0.3-0.3-0.5-0.7-0.6-1.2
	c-0.1-0.6-0.1-1.3-0.1-2.2l0.1-2.2h-1.5v-0.9h1.5l0.1-1.8l1.1-0.1l0.1,0l0,0.1c0,0.1-0.1,0.1-0.1,0.2c0,0.1-0.1,0.2-0.1,0.4
	l-0.1,1.2h2.4V87h-2.4l-0.1,2.3c0,0.8,0,1.3,0.1,1.8c0.1,0.4,0.2,0.7,0.4,0.9c0.2,0.1,0.4,0.2,0.7,0.2c0.3,0,0.6-0.1,0.9-0.2
	c0.3-0.1,0.5-0.3,0.8-0.5l0.3,0.9c-0.3,0.2-0.7,0.4-1.1,0.6C395,93,394.6,93.1,394.2,93.1z M399,93l-1.5-9.3h1l1,6.3l1.5-5.6h0.3
	l1.5,5.7l0.9-6.3h0.9l-1.5,9.3h-0.4l-1.6-6.1l-1.6,6.1H399z M407.9,93.2c-0.8,0-1.4-0.2-1.8-0.5c-0.4-0.4-0.6-0.8-0.6-1.4
	c0-0.5,0.2-0.9,0.5-1.3c0.3-0.4,0.7-0.6,1.2-0.8c0.5-0.2,1.1-0.3,1.7-0.3c0.2,0,0.5,0,0.7,0c0.3,0,0.5,0,0.8,0.1
	c-0.1-0.8-0.3-1.4-0.6-1.7c-0.4-0.3-0.9-0.5-1.5-0.5c-0.3,0-0.7,0.1-1,0.2c-0.3,0.1-0.6,0.3-0.9,0.6L406,87c0.3-0.3,0.7-0.6,1.1-0.7
	c0.4-0.2,0.9-0.2,1.3-0.2c0.6,0,1.1,0.1,1.6,0.3c0.4,0.2,0.8,0.5,1,1c0.2,0.5,0.4,1.2,0.4,2V93h-1.2v-1.1c-0.2,0.3-0.4,0.6-0.7,0.8
	c-0.3,0.2-0.5,0.3-0.8,0.3C408.5,93.1,408.2,93.2,407.9,93.2z M406.6,91.2c0,0.4,0.1,0.7,0.4,0.9c0.3,0.2,0.6,0.2,1,0.2
	c0.7,0,1.3-0.2,1.8-0.6c0.4-0.4,0.7-1.1,0.7-1.9c-0.5-0.1-1-0.1-1.5-0.1c-0.7,0-1.3,0.1-1.8,0.4C406.8,90.3,406.6,90.7,406.6,91.2z
	 M413.4,93v-0.9h2v-8.2h-1.9V83h3v9.1h2V93H413.4z M420.9,93v-0.9h2v-8.2H421V83h3v9.1h2V93H420.9z M431.3,93.1
	c-1,0-1.8-0.3-2.4-0.9c-0.6-0.6-0.9-1.5-0.9-2.6c0-0.8,0.1-1.4,0.4-2c0.3-0.5,0.7-0.9,1.1-1.2c0.5-0.3,1-0.4,1.6-0.4
	c0.5,0,1,0.1,1.4,0.3c0.4,0.2,0.8,0.6,1,1.1c0.2,0.5,0.4,1.1,0.4,1.8c0,0.1,0,0.2,0,0.3c0,0.1,0,0.2,0,0.2H429
	c0,0.9,0.3,1.5,0.7,1.9c0.5,0.4,1,0.6,1.6,0.6c0.7,0,1.3-0.3,1.8-0.8l0.6,0.6C433.2,92.8,432.4,93.1,431.3,93.1z M429.1,88.9h3.8
	c0-0.6-0.2-1.1-0.5-1.5c-0.3-0.4-0.7-0.6-1.3-0.6c-0.5,0-0.9,0.2-1.3,0.5C429.4,87.6,429.2,88.2,429.1,88.9z M439.2,93.1
	c-0.6,0-1-0.1-1.4-0.4c-0.3-0.3-0.5-0.7-0.6-1.2c-0.1-0.6-0.1-1.3-0.1-2.2l0.1-2.2h-1.5v-0.9h1.5l0.1-1.8l1.1-0.1l0.1,0l0,0.1
	c0,0.1-0.1,0.1-0.1,0.2c0,0.1-0.1,0.2-0.1,0.4l-0.1,1.2h2.4V87h-2.4l-0.1,2.3c0,0.8,0,1.3,0.1,1.8c0.1,0.4,0.2,0.7,0.4,0.9
	c0.2,0.1,0.4,0.2,0.7,0.2c0.3,0,0.6-0.1,0.9-0.2c0.3-0.1,0.5-0.3,0.8-0.5l0.3,0.9c-0.3,0.2-0.7,0.4-1.1,0.6
	C440,93,439.6,93.1,439.2,93.1z"/>
<path class="st7" d="M340.8,88.4c-0.2,0-0.4-0.1-0.6-0.3s-0.3-0.4-0.3-0.6c0-0.2,0.1-0.4,0.3-0.6c0.2-0.2,0.4-0.3,0.6-0.3
	c0.2,0,0.4,0.1,0.6,0.3c0.2,0.2,0.3,0.4,0.3,0.6c0,0.2-0.1,0.4-0.3,0.6C341.3,88.3,341.1,88.4,340.8,88.4z M340.8,93.2
	c-0.2,0-0.5-0.1-0.6-0.2c-0.2-0.2-0.3-0.4-0.3-0.6c0-0.2,0.1-0.4,0.3-0.6s0.4-0.3,0.6-0.3c0.2,0,0.4,0.1,0.6,0.3
	c0.2,0.2,0.3,0.4,0.3,0.6c0,0.2-0.1,0.4-0.3,0.6C341.3,93.1,341.1,93.2,340.8,93.2z"/>
<path class="st8" d="M85.4,140h1.2c0,0.6,0,1.1,0,1.4c0,0.4,0,0.7-0.1,0.9c0,0.2,0,0.5-0.1,0.7c0,0.2-0.1,0.5-0.1,0.8h-0.7
	c0-0.3-0.1-0.6-0.1-0.8c0-0.2-0.1-0.5-0.1-0.7c0-0.2,0-0.5,0-0.9C85.4,141.1,85.4,140.6,85.4,140z M92.2,144h-1.5v-0.9h1.5v-0.6
	c0-0.9,0.2-1.6,0.7-2c0.5-0.4,1.1-0.6,1.8-0.6c0.4,0,0.8,0.1,1.2,0.2c0.4,0.1,0.7,0.4,0.9,0.7l-0.6,0.8l-0.1,0.1l-0.1-0.1
	c0-0.1,0-0.2-0.1-0.2s-0.1-0.2-0.2-0.3c-0.2-0.1-0.3-0.2-0.5-0.3c-0.2-0.1-0.4-0.1-0.6-0.1c-0.4,0-0.8,0.1-1.1,0.4
	c-0.3,0.3-0.4,0.7-0.4,1.4v0.6h2.2v0.9h-2.2v6h-1V144z M99,143.1h1.1l0,1.3c0.2-0.5,0.5-0.8,0.9-1.1c0.4-0.2,0.8-0.4,1.3-0.4
	c0.7,0,1.3,0.2,1.8,0.8l-0.5,0.8l-0.1,0.1l-0.1-0.1c0-0.1,0-0.2-0.1-0.2c0-0.1-0.1-0.2-0.3-0.3c-0.2-0.1-0.3-0.2-0.4-0.2
	c-0.1,0-0.3-0.1-0.4-0.1c-0.3,0-0.7,0.1-1,0.3c-0.3,0.2-0.6,0.4-0.8,0.8s-0.3,0.8-0.3,1.4v3.6H99V143.1z M108.5,150.1
	c-0.6,0-1.2-0.1-1.7-0.4c-0.5-0.3-0.8-0.7-1.1-1.3c-0.3-0.5-0.4-1.2-0.4-1.8c0-0.7,0.1-1.3,0.4-1.8c0.3-0.5,0.6-1,1.1-1.3
	c0.5-0.3,1-0.5,1.7-0.5s1.2,0.2,1.6,0.5c0.5,0.3,0.9,0.7,1.1,1.3c0.3,0.5,0.4,1.1,0.4,1.8c0,0.7-0.1,1.3-0.4,1.8
	c-0.3,0.5-0.6,0.9-1.1,1.3C109.7,150,109.1,150.1,108.5,150.1z M108.5,149.2c0.4,0,0.8-0.1,1.1-0.3c0.3-0.2,0.5-0.5,0.7-0.9
	c0.2-0.4,0.3-0.9,0.3-1.4c0-0.8-0.2-1.4-0.6-1.9c-0.4-0.5-0.9-0.8-1.5-0.8c-0.6,0-1.1,0.2-1.5,0.8c-0.4,0.5-0.6,1.1-0.6,1.9
	c0,0.5,0.1,1,0.3,1.4c0.2,0.4,0.4,0.7,0.7,0.9C107.8,149.1,108.1,149.2,108.5,149.2z M112.8,150v-6.9h1v0.7c0.2-0.2,0.4-0.5,0.6-0.6
	c0.2-0.2,0.5-0.2,0.8-0.2c0.3,0,0.6,0.1,0.8,0.3c0.2,0.2,0.4,0.4,0.4,0.7c0.1-0.3,0.3-0.5,0.6-0.7c0.3-0.2,0.6-0.3,0.9-0.3
	c0.5,0,0.8,0.2,1,0.5c0.2,0.3,0.3,0.7,0.3,1.2v5.3h-1v-4.9c0-0.4,0-0.7-0.1-0.9c-0.1-0.2-0.1-0.3-0.2-0.4c-0.1-0.1-0.2-0.1-0.3-0.1
	c-0.2,0-0.4,0.1-0.5,0.3c-0.2,0.2-0.3,0.4-0.4,0.6c-0.1,0.3-0.2,0.5-0.2,0.8v4.5h-1v-4.8c0-0.6-0.1-0.9-0.2-1.1
	c-0.1-0.2-0.3-0.3-0.6-0.3c-0.2,0-0.4,0.1-0.7,0.4c-0.2,0.3-0.3,0.7-0.3,1.2v4.6H112.8z M120.6,150v-9.3h2.8c1.1,0,1.9,0.2,2.4,0.7
	c0.5,0.5,0.7,1.1,0.7,1.9c0,0.4-0.1,0.7-0.2,1.1c-0.2,0.4-0.4,0.7-0.7,0.9c-0.3,0.3-0.6,0.4-1,0.5l2.2,4.2h-1.2l-2.1-4.1h-1.8v4.1
	H120.6z M121.7,144.9h1.8c0.7,0,1.2-0.1,1.5-0.4c0.3-0.3,0.4-0.7,0.4-1.2c0-0.5-0.2-0.9-0.4-1.2c-0.3-0.3-0.8-0.5-1.5-0.5h-1.8
	V144.9z M131.3,150.1c-1,0-1.8-0.3-2.4-0.9c-0.6-0.6-0.9-1.5-0.9-2.6c0-0.8,0.1-1.4,0.4-2c0.3-0.5,0.7-1,1.1-1.2
	c0.5-0.3,1-0.4,1.6-0.4c0.5,0,1,0.1,1.4,0.3s0.8,0.6,1,1.1s0.4,1.1,0.4,1.8c0,0.1,0,0.2,0,0.3c0,0.1,0,0.2,0,0.2H129
	c0,0.9,0.3,1.5,0.7,1.9c0.5,0.4,1,0.6,1.6,0.6c0.7,0,1.3-0.3,1.8-0.8l0.6,0.6C133.2,149.8,132.4,150.1,131.3,150.1z M129.1,145.9
	h3.8c0-0.6-0.2-1.1-0.5-1.5c-0.3-0.4-0.7-0.6-1.3-0.6c-0.5,0-0.9,0.2-1.3,0.5C129.4,144.6,129.2,145.2,129.1,145.9z M139,150.2
	c-0.7,0-1.2-0.2-1.8-0.5s-0.9-0.7-1.2-1.3c-0.3-0.5-0.4-1.2-0.4-1.8s0.1-1.3,0.4-1.8c0.3-0.5,0.7-1,1.2-1.3c0.5-0.3,1.1-0.5,1.8-0.5
	c0.6,0,1.1,0.1,1.5,0.3c0.4,0.2,0.8,0.5,1.1,0.9l-0.7,0.7l-0.1,0.1l-0.1-0.1c0-0.1,0-0.2-0.1-0.2c0-0.1-0.1-0.2-0.2-0.3
	c-0.2-0.2-0.5-0.3-0.7-0.4s-0.5-0.1-0.9-0.1c-0.4,0-0.7,0.1-1.1,0.3c-0.3,0.2-0.6,0.5-0.8,0.9c-0.2,0.4-0.3,0.8-0.3,1.4
	c0,0.5,0.1,1,0.3,1.4c0.2,0.4,0.5,0.7,0.9,1c0.4,0.2,0.8,0.3,1.2,0.3c0.7,0,1.3-0.3,1.8-0.8l0.6,0.7
	C140.8,149.8,140,150.2,139,150.2z M146.3,150.1c-1,0-1.8-0.3-2.4-0.9c-0.6-0.6-0.9-1.5-0.9-2.6c0-0.8,0.1-1.4,0.4-2
	c0.3-0.5,0.7-1,1.1-1.2c0.5-0.3,1-0.4,1.6-0.4c0.5,0,1,0.1,1.4,0.3s0.8,0.6,1,1.1s0.4,1.1,0.4,1.8c0,0.1,0,0.2,0,0.3
	c0,0.1,0,0.2,0,0.2H144c0,0.9,0.3,1.5,0.7,1.9c0.5,0.4,1,0.6,1.6,0.6c0.7,0,1.3-0.3,1.8-0.8l0.6,0.6
	C148.2,149.8,147.4,150.1,146.3,150.1z M144.1,145.9h3.8c0-0.6-0.2-1.1-0.5-1.5c-0.3-0.4-0.7-0.6-1.3-0.6c-0.5,0-0.9,0.2-1.3,0.5
	C144.4,144.6,144.2,145.2,144.1,145.9z M151.3,150v-0.9h1.8V144h-1.7v-0.9h2.7v6h1.6v0.9H151.3z M153.5,141.7
	c-0.2,0-0.4-0.1-0.5-0.2c-0.1-0.1-0.2-0.3-0.2-0.5c0-0.2,0.1-0.4,0.2-0.6c0.1-0.1,0.3-0.2,0.6-0.2c0.2,0,0.4,0.1,0.5,0.2
	c0.2,0.2,0.2,0.3,0.2,0.5c0,0.2-0.1,0.4-0.2,0.5C153.9,141.6,153.7,141.7,153.5,141.7z M158.2,152.5v-9.4h1.1v1.3
	c0.2-0.5,0.4-0.9,0.8-1.1c0.4-0.2,0.8-0.4,1.3-0.4c0.5,0,1,0.1,1.4,0.4c0.4,0.2,0.8,0.6,1.1,1.2c0.3,0.5,0.4,1.2,0.4,2
	s-0.1,1.5-0.4,2c-0.3,0.5-0.6,0.9-1.1,1.2c-0.4,0.3-0.9,0.4-1.4,0.4c-0.4,0-0.8-0.1-1.2-0.3s-0.7-0.5-0.9-0.8v3.4H158.2z
	 M161.1,149.2c0.3,0,0.6-0.1,0.9-0.2c0.3-0.2,0.5-0.4,0.7-0.8s0.3-0.9,0.3-1.6c0-0.8-0.2-1.5-0.5-1.9c-0.3-0.5-0.8-0.7-1.3-0.7
	c-0.4,0-0.7,0.1-1,0.3c-0.3,0.2-0.6,0.5-0.8,0.9c-0.2,0.4-0.3,1-0.3,1.7c0,0.8,0.2,1.4,0.5,1.8C160.1,149,160.6,149.2,161.1,149.2z
	 M169.2,150.1c-0.6,0-1-0.1-1.3-0.4c-0.3-0.3-0.5-0.7-0.6-1.2c-0.1-0.6-0.1-1.3-0.1-2.2l0.1-2.2h-1.5v-0.9h1.5l0.1-1.8l1.1-0.1
	l0.2,0l0,0.1c-0.1,0.1-0.1,0.1-0.1,0.2c0,0.1-0.1,0.2-0.1,0.4l-0.1,1.2h2.4v0.9h-2.4l-0.1,2.3c0,0.8,0,1.4,0.1,1.8
	c0.1,0.4,0.2,0.7,0.4,0.9c0.2,0.2,0.4,0.2,0.7,0.2c0.3,0,0.6-0.1,0.9-0.2c0.3-0.1,0.5-0.3,0.8-0.5l0.3,0.9c-0.3,0.2-0.7,0.4-1.1,0.6
	C170,150,169.6,150.1,169.2,150.1z M175.4,140h1.2c0,0.6,0,1.1,0,1.4s0,0.7-0.1,0.9c0,0.2,0,0.5-0.1,0.7c0,0.2-0.1,0.5-0.1,0.8h-0.7
	c0-0.3-0.1-0.6-0.1-0.8c0-0.2-0.1-0.5-0.1-0.7c0-0.2,0-0.5,0-0.9C175.4,141.1,175.4,140.6,175.4,140z M85.4,197h1.2
	c0,0.6,0,1.1,0,1.4c0,0.4,0,0.7-0.1,0.9c0,0.2,0,0.5-0.1,0.7c0,0.2-0.1,0.5-0.1,0.8h-0.7c0-0.3-0.1-0.6-0.1-0.8
	c0-0.2-0.1-0.5-0.1-0.7c0-0.2,0-0.5,0-0.9C85.4,198.1,85.4,197.6,85.4,197z M92.2,201h-1.5v-0.9h1.5v-0.6c0-0.9,0.2-1.6,0.7-2
	c0.5-0.4,1.1-0.6,1.8-0.6c0.4,0,0.8,0.1,1.2,0.2c0.4,0.1,0.7,0.4,0.9,0.7l-0.6,0.8l-0.1,0.1l-0.1-0.1c0-0.1,0-0.2-0.1-0.2
	s-0.1-0.2-0.2-0.3c-0.2-0.1-0.3-0.2-0.5-0.3c-0.2-0.1-0.4-0.1-0.6-0.1c-0.4,0-0.8,0.1-1.1,0.4c-0.3,0.3-0.4,0.7-0.4,1.4v0.6h2.2v0.9
	h-2.2v6h-1V201z M99,200.1h1.1l0,1.3c0.2-0.5,0.5-0.8,0.9-1.1c0.4-0.2,0.8-0.4,1.3-0.4c0.7,0,1.3,0.2,1.8,0.8l-0.5,0.8l-0.1,0.1
	l-0.1-0.1c0-0.1,0-0.2-0.1-0.2c0-0.1-0.1-0.2-0.3-0.3c-0.2-0.1-0.3-0.2-0.4-0.2c-0.1,0-0.3-0.1-0.4-0.1c-0.3,0-0.7,0.1-1,0.3
	c-0.3,0.2-0.6,0.4-0.8,0.8s-0.3,0.8-0.3,1.4v3.6H99V200.1z M108.5,207.1c-0.6,0-1.2-0.1-1.7-0.4c-0.5-0.3-0.8-0.7-1.1-1.3
	c-0.3-0.5-0.4-1.2-0.4-1.8c0-0.7,0.1-1.3,0.4-1.8c0.3-0.5,0.6-1,1.1-1.3c0.5-0.3,1-0.5,1.7-0.5s1.2,0.2,1.6,0.5
	c0.5,0.3,0.9,0.7,1.1,1.3c0.3,0.5,0.4,1.1,0.4,1.8c0,0.7-0.1,1.3-0.4,1.8c-0.3,0.5-0.6,0.9-1.1,1.3
	C109.7,207,109.1,207.1,108.5,207.1z M108.5,206.2c0.4,0,0.8-0.1,1.1-0.3c0.3-0.2,0.5-0.5,0.7-0.9c0.2-0.4,0.3-0.9,0.3-1.4
	c0-0.8-0.2-1.4-0.6-1.9c-0.4-0.5-0.9-0.8-1.5-0.8c-0.6,0-1.1,0.2-1.5,0.8c-0.4,0.5-0.6,1.1-0.6,1.9c0,0.5,0.1,1,0.3,1.4
	c0.2,0.4,0.4,0.7,0.7,0.9C107.8,206.1,108.1,206.2,108.5,206.2z M112.8,207v-6.9h1v0.7c0.2-0.2,0.4-0.5,0.6-0.6
	c0.2-0.2,0.5-0.2,0.8-0.2c0.3,0,0.6,0.1,0.8,0.3c0.2,0.2,0.4,0.4,0.4,0.7c0.1-0.3,0.3-0.5,0.6-0.7c0.3-0.2,0.6-0.3,0.9-0.3
	c0.5,0,0.8,0.2,1,0.5c0.2,0.3,0.3,0.7,0.3,1.2v5.3h-1v-4.9c0-0.4,0-0.7-0.1-0.9c-0.1-0.2-0.1-0.3-0.2-0.4c-0.1-0.1-0.2-0.1-0.3-0.1
	c-0.2,0-0.4,0.1-0.5,0.3c-0.2,0.2-0.3,0.4-0.4,0.6c-0.1,0.3-0.2,0.5-0.2,0.8v4.5h-1v-4.8c0-0.6-0.1-0.9-0.2-1.1
	c-0.1-0.2-0.3-0.3-0.6-0.3c-0.2,0-0.4,0.1-0.7,0.4c-0.2,0.3-0.3,0.7-0.3,1.2v4.6H112.8z M123.5,207.1c-1.2,0-2.2-0.4-2.9-1.2
	l0.5-0.9l0.1-0.1l0.1,0.1c0,0.1,0,0.1,0.1,0.2c0,0.1,0.1,0.2,0.2,0.3c0.3,0.2,0.6,0.4,0.9,0.5c0.4,0.1,0.7,0.2,1.2,0.2
	c0.6,0,1-0.2,1.4-0.5c0.4-0.3,0.6-0.7,0.6-1.1c0-0.3-0.1-0.5-0.2-0.7c-0.1-0.2-0.3-0.4-0.6-0.6c-0.3-0.2-0.7-0.4-1.3-0.7
	c-1-0.4-1.6-0.8-2-1.3c-0.4-0.5-0.6-1-0.6-1.5c0-0.7,0.3-1.2,0.8-1.7c0.5-0.4,1.2-0.6,2.1-0.6c0.5,0,1,0.1,1.4,0.3
	c0.4,0.2,0.8,0.5,1.2,0.9l-0.7,0.9l-0.1-0.1c0-0.1,0-0.2-0.1-0.2c0-0.1-0.1-0.2-0.2-0.3c-0.2-0.2-0.5-0.4-0.8-0.5
	c-0.3-0.1-0.6-0.1-1-0.1c-0.5,0-0.9,0.1-1.2,0.4s-0.4,0.6-0.4,1c0,0.3,0.1,0.5,0.2,0.8c0.1,0.2,0.4,0.4,0.7,0.6
	c0.3,0.2,0.8,0.4,1.4,0.7c0.6,0.2,1.1,0.5,1.4,0.8c0.3,0.2,0.6,0.5,0.7,0.8c0.1,0.3,0.2,0.6,0.2,1c0,0.4-0.1,0.9-0.3,1.3
	c-0.2,0.4-0.5,0.8-1,1C124.8,207,124.2,207.1,123.5,207.1z M130.6,207.2c-0.7,0-1.2-0.3-1.7-0.8c-0.4-0.5-0.7-1.3-0.7-2.4l0-3.8h1.1
	v3.8c0,0.9,0.1,1.5,0.4,1.8c0.3,0.3,0.7,0.5,1.1,0.5c0.3,0,0.6-0.1,0.9-0.3c0.3-0.2,0.5-0.4,0.7-0.8c0.2-0.3,0.3-0.8,0.3-1.3v-3.8
	h1.1v5.8c0,0.2,0,0.4,0,0.5c0,0.2,0.1,0.3,0.1,0.5h-1c-0.1-0.2-0.1-0.3-0.1-0.5c0-0.2,0-0.4,0-0.5c-0.2,0.4-0.5,0.7-0.9,0.9
	C131.4,207.1,131,207.2,130.6,207.2z M139,207.2c-0.7,0-1.2-0.2-1.8-0.5s-0.9-0.7-1.2-1.3c-0.3-0.5-0.4-1.2-0.4-1.8s0.1-1.3,0.4-1.8
	c0.3-0.5,0.7-1,1.2-1.3c0.5-0.3,1.1-0.5,1.8-0.5c0.6,0,1.1,0.1,1.5,0.3c0.4,0.2,0.8,0.5,1.1,0.9l-0.7,0.7l-0.1,0.1l-0.1-0.1
	c0-0.1,0-0.2-0.1-0.2c0-0.1-0.1-0.2-0.2-0.3c-0.2-0.2-0.5-0.3-0.7-0.4s-0.5-0.1-0.9-0.1c-0.4,0-0.7,0.1-1.1,0.3
	c-0.3,0.2-0.6,0.5-0.8,0.9c-0.2,0.4-0.3,0.8-0.3,1.4c0,0.5,0.1,1,0.3,1.4c0.2,0.4,0.5,0.7,0.9,1c0.4,0.2,0.8,0.3,1.2,0.3
	c0.7,0,1.3-0.3,1.8-0.8l0.6,0.7C140.8,206.8,140,207.2,139,207.2z M146.5,207.2c-0.7,0-1.2-0.2-1.8-0.5s-0.9-0.7-1.2-1.3
	c-0.3-0.5-0.4-1.2-0.4-1.8s0.1-1.3,0.4-1.8c0.3-0.5,0.7-1,1.2-1.3c0.5-0.3,1.1-0.5,1.8-0.5c0.6,0,1.1,0.1,1.5,0.3
	c0.4,0.2,0.8,0.5,1.1,0.9l-0.7,0.7l-0.1,0.1l-0.1-0.1c0-0.1,0-0.2-0.1-0.2c0-0.1-0.1-0.2-0.2-0.3c-0.2-0.2-0.5-0.3-0.7-0.4
	s-0.5-0.1-0.9-0.1c-0.4,0-0.7,0.1-1.1,0.3c-0.3,0.2-0.6,0.5-0.8,0.9c-0.2,0.4-0.3,0.8-0.3,1.4c0,0.5,0.1,1,0.3,1.4
	c0.2,0.4,0.5,0.7,0.9,1c0.4,0.2,0.8,0.3,1.2,0.3c0.7,0,1.3-0.3,1.8-0.8l0.6,0.7C148.3,206.8,147.5,207.2,146.5,207.2z M153.8,207.1
	c-1,0-1.8-0.3-2.4-0.9c-0.6-0.6-0.9-1.5-0.9-2.6c0-0.8,0.1-1.4,0.4-2c0.3-0.5,0.7-1,1.1-1.2c0.5-0.3,1-0.4,1.6-0.4
	c0.5,0,1,0.1,1.4,0.3s0.8,0.6,1,1.1s0.4,1.1,0.4,1.8c0,0.1,0,0.2,0,0.3c0,0.1,0,0.2,0,0.2h-4.9c0,0.9,0.3,1.5,0.7,1.9
	c0.5,0.4,1,0.6,1.6,0.6c0.7,0,1.3-0.3,1.8-0.8l0.6,0.6C155.7,206.8,154.9,207.1,153.8,207.1z M151.6,202.9h3.8
	c0-0.6-0.2-1.1-0.5-1.5c-0.3-0.4-0.7-0.6-1.3-0.6c-0.5,0-0.9,0.2-1.3,0.5C151.9,201.6,151.7,202.2,151.6,202.9z M161,207.1
	c-1.2,0-2.1-0.4-2.9-1.1l0.6-1l0.1-0.1l0.1,0.1c0,0.1,0,0.2,0.1,0.3c0,0.1,0.1,0.2,0.2,0.3c0.2,0.2,0.5,0.4,0.8,0.5
	c0.3,0.1,0.7,0.2,1.1,0.2c0.5,0,1-0.1,1.3-0.3c0.3-0.2,0.5-0.5,0.5-0.8c0-0.3-0.1-0.5-0.4-0.7c-0.2-0.2-0.7-0.4-1.3-0.6
	c-0.8-0.2-1.4-0.5-1.9-0.9c-0.5-0.3-0.7-0.8-0.7-1.3c0-0.5,0.2-0.9,0.6-1.2c0.4-0.3,1.1-0.5,1.9-0.5c0.6,0,1.2,0.1,1.6,0.3
	s0.8,0.4,1.1,0.8l-0.6,0.8l-0.1,0.1l-0.1-0.1c0-0.1,0-0.2-0.1-0.2c0-0.1-0.1-0.2-0.2-0.3c-0.2-0.2-0.5-0.3-0.8-0.4
	c-0.3-0.1-0.6-0.2-0.8-0.2c-0.4,0-0.7,0.1-1,0.2c-0.3,0.1-0.4,0.4-0.4,0.6c0,0.1,0,0.3,0.1,0.4c0.1,0.1,0.3,0.3,0.6,0.4
	c0.3,0.1,0.7,0.3,1.2,0.4c0.9,0.3,1.5,0.5,1.8,0.9c0.4,0.3,0.5,0.7,0.5,1.2c0,0.4-0.1,0.7-0.3,1.1c-0.2,0.3-0.5,0.6-0.9,0.8
	C162.2,207.1,161.7,207.1,161,207.1z M168.5,207.1c-1.2,0-2.1-0.4-2.9-1.1l0.6-1l0.1-0.1l0.1,0.1c0,0.1,0,0.2,0.1,0.3
	c0,0.1,0.1,0.2,0.2,0.3c0.2,0.2,0.5,0.4,0.8,0.5c0.3,0.1,0.7,0.2,1.1,0.2c0.5,0,1-0.1,1.3-0.3c0.3-0.2,0.5-0.5,0.5-0.8
	c0-0.3-0.1-0.5-0.4-0.7c-0.2-0.2-0.7-0.4-1.3-0.6c-0.8-0.2-1.4-0.5-1.9-0.9c-0.5-0.3-0.7-0.8-0.7-1.3c0-0.5,0.2-0.9,0.6-1.2
	c0.4-0.3,1.1-0.5,1.9-0.5c0.6,0,1.2,0.1,1.6,0.3s0.8,0.4,1.1,0.8l-0.6,0.8l-0.1,0.1l-0.1-0.1c0-0.1,0-0.2-0.1-0.2
	c0-0.1-0.1-0.2-0.2-0.3c-0.2-0.2-0.5-0.3-0.8-0.4c-0.3-0.1-0.6-0.2-0.8-0.2c-0.4,0-0.7,0.1-1,0.2c-0.3,0.1-0.4,0.4-0.4,0.6
	c0,0.1,0,0.3,0.1,0.4c0.1,0.1,0.3,0.3,0.6,0.4c0.3,0.1,0.7,0.3,1.2,0.4c0.9,0.3,1.5,0.5,1.8,0.9c0.4,0.3,0.5,0.7,0.5,1.2
	c0,0.4-0.1,0.7-0.3,1.1c-0.2,0.3-0.5,0.6-0.9,0.8C169.7,207.1,169.2,207.1,168.5,207.1z M175.4,197h1.2c0,0.6,0,1.1,0,1.4
	s0,0.7-0.1,0.9c0,0.2,0,0.5-0.1,0.7c0,0.2-0.1,0.5-0.1,0.8h-0.7c0-0.3-0.1-0.6-0.1-0.8c0-0.2-0.1-0.5-0.1-0.7c0-0.2,0-0.5,0-0.9
	C175.4,198.1,175.4,197.6,175.4,197z M77.9,254h1.2c0,0.6,0,1.1,0,1.4c0,0.4,0,0.7-0.1,0.9c0,0.2,0,0.5-0.1,0.7
	c0,0.2-0.1,0.5-0.1,0.8h-0.7c0-0.3-0.1-0.6-0.1-0.8c0-0.2-0.1-0.5-0.1-0.7c0-0.2,0-0.5,0-0.9C77.9,255.1,77.9,254.6,77.9,254z
	 M86.7,264.1c-0.6,0-1-0.1-1.4-0.4c-0.3-0.3-0.5-0.7-0.6-1.2c-0.1-0.6-0.1-1.3-0.1-2.2l0.1-2.2h-1.5v-0.9h1.5l0.1-1.8l1.1-0.1l0.1,0
	l0,0.1c0,0.1-0.1,0.1-0.1,0.2c0,0.1-0.1,0.2-0.1,0.4l-0.1,1.2h2.4v0.9h-2.4l-0.1,2.3c0,0.8,0,1.3,0.1,1.8c0.1,0.4,0.2,0.7,0.4,0.9
	c0.2,0.1,0.4,0.2,0.7,0.2c0.3,0,0.6-0.1,0.9-0.2c0.3-0.1,0.5-0.3,0.8-0.5l0.3,0.9c-0.3,0.2-0.7,0.4-1,0.6
	C87.5,264,87.1,264.1,86.7,264.1z M93.5,264.1c-0.6,0-1.2-0.1-1.7-0.4c-0.5-0.3-0.8-0.7-1.1-1.3c-0.3-0.5-0.4-1.2-0.4-1.8
	c0-0.7,0.1-1.3,0.4-1.8c0.3-0.5,0.6-1,1.1-1.3c0.5-0.3,1-0.5,1.7-0.5c0.6,0,1.2,0.2,1.6,0.5c0.5,0.3,0.9,0.7,1.1,1.3
	c0.3,0.5,0.4,1.1,0.4,1.8c0,0.7-0.1,1.3-0.4,1.8c-0.3,0.5-0.6,0.9-1.1,1.3C94.7,264,94.1,264.1,93.5,264.1z M93.5,263.2
	c0.4,0,0.8-0.1,1-0.3c0.3-0.2,0.5-0.5,0.7-0.9c0.2-0.4,0.3-0.9,0.3-1.4c0-0.8-0.2-1.4-0.6-1.9c-0.4-0.5-0.9-0.8-1.5-0.8
	c-0.6,0-1.1,0.2-1.5,0.8c-0.4,0.5-0.6,1.1-0.6,1.9c0,0.5,0.1,1,0.3,1.4c0.2,0.4,0.4,0.7,0.7,0.9C92.8,263.1,93.1,263.2,93.5,263.2z
	 M98.1,264v-9.3h2.8c1.1,0,1.9,0.2,2.4,0.7c0.5,0.5,0.7,1.1,0.7,1.9c0,0.3-0.1,0.7-0.2,1c-0.2,0.4-0.4,0.7-0.7,0.9
	c-0.3,0.3-0.6,0.4-1,0.5l2.2,4.2H103l-2.1-4.1h-1.8v4.1H98.1z M99.2,258.9h1.8c0.7,0,1.2-0.1,1.5-0.4c0.3-0.3,0.4-0.7,0.4-1.2
	c0-0.5-0.2-0.9-0.4-1.2c-0.3-0.3-0.8-0.5-1.5-0.5h-1.8V258.9z M108.8,264.1c-1,0-1.8-0.3-2.4-0.9c-0.6-0.6-0.9-1.5-0.9-2.6
	c0-0.8,0.1-1.4,0.4-2c0.3-0.5,0.7-1,1.1-1.2c0.5-0.3,1-0.4,1.6-0.4c0.5,0,1,0.1,1.4,0.3c0.4,0.2,0.8,0.6,1,1.1
	c0.2,0.5,0.4,1.1,0.4,1.8c0,0.1,0,0.2,0,0.3c0,0.1,0,0.2,0,0.2h-4.9c0,0.9,0.3,1.5,0.7,1.9c0.5,0.4,1,0.6,1.6,0.6
	c0.7,0,1.3-0.3,1.8-0.8l0.6,0.6C110.7,263.8,109.9,264.1,108.8,264.1z M106.6,259.9h3.8c0-0.6-0.2-1.1-0.5-1.5
	c-0.3-0.4-0.7-0.6-1.3-0.6c-0.5,0-0.9,0.2-1.3,0.5C106.9,258.6,106.7,259.2,106.6,259.9z M116.5,264.2c-0.7,0-1.2-0.2-1.8-0.5
	c-0.5-0.3-0.9-0.7-1.2-1.3c-0.3-0.5-0.4-1.2-0.4-1.8c0-0.7,0.1-1.3,0.4-1.8c0.3-0.5,0.7-1,1.2-1.3c0.5-0.3,1.1-0.5,1.8-0.5
	c0.6,0,1.1,0.1,1.5,0.3c0.4,0.2,0.8,0.5,1.1,0.9l-0.7,0.7l-0.1,0.1l-0.1-0.1c0-0.1,0-0.2-0.1-0.2c0-0.1-0.1-0.2-0.2-0.3
	c-0.2-0.2-0.5-0.3-0.7-0.4c-0.2-0.1-0.5-0.1-0.9-0.1c-0.4,0-0.7,0.1-1.1,0.3c-0.3,0.2-0.6,0.5-0.8,0.9c-0.2,0.4-0.3,0.8-0.3,1.4
	c0,0.5,0.1,1,0.3,1.4c0.2,0.4,0.5,0.7,0.9,1c0.4,0.2,0.8,0.3,1.2,0.3c0.7,0,1.3-0.3,1.8-0.8l0.6,0.7
	C118.3,263.8,117.5,264.2,116.5,264.2z M123.8,264.1c-1,0-1.8-0.3-2.4-0.9c-0.6-0.6-0.9-1.5-0.9-2.6c0-0.8,0.1-1.4,0.4-2
	c0.3-0.5,0.7-1,1.1-1.2c0.5-0.3,1-0.4,1.6-0.4c0.5,0,1,0.1,1.4,0.3c0.4,0.2,0.8,0.6,1,1.1c0.2,0.5,0.4,1.1,0.4,1.8
	c0,0.1,0,0.2,0,0.3c0,0.1,0,0.2,0,0.2h-4.9c0,0.9,0.3,1.5,0.7,1.9c0.5,0.4,1,0.6,1.6,0.6c0.7,0,1.3-0.3,1.8-0.8l0.6,0.6
	C125.7,263.8,124.9,264.1,123.8,264.1z M121.6,259.9h3.8c0-0.6-0.2-1.1-0.5-1.5c-0.3-0.4-0.7-0.6-1.3-0.6c-0.5,0-0.9,0.2-1.3,0.5
	C121.9,258.6,121.7,259.2,121.6,259.9z M128.8,264v-0.9h1.8V258h-1.7v-0.9h2.7v6h1.6v0.9H128.8z M131,255.7c-0.2,0-0.4-0.1-0.5-0.2
	c-0.1-0.1-0.2-0.3-0.2-0.5c0-0.2,0.1-0.4,0.2-0.6c0.1-0.1,0.3-0.2,0.6-0.2c0.2,0,0.4,0.1,0.5,0.2c0.2,0.2,0.2,0.3,0.2,0.5
	c0,0.2-0.1,0.4-0.2,0.5C131.4,255.6,131.2,255.7,131,255.7z M135.7,266.5v-9.4h1.1v1.4c0.2-0.5,0.4-0.9,0.8-1.1
	c0.4-0.2,0.8-0.4,1.3-0.4c0.5,0,1,0.1,1.4,0.4c0.4,0.2,0.8,0.6,1.1,1.2c0.3,0.5,0.4,1.2,0.4,2c0,0.8-0.1,1.5-0.4,2
	c-0.3,0.5-0.6,0.9-1.1,1.2c-0.4,0.3-0.9,0.4-1.4,0.4c-0.4,0-0.8-0.1-1.2-0.3s-0.7-0.5-0.9-0.8v3.4H135.7z M138.6,263.2
	c0.3,0,0.6-0.1,0.9-0.2c0.3-0.2,0.5-0.4,0.7-0.8c0.2-0.4,0.3-0.9,0.3-1.6c0-0.8-0.2-1.5-0.5-1.9c-0.3-0.5-0.8-0.7-1.3-0.7
	c-0.4,0-0.7,0.1-1,0.3c-0.3,0.2-0.6,0.5-0.8,0.9c-0.2,0.4-0.3,1-0.3,1.7c0,0.8,0.2,1.4,0.5,1.8C137.6,263,138.1,263.2,138.6,263.2z
	 M146.7,264.1c-0.6,0-1-0.1-1.3-0.4c-0.3-0.3-0.5-0.7-0.6-1.2c-0.1-0.6-0.1-1.3-0.1-2.2l0.1-2.2h-1.5v-0.9h1.5l0.1-1.8l1.1-0.1
	l0.2,0l0,0.1c-0.1,0.1-0.1,0.1-0.1,0.2c0,0.1-0.1,0.2-0.1,0.4l-0.1,1.2h2.4v0.9h-2.4l-0.1,2.3c0,0.8,0,1.3,0.1,1.8
	c0.1,0.4,0.2,0.7,0.4,0.9c0.2,0.1,0.4,0.2,0.7,0.2c0.3,0,0.6-0.1,0.9-0.2c0.3-0.1,0.5-0.3,0.8-0.5l0.3,0.9c-0.3,0.2-0.7,0.4-1.1,0.6
	C147.5,264,147.1,264.1,146.7,264.1z M152.9,254h1.2c0,0.6,0,1.1,0,1.4s0,0.7-0.1,0.9c0,0.2,0,0.5-0.1,0.7c0,0.2-0.1,0.5-0.1,0.8
	h-0.7c0-0.3-0.1-0.6-0.1-0.8c0-0.2-0.1-0.5-0.1-0.7c0-0.2,0-0.5,0-0.9C152.9,255.1,152.9,254.6,152.9,254z M85.4,311h1.2
	c0,0.6,0,1.1,0,1.4c0,0.4,0,0.7-0.1,0.9c0,0.2,0,0.5-0.1,0.7c0,0.2-0.1,0.5-0.1,0.8h-0.7c0-0.3-0.1-0.6-0.1-0.8
	c0-0.2-0.1-0.5-0.1-0.7c0-0.2,0-0.5,0-0.9C85.4,312.1,85.4,311.6,85.4,311z M94.2,321.1c-0.6,0-1-0.1-1.4-0.4
	c-0.3-0.3-0.5-0.7-0.6-1.2c-0.1-0.6-0.1-1.3-0.1-2.2l0.1-2.2h-1.5v-0.9h1.5l0.1-1.8l1.1-0.1l0.1,0l0,0.1c0,0.1-0.1,0.1-0.1,0.2
	c0,0.1-0.1,0.2-0.1,0.4l-0.1,1.2h2.4v0.9h-2.4l-0.1,2.3c0,0.8,0,1.3,0.1,1.8c0.1,0.4,0.2,0.7,0.4,0.9c0.2,0.1,0.4,0.2,0.7,0.2
	c0.3,0,0.6-0.1,0.9-0.2c0.3-0.1,0.5-0.3,0.8-0.5l0.3,0.9c-0.3,0.2-0.7,0.4-1,0.6C95,321,94.6,321.1,94.2,321.1z M101,321.1
	c-0.6,0-1.2-0.1-1.6-0.4c-0.5-0.3-0.8-0.7-1.1-1.3c-0.3-0.5-0.4-1.2-0.4-1.8c0-0.7,0.1-1.3,0.4-1.8c0.3-0.5,0.6-1,1.1-1.3
	c0.5-0.3,1-0.5,1.6-0.5s1.2,0.2,1.6,0.5c0.5,0.3,0.9,0.7,1.1,1.3c0.3,0.5,0.4,1.1,0.4,1.8c0,0.7-0.1,1.3-0.4,1.8
	c-0.3,0.5-0.6,0.9-1.1,1.3C102.2,321,101.6,321.1,101,321.1z M101,320.2c0.4,0,0.8-0.1,1.1-0.3c0.3-0.2,0.5-0.5,0.7-0.9
	c0.2-0.4,0.3-0.9,0.3-1.4c0-0.8-0.2-1.4-0.6-1.9c-0.4-0.5-0.9-0.8-1.5-0.8c-0.6,0-1.1,0.2-1.5,0.8c-0.4,0.5-0.6,1.1-0.6,1.9
	c0,0.5,0.1,1,0.3,1.4c0.2,0.4,0.4,0.7,0.7,0.9C100.3,320.1,100.6,320.2,101,320.2z M108.5,321.1c-1.2,0-2.2-0.4-2.9-1.2l0.5-0.9
	l0.1-0.1l0.1,0.1c0,0.1,0,0.1,0.1,0.2c0,0.1,0.1,0.2,0.2,0.3c0.3,0.2,0.6,0.4,0.9,0.5c0.4,0.1,0.7,0.2,1.2,0.2c0.6,0,1-0.2,1.4-0.5
	c0.4-0.3,0.6-0.7,0.6-1.1c0-0.3-0.1-0.5-0.2-0.7c-0.1-0.2-0.3-0.4-0.6-0.6c-0.3-0.2-0.7-0.4-1.3-0.7c-1-0.4-1.6-0.8-2-1.3
	c-0.4-0.5-0.6-1-0.6-1.5c0-0.7,0.3-1.2,0.8-1.7c0.5-0.4,1.2-0.6,2.1-0.6c0.5,0,1,0.1,1.4,0.3c0.4,0.2,0.8,0.5,1.2,0.9l-0.7,0.9
	l-0.1-0.1c0-0.1,0-0.2-0.1-0.2c0-0.1-0.1-0.2-0.2-0.3c-0.2-0.2-0.5-0.4-0.8-0.5c-0.3-0.1-0.6-0.1-1-0.1c-0.5,0-0.9,0.1-1.2,0.4
	s-0.4,0.6-0.4,1c0,0.3,0.1,0.5,0.2,0.8c0.1,0.2,0.4,0.4,0.7,0.6s0.8,0.4,1.4,0.7c0.6,0.2,1.1,0.5,1.4,0.8c0.3,0.2,0.6,0.5,0.7,0.8
	c0.1,0.3,0.2,0.6,0.2,1c0,0.4-0.1,0.9-0.3,1.3c-0.2,0.4-0.5,0.8-1,1C109.8,321,109.2,321.1,108.5,321.1z M115.6,321.2
	c-0.7,0-1.2-0.3-1.7-0.8c-0.5-0.5-0.7-1.3-0.7-2.4l0-3.8h1.1v3.8c0,0.9,0.2,1.5,0.4,1.8c0.3,0.3,0.7,0.5,1.1,0.5
	c0.3,0,0.6-0.1,0.9-0.3c0.3-0.2,0.5-0.4,0.7-0.8c0.2-0.4,0.3-0.8,0.3-1.3v-3.8h1.1v5.8c0,0.2,0,0.4,0,0.5c0,0.2,0.1,0.3,0.1,0.5h-1
	c-0.1-0.2-0.1-0.3-0.1-0.5c0-0.2,0-0.4,0-0.5c-0.2,0.4-0.5,0.7-0.9,0.9C116.4,321.1,116,321.2,115.6,321.2z M124,321.2
	c-0.7,0-1.2-0.2-1.8-0.5c-0.5-0.3-0.9-0.7-1.2-1.3c-0.3-0.5-0.4-1.2-0.4-1.8c0-0.7,0.1-1.3,0.4-1.8c0.3-0.5,0.7-1,1.2-1.3
	c0.5-0.3,1.1-0.5,1.8-0.5c0.6,0,1.1,0.1,1.5,0.3c0.4,0.2,0.8,0.5,1.1,0.9l-0.7,0.7l-0.1,0.1l-0.1-0.1c0-0.1,0-0.2-0.1-0.2
	c0-0.1-0.1-0.2-0.2-0.3c-0.2-0.2-0.5-0.3-0.7-0.4c-0.2-0.1-0.5-0.1-0.9-0.1c-0.4,0-0.7,0.1-1.1,0.3c-0.3,0.2-0.6,0.5-0.8,0.9
	c-0.2,0.4-0.3,0.8-0.3,1.4c0,0.5,0.1,1,0.3,1.4c0.2,0.4,0.5,0.7,0.9,1c0.4,0.2,0.8,0.3,1.2,0.3c0.7,0,1.3-0.3,1.8-0.8l0.6,0.7
	C125.8,320.8,125,321.2,124,321.2z M131.5,321.2c-0.7,0-1.2-0.2-1.8-0.5s-0.9-0.7-1.2-1.3c-0.3-0.5-0.4-1.2-0.4-1.8
	c0-0.7,0.1-1.3,0.4-1.8c0.3-0.5,0.7-1,1.2-1.3c0.5-0.3,1.1-0.5,1.8-0.5c0.6,0,1.1,0.1,1.5,0.3c0.4,0.2,0.8,0.5,1.1,0.9l-0.7,0.7
	l-0.1,0.1l-0.1-0.1c0-0.1,0-0.2-0.1-0.2c0-0.1-0.1-0.2-0.2-0.3c-0.2-0.2-0.5-0.3-0.7-0.4c-0.2-0.1-0.5-0.1-0.9-0.1
	c-0.4,0-0.7,0.1-1.1,0.3c-0.3,0.2-0.6,0.5-0.8,0.9c-0.2,0.4-0.3,0.8-0.3,1.4c0,0.5,0.1,1,0.3,1.4c0.2,0.4,0.5,0.7,0.9,1
	c0.4,0.2,0.8,0.3,1.2,0.3c0.7,0,1.3-0.3,1.8-0.8l0.6,0.7C133.3,320.8,132.5,321.2,131.5,321.2z M138.8,321.1c-1,0-1.8-0.3-2.4-0.9
	c-0.6-0.6-0.9-1.5-0.9-2.6c0-0.8,0.1-1.4,0.4-2c0.3-0.5,0.7-1,1.1-1.2c0.5-0.3,1-0.4,1.6-0.4c0.5,0,1,0.1,1.4,0.3
	c0.4,0.2,0.8,0.6,1,1.1c0.2,0.5,0.4,1.1,0.4,1.8c0,0.1,0,0.2,0,0.3c0,0.1,0,0.2,0,0.2h-4.9c0,0.9,0.3,1.5,0.7,1.9
	c0.5,0.4,1,0.6,1.6,0.6c0.7,0,1.3-0.3,1.8-0.8l0.6,0.6C140.7,320.8,139.9,321.1,138.8,321.1z M136.6,316.9h3.8
	c0-0.6-0.2-1.1-0.5-1.5c-0.3-0.4-0.7-0.6-1.3-0.6c-0.5,0-0.9,0.2-1.3,0.5C136.9,315.6,136.7,316.2,136.6,316.9z M146,321.1
	c-1.2,0-2.1-0.4-2.9-1.1l0.6-1l0.1-0.1l0.1,0.1c0,0.1,0,0.2,0.1,0.3c0,0.1,0.1,0.2,0.2,0.3c0.2,0.2,0.5,0.4,0.8,0.5
	c0.3,0.1,0.7,0.2,1.1,0.2c0.5,0,1-0.1,1.3-0.3c0.3-0.2,0.5-0.5,0.5-0.8c0-0.3-0.1-0.5-0.4-0.7c-0.2-0.2-0.7-0.4-1.3-0.6
	c-0.8-0.2-1.4-0.5-1.9-0.9c-0.5-0.3-0.7-0.8-0.7-1.3c0-0.5,0.2-0.9,0.6-1.2c0.4-0.3,1.1-0.5,1.9-0.5c0.6,0,1.2,0.1,1.6,0.3
	s0.8,0.5,1.1,0.8l-0.6,0.8l-0.1,0.1l-0.1-0.1c0-0.1,0-0.2-0.1-0.2c0-0.1-0.1-0.2-0.2-0.3c-0.2-0.2-0.5-0.3-0.8-0.4
	c-0.3-0.1-0.6-0.1-0.8-0.1c-0.4,0-0.7,0.1-1,0.2c-0.3,0.1-0.4,0.4-0.4,0.6c0,0.2,0,0.3,0.1,0.5c0.1,0.1,0.3,0.3,0.6,0.4
	c0.3,0.1,0.7,0.3,1.2,0.4c0.9,0.3,1.5,0.5,1.8,0.9c0.4,0.3,0.5,0.7,0.5,1.2c0,0.4-0.1,0.7-0.3,1.1c-0.2,0.3-0.5,0.6-0.9,0.8
	C147.2,321.1,146.7,321.1,146,321.1z M153.5,321.1c-1.2,0-2.1-0.4-2.9-1.1l0.6-1l0.1-0.1l0.1,0.1c0,0.1,0,0.2,0.1,0.3
	c0,0.1,0.1,0.2,0.2,0.3c0.2,0.2,0.5,0.4,0.8,0.5c0.3,0.1,0.7,0.2,1.1,0.2c0.5,0,1-0.1,1.3-0.3c0.3-0.2,0.5-0.5,0.5-0.8
	c0-0.3-0.1-0.5-0.4-0.7c-0.2-0.2-0.7-0.4-1.3-0.6c-0.8-0.2-1.4-0.5-1.9-0.9c-0.5-0.3-0.7-0.8-0.7-1.3c0-0.5,0.2-0.9,0.6-1.2
	c0.4-0.3,1.1-0.5,1.9-0.5c0.6,0,1.2,0.1,1.6,0.3s0.8,0.5,1.1,0.8l-0.6,0.8l-0.1,0.1l-0.1-0.1c0-0.1,0-0.2-0.1-0.2
	c0-0.1-0.1-0.2-0.2-0.3c-0.2-0.2-0.5-0.3-0.8-0.4c-0.3-0.1-0.6-0.1-0.8-0.1c-0.4,0-0.7,0.1-1,0.2c-0.3,0.1-0.4,0.4-0.4,0.6
	c0,0.2,0,0.3,0.1,0.5c0.1,0.1,0.3,0.3,0.6,0.4c0.3,0.1,0.7,0.3,1.2,0.4c0.9,0.3,1.5,0.5,1.8,0.9c0.4,0.3,0.5,0.7,0.5,1.2
	c0,0.4-0.1,0.7-0.3,1.1c-0.2,0.3-0.5,0.6-0.9,0.8C154.7,321.1,154.2,321.1,153.5,321.1z M160.4,311h1.2c0,0.6,0,1.1,0,1.4
	c0,0.4,0,0.7-0.1,0.9c0,0.2,0,0.5-0.1,0.7c0,0.2-0.1,0.5-0.1,0.8h-0.7c0-0.3-0.1-0.6-0.1-0.8c0-0.2-0.1-0.5-0.1-0.7
	c0-0.2,0-0.5,0-0.9C160.4,312.1,160.4,311.6,160.4,311z"/>
<path class="st9" d="M20.3,36v-7.9l-1.8,0.6l-0.3-0.8l2.5-1.3h0.9V36H20.3z M18,54c0.7-0.7,1.3-1.3,1.8-1.8c0.5-0.5,1-1,1.4-1.4
	c0.4-0.4,0.6-0.9,0.8-1.3c0.2-0.4,0.3-0.8,0.3-1.3c0-0.6-0.1-1-0.4-1.2c-0.3-0.2-0.6-0.4-1.1-0.4c-0.4,0-0.7,0.1-1,0.2
	c-0.3,0.1-0.6,0.4-0.8,0.7c-0.1,0.1-0.1,0.2-0.2,0.3c0,0.1,0,0.1,0,0.2l-0.1,0.1l-0.1-0.1l-0.9-0.7c0.3-0.6,0.7-1,1.3-1.3
	c0.5-0.3,1.1-0.5,1.8-0.5c0.5,0,1,0.1,1.4,0.3s0.7,0.5,1,0.9c0.2,0.4,0.4,0.9,0.4,1.4c0,0.5-0.1,1-0.3,1.4c-0.2,0.5-0.5,0.9-0.9,1.4
	c-0.4,0.4-0.8,0.9-1.2,1.4c-0.5,0.5-1,1-1.5,1.5H23c0.2,0,0.3,0,0.4,0s0.1-0.1,0.2-0.1h0.1V55H18V54z M20.6,74.2
	c-0.5,0-1-0.1-1.5-0.3c-0.5-0.2-0.9-0.4-1.2-0.8l0.7-1l0.1-0.1l0.1,0.1c0,0.1,0,0.2,0.1,0.2c0,0.1,0.1,0.2,0.2,0.3
	c0.2,0.1,0.4,0.3,0.6,0.4c0.2,0.1,0.5,0.1,0.8,0.1c0.6,0,1-0.2,1.2-0.5c0.3-0.3,0.4-0.8,0.4-1.3c0-0.7-0.2-1.2-0.7-1.4
	c-0.5-0.3-1.1-0.4-1.9-0.3v-1c0.6,0,1.1-0.1,1.4-0.2c0.3-0.2,0.6-0.4,0.7-0.6c0.1-0.3,0.2-0.5,0.2-0.8c0-0.4-0.1-0.7-0.4-1
	c-0.2-0.2-0.6-0.4-0.9-0.4c-0.3,0-0.6,0.1-0.9,0.2c-0.3,0.1-0.5,0.3-0.8,0.5l-0.7-0.8c0.3-0.4,0.7-0.6,1.2-0.8
	c0.4-0.2,0.9-0.2,1.3-0.2c0.8,0,1.4,0.2,1.9,0.7c0.5,0.4,0.7,1,0.7,1.7c0,0.5-0.1,0.9-0.4,1.3c-0.3,0.4-0.6,0.7-1.1,0.8
	c0.5,0.2,0.9,0.4,1.3,0.8s0.5,0.9,0.5,1.5c0,0.5-0.1,1-0.3,1.4c-0.2,0.4-0.6,0.8-1,1C21.7,74,21.2,74.2,20.6,74.2z M21.6,93v-2.3
	h-3.9v-0.9l4.2-6.2h1v6.1h1.2v1.1h-1.2V93H21.6z M19.1,89.7h2.6v-3.9L19.1,89.7z M20.8,112.2c-0.6,0-1.1-0.1-1.6-0.4
	c-0.5-0.2-0.9-0.6-1.2-1.1l0.9-0.7l0.1-0.1l0.1,0.1c0,0.1,0,0.2,0,0.2c0,0.1,0.1,0.2,0.2,0.3c0.2,0.2,0.4,0.4,0.6,0.5
	c0.2,0.1,0.5,0.2,0.9,0.2c0.5,0,0.9-0.2,1.2-0.6c0.3-0.4,0.5-0.9,0.5-1.5c0-0.6-0.2-1.2-0.5-1.5c-0.3-0.4-0.8-0.6-1.3-0.6
	c-0.7,0-1.2,0.3-1.7,0.8l-0.8-0.3l0.3-4.8h4.8v1.1h-3.8l-0.1,2.5c0.5-0.2,1-0.4,1.5-0.4c0.5,0,1,0.1,1.4,0.4c0.4,0.2,0.8,0.6,1,1.1
	c0.2,0.5,0.4,1,0.4,1.7s-0.1,1.2-0.4,1.7c-0.3,0.5-0.6,0.8-1.1,1.1C21.8,112,21.3,112.2,20.8,112.2z M20.9,131.1
	c-1,0-1.7-0.4-2.2-1.2c-0.5-0.8-0.8-1.9-0.8-3.2c0-1.7,0.3-2.9,0.9-3.8c0.6-0.9,1.4-1.3,2.4-1.3c0.4,0,0.8,0.1,1.2,0.2
	c0.4,0.1,0.7,0.4,1,0.6l-0.8,0.9l-0.1,0.1l-0.1-0.1c0-0.1,0-0.2-0.1-0.2c0-0.1-0.1-0.1-0.3-0.3c-0.2-0.1-0.5-0.2-0.8-0.2
	c-0.2,0-0.4,0-0.7,0.1c-0.2,0.1-0.5,0.2-0.7,0.5c-0.2,0.2-0.4,0.6-0.6,1s-0.2,1-0.3,1.7c0.2-0.3,0.5-0.6,0.8-0.8
	c0.3-0.2,0.7-0.3,1.1-0.3c0.5,0,0.9,0.1,1.3,0.4c0.4,0.2,0.7,0.6,0.9,1c0.2,0.5,0.4,1,0.4,1.6c0,0.6-0.1,1.2-0.4,1.6
	c-0.2,0.5-0.6,0.9-1,1.1C21.9,131,21.4,131.1,20.9,131.1z M20.9,130.1c0.4,0,0.8-0.2,1.1-0.5c0.3-0.4,0.4-0.9,0.4-1.5
	c0-0.5-0.1-0.8-0.2-1.1c-0.1-0.3-0.3-0.5-0.6-0.7c-0.2-0.1-0.5-0.2-0.7-0.2c-0.4,0-0.7,0.1-1,0.3c-0.3,0.2-0.5,0.5-0.7,0.8
	c0,0.5,0,0.9,0.1,1.4c0.1,0.4,0.3,0.8,0.6,1.1C20.2,129.9,20.6,130.1,20.9,130.1z M19.2,150c0.4-1.4,0.9-2.8,1.4-4.1
	c0.5-1.4,1-2.7,1.5-4.1h-3.9v-1.1h5.4v0.7c-0.6,1.4-1.1,2.8-1.6,4.3c-0.5,1.4-1,2.9-1.4,4.4H19.2z M20.8,169.1
	c-0.6,0-1.1-0.1-1.6-0.3c-0.4-0.2-0.8-0.5-1-0.9c-0.2-0.4-0.4-0.8-0.4-1.3c0-0.6,0.2-1.1,0.5-1.5c0.3-0.5,0.8-0.8,1.4-1.1
	c-0.4-0.2-0.8-0.5-1-0.9c-0.2-0.4-0.4-0.8-0.4-1.2c0-0.6,0.2-1.2,0.7-1.6c0.4-0.5,1.1-0.7,1.9-0.7c0.9,0,1.5,0.2,1.9,0.7
	c0.4,0.4,0.6,1,0.6,1.6c0,0.5-0.1,0.9-0.4,1.3c-0.3,0.4-0.6,0.7-1,0.9c0.5,0.3,1,0.6,1.3,1.1c0.3,0.4,0.5,0.9,0.5,1.5
	c0,0.5-0.1,0.9-0.4,1.3c-0.2,0.4-0.6,0.7-1,0.9C21.9,169,21.4,169.1,20.8,169.1z M21,163.6c0.3-0.2,0.6-0.5,0.8-0.8
	c0.2-0.3,0.3-0.7,0.3-1c0-0.3-0.1-0.6-0.4-0.9c-0.2-0.3-0.6-0.4-1-0.4s-0.8,0.1-1,0.4c-0.2,0.2-0.3,0.5-0.3,0.9
	c0,0.4,0.2,0.8,0.5,1.1C20.2,163.1,20.6,163.4,21,163.6z M20.8,168.1c0.5,0,0.9-0.1,1.2-0.4c0.3-0.3,0.4-0.6,0.4-1.1
	c0-0.4-0.2-0.8-0.5-1.2c-0.3-0.4-0.8-0.6-1.4-0.8c-0.4,0.2-0.8,0.5-1,0.8c-0.3,0.3-0.4,0.7-0.4,1.2c0,0.4,0.1,0.8,0.4,1.1
	C19.8,167.9,20.2,168.1,20.8,168.1z M20.4,188.1c-0.5,0-0.9-0.1-1.3-0.2c-0.4-0.1-0.7-0.4-1.1-0.6l0.7-0.9l0.1-0.1l0.1,0.1
	c0,0.1,0,0.2,0.1,0.2c0,0.1,0.1,0.1,0.2,0.3c0.3,0.2,0.6,0.3,1,0.3c0.4,0,0.8-0.1,1.1-0.4c0.3-0.3,0.5-0.7,0.7-1.1
	c0.2-0.5,0.3-1,0.3-1.6c-0.2,0.2-0.5,0.3-0.8,0.4c-0.3,0.1-0.6,0.2-1,0.2c-0.5,0-1-0.1-1.4-0.4c-0.4-0.2-0.8-0.6-1-1
	c-0.2-0.4-0.4-0.9-0.4-1.5c0-0.6,0.1-1.1,0.4-1.6c0.2-0.5,0.6-0.8,1-1.1c0.4-0.3,0.9-0.4,1.4-0.4c0.6,0,1.1,0.2,1.6,0.5
	c0.4,0.3,0.8,0.8,1,1.4s0.3,1.3,0.3,2.2c0,1.8-0.3,3.2-0.9,4.1C22.2,187.7,21.4,188.1,20.4,188.1z M19.1,181.7c0,0.6,0.2,1,0.5,1.3
	c0.3,0.3,0.7,0.5,1.1,0.5c0.4,0,0.7-0.1,1-0.1c0.3-0.1,0.5-0.3,0.7-0.6c0-1.1-0.2-1.9-0.5-2.4c-0.3-0.5-0.7-0.8-1.2-0.8
	c-0.5,0-0.9,0.2-1.2,0.5C19.3,180.5,19.1,181,19.1,181.7z M20.3,207v-7.9l-1.8,0.6l-0.3-0.8l2.5-1.3h0.9v9.4H20.3z M28.2,207.2
	c-1,0-1.7-0.4-2.2-1.2c-0.5-0.8-0.8-2-0.8-3.5c0-1.5,0.3-2.7,0.8-3.5c0.5-0.9,1.3-1.3,2.2-1.3s1.7,0.4,2.2,1.3
	c0.5,0.9,0.8,2,0.8,3.5c0,1.5-0.3,2.7-0.8,3.5C29.9,206.7,29.2,207.2,28.2,207.2z M26.5,202.4c0,0.6,0,1.1,0.1,1.5l3.1-3.9
	c-0.1-0.4-0.3-0.8-0.6-1c-0.2-0.2-0.5-0.4-0.9-0.4c-0.6,0-1,0.3-1.3,1C26.6,200.3,26.5,201.2,26.5,202.4z M28.2,206.1
	c0.6,0,1-0.3,1.3-1c0.3-0.6,0.5-1.6,0.5-2.8c0-0.5,0-1-0.1-1.4l-3.1,3.8C27.1,205.7,27.6,206.1,28.2,206.1z M20.3,226v-7.9l-1.8,0.6
	l-0.3-0.8l2.5-1.3h0.9v9.4H20.3z M27.8,226v-7.9l-1.8,0.6l-0.3-0.8l2.5-1.3h0.9v9.4H27.8z M20.3,245v-7.9l-1.8,0.6l-0.3-0.8l2.5-1.3
	h0.9v9.4H20.3z M25.5,244c0.7-0.7,1.3-1.3,1.8-1.8c0.5-0.5,1-1,1.4-1.4c0.4-0.4,0.6-0.9,0.8-1.3c0.2-0.4,0.3-0.8,0.3-1.3
	c0-0.6-0.1-1-0.4-1.2c-0.3-0.2-0.6-0.4-1.1-0.4c-0.4,0-0.7,0.1-1,0.2c-0.3,0.1-0.6,0.4-0.8,0.7c-0.1,0.1-0.1,0.2-0.2,0.3
	c0,0.1,0,0.1,0,0.2l-0.1,0.1l-0.1-0.1l-0.9-0.7c0.3-0.6,0.7-1,1.3-1.3c0.5-0.3,1.1-0.5,1.8-0.5c0.5,0,1,0.1,1.4,0.3s0.7,0.5,1,0.9
	c0.2,0.4,0.4,0.9,0.4,1.4c0,0.5-0.1,1-0.3,1.4c-0.2,0.4-0.5,0.9-0.9,1.3c-0.4,0.4-0.8,0.9-1.2,1.4c-0.5,0.5-1,1-1.5,1.5h3.3
	c0.2,0,0.3,0,0.4,0s0.1-0.1,0.2-0.1h0.1v1.2h-5.6V244z M20.3,264v-7.9l-1.8,0.6l-0.3-0.8l2.5-1.3h0.9v9.4H20.3z M28.1,264.2
	c-0.5,0-1-0.1-1.5-0.3c-0.5-0.2-0.9-0.4-1.2-0.8l0.7-1l0.1-0.1l0.1,0.1c0,0.1,0,0.2,0.1,0.2c0,0.1,0.1,0.2,0.2,0.3
	c0.2,0.1,0.4,0.3,0.6,0.4c0.2,0.1,0.5,0.1,0.8,0.1c0.6,0,1-0.2,1.2-0.5c0.3-0.3,0.4-0.8,0.4-1.3c0-0.7-0.2-1.2-0.7-1.4
	c-0.5-0.3-1.1-0.4-1.9-0.3v-1c0.6,0,1.1-0.1,1.4-0.2c0.3-0.2,0.6-0.4,0.7-0.6c0.1-0.3,0.2-0.5,0.2-0.8c0-0.4-0.1-0.7-0.4-1
	c-0.2-0.2-0.6-0.4-0.9-0.4c-0.3,0-0.6,0.1-0.9,0.2c-0.3,0.1-0.5,0.3-0.8,0.5l-0.7-0.7c0.3-0.4,0.7-0.6,1.2-0.8
	c0.4-0.2,0.9-0.2,1.3-0.2c0.8,0,1.4,0.2,1.9,0.7c0.5,0.4,0.7,1,0.7,1.7c0,0.5-0.1,0.9-0.4,1.3c-0.3,0.4-0.6,0.7-1.1,0.8
	c0.5,0.2,0.9,0.4,1.3,0.8s0.5,0.9,0.5,1.5c0,0.5-0.1,1-0.3,1.4c-0.2,0.4-0.6,0.8-1,1C29.2,264,28.7,264.2,28.1,264.2z M20.3,283
	v-7.9l-1.8,0.6l-0.3-0.8l2.5-1.3h0.9v9.4H20.3z M29.1,283v-2.3h-3.9v-0.9l4.2-6.2h1v6.1h1.2v1h-1.2v2.2H29.1z M26.6,279.7h2.6v-3.9
	L26.6,279.7z M20.3,302v-7.9l-1.8,0.6l-0.3-0.8l2.5-1.3h0.9v9.4H20.3z M28.2,302.2c-0.6,0-1.1-0.1-1.6-0.4c-0.5-0.2-0.9-0.6-1.2-1.1
	l0.9-0.7l0.1-0.1l0.1,0.1c0,0.1,0,0.2,0,0.2c0,0.1,0.1,0.2,0.2,0.3c0.2,0.2,0.4,0.4,0.6,0.5c0.2,0.1,0.5,0.1,0.9,0.1
	c0.5,0,0.9-0.2,1.2-0.6c0.3-0.4,0.5-0.9,0.5-1.5c0-0.6-0.2-1.2-0.5-1.5c-0.3-0.4-0.8-0.6-1.3-0.6c-0.7,0-1.2,0.3-1.7,0.8l-0.8-0.3
	l0.3-4.8h4.8v1.1h-3.8l-0.1,2.5c0.5-0.2,1-0.4,1.5-0.4c0.5,0,1,0.1,1.4,0.4c0.4,0.2,0.8,0.6,1,1.1c0.2,0.5,0.4,1,0.4,1.7
	c0,0.6-0.1,1.2-0.4,1.7c-0.3,0.5-0.6,0.8-1.1,1.1C29.3,302,28.8,302.2,28.2,302.2z M20.3,321v-7.9l-1.8,0.6l-0.3-0.8l2.5-1.3h0.9
	v9.4H20.3z M28.4,321.1c-1,0-1.7-0.4-2.2-1.2c-0.5-0.8-0.8-1.9-0.8-3.2c0-1.7,0.3-3,0.9-3.8c0.6-0.9,1.4-1.4,2.4-1.4
	c0.4,0,0.8,0.1,1.2,0.2c0.4,0.1,0.7,0.4,1,0.6l-0.8,0.9l-0.1,0.1l-0.1-0.1c0-0.1,0-0.1-0.1-0.2c0-0.1-0.1-0.1-0.3-0.3
	c-0.2-0.1-0.5-0.2-0.8-0.2c-0.2,0-0.4,0-0.7,0.1c-0.2,0.1-0.5,0.2-0.7,0.5c-0.2,0.2-0.4,0.6-0.6,1s-0.2,1-0.3,1.7
	c0.2-0.3,0.5-0.6,0.8-0.8c0.3-0.2,0.7-0.3,1.1-0.3c0.5,0,0.9,0.1,1.3,0.4c0.4,0.2,0.7,0.6,0.9,1.1c0.2,0.5,0.4,1,0.4,1.6
	c0,0.6-0.1,1.2-0.4,1.7c-0.2,0.5-0.6,0.9-1,1.1C29.4,321,28.9,321.1,28.4,321.1z M28.4,320.1c0.4,0,0.8-0.2,1.1-0.5
	c0.3-0.4,0.4-0.9,0.4-1.5c0-0.5-0.1-0.8-0.2-1.1c-0.1-0.3-0.3-0.5-0.6-0.7c-0.2-0.1-0.5-0.2-0.7-0.2c-0.4,0-0.7,0.1-1,0.3
	c-0.3,0.2-0.5,0.5-0.7,0.8c0,0.5,0,0.9,0.1,1.4c0.1,0.4,0.3,0.8,0.6,1.1S28.1,320.1,28.4,320.1z M20.3,340v-7.9l-1.8,0.6l-0.3-0.8
	l2.5-1.3h0.9v9.4H20.3z M26.7,340c0.4-1.4,0.9-2.8,1.4-4.1c0.5-1.3,1-2.7,1.5-4.1h-3.9v-1.1H31v0.7c-0.6,1.4-1.1,2.8-1.6,4.3
	c-0.5,1.4-1,2.9-1.4,4.4H26.7z M20.3,359v-7.9l-1.8,0.6l-0.3-0.8l2.5-1.3h0.9v9.4H20.3z M28.2,359.1c-0.6,0-1.1-0.1-1.6-0.3
	c-0.4-0.2-0.8-0.5-1-0.9c-0.2-0.4-0.4-0.8-0.4-1.3c0-0.6,0.2-1.1,0.5-1.5c0.3-0.5,0.8-0.8,1.4-1.1c-0.4-0.2-0.8-0.5-1-0.9
	c-0.2-0.4-0.4-0.8-0.4-1.2c0-0.6,0.2-1.2,0.7-1.6c0.4-0.5,1.1-0.7,1.9-0.7c0.9,0,1.5,0.2,1.9,0.7s0.6,1,0.6,1.6
	c0,0.5-0.1,0.9-0.4,1.3c-0.3,0.4-0.6,0.7-1,0.9c0.5,0.3,1,0.6,1.3,1.1c0.3,0.4,0.5,0.9,0.5,1.5c0,0.5-0.1,0.9-0.4,1.3
	c-0.2,0.4-0.6,0.7-1,0.9C29.4,359,28.9,359.1,28.2,359.1z M28.5,353.6c0.3-0.2,0.6-0.5,0.8-0.8c0.2-0.3,0.3-0.6,0.3-1
	c0-0.3-0.1-0.6-0.4-0.9c-0.2-0.3-0.6-0.4-1-0.4s-0.8,0.1-1,0.4c-0.2,0.2-0.3,0.5-0.3,0.9c0,0.4,0.2,0.8,0.5,1.1
	C27.7,353.1,28.1,353.4,28.5,353.6z M28.3,358.1c0.5,0,0.9-0.1,1.2-0.4s0.4-0.6,0.4-1.1c0-0.4-0.2-0.8-0.5-1.2
	c-0.3-0.4-0.8-0.6-1.4-0.8c-0.4,0.2-0.8,0.5-1,0.8c-0.3,0.3-0.4,0.7-0.4,1.2s0.1,0.8,0.4,1.1C27.3,357.9,27.8,358.1,28.3,358.1z"/>
</svg>
