<svg width="389" height="238" viewBox="0 0 389 238" fill="none" xmlns="http://www.w3.org/2000/svg">
<g filter="url(#filter0_d_712:20)">
<path d="M96.9137 68.0909C96.9137 50.1165 85.3512 40.446 70.7404 40.446C56.0245 40.446 44.5671 50.1165 44.5671 68.0909C44.5671 85.9602 56.0245 95.7358 70.7404 95.7358C85.3512 95.7358 96.9137 86.0653 96.9137 68.0909ZM81.8825 68.0909C81.8825 77.7614 77.9933 83.017 70.7404 83.017C63.4876 83.017 59.5984 77.7614 59.5984 68.0909C59.5984 58.4205 63.4876 53.1648 70.7404 53.1648C77.9933 53.1648 81.8825 58.4205 81.8825 68.0909ZM123.33 95.7358C135.287 95.7358 142.618 88.8771 142.776 78.1818H129.322C129.006 82.4126 126.72 84.6989 123.54 84.6989C119.73 84.6989 117.233 81.4403 117.233 74.8182C117.233 68.196 119.73 64.9375 123.54 64.9375C126.746 64.9375 128.927 67.2237 129.322 71.4545H142.776C142.697 60.9432 135.208 54.1108 123.33 54.1108C110.191 54.1108 102.412 62.5199 102.412 74.9233C102.412 87.3267 110.191 95.7358 123.33 95.7358ZM172.832 54.6364H165.895V44.9659H151.389V54.6364H146.238V65.1477H151.389V83.3849C151.284 91.8466 156.513 96.13 166.525 95.5781C169.81 95.3942 172.254 94.7109 173.568 94.3168L171.466 84.1207C170.914 84.2521 169.495 84.5412 168.627 84.5412C166.735 84.5412 165.895 83.7003 165.895 82.0185V65.1477H172.832V54.6364ZM197.764 95.7358C210.903 95.7358 218.681 87.3267 218.681 74.9233C218.681 62.5199 210.903 54.1108 197.764 54.1108C184.624 54.1108 176.846 62.5199 176.846 74.9233C176.846 87.3267 184.624 95.7358 197.764 95.7358ZM197.869 85.0142C193.98 85.0142 191.667 81.1513 191.667 74.8182C191.667 68.4851 193.98 64.6222 197.869 64.6222C201.548 64.6222 203.86 68.4851 203.86 74.8182C203.86 81.1513 201.548 85.0142 197.869 85.0142ZM224.357 95H238.758V88.3778H239.073C240.755 92.4773 244.644 95.5256 250.32 95.5256C258.94 95.5256 266.193 88.7983 266.193 74.8182C266.193 60.2074 258.414 54.1108 250.426 54.1108C244.434 54.1108 240.65 57.5795 239.073 61.679H238.863V41.1818H224.357V95ZM238.548 74.8182C238.548 68.8267 240.965 65.2528 244.96 65.2528C248.954 65.2528 251.267 68.8267 251.267 74.8182C251.267 80.8097 248.954 84.3835 244.96 84.3835C240.965 84.3835 238.548 80.7045 238.548 74.8182ZM291.604 95.7358C302.798 95.7358 309.999 90.375 311.365 81.9659H298.121C297.28 84.2521 294.889 85.5398 291.919 85.5398C287.61 85.5398 285.087 82.7017 285.087 78.8125V78.1818H311.365V74.8182C311.365 61.968 303.482 54.1108 291.289 54.1108C278.78 54.1108 270.791 62.4148 270.791 74.9233C270.791 87.9837 278.675 95.7358 291.604 95.7358ZM285.087 70.1932C285.166 66.6982 288.056 64.3068 291.604 64.3068C295.204 64.3068 297.937 66.7244 298.016 70.1932H285.087ZM317.284 95H331.79V73.9773C331.79 69.3523 334.97 66.304 339.253 66.304C340.751 66.304 343.169 66.5405 344.614 67.0398V54.6626C343.458 54.321 342.196 54.1108 340.935 54.1108C336.625 54.1108 333.262 56.6335 331.79 62.3097H331.37V54.6364H317.284V95Z" fill="white"/>
</g>
<g filter="url(#filter1_d_712:20)">
<path d="M150.022 189.736C163.188 189.736 172.464 183.035 172.412 173.548C172.464 166.952 168.049 162.301 159.377 161.355V160.935C165.789 160.251 170.467 156.126 170.414 150.108C170.467 141.042 162.058 134.446 150.127 134.446C137.934 134.446 129.262 141.41 129.21 151.264H143.19C143.243 148.006 146.107 145.693 150.127 145.693C153.806 145.693 156.382 147.927 156.329 151.054C156.382 154.312 153.333 156.625 148.971 156.625H143.505V166.716H148.971C153.701 166.716 157.012 169.028 156.96 172.287C157.012 175.624 154.174 177.963 150.127 177.963C145.923 177.963 142.927 175.729 142.875 172.602H128.159C128.211 182.641 137.277 189.736 150.022 189.736ZM205.319 135.182H191.864L178.62 143.276V155.679L190.393 148.636H190.708V189H205.319V135.182ZM239.494 143.381C239.073 138.545 234.974 134.866 227.09 134.866C219.627 134.866 214.687 138.23 214.687 143.696C214.687 148.006 217.315 150.634 222.991 151.685L227.826 152.631C229.508 152.946 230.559 153.366 230.559 154.207C230.559 155.048 229.193 155.679 227.301 155.679C225.303 155.679 223.727 154.943 223.411 153.261L214.056 153.892C214.687 159.253 219.522 162.616 227.301 162.616C234.764 162.616 240.335 158.832 240.335 153.261C240.335 148.636 236.971 146.639 231.926 145.693L226.88 144.747C224.778 144.327 224.147 144.011 224.147 143.17C224.147 142.224 225.724 141.699 227.195 141.699C229.508 141.699 230.769 143.065 230.874 144.011L239.494 143.381ZM260.339 135.182H255.399V128.77H245.833V135.182H242.154V142.33H245.833V154.207C245.833 160.199 249.828 162.511 255.714 162.301C257.922 162.196 259.393 161.881 260.339 161.565L258.868 154.418C258.657 154.418 257.711 154.628 256.975 154.628C255.819 154.628 255.399 154.418 255.399 152.736V142.33H260.339V135.182Z" fill="white"/>
</g>
<defs>
<filter id="filter0_d_712:20" x="0.566895" y="0.445801" width="388.047" height="143.29" filterUnits="userSpaceOnUse" color-interpolation-filters="sRGB">
<feFlood flood-opacity="0" result="BackgroundImageFix"/>
<feColorMatrix in="SourceAlpha" type="matrix" values="0 0 0 0 0 0 0 0 0 0 0 0 0 0 0 0 0 0 127 0" result="hardAlpha"/>
<feOffset dy="4"/>
<feGaussianBlur stdDeviation="22"/>
<feComposite in2="hardAlpha" operator="out"/>
<feColorMatrix type="matrix" values="0 0 0 0 0 0 0 0 0 0 0 0 0 0 0 0 0 0 1 0"/>
<feBlend mode="multiply" in2="BackgroundImageFix" result="effect1_dropShadow_712:20"/>
<feBlend mode="normal" in="SourceGraphic" in2="effect1_dropShadow_712:20" result="shape"/>
</filter>
<filter id="filter1_d_712:20" x="84.1592" y="88.77" width="220.18" height="148.966" filterUnits="userSpaceOnUse" color-interpolation-filters="sRGB">
<feFlood flood-opacity="0" result="BackgroundImageFix"/>
<feColorMatrix in="SourceAlpha" type="matrix" values="0 0 0 0 0 0 0 0 0 0 0 0 0 0 0 0 0 0 127 0" result="hardAlpha"/>
<feOffset dy="4"/>
<feGaussianBlur stdDeviation="22"/>
<feComposite in2="hardAlpha" operator="out"/>
<feColorMatrix type="matrix" values="0 0 0 0 0 0 0 0 0 0 0 0 0 0 0 0 0 0 1 0"/>
<feBlend mode="multiply" in2="BackgroundImageFix" result="effect1_dropShadow_712:20"/>
<feBlend mode="normal" in="SourceGraphic" in2="effect1_dropShadow_712:20" result="shape"/>
</filter>
</defs>
</svg>
