<svg width="430" height="282" viewBox="0 0 430 282" fill="none" xmlns="http://www.w3.org/2000/svg">
<path d="M223.46 0L415.162 95.2937L430 142.345L257.29 54.1983L223.46 0Z" fill="#A7ACB9"/>
<path d="M192.385 281.899L8.08208 189.37L249.412 51.1697L430 142.512L352.775 189.37L271.392 226.737L192.385 281.899Z" fill="#1C1E2D"/>
<path d="M223.568 0L415.114 95.0361L349.524 182.35L158.335 85.5324L223.568 0Z" fill="#EDEFF7"/>
<path d="M70.0954 102.34L261.605 199.27L192.019 275.386L1.10437 180.24L70.0954 102.34Z" fill="#EDEFF7"/>
<path d="M158.335 85.593L349.524 182.35L261.17 199.097L69.951 102.232L158.335 85.593Z" fill="#DBDBE9"/>
<path d="M223.568 0L415.114 95.0361L349.524 182.35L158.335 85.5324L223.568 0Z" fill="#EDEFF7"/>
<path d="M70.0954 102.34L261.605 199.27L192.019 275.386L1.10437 180.24L70.0954 102.34Z" fill="#EDEFF7"/>
<path d="M158.335 85.593L349.524 182.35L261.17 199.097L69.951 102.232L158.335 85.593Z" fill="#DBDBE9"/>
<g opacity="0.8">
<mask id="mask0" style="mask-type:alpha" maskUnits="userSpaceOnUse" x="1" y="0" width="415" height="276">
<path fill-rule="evenodd" clip-rule="evenodd" d="M223.568 0L415.114 95.0361L349.524 182.35L261.238 199.084L261.605 199.27L192.019 275.386L1.10437 180.24L70.0954 102.34L149.651 142.606L69.951 102.232L158.335 85.593L349.379 182.277L158.335 85.5324L223.568 0Z" fill="#DBDBE9"/>
</mask>
<g mask="url(#mask0)">
<path d="M276.956 48.3786C276.956 41.8661 276.956 43.7268 287.19 29.3063L353.711 59.0778C351.85 60.6284 346.454 64.1017 339.755 65.5903C331.382 67.451 331.847 68.8465 321.613 63.7296C311.379 58.6126 303.936 63.2644 282.538 63.7296C261.14 64.1947 276.956 54.8912 276.956 48.3786Z" fill="#669EF2"/>
<path fill-rule="evenodd" clip-rule="evenodd" d="M374.963 89.1693L370.55 113C370.489 113.33 370.512 113.671 370.617 113.99L382.985 151.506C383.531 153.161 385.783 153.375 386.632 151.854L412.622 105.226C412.976 104.593 413.644 104.2 414.369 104.2H421.015C422.541 104.2 423.504 102.56 422.762 101.227L405.047 69.4209C404.464 68.3732 403.096 68.071 402.125 68.7754L375.755 87.9149C375.34 88.2161 375.057 88.6651 374.963 89.1693ZM148.566 85.8058L136.036 88.2918L113.678 93.7851L156.216 101.991L176.012 93.7844L154.612 85.7286L148.566 85.8058ZM346.268 113.504L333.708 115.83L340.686 121.412L353.711 129.785H363.014L352.315 113.504H346.268ZM109.026 157.696L120.656 146.997L127.633 155.37L141.589 169.325L129.029 171.651L116.004 163.278L109.026 157.696ZM247.184 107.456L257.884 86.5234H334.173L314.635 98.1529L279.282 101.874L254.627 119.086H244.393L247.184 107.456ZM173.272 248.869L131.763 209.031L122.387 204.929L92.9004 210.813L59.02 200.05L36.459 202.872L179.268 273.991L179.268 261.896L173.272 248.869Z" fill="#56B693"/>
<path fill-rule="evenodd" clip-rule="evenodd" d="M262.6 47.9948L243.889 24.8811L242.771 25.1155L218.033 48.0543L246.761 74.7484L262.6 47.9948ZM263.144 47.0768L244.989 24.6504L271.476 19.0966L271.271 18.1179L244.282 23.777L224.779 -0.314575L224.002 0.314623L243.182 24.0076L242.43 24.1653L242.294 24.1937L242.193 24.288L217.298 47.3717L194.959 26.6143L194.279 27.3469L216.857 48.3269L216.514 48.1302L204.574 68.9699L178.151 51.2201L177.594 52.0502L204.076 69.8398L190.929 92.7874L191.797 93.2845L204.908 70.3988L236.694 91.7514L235.431 93.885C233.238 97.5897 230.593 100.936 227.59 103.87L158.935 84.6463L158.665 85.6093L226.748 104.672C218.126 112.699 206.741 117.43 194.648 117.667L134.581 118.845L134.55 118.846L109.373 94.5371L108.679 95.2565L133.139 118.873L124.659 119.04C110.959 119.308 97.9304 125.026 88.4573 134.927L82.5175 141.135L53.113 108.055L52.3656 108.719L81.8239 141.86L58.2672 166.48L25.9619 152.122L25.5558 153.036L57.5326 167.248L42.5446 182.913L8.24387 171.178L7.92019 172.124L41.7828 183.709L30.7223 195.269L32.89 197.343L44.8163 184.878L71.6156 196.301L71.9512 196.444L72.0343 196.348L133.2 198.201L133.201 198.189L174.537 214.857C175.005 223.027 181.986 229.438 190.432 229.438C190.576 229.438 190.72 229.436 190.863 229.432V280.503V281.79L191.732 280.841L232.202 236.649L232.311 236.53L232.33 236.369L236.026 204.496L259.736 199.793L260.045 200.122L260.574 199.627L260.772 199.587L260.747 199.464L262.235 198.072L256.599 192.051C252.892 188.092 249.916 183.584 247.743 178.734H247.774H247.852H247.93H248.008H248.086H248.164H248.242H248.32H248.398H248.476H248.554H248.632H248.709H248.787H248.865H248.942H249.02H249.097H249.175H249.252H249.33H249.407H249.485H249.562H249.639H249.716H249.793H249.871H249.948H250.025H250.102H250.179H250.256H250.332H250.409H250.486H250.563H250.639H250.716H250.792H250.869H250.945H251.022H251.098H251.174H251.251H251.327H251.403H251.479H251.555H251.631H251.707H251.783H251.859H251.934H252.01H252.086H252.161H252.237H252.312H252.388H252.463H252.538H252.613H252.689H252.764H252.839H252.914H252.989H253.064H253.138H253.213H253.288H253.362H253.437H253.511H253.586H253.66H253.734H253.809H253.883H253.957H254.031H254.105H254.179H254.252H254.326H254.4H254.473H254.547H254.62H254.694H254.767H254.84H254.913H254.986H255.059H255.132H255.205H255.278H255.35H255.423H255.496H255.568H255.64H255.713H255.785H255.857H255.929H256.001H256.073H256.145H256.217H256.288H256.36H256.431H256.503H256.574H256.645H256.716H256.787H256.858H256.929H257H257.071H257.142H257.212H257.283H257.353H257.423H257.493H257.564H257.634H257.703H257.773H257.843H257.913H257.982H258.052H258.121H258.19H258.26H258.329H258.398H258.466H258.535H258.604H258.673H258.741H258.809H258.878H258.946H259.014H259.082H259.15H259.218H259.286H259.353H259.421H259.488H259.555H259.623H259.69H259.757H259.824H259.89H259.957H260.024H260.09H260.156H260.223H260.289H260.355H260.421H260.487H260.552H260.618H260.684H260.749H260.814H260.879H260.944H261.009H261.074H261.139H261.203H261.268H261.332H261.397H261.461H261.525H261.589H261.652H261.716H261.78H261.843H261.906H261.97H262.033H262.096H262.159H262.221H262.284H262.346H262.409H262.471H262.533H262.595H262.657H262.719H262.78H262.842H262.903H262.964H263.025H263.086H263.147H263.208H263.269H263.329H263.389H263.45H263.51H263.57H263.63H263.689H263.749H263.808H263.868H263.927H263.986H264.045H264.103H264.162H264.221H264.279H264.337H264.395H264.453H264.511H264.569H264.626H264.684H264.741H264.798H264.855H264.912H264.969H265.025H265.082H265.138H265.194H265.25H265.306H265.362H265.417H265.473H265.528H265.583H265.638H265.693H265.748H265.802H265.856H265.911H265.965H266.019H266.073H266.126H266.18H266.233H266.286H266.339H266.392H266.445H266.498H266.55H266.602H266.654H266.706H266.758H266.81H266.861H266.913H266.964H267.015H267.066H267.117H267.167H267.218H267.268H267.318H267.368H267.418H267.467H267.517H267.566H267.615H267.664H267.713H267.761H267.81H267.858H267.906H267.954H268.002H268.05H268.097H268.144H268.192H268.239H268.285H268.332H268.378H268.425H268.471H268.517H268.563H268.608H268.654H268.699H268.744H268.789H268.834H268.878H268.923H268.967H269.011H269.055H269.098H269.142H269.185H269.228H269.271H269.314H269.357H269.399H269.441H269.484H269.525H269.567H269.609H269.65H269.691H269.732H269.773H269.814H269.854H269.894H269.934H269.974H270.014H270.053H270.093H270.132H270.171H270.21H270.248H270.287H270.325H270.363H270.401H270.438H270.476H270.513H270.55H270.587H270.623H270.66H270.696H270.732H270.768H270.804H270.839H270.875H270.91H270.945H270.979H271.014H271.048H271.082H271.116H271.15H271.183H271.217H271.25H271.283H271.315H271.348H271.38H271.412H271.444H271.476H271.507H271.539H271.57H271.601H271.631H271.662H271.692H271.722H271.752H271.781H271.811H271.84H271.869H271.898H271.926H271.955H271.983H272.011H272.039H272.066H272.093H272.12H272.147H272.174H272.2H272.227H272.253H272.278H272.304C273.82 178.734 276.322 179.286 279.526 180.293C282.678 181.284 286.355 182.662 290.148 184.205C297.733 187.29 305.7 190.996 310.717 193.465L312.042 190.774C306.979 188.281 298.945 184.544 291.279 181.426C287.447 179.868 283.687 178.456 280.425 177.431C279.07 177.005 277.772 176.636 276.573 176.352L283.042 161.257C290.552 143.736 307.018 133.069 324.588 131.946L352.79 193.722L353.7 193.307L325.662 131.889C334.237 131.532 343.035 133.45 351.151 137.953L374.846 151.099L376.302 148.476L375.814 148.206L356.021 107.239L356.01 107.245L356.038 107.171L362.666 89.9392L376.477 79.5808H389.064V78.5808H377.81L379.265 77.4896L377.465 75.0896L373.357 78.1703L352.374 71.8358L360.321 64.3568L358.265 62.1722L342.897 76.6358L250.452 74.4028L279.177 25.884L276.595 24.3556L263.144 47.0768ZM71.6721 195.238L45.5551 184.106L60.6913 168.286L60.4604 168.859L85.6884 179.031L71.6721 195.238ZM86.3819 178.233L60.976 167.988L90.625 137.001C94.6486 132.795 99.3533 129.391 104.49 126.898L119.835 142.428L146.76 169.677L147.298 170.222L132.802 196.95L87.3709 178.632L119.63 143.147L118.89 142.474L86.3819 178.233ZM174.513 213.77L133.735 197.327L148.033 170.965L179.467 202.778C176.468 205.541 174.573 209.43 174.513 213.77ZM86.6686 179.427L130.549 197.12L72.8774 195.373L86.6686 179.427ZM191.863 229.376V279.217L231.355 236.093L234.995 204.7L205.939 210.463C206.21 211.593 206.353 212.771 206.353 213.983C206.353 222.091 199.947 228.675 191.863 229.376ZM205.673 209.497L234.636 203.752L220.564 183.057C214.322 185.885 208.679 190.036 204.066 195.314L199.087 201.009C202.201 202.97 204.572 205.96 205.673 209.497ZM196.317 199.619L201.807 193.339C206.848 187.572 213.047 183.072 219.906 180.066L210.19 160.171L148.16 169.671L148.482 169.997L148.541 170.029L148.531 170.047L180.225 202.122C182.995 199.875 186.559 198.527 190.432 198.527C192.507 198.527 194.494 198.914 196.317 199.619ZM210.833 159.118L240.783 164.252C240.481 161.358 240.423 158.424 240.619 155.48L241.364 144.301C240.655 144.647 239.959 144.97 239.276 145.268C236.057 146.67 233.017 147.567 230.438 147.567C227.256 147.567 221.292 146.447 213.893 144.714C210.367 143.888 206.477 142.912 202.345 141.831L210.765 159.072L210.825 159.063L210.833 159.118ZM240.901 165.287L211.325 160.217L220.827 179.673C227.019 177.101 233.723 175.734 240.58 175.734H240.66H240.739H240.819H240.898H240.977H241.057H241.136H241.215H241.295H241.374H241.454H241.533H241.612H241.692H241.771H241.851H241.93H242.009H242.089H242.168H242.248H242.327H242.406H242.486H242.565H242.645H242.724H242.803H242.883H242.962H243.041H243.121H243.2H243.279H243.332C242.164 172.355 241.347 168.854 240.901 165.287ZM209.73 159.23L201.069 141.495L200.891 141.448L200.673 141.416L200.673 141.45L121.371 142.56L147.292 168.793L209.73 159.23ZM244.475 178.734H244.468H244.389H244.31H244.231H244.151H244.072H243.993H243.914H243.834H243.755H243.676H243.597H243.517H243.438H243.359H243.279H243.2H243.121H243.041H242.962H242.883H242.803H242.724H242.645H242.565H242.486H242.406H242.327H242.248H242.168H242.089H242.009H241.93H241.851H241.771H241.692H241.612H241.533H241.454H241.374H241.295H241.215H241.136H241.057H240.977H240.898H240.819H240.739H240.66H240.58C233.943 178.734 227.46 180.093 221.494 182.647L235.702 203.54L258.932 198.933L254.409 194.102C250.162 189.566 246.818 184.351 244.475 178.734ZM246.518 175.734H246.52H246.598H246.677H246.756H246.834H246.913H246.991H247.07H247.148H247.226H247.305H247.383H247.461H247.54H247.618H247.696H247.774H247.852H247.93H248.008H248.086H248.164H248.242H248.32H248.398H248.476H248.554H248.632H248.709H248.787H248.865H248.942H249.02H249.097H249.175H249.252H249.33H249.407H249.485H249.562H249.639H249.716H249.793H249.871H249.948H250.025H250.102H250.179H250.256H250.332H250.409H250.486H250.563H250.639H250.716H250.792H250.869H250.945H251.022H251.098H251.174H251.251H251.327H251.403H251.479H251.555H251.631H251.707H251.783H251.859H251.934H252.01H252.086H252.161H252.237H252.312H252.388H252.463H252.538H252.613H252.689H252.764H252.839H252.914H252.989H253.064H253.138H253.213H253.288H253.362H253.437H253.511H253.586H253.66H253.734H253.809H253.883H253.957H254.031H254.105H254.179H254.252H254.326H254.4H254.473H254.547H254.62H254.694H254.767H254.84H254.913H254.986H255.059H255.132H255.205H255.278H255.35H255.423H255.496H255.568H255.64H255.713H255.785H255.857H255.929H256.001H256.073H256.145H256.217H256.288H256.36H256.431H256.503H256.574H256.645H256.716H256.787H256.858H256.929H257H257.071H257.142H257.212H257.283H257.353H257.423H257.493H257.564H257.634H257.703H257.773H257.843H257.913H257.982H258.052H258.121H258.19H258.26H258.329H258.398H258.466H258.535H258.604H258.673H258.741H258.809H258.878H258.946H259.014H259.082H259.15H259.218H259.286H259.353H259.421H259.488H259.555H259.623H259.69H259.757H259.824H259.89H259.957H260.024H260.09H260.156H260.223H260.289H260.355H260.421H260.487H260.552H260.618H260.684H260.749H260.814H260.879H260.944H261.009H261.074H261.139H261.203H261.268H261.332H261.397H261.461H261.525H261.589H261.652H261.716H261.78H261.843H261.906H261.97H262.033H262.096H262.159H262.221H262.284H262.346H262.409H262.471H262.533H262.595H262.657H262.719H262.78H262.842H262.903H262.964H263.025H263.086H263.147H263.208H263.269H263.329H263.389H263.45H263.51H263.57H263.63H263.689H263.749H263.808H263.868H263.927H263.986H264.045H264.103H264.162H264.221H264.279H264.337H264.395H264.453H264.511H264.569H264.626H264.684H264.741H264.798H264.855H264.912H264.969H265.025H265.082H265.138H265.194H265.25H265.306H265.362H265.417H265.473H265.528H265.583H265.638H265.693H265.748H265.802H265.856H265.911H265.965H266.019H266.073H266.126H266.18H266.233H266.286H266.339H266.392H266.445H266.498H266.55H266.602H266.654H266.706H266.758H266.81H266.861H266.913H266.964H267.015H267.066H267.117H267.167H267.218H267.268H267.318H267.368H267.418H267.467H267.517H267.566H267.615H267.664H267.713H267.761H267.81H267.858H267.906H267.954H268.002H268.05H268.097H268.144H268.192H268.239H268.285H268.332H268.378H268.425H268.471H268.517H268.563H268.608H268.654H268.699H268.744H268.789H268.834H268.878H268.923H268.967H269.011H269.055H269.098H269.142H269.185H269.228H269.271H269.314H269.357H269.399H269.441H269.484H269.525H269.567H269.609H269.65H269.691H269.732H269.773H269.814H269.854H269.894H269.934H269.974H270.014H270.053H270.093H270.132H270.171H270.21H270.248H270.287H270.325H270.363H270.401H270.438H270.476H270.513H270.55H270.587H270.623H270.66H270.696H270.732H270.768H270.804H270.839H270.875H270.91H270.945H270.979H271.014H271.048H271.082H271.116H271.15H271.183H271.217H271.25H271.283H271.315H271.348H271.38H271.412H271.444H271.476H271.507H271.539H271.57H271.601H271.631H271.662H271.692H271.722H271.752H271.781H271.811H271.84H271.869H271.898H271.926H271.955H271.983H272.011H272.039H272.066H272.093H272.12H272.147H272.174H272.2H272.227H272.253H272.278H272.304C272.687 175.734 273.102 175.758 273.544 175.805L280.285 160.075C281.654 156.881 283.303 153.901 285.191 151.151L268.63 125.873L269.466 125.325L285.809 150.269C300.679 129.548 329.295 122.395 352.607 135.329L374.297 147.364L355.121 107.674L355.33 107.573L312.112 119.067L311.879 130.261L310.879 130.24L311.331 108.573L295.241 111.768C286.492 113.506 278.418 117.696 271.494 123.437C264.856 128.941 257.048 134.932 249.737 139.555C247.953 140.683 246.192 141.733 244.479 142.678L243.612 155.679C243.153 162.567 244.172 169.393 246.518 175.734ZM237.205 90.8895L246.24 75.6291L217.312 48.7492L205.407 69.5289L237.205 90.8895ZM197.326 140.496C194.225 139.66 191.024 138.778 187.771 137.865C168.765 132.532 147.902 126.14 134.393 121.849L124.718 122.039C117.995 122.171 111.444 123.696 105.449 126.446L120.396 141.573L197.326 140.496ZM248.7 77.3614L238.013 95.4134C230.569 107.986 218.23 116.671 204.208 119.594L204.417 119.625L201.601 138.533C206.274 139.768 210.657 140.874 214.577 141.793C222.047 143.543 227.665 144.567 230.438 144.567C232.402 144.567 234.992 143.861 238.078 142.517C241.135 141.186 244.552 139.283 248.133 137.019C255.294 132.492 262.992 126.59 269.579 121.128C276.827 115.118 285.348 110.674 294.657 108.826L335.281 100.759C342.407 99.3436 349.123 96.3461 354.935 91.9874L372.364 78.9151L351.534 72.6267L344.505 79.2426L344.056 79.6647L343.44 79.6498L248.7 77.3614ZM200.628 138.275L203.386 119.758C200.55 120.301 197.648 120.609 194.707 120.667L143.809 121.665C156.712 125.683 173.256 130.676 188.582 134.977C192.72 136.138 196.768 137.248 200.628 138.275ZM361.16 91.0685L356.735 94.3874C350.564 99.0157 343.432 102.199 335.866 103.701L312.335 108.374L312.134 118.027L355.196 106.574L361.16 91.0685ZM177.512 213.983C177.512 207.15 183.25 201.527 190.432 201.527C197.615 201.527 203.353 207.15 203.353 213.983C203.353 220.815 197.615 226.438 190.432 226.438C183.25 226.438 177.512 220.815 177.512 213.983Z" fill="white"/>
<path d="M316.496 142.81C307.658 134.902 306.262 142.81 300.215 150.718C295.563 154.75 281.796 169.69 288.585 171.186C303.006 174.362 289.05 165.604 303.006 162.813C316.961 160.022 316.496 163.743 323.009 162.813C329.521 161.882 325.334 150.718 316.496 142.81Z" fill="#669EF2"/>
</g>
</g>
<path fill-rule="evenodd" clip-rule="evenodd" d="M157.889 85.3752L223.46 0L230.903 3.72144L165.313 88.8493L76.9286 106.061L12.0394 177.852L189.846 266.532L253.96 195.755L340.685 177.699L408.137 91.6404L415.114 94.8966L349.63 182.336L260.938 199.011L191.546 275.697L0 180.165L69.6752 102.089L157.889 85.3752Z" fill="#FAFAFF"/>
<g style="mix-blend-mode:multiply">
<path d="M192.385 281.899L8.08208 189.37L249.412 51.1697L430 142.512L352.775 189.37L271.392 226.737L192.385 281.899Z" fill="#1C1E2D"/>
<path d="M223.46 0L415.162 95.2937L430 142.345L257.29 54.1983L223.46 0Z" fill="#7161B0"/>
<path d="M223.568 0L415.114 95.0361L349.524 182.35L158.335 85.5324L223.568 0Z" fill="#EDEFF7"/>
<path d="M70.0954 102.34L261.605 199.27L192.019 275.386L1.10437 180.24L70.0954 102.34Z" fill="#EDEFF7"/>
<path d="M158.335 85.593L349.524 182.35L261.17 199.097L69.951 102.232L158.335 85.593Z" fill="#DBDBE9"/>
<path d="M223.568 0L415.114 95.036L349.524 182.35L158.335 85.5324L223.568 0Z" fill="#EDEFF7"/>
<path d="M70.0954 102.34L261.605 199.27L192.019 275.386L1.10437 180.24L70.0954 102.34Z" fill="#EEF1F9"/>
<path d="M158.335 85.593L349.524 182.35L261.17 199.097L69.951 102.232L158.335 85.593Z" fill="#DBDBE9"/>
<g style="mix-blend-mode:multiply" opacity="0.1">
<path d="M171.637 196.384C170.862 196.384 167.451 196.384 168.846 192.197L195.826 135.911L271.186 183.359L216.76 187.546L171.637 196.384Z" fill="url(#paint0_linear)"/>
</g>
</g>
<defs>
<linearGradient id="paint0_linear" x1="149.308" y1="210.805" x2="238.158" y2="169.404" gradientUnits="userSpaceOnUse">
<stop stop-color="#3F345F"/>
<stop offset="1" stop-color="#3F345F" stop-opacity="0"/>
</linearGradient>
</defs>
</svg>
