<svg width="35" height="35" viewBox="0 0 35 35" fill="none" xmlns="http://www.w3.org/2000/svg">
<g clip-path="url(#clip0)">
<path d="M33.146 32V31.9988H33.1538V20.9963C33.1538 15.6138 31.9505 11.4675 25.416 11.4675C22.2746 11.4675 20.1665 13.1275 19.3059 14.7013H19.215V11.97H13.0193V31.9988H19.4708V22.0813C19.4708 19.47 19.9848 16.945 23.3429 16.945C26.6517 16.945 26.7011 19.925 26.7011 22.2488V32H33.146Z" fill="#3D63F3"/>
<path d="M2.51404 11.9712H8.97327V31.9999H2.51404V11.9712Z" fill="#3D63F3"/>
<path d="M5.74106 2C3.67582 2 2 3.61375 2 5.6025C2 7.59125 3.67582 9.23875 5.74106 9.23875C7.8063 9.23875 9.48211 7.59125 9.48211 5.6025C9.48082 3.61375 7.805 2 5.74106 2V2Z" fill="#3D63F3"/>
</g>
<defs>
<clipPath id="clip0">
<rect width="31.1538" height="30" fill="white" transform="translate(2 2)"/>
</clipPath>
</defs>
</svg>
