<svg width="35" height="35" viewBox="0 0 35 35" fill="none" xmlns="http://www.w3.org/2000/svg">
<path d="M34.2308 7.19638C32.995 7.73846 31.6782 8.09777 30.3054 8.27223C31.7177 7.429 32.7956 6.10392 33.3024 4.50677C31.9856 5.29185 30.5318 5.84638 28.9824 6.15585C27.7321 4.82454 25.9501 4 24.0061 4C20.2344 4 17.1979 7.06138 17.1979 10.8144C17.1979 11.3544 17.2436 11.8736 17.3558 12.3679C11.692 12.0917 6.68039 9.37715 3.31369 5.242C2.72592 6.26177 2.38115 7.429 2.38115 8.68554C2.38115 11.0449 3.59615 13.1364 5.40723 14.3472C4.31269 14.3265 3.23892 14.0087 2.32923 13.5082C2.32923 13.5289 2.32923 13.5559 2.32923 13.5829C2.32923 16.8935 4.69069 19.6434 7.78739 20.2768C7.23285 20.4285 6.62846 20.5012 6.00123 20.5012C5.56508 20.5012 5.12477 20.4762 4.71146 20.3848C5.59415 23.0828 8.09892 25.0662 11.0772 25.1306C8.75939 26.9438 5.81639 28.0362 2.63038 28.0362C2.07169 28.0362 1.53585 28.0113 1 27.9428C4.01777 29.8888 7.59423 31 11.4511 31C23.9874 31 30.8412 20.6154 30.8412 11.614C30.8412 11.3128 30.8309 11.0221 30.8163 10.7334C32.1684 9.77385 33.3045 8.57546 34.2308 7.19638Z" fill="#3D63F3"/>
</svg>
