<svg width="482" height="219" viewBox="0 0 482 219" fill="none" xmlns="http://www.w3.org/2000/svg">
<mask id="mask0" style="mask-type:alpha" maskUnits="userSpaceOnUse" x="0" y="0" width="482" height="219">
<rect width="482" height="219" fill="#9BCB12"/>
</mask>
<g mask="url(#mask0)">
<path d="M216.27 189.961C217.289 190.331 218.264 190.816 219.174 191.405C220.981 192.418 223.573 193.938 226.772 195.77L226.983 195.896V196.15C227.253 198.868 227.566 201.983 227.895 205.36V205.673L227.659 205.875L218.668 213.895L218.296 214.216L217.882 213.963L207.752 207.699L207.481 207.538V207.226C207.228 203.849 206.992 200.717 206.781 197.99V197.728L206.966 197.568C209.778 195.162 212.083 193.22 213.72 191.903C214.517 191.156 215.398 190.504 216.346 189.961C215.694 190.838 214.94 191.635 214.1 192.334C212.598 193.777 210.386 195.829 207.659 198.328C207.709 198.193 207.76 198.058 207.828 197.906C208.098 200.616 208.402 203.731 208.739 207.125L208.452 206.652L218.668 212.84L217.882 212.908L226.941 204.955C226.865 205.132 226.797 205.318 226.73 205.47C226.477 202.093 226.24 198.961 226.038 196.243L226.274 196.631C223.184 194.664 220.677 193.043 218.955 191.886C217.982 191.361 217.08 190.714 216.27 189.961Z" fill="white"/>
<path d="M208.055 207.175C207.811 206.904 211.188 203.519 215.594 199.619L216.641 198.698C216.565 198.884 216.498 199.061 216.422 199.239C216.008 194.03 215.932 189.994 216.27 189.952C216.608 189.91 217.224 193.912 217.73 199.121V199.441L217.486 199.669L216.439 200.598C212.066 204.498 208.292 207.445 208.055 207.175Z" fill="white"/>
<path d="M217.072 199.188C217.266 198.876 219.706 200.033 222.517 201.721C225.328 203.409 227.456 205.098 227.27 205.402C227.084 205.706 224.645 204.558 221.825 202.869C219.005 201.181 216.886 199.492 217.072 199.188Z" fill="white"/>
<path d="M445.344 119.155C446.104 117.707 446.967 116.316 447.927 114.993C449.666 112.367 452.207 108.619 455.348 104.018L455.491 103.807H455.753L469.784 103.376H470.088L470.282 103.629L481.527 118.032L481.831 118.412L481.544 118.817L471.127 133.608L470.949 133.87H470.645L456.597 134.098H456.336L456.184 133.903C452.807 129.429 450.046 125.774 448.172 123.224C447.133 121.942 446.196 120.582 445.369 119.155C446.548 120.309 447.635 121.554 448.619 122.878C450.629 125.318 453.491 128.88 456.986 133.279L456.572 133.085L470.612 132.637L470.122 132.899C473.33 128.315 476.876 123.3 480.489 118.057C480.489 118.311 480.489 118.572 480.489 118.842C476.53 113.777 472.756 108.847 469.311 104.389L469.81 104.626L455.778 104.845L456.175 104.634C452.933 109.142 450.266 112.806 448.391 115.322C447.48 116.679 446.461 117.961 445.344 119.155Z" fill="white"/>
<path d="M470.603 133.253C470.316 133.481 465.639 127.952 460.16 120.911L458.868 119.222L459.392 119.476C451.464 119.619 445.352 119.475 445.344 119.146C445.335 118.817 451.431 118.395 459.366 118.167H459.696L459.898 118.429L461.207 120.117C466.677 127.141 470.89 133.034 470.603 133.253Z" fill="white"/>
<path d="M459.383 118.809C459.079 118.606 461.173 115.111 464.051 111.016C466.93 106.922 469.497 103.781 469.792 103.984C470.088 104.187 468.002 107.682 465.124 111.776C462.245 115.871 459.678 119.037 459.383 118.809Z" fill="white"/>
<path d="M313.466 191.674C314.075 191.181 314.725 190.74 315.408 190.357C316.708 189.513 318.633 188.339 321.107 186.828C326.062 183.798 333.23 179.475 342.035 174.165L342.255 174.038L342.491 174.131L366.442 184.194L366.729 184.312L366.805 184.616C369.253 194.747 371.938 205.832 374.741 217.44L374.85 217.913L374.428 218.166L345.598 235.169L345.336 235.312L345.049 235.194L321.183 224.962L320.946 224.861L320.887 224.616C318.523 214.485 316.615 206.288 315.332 200.581C314.69 197.727 314.201 195.515 313.888 193.987C313.689 193.223 313.553 192.444 313.483 191.657C313.777 192.391 314.008 193.148 314.175 193.92C314.581 195.406 315.163 197.609 315.864 200.446C317.316 206.111 319.359 214.308 321.85 224.38C321.748 224.27 321.655 224.152 321.554 224.025L345.505 234.055L344.948 234.097L373.736 217.01L373.432 217.736C370.654 206.111 368.004 195.009 365.581 184.887L365.944 185.309L342.094 175.085H342.55C333.686 180.26 326.442 184.448 321.394 187.335C318.861 188.77 316.902 189.868 315.56 190.627C314.892 191.034 314.192 191.384 313.466 191.674Z" fill="white"/>
<path d="M345.268 234.637C345.091 234.688 344.145 231.471 342.735 226.245C341.325 221.02 339.527 213.785 337.594 205.764C337.282 204.464 336.978 203.173 336.682 201.957L337.062 202.404C330.308 199.525 324.399 196.917 320.177 194.992C315.956 193.067 313.424 191.826 313.466 191.674C313.508 191.522 316.184 192.518 320.515 194.207C324.846 195.895 330.849 198.377 337.602 201.214L337.906 201.341L337.982 201.661C338.286 202.886 338.59 204.194 338.911 205.477C340.844 213.489 342.524 220.766 343.672 226.043C344.821 231.319 345.445 234.595 345.268 234.637Z" fill="white"/>
<path d="M337.35 201.805C337.164 201.493 343.47 197.415 351.431 192.713C359.393 188.01 365.994 184.448 366.18 184.76C366.366 185.072 360.06 189.141 352.098 193.852C344.137 198.563 337.535 202.117 337.35 201.805Z" fill="white"/>
<path d="M327.86 12.9673L336.362 46.1541L307.033 63.7141L298.532 30.5273L327.86 12.9673Z" fill="#555A78"/>
<path d="M307.033 63.7141L282.433 53.7015L273.931 20.5148L298.532 30.5274L307.033 63.7141Z" fill="#C2C7E5"/>
<path d="M298.532 30.5274L273.931 20.5148L303.259 2.95483L327.86 12.9674L298.532 30.5274Z" fill="white"/>
<path d="M354.42 107.943L362.921 141.13L333.593 158.69L325.091 125.503L354.42 107.943Z" fill="#555A78"/>
<path d="M333.593 158.69L308.992 148.677L300.49 115.491L325.091 125.503L333.593 158.69Z" fill="#C2C7E5"/>
<path d="M325.091 125.503L300.49 115.491L329.819 97.9308L354.42 107.943L325.091 125.503Z" fill="white"/>
<path d="M283.505 150.155L292.006 183.342L262.678 200.902L254.176 167.715L283.505 150.155Z" fill="#555A78"/>
<path d="M262.677 200.902L238.077 190.889L229.575 157.702L254.176 167.715L262.677 200.902Z" fill="#C2C7E5"/>
<path d="M254.176 167.715L229.575 157.702L258.904 140.142L283.505 150.155L254.176 167.715Z" fill="white"/>
<path d="M440.532 142.557L449.033 175.744L419.705 193.304L411.203 160.117L440.532 142.557Z" fill="#555A78"/>
<path d="M419.704 193.304L395.103 183.291L386.602 150.104L411.203 160.117L419.704 193.304Z" fill="#C2C7E5"/>
<path d="M411.203 160.117L386.603 150.104L415.931 132.544L440.532 142.557L411.203 160.117Z" fill="white"/>
<path d="M293.044 43.8155C293.137 43.9675 291.018 45.3858 287.523 47.547C284.028 49.7083 279.148 52.6124 273.72 55.7614C268.292 58.9104 263.336 61.671 259.714 63.6381C256.092 65.6051 253.805 66.728 253.72 66.5676C253.636 66.4072 255.746 64.9973 259.25 62.8361C262.753 60.6748 267.625 57.7707 273.053 54.6217C278.481 51.4727 283.437 48.7121 287.059 46.745C290.681 44.778 292.994 43.672 293.044 43.8155Z" fill="white"/>
<path d="M317.476 135.482C317.569 135.643 315.695 136.909 312.605 138.859C309.515 140.809 305.193 143.367 300.381 146.153C295.569 148.939 291.17 151.396 287.954 153.118C284.737 154.84 282.711 155.828 282.618 155.651C282.525 155.474 284.391 154.224 287.489 152.274C290.588 150.324 294.902 147.757 299.722 144.971C304.543 142.185 308.924 139.729 312.141 138.006C315.357 136.284 317.358 135.322 317.476 135.482Z" fill="white"/>
<path d="M404.432 175.085C404.525 175.237 402.583 176.554 399.367 178.555C396.15 180.556 391.667 183.24 386.703 186.153C381.739 189.066 377.138 191.607 373.804 193.396C370.469 195.186 368.358 196.225 368.265 196.064C368.173 195.904 370.123 194.587 373.331 192.594C376.539 190.602 381.039 187.909 386.036 184.996C391.034 182.084 395.602 179.551 398.936 177.753C402.271 175.955 404.373 174.925 404.432 175.085Z" fill="white"/>
<path d="M327.86 111.059C327.683 111.101 326.822 108.214 325.573 103.511C324.323 98.8088 322.668 92.2913 320.938 85.0731C319.207 77.855 317.704 71.3037 316.717 66.5423C315.729 61.7808 315.146 58.826 315.324 58.7838C315.501 58.7416 316.37 61.6288 317.62 66.3312C318.869 71.0336 320.516 77.551 322.255 84.7692C323.994 91.9874 325.488 98.5302 326.476 103.292C327.464 108.053 328.038 111.016 327.86 111.059Z" fill="white"/>
<path d="M251.778 153.262C251.609 153.304 250.765 150.501 249.549 145.951C248.334 141.4 246.738 135.085 245.058 128.095C243.378 121.105 241.926 114.765 240.938 110.155C239.951 105.546 239.427 102.675 239.604 102.633C239.782 102.591 240.626 105.377 241.842 109.936C243.057 114.494 244.653 120.801 246.333 127.791C248.013 134.781 249.465 141.122 250.453 145.731C251.441 150.341 251.956 153.211 251.778 153.262Z" fill="white"/>
<path d="M289.06 242.269C288.891 242.312 288.047 239.509 286.831 234.958C285.616 230.408 284.02 224.093 282.34 217.103C280.66 210.113 279.208 203.772 278.22 199.163C277.232 194.553 276.709 191.683 276.886 191.641C277.063 191.599 277.908 194.385 279.123 198.943C280.339 203.502 281.935 209.809 283.615 216.799C285.295 223.789 286.747 230.129 287.735 234.739C288.722 239.348 289.237 242.219 289.06 242.269Z" fill="white"/>
<path d="M445.243 230.45C445.074 230.492 444.23 227.69 443.014 223.139C441.798 218.589 440.203 212.274 438.523 205.284C436.843 198.293 435.39 191.953 434.403 187.344C433.415 182.734 432.892 179.864 433.069 179.822C433.246 179.779 434.09 182.565 435.306 187.124C436.522 191.683 438.117 197.99 439.797 204.98C441.477 211.97 442.929 218.31 443.917 222.92C444.905 227.529 445.42 230.4 445.243 230.45Z" fill="white"/>
<path d="M414.343 145.672C414.166 145.714 413.356 143.072 412.199 138.758C411.042 134.444 409.523 128.467 407.936 121.873C406.349 115.28 404.972 109.21 404.044 104.87C403.115 100.531 402.634 97.7788 402.811 97.7366C402.989 97.6944 403.791 100.345 404.947 104.651C406.104 108.956 407.623 114.942 409.219 121.535C410.815 128.129 412.174 134.199 413.102 138.53C414.031 142.861 414.563 145.63 414.343 145.672Z" fill="white"/>
<path d="M314.539 193.396C314.463 193.565 312.006 192.552 307.988 190.864C303.969 189.175 298.549 186.643 292.555 183.89C286.561 181.138 281.158 178.496 277.283 176.562C273.408 174.629 271.044 173.346 271.12 173.185C271.196 173.025 273.695 174.03 277.68 175.718C281.664 177.407 287.118 179.897 293.112 182.692C299.106 185.486 304.501 188.078 308.384 190.019C312.268 191.961 314.623 193.236 314.539 193.396Z" fill="white"/>
<path d="M388.155 149.378C388.088 149.547 385.58 148.669 381.587 147.124C377.594 145.579 372.115 143.359 366.096 140.826C360.076 138.293 354.648 135.938 350.756 134.174C346.864 132.409 344.475 131.236 344.542 131.067C344.61 130.898 347.117 131.768 351.111 133.312C355.104 134.857 360.583 137.086 366.602 139.61C372.622 142.135 378.05 144.499 381.95 146.263C385.851 148.027 388.223 149.201 388.155 149.378Z" fill="white"/>
<path d="M345.707 131.067C345.707 131.322 345.632 131.572 345.49 131.784C345.348 131.997 345.146 132.162 344.91 132.26C344.674 132.358 344.414 132.384 344.164 132.334C343.913 132.284 343.683 132.161 343.502 131.98C343.322 131.8 343.199 131.569 343.149 131.319C343.099 131.068 343.125 130.809 343.222 130.573C343.32 130.337 343.486 130.135 343.698 129.993C343.91 129.851 344.16 129.775 344.416 129.775C344.758 129.775 345.087 129.911 345.329 130.153C345.571 130.396 345.707 130.724 345.707 131.067Z" fill="white"/>
<path d="M329.152 111.059C329.152 111.314 329.076 111.564 328.934 111.776C328.793 111.989 328.591 112.154 328.355 112.252C328.119 112.35 327.859 112.375 327.609 112.325C327.358 112.276 327.128 112.153 326.947 111.972C326.767 111.791 326.644 111.561 326.594 111.311C326.544 111.06 326.569 110.8 326.667 110.564C326.765 110.328 326.93 110.127 327.143 109.985C327.355 109.843 327.605 109.767 327.861 109.767C328.203 109.767 328.532 109.903 328.774 110.145C329.016 110.387 329.152 110.716 329.152 111.059Z" fill="white"/>
<path d="M318.743 135.482C318.743 135.738 318.667 135.987 318.525 136.2C318.383 136.412 318.181 136.578 317.945 136.676C317.709 136.773 317.449 136.799 317.199 136.749C316.948 136.699 316.718 136.576 316.538 136.396C316.357 136.215 316.234 135.985 316.184 135.734C316.134 135.484 316.16 135.224 316.258 134.988C316.355 134.752 316.521 134.55 316.733 134.408C316.946 134.266 317.195 134.19 317.451 134.19C317.793 134.193 318.12 134.329 318.362 134.571C318.604 134.813 318.74 135.14 318.743 135.482Z" fill="white"/>
<path d="M273.087 173.177C273.087 173.433 273.011 173.683 272.868 173.896C272.726 174.108 272.524 174.274 272.287 174.371C272.051 174.469 271.791 174.494 271.54 174.443C271.289 174.393 271.059 174.269 270.879 174.087C270.698 173.906 270.576 173.675 270.527 173.424C270.478 173.173 270.505 172.913 270.604 172.677C270.703 172.441 270.87 172.24 271.084 172.099C271.297 171.958 271.548 171.884 271.804 171.885C272.145 171.888 272.471 172.025 272.711 172.267C272.952 172.509 273.087 172.836 273.087 173.177Z" fill="white"/>
<path d="M253.07 153.262C253.07 153.517 252.994 153.767 252.852 153.979C252.711 154.192 252.509 154.357 252.273 154.455C252.037 154.553 251.777 154.578 251.526 154.529C251.276 154.479 251.046 154.356 250.865 154.175C250.684 153.994 250.561 153.764 250.512 153.514C250.462 153.263 250.487 153.003 250.585 152.767C250.683 152.531 250.848 152.33 251.061 152.188C251.273 152.046 251.523 151.97 251.778 151.97C251.948 151.969 252.117 152.002 252.274 152.066C252.431 152.131 252.574 152.226 252.694 152.346C252.814 152.466 252.91 152.609 252.974 152.766C253.039 152.923 253.071 153.092 253.07 153.262Z" fill="white"/>
<path d="M415.626 145.672C415.628 145.928 415.553 146.179 415.412 146.393C415.271 146.607 415.069 146.773 414.833 146.872C414.596 146.971 414.336 146.997 414.085 146.948C413.833 146.898 413.602 146.775 413.421 146.594C413.24 146.413 413.117 146.182 413.067 145.93C413.018 145.679 413.044 145.419 413.143 145.182C413.242 144.946 413.409 144.744 413.622 144.603C413.836 144.462 414.087 144.387 414.343 144.389C414.683 144.391 415.008 144.527 415.248 144.767C415.488 145.007 415.624 145.332 415.626 145.672Z" fill="white"/>
<path d="M294.336 44.2377C294.336 44.4932 294.26 44.7429 294.118 44.9553C293.976 45.1677 293.774 45.3333 293.538 45.4311C293.302 45.5288 293.043 45.5544 292.792 45.5046C292.542 45.4547 292.311 45.3317 292.131 45.1511C291.95 44.9704 291.827 44.7403 291.777 44.4897C291.727 44.2392 291.753 43.9794 291.851 43.7434C291.949 43.5074 292.114 43.3057 292.327 43.1637C292.539 43.0218 292.789 42.946 293.044 42.946C293.387 42.946 293.715 43.0821 293.957 43.3244C294.2 43.5666 294.336 43.8951 294.336 44.2377Z" fill="white"/>
<path d="M405.757 175.085C405.757 175.34 405.681 175.59 405.539 175.803C405.398 176.015 405.196 176.181 404.96 176.278C404.724 176.376 404.464 176.402 404.213 176.352C403.963 176.302 403.733 176.179 403.552 175.998C403.371 175.818 403.248 175.588 403.199 175.337C403.149 175.086 403.174 174.827 403.272 174.591C403.37 174.355 403.535 174.153 403.748 174.011C403.96 173.869 404.21 173.793 404.465 173.793C404.808 173.793 405.137 173.929 405.379 174.172C405.621 174.414 405.757 174.742 405.757 175.085Z" fill="white"/>
<path d="M198.719 64.457C199.328 63.9637 199.978 63.5231 200.661 63.14C201.961 62.2957 203.886 61.1307 206.36 59.6111C211.315 56.5803 218.483 52.2578 227.288 46.9476L227.508 46.821L227.744 46.9223L251.669 56.9433L251.956 57.0615L252.032 57.3654C254.472 67.4962 257.165 78.581 259.968 90.1891L260.086 90.6619L259.664 90.9067L230.834 107.91L230.564 108.07L230.285 107.952L206.419 97.7197L206.182 97.6183L206.123 97.3735C203.751 87.2428 201.851 79.0453 200.568 73.3383C199.926 70.4848 199.437 68.2729 199.124 66.7448C198.924 65.9809 198.788 65.2015 198.719 64.4148C199.008 65.15 199.239 65.9064 199.412 66.6773C199.817 68.1716 200.399 70.375 201.1 73.2032C202.552 78.868 204.595 87.0655 207.077 97.1371L206.79 96.791L230.741 106.82H230.184L258.972 89.7417L258.66 90.4593C255.882 78.8427 253.231 67.7326 250.808 57.6103L251.163 58.0324L227.347 47.8932H227.803C218.939 53.0683 211.687 57.2641 206.647 60.1429C204.114 61.5866 202.155 62.6756 200.813 63.4355C200.147 63.8378 199.446 64.1796 198.719 64.457Z" fill="white"/>
<path d="M230.521 107.428C230.343 107.428 229.398 104.254 227.988 99.0366C226.578 93.8193 224.78 86.5673 222.847 78.5556C222.534 77.247 222.222 75.9638 221.935 74.7396L222.315 75.1871C215.561 72.3083 209.651 69.6996 205.388 67.7747C201.125 65.8499 198.634 64.6173 198.685 64.4569C198.735 64.2965 201.403 65.3011 205.734 66.9896C210.065 68.6781 216.068 71.1601 222.821 74.0052L223.125 74.1318L223.201 74.4526L224.13 78.2601C226.063 86.2718 227.743 93.5491 228.891 98.834C230.04 104.119 230.698 107.386 230.521 107.428Z" fill="white"/>
<path d="M222.602 74.5879C222.416 74.2755 228.723 70.2063 236.684 65.4955C244.645 60.7847 251.247 57.2305 251.433 57.5429C251.618 57.8552 245.312 61.9244 237.351 66.6352C229.39 71.346 222.788 74.9087 222.602 74.5879Z" fill="white"/>
<path d="M366.526 56.5297C367.139 56.0381 367.791 55.5976 368.476 55.2127C369.768 54.3685 371.693 53.2035 374.175 51.6838C379.122 48.6615 386.298 44.3306 395.103 39.0204L395.314 38.8937L395.551 38.9951L419.484 49.0161L419.771 49.1343L419.839 49.4382L427.783 82.2619L427.893 82.7346L427.479 82.9795L398.649 99.9907L398.379 100.143L398.092 100.024L374.225 89.7924L373.989 89.6911L373.93 89.4463C371.566 79.3155 369.666 71.118 368.383 65.411C367.742 62.5575 367.252 60.3456 366.94 58.8176C366.735 58.0543 366.596 57.2747 366.526 56.4875C366.82 57.2214 367.055 57.9781 367.227 58.75C367.632 60.2443 368.206 62.4478 368.915 65.2759C370.367 70.9492 372.419 79.1382 374.901 89.2099L374.605 88.8638L398.556 98.8932H397.999L426.787 81.8144L426.483 82.532C423.706 70.9154 421.046 59.8053 418.632 49.683C418.75 49.835 418.877 49.9785 418.986 50.1051L395.145 39.9575H395.601C386.728 45.1326 379.485 49.3284 374.445 52.2073C371.912 53.6509 369.953 54.7399 368.603 55.4998C367.943 55.9059 367.248 56.2506 366.526 56.5297Z" fill="white"/>
<path d="M398.337 99.501C398.16 99.5432 397.214 96.3352 395.804 91.1094C394.394 85.8836 392.596 78.6401 390.663 70.6283C390.35 69.3198 390.047 68.0365 389.751 66.8124L390.131 67.2598C383.377 64.381 377.467 61.7723 373.246 59.8559C369.025 57.9395 366.492 56.6901 366.535 56.5297C366.577 56.3693 369.262 57.3739 373.584 59.0624C377.906 60.7508 383.917 63.2329 390.68 66.0779L390.984 66.2046L391.06 66.5254C391.355 67.7411 391.667 69.0581 391.98 70.3328C393.913 78.3446 395.593 85.6219 396.741 90.9067C397.889 96.1916 398.523 99.4588 398.337 99.501Z" fill="white"/>
<path d="M390.418 66.6604C390.232 66.3481 396.53 62.2789 404.491 57.5681C412.452 52.8573 419.054 49.3031 419.24 49.6154C419.425 49.9278 413.127 53.997 405.166 58.7078C397.205 63.4186 390.595 66.9728 390.418 66.6604Z" fill="white"/>
<path d="M177.773 10.1308C178.825 10.4187 179.84 10.8296 180.795 11.3549C182.695 12.1992 185.405 13.5331 188.714 15.154L188.934 15.2637L188.985 15.5254C189.457 18.227 190.006 21.3253 190.605 24.7022L190.656 25.0061L190.437 25.2341L181.994 33.9634L181.657 34.318L181.226 34.0901L170.572 28.5857L170.293 28.4422L170.243 28.1382C169.728 24.7613 169.246 21.6377 168.833 18.9192L168.791 18.6575L168.968 18.4802C171.61 15.8547 173.771 13.7272 175.3 12.2836C176.041 11.4723 176.874 10.7499 177.782 10.1308C177.191 11.0533 176.494 11.9033 175.705 12.6635C174.303 14.2338 172.252 16.4625 169.694 19.181C169.744 19.0374 169.787 18.9024 169.829 18.742L171.416 27.9356C171.306 27.7921 171.205 27.6401 171.087 27.4882L181.817 32.9166L181.04 33.0432L189.525 24.373C189.466 24.5587 189.407 24.736 189.356 24.9048C188.841 21.5279 188.368 18.4043 187.946 15.6858L188.216 16.0573C184.966 14.3688 182.307 12.8914 180.5 11.8361C179.528 11.3762 178.612 10.8038 177.773 10.1308Z" fill="white"/>
<path d="M170.842 28.0369C170.58 27.7836 173.712 24.1281 177.832 19.8732L178.82 18.8685L178.643 19.4342C177.798 14.2253 177.444 10.1476 177.798 10.1476C178.153 10.1476 179.014 14.0311 179.934 19.1809L179.985 19.5102L179.757 19.7465L178.778 20.7596C174.658 25.0905 171.104 28.2902 170.842 28.0369Z" fill="white"/>
<path d="M179.284 19.3244C179.453 19.0036 181.985 19.966 184.94 21.4772C187.895 22.9883 190.166 24.4742 190.006 24.8034C189.845 25.1327 187.304 24.1618 184.349 22.6506C181.394 21.1395 179.123 19.6536 179.284 19.3244Z" fill="white"/>
<path d="M103.11 82.0271C103.387 83.0822 103.538 84.1662 103.561 85.2566C103.78 87.3238 103.979 90.3376 104.23 94.0141L104.245 94.2591L104.044 94.4338C101.941 96.194 99.5317 98.2184 96.9069 100.426L96.669 100.622L96.3619 100.546L84.5809 97.5991L84.1049 97.4839L84.0871 96.9971L83.5269 85.0181L83.5119 84.7051L83.7498 84.5092C86.4168 82.3748 88.8813 80.3962 91.0287 78.6788L91.2343 78.5113L91.4765 78.5762C95.0715 79.5519 97.9945 80.3598 100.009 80.9614C101.082 81.1976 102.124 81.5577 103.114 82.0345C102.02 81.9839 100.935 81.8053 99.8824 81.5022C97.8218 81.0737 94.8659 80.4114 91.2326 79.5554C91.3823 79.5275 91.5203 79.4965 91.6804 79.4528L84.512 85.4242C84.5814 85.2574 84.6624 85.0937 84.7349 84.9153L85.3988 96.9221L84.9008 96.3128L96.6517 99.3255C96.4613 99.3672 96.2782 99.4047 96.1067 99.4452C98.7737 97.3108 101.242 95.3395 103.386 93.6147L103.199 94.0344C103.036 90.3754 102.986 87.3336 102.997 85.2414C102.909 84.1692 102.947 83.0904 103.11 82.0271Z" fill="white"/>
<path d="M84.1372 84.9778C84.2256 84.6245 88.9575 85.5092 94.7023 86.9496L96.0662 87.3027L95.4877 87.432C99.5766 84.0964 102.931 81.7505 103.108 82.0576C103.285 82.3647 100.353 85.0521 96.3528 88.424L96.093 88.6325L95.7744 88.5533L94.4073 88.2117C88.5967 86.8093 84.0487 85.331 84.1372 84.9778Z" fill="white"/>
<path d="M95.9037 87.9327C96.266 87.9185 96.6988 90.5931 96.8675 93.9076C97.0362 97.2221 96.8849 99.9318 96.5196 99.9575C96.1542 99.9832 95.7245 97.2971 95.5558 93.9825C95.3871 90.668 95.5384 87.9584 95.9037 87.9327Z" fill="white"/>
<path d="M127.458 150.18C128.067 149.687 128.716 149.246 129.4 148.863C130.7 148.019 132.625 146.854 135.098 145.334C140.054 142.304 147.221 137.981 156.027 132.671L156.246 132.544L156.483 132.646L180.408 142.667L180.695 142.785L180.771 143.089C183.211 153.219 185.904 164.304 188.707 175.912L188.825 176.385L188.403 176.63L159.573 193.633L159.302 193.793L159.024 193.675L135.157 183.443L134.921 183.342L134.862 183.097C132.49 172.966 130.59 164.769 129.307 159.062C128.665 156.208 128.176 153.996 127.863 152.468C127.663 151.704 127.527 150.925 127.458 150.138C127.747 150.873 127.978 151.63 128.15 152.401C128.556 153.895 129.138 156.098 129.839 158.926C131.291 164.591 133.334 172.789 135.816 182.86L135.529 182.514L159.48 192.544H158.923L187.711 175.465L187.398 176.183C184.621 164.566 181.97 153.456 179.547 143.334L179.902 143.756L156.086 133.616H156.542C147.677 138.792 140.425 142.987 135.385 145.866C132.853 147.31 130.894 148.399 129.552 149.159C128.886 149.561 128.185 149.903 127.458 150.18Z" fill="white"/>
<path d="M159.26 193.152C159.083 193.152 158.137 189.977 156.727 184.76C155.317 179.543 153.519 172.291 151.586 164.279C151.274 162.97 150.961 161.687 150.674 160.463L151.054 160.91C144.3 158.032 138.391 155.423 134.127 153.498C129.864 151.573 127.373 150.341 127.424 150.18C127.475 150.02 130.143 151.024 134.473 152.713C138.804 154.401 144.807 156.883 151.561 159.728L151.865 159.855L151.941 160.176L152.869 163.983C154.802 171.995 156.483 179.272 157.631 184.557C158.779 189.842 159.437 193.109 159.26 193.152Z" fill="white"/>
<path d="M151.341 160.311C151.156 159.999 157.462 155.93 165.423 151.219C173.384 146.508 179.986 142.954 180.172 143.266C180.358 143.578 174.051 147.648 166.09 152.358C158.129 157.069 151.527 160.632 151.341 160.311Z" fill="white"/>
</g>
</svg>
