<svg width="42" height="42" viewBox="0 0 42 42" fill="none" xmlns="http://www.w3.org/2000/svg">
<g clip-path="url(#clip0_758:20)">
<path d="M16.5789 37.579C23.2945 37.579 28.7368 32.1367 28.7368 25.4211C28.7368 18.7055 23.2945 13.2632 16.5789 13.2632C9.86337 13.2632 4.42105 18.7055 4.42105 25.4211C4.42105 32.1367 9.86337 37.579 16.5789 37.579ZM16.5789 42.0001C7.42295 42.0001 0 34.5771 0 25.4211C0 16.2651 7.42295 8.84216 16.5789 8.84216C25.735 8.84216 33.1579 16.2651 33.1579 25.4211C33.1579 34.5771 25.735 42.0001 16.5789 42.0001Z" fill="#FBCC5C"/>
<path d="M25.421 28.7368C32.1366 28.7368 37.5789 23.2945 37.5789 16.5789C37.5789 9.86337 32.1366 4.42105 25.421 4.42105C18.7054 4.42105 13.2631 9.86337 13.2631 16.5789C13.2631 23.2945 18.7054 28.7368 25.421 28.7368ZM25.421 33.1579C16.265 33.1579 8.84204 25.735 8.84204 16.5789C8.84204 7.42295 16.265 0 25.421 0C34.577 0 41.9999 7.42295 41.9999 16.5789C41.9999 25.735 34.577 33.1579 25.421 33.1579Z" fill="#35D07F"/>
<path d="M25.9692 33.1579C27.1187 31.7653 27.941 30.1339 28.3787 28.3788C30.1294 27.9411 31.7608 27.1188 33.1578 25.9693C33.0959 27.9986 32.6583 29.9969 31.8669 31.8714C29.9968 32.6584 27.9985 33.096 25.9692 33.1579ZM13.6212 13.6213C11.8705 14.059 10.2391 14.8813 8.84204 16.0308C8.90394 14.0015 9.34162 12.0032 10.133 10.1331C12.0031 9.34616 14.0058 8.90848 16.0307 8.84216C14.8812 10.2348 14.0589 11.8662 13.6212 13.6213Z" fill="#5EA33B"/>
</g>
<defs>
<clipPath id="clip0_758:20">
<rect width="42" height="42" fill="white"/>
</clipPath>
</defs>
</svg>
