<svg width="20" height="20" viewBox="0 0 20 20" fill="none" xmlns="http://www.w3.org/2000/svg">
<mask id="mask0" style="mask-type:alpha" maskUnits="userSpaceOnUse" x="0" y="0" width="20" height="20">
<circle cx="10" cy="10" r="10" fill="#C4C4C4"/>
</mask>
<g mask="url(#mask0)">
<path d="M57.1212 -8.17969H-19.9988V32.5634H57.1212V-8.17969Z" fill="#F0F4F8"/>
<path d="M57.0573 -2.02875H-19.998V1.19414H57.0573V-2.02875Z" fill="#B22234"/>
<path d="M57.0573 4.27557H-19.998V7.49845H57.0573V4.27557Z" fill="#B22234"/>
<path d="M57.0573 10.5798H-19.998V13.8027H57.0573V10.5798Z" fill="#B22234"/>
<path d="M57.0573 16.8836H-19.998V20.1065H57.0573V16.8836Z" fill="#B22234"/>
<path d="M10.7752 -8.33334H-20V13.8035H10.7752V-8.33334Z" fill="#3C3B6E"/>
<path d="M0.578568 -0.776123L0.8669 0.127332H1.79894L1.04478 0.685982L1.33273 1.58944L0.578568 1.03118L-0.175204 1.58944L0.11274 0.685982L-0.641418 0.127332H0.290624L0.578568 -0.776123Z" fill="white"/>
<path d="M0.578568 3.6618L0.8669 4.56526H1.79894L1.04478 5.12391L1.33273 6.02736L0.578568 5.4691L-0.175204 6.02736L0.11274 5.12391L-0.641418 4.56526H0.290624L0.578568 3.6618Z" fill="white"/>
<path d="M0.578568 8.09967L0.8669 9.00313H1.79894L1.04478 9.56177L1.33273 10.4652L0.578568 9.90697L-0.175204 10.4652L0.11274 9.56177L-0.641418 9.00313H0.290624L0.578568 8.09967Z" fill="white"/>
<path d="M5.72015 -0.776123L6.00848 0.127332H6.94014L6.18637 0.685982L6.47431 1.58944L5.72015 1.03118L4.96638 1.58944L5.25432 0.685982L4.50055 0.127332H5.43259L5.72015 -0.776123Z" fill="white"/>
<path d="M5.72015 3.6618L6.00848 4.56526H6.94014L6.18637 5.12391L6.47431 6.02736L5.72015 5.4691L4.96638 6.02736L5.25432 5.12391L4.50055 4.56526H5.43259L5.72015 3.6618Z" fill="white"/>
<path d="M5.72015 8.09967L6.00848 9.00313H6.94014L6.18637 9.56177L6.47431 10.4652L5.72015 9.90697L4.96638 10.4652L5.25432 9.56177L4.50055 9.00313H5.43259L5.72015 8.09967Z" fill="white"/>
<path d="M3.11541 1.39044L3.40335 2.2939H4.33539L3.58123 2.85255L3.86918 3.756L3.11541 3.19735L2.36124 3.756L2.64919 2.85255L1.89542 2.2939H2.82707L3.11541 1.39044Z" fill="white"/>
<path d="M3.11541 5.82837L3.40335 6.73182H4.33539L3.58123 7.29047L3.86918 8.19393L3.11541 7.63567L2.36124 8.19393L2.64919 7.29047L1.89542 6.73182H2.82707L3.11541 5.82837Z" fill="white"/>
<path d="M3.11541 10.2663L3.40335 11.1697H4.33539L3.58123 11.7284L3.86918 12.6318L3.11541 12.0736L2.36124 12.6318L2.64919 11.7284L1.89542 11.1697H2.82707L3.11541 10.2663Z" fill="white"/>
<path d="M8.32515 1.39044L8.61348 2.2939H9.54553L8.79137 2.85255L9.07931 3.756L8.32515 3.19735L7.57138 3.756L7.85932 2.85255L7.10516 2.2939H8.03721L8.32515 1.39044Z" fill="white"/>
<path d="M8.32515 5.82837L8.61348 6.73182H9.54553L8.79137 7.29047L9.07931 8.19393L8.32515 7.63567L7.57138 8.19393L7.85932 7.29047L7.10516 6.73182H8.03721L8.32515 5.82837Z" fill="white"/>
<path d="M8.32515 10.2663L8.61348 11.1697H9.54553L8.79137 11.7284L9.07931 12.6318L8.32515 12.0736L7.57138 12.6318L7.85932 11.7284L7.10516 11.1697H8.03721L8.32515 10.2663Z" fill="white"/>
</g>
</svg>
