<svg width="29" height="28" viewBox="0 0 29 28" fill="none" xmlns="http://www.w3.org/2000/svg">
<path d="M21.0907 3.2479C21.976 3.2479 22.6953 2.51895 22.6953 1.62337C22.6953 0.727799 21.976 0 21.0907 0C20.2054 0.00462829 19.4861 0.732427 19.4861 1.628C19.4861 2.52358 20.2054 3.2479 21.0907 3.2479ZM21.5641 7.4689C21.9272 7.46615 22.2743 7.31967 22.5291 7.06169C22.7839 6.80371 22.9255 6.45536 22.9227 6.09326C22.9227 5.33653 22.3147 4.7175 21.5641 4.7175C20.8134 4.7175 20.2054 5.33191 20.2054 6.09326C20.2054 6.85461 20.8122 7.4689 21.5641 7.4689ZM25.2942 8.00694C26.0414 8.00694 26.6494 7.39254 26.6494 6.63465C26.6494 5.87677 26.0414 5.26237 25.2942 5.26237C24.547 5.26237 23.9391 5.87677 23.9391 6.63465C23.9391 7.39254 24.5482 8.00694 25.2942 8.00694ZM24.8464 11.6182C25.4868 11.6182 26.0054 11.0929 26.0054 10.4461C26.0054 9.79925 25.4868 9.27394 24.8464 9.27394C24.2059 9.27394 23.6873 9.79925 23.6873 10.4461C23.6873 11.0929 24.2059 11.6182 24.8464 11.6182ZM27.8328 12.7891C28.4779 12.7891 29 12.2603 29 11.6089C29 10.9575 28.4779 10.4287 27.8328 10.4287C27.6785 10.4298 27.5258 10.4611 27.3836 10.521C27.2415 10.5809 27.1125 10.6681 27.0041 10.7777C26.8957 10.8873 26.81 11.0171 26.752 11.1597C26.6939 11.3024 26.6645 11.455 26.6656 11.6089C26.6656 12.2603 27.1889 12.7891 27.8328 12.7891ZM21.093 11.1299C21.25 11.129 21.4052 11.0972 21.5498 11.0365C21.6945 10.9758 21.8257 10.8872 21.936 10.7759C22.0463 10.6646 22.1336 10.5327 22.1928 10.3878C22.252 10.2428 22.282 10.0877 22.2811 9.93115V9.92884C22.2811 9.26584 21.7509 8.7278 21.093 8.7278C20.4352 8.7278 19.9049 9.26468 19.9049 9.92884C19.9049 10.5884 20.4363 11.1299 21.093 11.1299ZM20.0163 14.0029C20.5674 14.0029 21.0118 13.5516 21.0118 12.9974C21.014 12.7329 20.9107 12.4784 20.7247 12.2898C20.5387 12.1012 20.2852 11.9941 20.0199 11.9919H20.0163C19.4652 11.9919 19.0208 12.4432 19.0208 12.9974C19.0208 13.5516 19.4652 14.0029 20.0163 14.0029ZM23.7523 14.5108C23.8828 14.51 24.0119 14.4834 24.1322 14.4328C24.2525 14.3821 24.3616 14.3083 24.4533 14.2156C24.545 14.1229 24.6174 14.0131 24.6666 13.8925C24.7157 13.7718 24.7405 13.6427 24.7396 13.5125V13.5101C24.7396 12.957 24.2987 12.5092 23.7523 12.5092C23.2058 12.5092 22.7649 12.957 22.7649 13.5101C22.7632 13.6398 22.7872 13.7686 22.8354 13.8892C22.8836 14.0097 22.9552 14.1195 23.046 14.2124C23.1368 14.3054 23.2451 14.3796 23.3646 14.4308C23.4842 14.482 23.6127 14.5092 23.7428 14.5108H23.7523ZM26.7306 15.6772C27.2817 15.6772 27.7261 15.2259 27.7261 14.6682C27.7261 14.1105 27.2817 13.6592 26.7306 13.6592C26.1795 13.6592 25.7351 14.1105 25.7351 14.6682C25.7323 14.933 25.8351 15.1881 26.0209 15.3773C26.2067 15.5665 26.4603 15.6744 26.7258 15.6772H26.7306ZM25.2594 17.8571C25.7247 17.8571 26.1006 17.4741 26.1006 17.0067C26.1006 16.5392 25.7247 16.1562 25.2594 16.1562C24.7942 16.1562 24.4182 16.5392 24.4182 17.0067C24.4182 17.4741 24.7942 17.8571 25.2594 17.8571ZM22.2672 16.7093C22.7405 16.7093 23.1281 16.3182 23.1281 15.838C23.1281 15.3578 22.744 14.9667 22.2672 14.9667C21.7903 14.9667 21.4063 15.3578 21.4063 15.838C21.4063 16.3182 21.7938 16.7093 22.2672 16.7093ZM18.5359 16.177C18.763 16.1735 18.9796 16.0811 19.139 15.9197C19.2984 15.7583 19.3878 15.5409 19.3879 15.3144C19.3881 15.0879 19.299 14.8704 19.1398 14.7088C18.9806 14.5473 18.7641 14.4545 18.537 14.4507H18.5359C18.3088 14.4542 18.0922 14.5467 17.9328 14.708C17.7734 14.8694 17.684 15.0868 17.6838 15.3133C17.6836 15.5398 17.7728 15.7573 17.9319 15.9189C18.0911 16.0805 18.3076 16.1732 18.5347 16.177H18.5359ZM20.6104 18.2251C21.0222 18.2251 21.3529 17.8872 21.3529 17.4764C21.3548 17.2797 21.2782 17.0904 21.1401 16.95C21.0019 16.8096 20.8135 16.7297 20.6163 16.7278H20.6104C20.1985 16.7278 19.8678 17.0657 19.8678 17.4764C19.8656 17.6728 19.9418 17.862 20.0795 18.0024C20.2172 18.1428 20.4052 18.2229 20.6021 18.2251H20.6104ZM23.6014 19.3925C24.0133 19.3925 24.3521 19.0547 24.3521 18.6358C24.3521 18.217 24.018 17.8791 23.6014 17.8791C23.4002 17.8791 23.2072 17.9588 23.0649 18.1007C22.9226 18.2426 22.8426 18.4351 22.8426 18.6358C22.8426 18.8365 22.9226 19.029 23.0649 19.1709C23.2072 19.3128 23.4002 19.3925 23.6014 19.3925ZM21.9168 20.2684C22.2428 20.2684 22.5085 20 22.5085 19.6702C22.5094 19.5127 22.4476 19.3612 22.3367 19.2491C22.2258 19.1369 22.0747 19.0733 21.9168 19.072C21.5908 19.072 21.3251 19.3405 21.3251 19.6702C21.3247 19.8276 21.3867 19.9787 21.4975 20.0907C21.6083 20.2027 21.759 20.2666 21.9168 20.2684ZM20.3203 20.7382C20.391 20.7378 20.4609 20.7235 20.526 20.6961C20.5912 20.6687 20.6502 20.6288 20.6999 20.5786C20.7496 20.5285 20.7889 20.4691 20.8155 20.4038C20.8421 20.3385 20.8556 20.2686 20.8552 20.1981V20.1967C20.8552 19.8959 20.6138 19.6552 20.3203 19.6552C20.2496 19.6556 20.1797 19.67 20.1146 19.6973C20.0495 19.7247 19.9904 19.7646 19.9407 19.8148C19.891 19.8649 19.8518 19.9244 19.8251 19.9896C19.7985 20.0549 19.785 20.1248 19.7854 20.1953V20.1967C19.783 20.3378 19.8368 20.4742 19.9352 20.5757C20.0335 20.6772 20.1682 20.7356 20.3097 20.7381L20.3203 20.7382ZM18.9222 19.1808C19.2738 19.1808 19.5592 18.8915 19.5592 18.5375C19.5592 18.1834 19.2738 17.8941 18.9222 17.8941C18.5707 17.8941 18.2853 18.1834 18.2853 18.5375C18.2849 18.7068 18.3517 18.8694 18.4709 18.9899C18.5902 19.1104 18.7524 19.179 18.9222 19.1808ZM16.8709 17.7055C17.2793 17.7055 17.6135 17.3723 17.6135 16.9569C17.6135 16.5415 17.2828 16.2083 16.8709 16.2083C16.4625 16.2083 16.1284 16.5415 16.1284 16.9569C16.1281 17.1541 16.2059 17.3435 16.345 17.4837C16.4841 17.624 16.6732 17.7037 16.8709 17.7055ZM22.954 27.0848C23.8358 27.0848 24.5505 26.3604 24.5505 25.4683C24.5505 24.5762 23.8358 23.8519 22.954 23.8519C22.0723 23.8519 21.3576 24.5762 21.3576 25.4683C21.3576 26.3604 22.0723 27.0848 22.954 27.0848ZM18.899 25.0391C19.6334 25.0391 20.2298 24.4362 20.2298 23.6922C20.2298 22.9482 19.6334 22.3454 18.899 22.3454C18.1646 22.3454 17.5682 22.9482 17.5682 23.6922C17.5682 24.4362 18.1634 25.0391 18.899 25.0391ZM16.582 28C17.3246 28 17.9244 27.3937 17.9244 26.6404C17.9244 25.8918 17.3246 25.2809 16.582 25.2809C15.8395 25.2809 15.2396 25.8872 15.2396 26.6404C15.2369 26.9982 15.3767 27.3425 15.6284 27.5975C15.8802 27.8524 16.2231 27.9972 16.5819 28H16.582ZM15.8847 22.5444C16.0386 22.5433 16.1908 22.5121 16.3326 22.4524C16.4743 22.3926 16.6029 22.3057 16.711 22.1964C16.819 22.0871 16.9045 21.9577 16.9624 21.8155C17.0203 21.6733 17.0495 21.5211 17.0485 21.3677C17.0495 21.2142 17.0203 21.062 16.9624 20.9198C16.9045 20.7776 16.819 20.6482 16.711 20.5389C16.6029 20.4297 16.4743 20.3427 16.3326 20.283C16.1908 20.2233 16.0386 20.192 15.8847 20.1909C15.7308 20.192 15.5787 20.2233 15.4369 20.283C15.2951 20.3427 15.1666 20.4297 15.0585 20.5389C14.9504 20.6482 14.865 20.7776 14.8071 20.9198C14.7492 21.062 14.72 21.2142 14.721 21.3677C14.7222 22.0156 15.2443 22.5444 15.8847 22.5444ZM13.5736 25.5459C14.214 25.5459 14.7326 25.0205 14.7326 24.3737C14.7326 23.7269 14.214 23.2016 13.5736 23.2016C12.9331 23.2016 12.4145 23.7269 12.4145 24.3737C12.4114 24.6815 12.5311 24.9779 12.7471 25.1977C12.9631 25.4175 13.2579 25.5427 13.5665 25.5459H13.5736ZM11.0825 27.5823C11.723 27.5823 12.2381 27.057 12.2381 26.4137C12.2381 25.7669 11.7195 25.245 11.0825 25.245C10.4421 25.245 9.92695 25.7703 9.92695 26.4137C9.92695 27.057 10.4456 27.5823 11.0825 27.5823ZM9.0092 24.9314C9.27253 24.929 9.52419 24.8228 9.7092 24.6359C9.89421 24.449 9.99752 24.1967 9.99656 23.934C9.99656 23.3844 9.55567 22.9367 9.0092 22.9367C8.74659 22.9406 8.49609 23.0475 8.3118 23.2341C8.1275 23.4207 8.0242 23.6721 8.0242 23.934C8.0242 24.196 8.1275 24.4474 8.3118 24.634C8.49609 24.8206 8.74659 24.9275 9.0092 24.9314ZM11.5049 22.8857C11.7684 22.8839 12.0204 22.7778 12.2055 22.5908C12.3906 22.4038 12.4938 22.1511 12.4922 21.8883C12.4922 21.3353 12.0513 20.8909 11.5049 20.8909C11.2422 20.8945 10.9915 21.0008 10.8069 21.1871C10.6222 21.3734 10.5185 21.6247 10.518 21.8866C10.5176 22.1486 10.6204 22.4002 10.8044 22.5871C10.9884 22.7741 11.2388 22.8813 11.5014 22.8857H11.5049ZM13.8334 19.8855C13.964 19.8846 14.0931 19.858 14.2134 19.8074C14.3337 19.7567 14.4428 19.6829 14.5345 19.5902C14.6261 19.4975 14.6986 19.3877 14.7478 19.2671C14.7969 19.1464 14.8217 19.0173 14.8208 18.8871V18.8847C14.8208 18.3316 14.3799 17.8838 13.8334 17.8838C13.7029 17.8847 13.5738 17.9113 13.4535 17.9619C13.3332 18.0126 13.2241 18.0863 13.1324 18.1791C13.0408 18.2718 12.9683 18.3816 12.9191 18.5022C12.87 18.6228 12.8452 18.7519 12.8461 18.8822V18.8846C12.8461 19.4377 13.287 19.8855 13.8334 19.8855ZM10.2715 20.2985C10.7449 20.2985 11.1289 19.9121 11.1289 19.4319C11.1289 18.9517 10.7449 18.5652 10.2715 18.5652C9.79816 18.5652 9.41412 18.9517 9.41412 19.4319C9.41412 19.9121 9.79816 20.2985 10.2715 20.2985ZM7.78864 22.3361C7.90078 22.3355 8.0117 22.3129 8.11507 22.2695C8.21844 22.2262 8.31224 22.1629 8.3911 22.0834C8.46997 22.0039 8.53236 21.9097 8.57471 21.8061C8.61706 21.7026 8.63854 21.5917 8.63793 21.4799V21.4776C8.64009 21.252 8.55233 21.0349 8.39395 20.8739C8.23557 20.7129 8.01955 20.6212 7.7934 20.619H7.78864C7.6765 20.6196 7.56558 20.6423 7.4622 20.6856C7.35883 20.729 7.26504 20.7922 7.18617 20.8717C7.10731 20.9512 7.04492 21.0455 7.00257 21.149C6.96022 21.2526 6.93874 21.3634 6.93935 21.4753V21.4776C6.93858 21.5896 6.95995 21.7006 7.00221 21.8044C7.04448 21.9081 7.10683 22.0026 7.18569 22.0823C7.26455 22.162 7.35839 22.2255 7.46185 22.269C7.5653 22.3126 7.67634 22.3354 7.78864 22.3361ZM7.2178 19.9479C7.41352 19.9464 7.60066 19.8676 7.7383 19.7289C7.87593 19.5901 7.95285 19.4026 7.95223 19.2074C7.95223 18.7966 7.62156 18.4669 7.2178 18.4669C6.81404 18.4669 6.48338 18.8001 6.48338 19.2074C6.48338 19.6182 6.81404 19.9479 7.2178 19.9479ZM7.19692 17.8525C7.28026 17.8517 7.36264 17.8346 7.43935 17.8021C7.51606 17.7696 7.5856 17.7223 7.64399 17.663C7.70239 17.6037 7.74849 17.5335 7.77968 17.4564C7.81087 17.3793 7.82653 17.2969 7.82577 17.2138C7.82577 16.8632 7.54383 16.5751 7.19692 16.5751C6.85001 16.5751 6.56807 16.8597 6.56807 17.2138C6.56807 17.5678 6.85001 17.8525 7.19692 17.8525ZM7.54267 16.1099C7.84085 16.1099 8.07754 15.8658 8.07754 15.5684C8.07754 15.271 7.83621 15.0269 7.54267 15.0269C7.24449 15.0269 7.0078 15.271 7.0078 15.5684C7.0078 15.8658 7.24449 16.1099 7.54267 16.1099ZM9.6833 15.8183C10.0348 15.8183 10.3203 15.5291 10.3203 15.175C10.3203 14.8209 10.0348 14.5317 9.6833 14.5317C9.33175 14.5317 9.04633 14.8209 9.04633 15.175C9.04571 15.3444 9.11236 15.5072 9.23172 15.6277C9.35107 15.7483 9.51343 15.8168 9.6833 15.8183ZM12.0328 14.9054C12.4412 14.9054 12.7753 14.5675 12.7753 14.1568C12.7772 13.9601 12.7006 13.7707 12.5625 13.6303C12.4243 13.4899 12.2359 13.41 12.0387 13.4082H12.0328C11.6244 13.4082 11.2902 13.746 11.2902 14.1568C11.2895 14.2543 11.308 14.3511 11.3447 14.4415C11.3814 14.5319 11.4356 14.6142 11.5043 14.6838C11.5729 14.7533 11.6546 14.8086 11.7447 14.8467C11.8348 14.8847 11.9315 14.9047 12.0293 14.9054H12.0328ZM12.592 17.282C12.8154 17.2816 13.0295 17.1927 13.1873 17.0349C13.345 16.8771 13.4335 16.6633 13.4333 16.4404C13.4331 16.2176 13.3441 16.004 13.1861 15.8465C13.028 15.689 12.8137 15.6006 12.5903 15.6006C12.3668 15.6006 12.1525 15.689 11.9945 15.8465C11.8364 16.004 11.7475 16.2176 11.7472 16.4404C11.747 16.6633 11.8355 16.8771 11.9932 17.0349C12.151 17.1927 12.3651 17.2816 12.5885 17.282H12.592ZM9.71346 17.915C10.1219 17.915 10.4479 17.5817 10.4479 17.1698C10.4479 16.7579 10.1172 16.4246 9.71346 16.4246C9.61641 16.4252 9.52043 16.4449 9.43099 16.4825C9.34156 16.5201 9.26043 16.5749 9.19223 16.6437C9.12403 16.7126 9.0701 16.7942 9.03352 16.8838C8.99694 16.9735 8.97843 17.0694 8.97904 17.1662V17.1698C8.97766 17.2663 8.99534 17.3621 9.03108 17.4517C9.06682 17.5414 9.11992 17.6231 9.18734 17.6923C9.25477 17.7615 9.33519 17.8167 9.42403 17.8549C9.51287 17.8931 9.60838 17.9135 9.70511 17.9148H9.71346V17.915ZM1.59184 16.81C2.46897 16.81 3.18368 16.0891 3.18368 15.2016C3.18368 14.3141 2.46897 13.5933 1.59184 13.5933C0.714703 13.5933 0 14.3153 0 15.2028C0 16.0903 0.714703 16.81 1.59184 16.81ZM5.2048 13.9381C5.96011 13.9381 6.56807 13.3191 6.56807 12.5577C6.56807 11.7964 5.95547 11.1773 5.2048 11.1773C4.84079 11.1798 4.49267 11.3263 4.23701 11.5847C3.98135 11.8432 3.83909 12.1923 3.84153 12.5553V12.5577C3.84153 13.3237 4.45413 13.9381 5.2048 13.9381ZM3.79512 10.3975C4.54579 10.3975 5.15027 9.78305 5.15027 9.02517C5.15027 8.26728 4.54231 7.65288 3.79512 7.65288C3.61594 7.65408 3.43876 7.69046 3.27368 7.75995C3.10861 7.82944 2.95888 7.93068 2.83304 8.05789C2.7072 8.18509 2.60771 8.33577 2.54027 8.50132C2.47283 8.66687 2.43875 8.84405 2.43997 9.02274V9.02517C2.43629 9.38541 2.57624 9.73237 2.82905 9.98972C3.08186 10.2471 3.42681 10.3937 3.78804 10.3975H3.79512ZM7.27814 8.7197C7.91858 8.7197 8.44185 8.19439 8.44185 7.54296C8.44185 6.89152 7.91974 6.36621 7.27814 6.36621C6.63653 6.36621 6.11442 6.89152 6.11442 7.54296C6.11442 8.19439 6.63769 8.7197 7.27814 8.7197ZM8.70174 12.2522C9.34683 12.2522 9.86893 11.7235 9.86893 11.072C9.86893 10.4206 9.34683 9.89181 8.70174 9.89181C8.05665 9.89181 7.53455 10.4206 7.53455 11.072C7.53455 11.7235 8.05665 12.2522 8.70174 12.2522ZM11.8715 11.5187C12.1367 11.5165 12.3902 11.4094 12.5762 11.2208C12.7623 11.0323 12.8656 10.7778 12.8635 10.5133C12.8655 10.3834 12.8418 10.2543 12.7938 10.1335C12.7458 10.0127 12.6744 9.90257 12.5837 9.8093C12.493 9.71603 12.3847 9.64149 12.2652 9.58993C12.1456 9.53837 12.017 9.51081 11.8867 9.50882C11.7564 9.50683 11.627 9.53045 11.5059 9.57833C11.3848 9.62621 11.2743 9.69741 11.1808 9.78786C11.0873 9.87832 11.0125 9.98626 10.9608 10.1055C10.9091 10.2248 10.8815 10.353 10.8795 10.483C10.8795 10.4931 10.8795 10.5032 10.8795 10.5133C10.8764 10.7769 10.9785 11.0309 11.1632 11.2194C11.3479 11.408 11.6001 11.5157 11.8644 11.5188L11.8715 11.5187ZM14.6096 11.5279C15.083 11.5279 15.4671 11.1415 15.4671 10.6647C15.4671 10.188 15.083 9.80156 14.6096 9.80156C14.3801 9.80156 14.1599 9.8925 13.9976 10.0544C13.8353 10.2163 13.7441 10.4358 13.7441 10.6647C13.7441 10.8937 13.8353 11.1132 13.9976 11.2751C14.1599 11.437 14.3801 11.5279 14.6096 11.5279ZM16.8721 12.0474C17.2677 12.0474 17.5949 11.7223 17.5949 11.3185C17.5949 10.9147 17.2724 10.5895 16.8721 10.5895C16.6794 10.591 16.4952 10.6686 16.3598 10.8052C16.2243 10.9418 16.1486 11.1264 16.1493 11.3185C16.1539 11.7177 16.4753 12.0474 16.8721 12.0474ZM17.1668 9.38849C17.3346 9.38729 17.4951 9.31973 17.613 9.20062C17.7309 9.08152 17.7966 8.92062 17.7956 8.75325C17.7956 8.40266 17.5137 8.11802 17.1668 8.11802C16.8199 8.11802 16.5379 8.40266 16.5379 8.75325C16.537 8.92062 16.6027 9.08152 16.7206 9.20062C16.8385 9.31973 16.999 9.38729 17.1668 9.38849ZM15.4264 8.51837C15.6185 8.51789 15.8025 8.44142 15.938 8.30574C16.0736 8.17007 16.1496 7.98629 16.1493 7.79477C16.1491 7.60325 16.0726 7.41966 15.9368 7.28432C15.8009 7.14898 15.6167 7.07296 15.4246 7.07296C15.2326 7.07296 15.0484 7.14898 14.9125 7.28432C14.7767 7.41966 14.7002 7.60325 14.7 7.79477C14.6997 7.98629 14.7757 8.17007 14.9113 8.30574C15.0468 8.44142 15.2308 8.51789 15.4228 8.51837H15.4264ZM13.1907 7.99074C13.4174 7.98891 13.6341 7.8975 13.7933 7.73655C13.9525 7.57561 14.0412 7.35827 14.04 7.1322C14.04 6.65548 13.6606 6.27365 13.1907 6.27365C12.7208 6.27365 12.3414 6.66011 12.3414 7.1322C12.3405 7.24403 12.3616 7.35495 12.4037 7.45862C12.4458 7.5623 12.5079 7.65669 12.5866 7.73641C12.6652 7.81614 12.7588 7.87963 12.8621 7.92327C12.9654 7.96691 13.0762 7.98984 13.1884 7.99074H13.1907ZM10.4572 7.99422C11.0083 7.99422 11.4527 7.54296 11.4527 6.98872C11.4527 6.43448 11.0083 5.98322 10.4572 5.98322C9.90606 5.98322 9.46169 6.43448 9.46169 6.98872C9.46076 7.25348 9.56494 7.50784 9.75146 7.69624C9.93799 7.88465 10.1917 7.99177 10.4572 7.99422ZM6.77576 5.4799C7.39996 5.4799 7.90234 4.97078 7.90234 4.34018C7.90234 3.70957 7.39648 3.20046 6.77576 3.20046C6.15155 3.20046 5.64917 3.70957 5.64917 4.34018C5.64917 4.97078 6.15503 5.4799 6.77576 5.4799ZM9.94435 4.78912C10.4955 4.78912 10.9398 4.33787 10.9398 3.78363C10.9398 3.22939 10.4955 2.77813 9.94435 2.77813C9.39324 2.77813 8.94887 3.22939 8.94887 3.78363C8.94887 4.33787 9.39324 4.78912 9.94435 4.78912ZM12.6813 4.80185C13.1547 4.80185 13.5387 4.41539 13.5387 3.9352C13.5387 3.45502 13.1547 3.06856 12.6813 3.06856C12.5681 3.06916 12.4562 3.092 12.3518 3.13577C12.2474 3.17953 12.1527 3.24337 12.0731 3.32363C11.9935 3.40389 11.9305 3.499 11.8878 3.60354C11.845 3.70808 11.8233 3.81999 11.8239 3.93289V3.9352C11.823 4.16335 11.9126 4.38259 12.0733 4.54499C12.234 4.70739 12.4526 4.79974 12.6813 4.80185ZM14.9275 5.31791C15.3278 5.31791 15.6504 4.99277 15.6504 4.58895C15.6504 4.18513 15.3278 3.85999 14.9275 3.85999C14.7337 3.85999 14.5478 3.93679 14.4107 4.0735C14.2736 4.21021 14.1966 4.39562 14.1966 4.58895C14.1966 4.78228 14.2736 4.96769 14.4107 5.1044C14.5478 5.24111 14.7337 5.31791 14.9275 5.31791ZM16.6528 6.21117C16.8249 6.20994 16.9895 6.14066 17.1105 6.01852C17.2314 5.89639 17.2988 5.73139 17.2979 5.55973C17.2979 5.19757 17.0078 4.9083 16.6528 4.9083C16.2978 4.9083 16.0077 5.20104 16.0077 5.55973C16.0077 5.91843 16.2978 6.21117 16.6528 6.21117ZM17.9186 7.23633C17.9887 7.23588 18.058 7.22166 18.1226 7.19449C18.1872 7.16732 18.2458 7.12774 18.295 7.07799C18.3442 7.02824 18.3832 6.96931 18.4096 6.90456C18.436 6.83981 18.4493 6.7705 18.4489 6.70061V6.69945C18.4495 6.62955 18.4363 6.56022 18.41 6.49541C18.3837 6.4306 18.3449 6.37158 18.2958 6.32173C18.2467 6.27187 18.1882 6.23216 18.1237 6.20485C18.0592 6.17754 17.9899 6.16317 17.9198 6.16257H17.9186C17.8485 6.16302 17.7792 6.17724 17.7146 6.20441C17.6501 6.23158 17.5915 6.27117 17.5423 6.32091C17.493 6.37066 17.4541 6.42959 17.4277 6.49434C17.4013 6.55909 17.3879 6.6284 17.3884 6.69829V6.69945C17.3873 6.76889 17.4 6.83786 17.4256 6.90242C17.4513 6.96697 17.4895 7.02586 17.5379 7.0757C17.5864 7.12555 17.6443 7.16538 17.7082 7.19292C17.7721 7.22047 17.8409 7.23518 17.9105 7.23622H17.9189L17.9186 7.23633Z" fill="black"/>
</svg>
