<svg width="20" height="20" viewBox="0 0 20 20" fill="none" xmlns="http://www.w3.org/2000/svg">
<path d="M18.6239 17.724C19.1437 17.0982 19.6024 16.4411 20 15.7215L17.6758 14.5325C17.3394 15.0957 16.9419 15.6276 16.4526 16.097C15.9021 16.6602 15.1682 17.0356 14.4037 17.1608C13.0581 17.3485 12.0795 16.9105 10.7034 16.0031C9.26606 15.0644 7.61468 13.9694 5.25994 14.2822C3.85321 14.47 2.53823 15.2209 1.37615 16.535C0.856269 17.1608 0.397554 17.8178 0 18.5375L2.32416 19.7264C2.66055 19.1632 3.0581 18.6313 3.5474 18.162C4.09786 17.5988 4.8318 17.2233 5.59633 17.0982C5.77982 17.0669 5.99388 17.0669 6.17737 17.0669C7.24771 17.0669 8.10398 17.5049 9.29664 18.2559C10.6422 19.1632 12.3547 20.2583 14.7401 19.9454C16.208 19.7577 17.5229 19.0068 18.6239 17.724ZM18.6239 10.6215C19.1437 9.99574 19.6024 9.33869 20 8.61905L17.6758 7.4301C17.3394 7.99329 16.9419 8.52519 16.4526 8.99451C15.9021 9.5577 15.1682 9.93316 14.4037 10.0583C13.0581 10.246 12.0795 9.80801 10.7034 8.90065C9.23547 7.962 7.5841 6.86691 5.25994 7.17979C3.85321 7.36752 2.53823 8.11844 1.37615 9.43255C0.856269 10.0583 0.397554 10.7154 0 11.435L2.32416 12.624C2.66055 12.0608 3.0581 11.5289 3.5474 11.0595C4.09786 10.4964 4.8318 10.1209 5.59633 9.99574C5.77982 9.96445 5.99388 9.96445 6.17737 9.96445C7.24771 9.96445 8.10398 10.4025 9.29664 11.1534C10.6422 12.0608 12.3547 13.1559 14.7401 12.843C16.208 12.624 17.5229 11.9043 18.6239 10.6215ZM18.6239 3.48777C19.1437 2.862 19.6024 2.20495 20 1.48532L17.6758 0.29636C17.3394 0.859549 16.9419 1.39145 16.4526 1.86078C15.9021 2.42397 15.1682 2.79943 14.4037 2.92458C13.0581 3.11231 12.0795 2.67427 10.7034 1.76691C9.26606 0.828261 7.61468 -0.235542 5.25994 0.046053C3.85321 0.233783 2.53823 0.984703 1.37615 2.29881C0.856269 2.92458 0.397554 3.58163 0 4.30127L2.32416 5.49022C2.66055 4.92703 3.0581 4.39513 3.5474 3.92581C4.09786 3.36262 4.8318 2.98716 5.59633 2.862C5.77982 2.83071 5.99388 2.83071 6.17737 2.83071C7.24771 2.83071 8.10398 3.26875 9.29664 4.01967C10.6422 4.92703 12.3547 6.02212 14.7401 5.70924C16.208 5.52151 17.5229 4.77059 18.6239 3.48777Z" fill="#42318C"/>
</svg>
