<svg width="25" height="19" viewBox="0 0 25 19" fill="none" xmlns="http://www.w3.org/2000/svg">
<path d="M4.04544 0.231632C4.20194 0.0853381 4.40853 0 4.62137 0H24.4909C24.854 0 25.0356 0.42669 24.7789 0.676609L20.8538 4.49854C20.7036 4.64483 20.497 4.73017 20.2779 4.73017H0.408321C0.0452352 4.73017 -0.136308 4.30348 0.120357 4.05356L4.04544 0.231632Z" fill="url(#paint0_linear)"/>
<path d="M4.04529 14.5014C4.19553 14.3551 4.40211 14.2698 4.62122 14.2698H24.4908C24.8539 14.2698 25.0354 14.6965 24.7787 14.9464L20.8537 18.7683C20.7034 18.9146 20.4968 18.9999 20.2777 18.9999H0.408169C0.0450826 18.9999 -0.13646 18.5733 0.120204 18.3233L4.04529 14.5014Z" fill="url(#paint1_linear)"/>
<path d="M20.2777 7.08923C20.4968 7.08923 20.7034 7.17457 20.8537 7.32087L24.7787 11.1428C25.0354 11.3927 24.8539 11.8194 24.4908 11.8194H4.62122C4.40211 11.8194 4.19553 11.7341 4.04529 11.5878L0.120204 7.76584C-0.13646 7.51592 0.0450827 7.08923 0.408169 7.08923H20.2777Z" fill="url(#paint2_linear)"/>
<defs>
<linearGradient id="paint0_linear" x1="20.6196" y1="0.296875" x2="15.6548" y2="19.8153" gradientUnits="userSpaceOnUse">
<stop offset="0.0218611" stop-color="#00FFA3"/>
<stop offset="1" stop-color="#D724FD"/>
</linearGradient>
<linearGradient id="paint1_linear" x1="20.6196" y1="0.296875" x2="15.6548" y2="19.8153" gradientUnits="userSpaceOnUse">
<stop offset="0.0218611" stop-color="#00FFA3"/>
<stop offset="1" stop-color="#D724FD"/>
</linearGradient>
<linearGradient id="paint2_linear" x1="20.6196" y1="0.296875" x2="15.6548" y2="19.8153" gradientUnits="userSpaceOnUse">
<stop offset="0.0218611" stop-color="#00FFA3"/>
<stop offset="1" stop-color="#D724FD"/>
</linearGradient>
</defs>
</svg>
