<svg width="35" height="33" viewBox="0 0 35 33" fill="none" xmlns="http://www.w3.org/2000/svg">
<path fill-rule="evenodd" clip-rule="evenodd" d="M17.407 1.93737C17.5984 1.94827 17.7888 1.90215 17.9541 1.80483C18.1193 1.7075 18.252 1.56336 18.3353 1.39062C18.4186 1.21789 18.4488 1.02433 18.4221 0.83442C18.3954 0.644514 18.3129 0.466798 18.1852 0.323751C18.0575 0.180705 17.8902 0.0787558 17.7045 0.0308001C17.5188 -0.0171556 17.3231 -0.00896312 17.1421 0.0543411C16.961 0.117645 16.8029 0.233217 16.6875 0.386437C16.5722 0.539657 16.5049 0.72364 16.4941 0.915114C16.4797 1.1717 16.5678 1.4235 16.7389 1.61519C16.9101 1.80687 17.1504 1.92276 17.407 1.93737ZM25.8415 2.41716C25.6908 2.41852 25.543 2.37512 25.4168 2.29245C25.2479 2.18173 25.1299 2.00849 25.0886 1.81079C25.0473 1.61308 25.0862 1.40707 25.1967 1.23801C25.2792 1.11179 25.3973 1.01288 25.536 0.953787C25.6747 0.894695 25.8279 0.87808 25.976 0.906044C26.1242 0.934009 26.2608 1.0053 26.3684 1.11089C26.4761 1.21648 26.55 1.35162 26.5808 1.49923C26.6116 1.64684 26.5979 1.80027 26.5415 1.94011C26.4851 2.07995 26.3885 2.19992 26.2639 2.28484C26.1393 2.36976 25.9923 2.41581 25.8415 2.41716ZM9.43545 2.37245C9.56923 2.30375 9.6797 2.19701 9.75295 2.06566C9.82619 1.93432 9.85895 1.78424 9.84709 1.63432C9.83522 1.4844 9.77927 1.34134 9.68628 1.22314C9.59329 1.10495 9.46741 1.01691 9.32449 0.970106C9.18157 0.9233 9.028 0.91982 8.88311 0.960105C8.73822 1.00039 8.60848 1.08264 8.51023 1.1965C8.41198 1.31035 8.34961 1.45073 8.33097 1.59996C8.31233 1.74919 8.33825 1.9006 8.40547 2.03513C8.45066 2.12518 8.51322 2.20539 8.58955 2.27114C8.66589 2.3369 8.75448 2.3869 8.85023 2.41825C8.94597 2.44961 9.04697 2.4617 9.14742 2.45384C9.24786 2.44598 9.34575 2.41832 9.43545 2.37245ZM10.1821 17.7523C9.76586 17.2849 9.55223 16.6714 9.5881 16.0466L9.58167 16.0479C9.60807 15.5886 9.76839 15.147 10.0429 14.7777C10.3173 14.4084 10.6939 14.1275 11.1262 13.9698C11.5584 13.8121 12.0274 13.7843 12.4752 13.8901C12.923 13.9958 13.33 14.2303 13.6461 14.5647C13.9622 14.899 14.1734 15.3187 14.2538 15.7717C14.3341 16.2248 14.28 16.6914 14.0982 17.1141C13.9164 17.5368 13.6148 17.897 13.2306 18.1502C12.8465 18.4035 12.3966 18.5387 11.9365 18.5392H11.8077C11.183 18.5027 10.5982 18.2196 10.1821 17.7523ZM0.374305 15.5535C0.503883 15.4771 0.653211 15.4408 0.803419 15.4492C0.90334 15.4546 1.0012 15.4797 1.09139 15.5231C1.18158 15.5664 1.26231 15.6272 1.32895 15.7018C1.39558 15.7765 1.44681 15.8636 1.47969 15.9581C1.51257 16.0526 1.52646 16.1527 1.52054 16.2526C1.51191 16.4028 1.45894 16.547 1.36834 16.6671C1.27774 16.7872 1.15357 16.8778 1.01152 16.9273C0.869477 16.9769 0.715929 16.9832 0.570284 16.9455C0.424639 16.9078 0.293434 16.8278 0.193252 16.7156C0.0930691 16.6034 0.0284049 16.4639 0.00743128 16.315C-0.0135424 16.166 0.0101159 16.0142 0.0754161 15.8786C0.140716 15.7431 0.244728 15.63 0.374305 15.5535ZM12.3249 6.06995C12.2103 6.27251 12.0383 6.43656 11.8305 6.54137C11.6925 6.611 11.5421 6.65275 11.3879 6.66422C11.2337 6.6757 11.0788 6.65669 10.932 6.60826C10.7852 6.55984 10.6493 6.48295 10.5322 6.38201C10.4151 6.28106 10.3191 6.15803 10.2495 6.01994C10.1449 5.8121 10.1042 5.57789 10.1326 5.34693C10.1611 5.11597 10.2573 4.89863 10.4093 4.72237C10.5612 4.54612 10.762 4.41887 10.9862 4.35672C11.2105 4.29456 11.4481 4.30029 11.6691 4.37317C11.8901 4.44606 12.0845 4.58283 12.2278 4.7662C12.3711 4.94956 12.4568 5.17129 12.4741 5.40335C12.4913 5.63541 12.4394 5.86739 12.3249 6.06995ZM3.78602 9.40876C3.94628 9.51415 4.13419 9.56963 4.32598 9.56818C4.51778 9.56674 4.70484 9.50844 4.86349 9.40066C5.02214 9.29287 5.14526 9.14045 5.21726 8.96268C5.28926 8.78491 5.30691 8.58977 5.26798 8.40196C5.22905 8.21415 5.13529 8.04211 4.99855 7.90761C4.86182 7.77311 4.68826 7.68218 4.49983 7.64635C4.31141 7.61051 4.11659 7.63137 3.94002 7.70628C3.76346 7.7812 3.61308 7.90681 3.50793 8.06721C3.36708 8.28204 3.31726 8.54399 3.36941 8.79552C3.42155 9.04706 3.57139 9.26762 3.78602 9.40876ZM4.55645 15.1822C4.75692 15.0641 4.98791 15.008 5.22022 15.0212C5.53191 15.0391 5.82374 15.18 6.03159 15.413C6.23944 15.6459 6.34632 15.9519 6.32874 16.2636C6.31539 16.4959 6.23346 16.719 6.09332 16.9048C5.95318 17.0905 5.76112 17.2305 5.54141 17.3072C5.3217 17.3838 5.08421 17.3936 4.85895 17.3352C4.63369 17.2769 4.43078 17.1531 4.27587 16.9795C4.12096 16.8058 4.02099 16.5902 3.98862 16.3598C3.95624 16.1293 3.99291 15.8945 4.09398 15.6849C4.19505 15.4753 4.35599 15.3004 4.55645 15.1822ZM3.91634 22.9328C3.74525 23.0193 3.60363 23.1546 3.50939 23.3215C3.41515 23.4885 3.37252 23.6796 3.38689 23.8708C3.40126 24.0619 3.47199 24.2445 3.59012 24.3955C3.70826 24.5465 3.86851 24.6591 4.05061 24.719C4.23271 24.7789 4.42849 24.7835 4.6132 24.7322C4.7979 24.6808 4.96325 24.5759 5.08833 24.4306C5.21341 24.2853 5.2926 24.1062 5.31591 23.9159C5.33922 23.7257 5.30559 23.5327 5.21927 23.3616C5.16191 23.2478 5.0827 23.1465 4.98616 23.0634C4.88963 22.9803 4.77766 22.917 4.65665 22.8772C4.53565 22.8374 4.40799 22.8218 4.28096 22.8313C4.15393 22.8409 4.03003 22.8754 3.91634 22.9328ZM9.25623 12.8158C8.98226 12.8182 8.71373 12.7393 8.48458 12.5892C8.33226 12.4895 8.20109 12.3609 8.09856 12.2105C7.99604 12.0601 7.92419 11.891 7.88712 11.7128C7.85004 11.5346 7.84848 11.3508 7.88252 11.172C7.91655 10.9933 7.98551 10.8229 8.08546 10.6708C8.2357 10.4417 8.4505 10.2623 8.7027 10.1553C8.9549 10.0482 9.23318 10.0184 9.50234 10.0695C9.77151 10.1206 10.0195 10.2504 10.2149 10.4424C10.4103 10.6344 10.5444 10.8801 10.6002 11.1483C10.656 11.4165 10.631 11.6953 10.5284 11.9493C10.4258 12.2034 10.2502 12.4213 10.0237 12.5755C9.79728 12.7297 9.53019 12.8133 9.25623 12.8158ZM23.0029 6.44842C23.198 6.57569 23.4265 6.64225 23.6594 6.6397C23.8923 6.63715 24.1193 6.5656 24.3115 6.43409C24.5038 6.30259 24.6528 6.11703 24.7396 5.90087C24.8265 5.68471 24.8473 5.44766 24.7994 5.21969C24.7515 4.99171 24.6372 4.78304 24.4707 4.62006C24.3043 4.45707 24.0933 4.34709 23.8643 4.30401C23.6354 4.26093 23.3989 4.28669 23.1846 4.37804C22.9703 4.46938 22.7879 4.6222 22.6604 4.81719C22.5756 4.94671 22.5171 5.0917 22.4884 5.24386C22.4597 5.39602 22.4612 5.55235 22.4931 5.70389C22.5249 5.85543 22.5863 5.9992 22.6738 6.12696C22.7613 6.25473 22.8731 6.36397 23.0029 6.44842ZM23.1865 13.8036C22.8775 13.7858 22.5681 13.8291 22.2758 13.9309C21.9835 14.0328 21.7142 14.1912 21.4832 14.3971C21.0166 14.813 20.7343 15.3972 20.6984 16.0212C20.6626 16.6453 20.8761 17.258 21.292 17.7246C21.7079 18.1912 22.2921 18.4734 22.9161 18.5093H23.0526C23.5072 18.5091 23.952 18.3773 24.3334 18.13C24.7148 17.8827 25.0165 17.5303 25.2021 17.1153C25.3878 16.7004 25.4494 16.2406 25.3796 15.7914C25.3098 15.3422 25.1115 14.9228 24.8087 14.5838C24.6036 14.3525 24.3546 14.1645 24.0761 14.0305C23.7976 13.8966 23.4951 13.8194 23.1865 13.8036ZM13.4692 13.3734C13.097 13.1444 12.7962 12.816 12.6006 12.4252C12.4208 12.0661 12.3356 11.667 12.3533 11.2658C12.371 10.8645 12.4909 10.4745 12.7016 10.1326C12.9123 9.79065 13.2069 9.50826 13.5575 9.31217C13.908 9.11608 14.3028 9.0128 14.7044 9.01211C15.1404 9.01003 15.5683 9.12936 15.9404 9.35675C16.3124 9.58414 16.6137 9.91061 16.8107 10.2996C16.9927 10.659 17.0795 11.0591 17.0628 11.4616C17.0462 11.8641 16.9267 12.2557 16.7157 12.5989C16.5047 12.9421 16.2093 13.2255 15.8577 13.4221C15.506 13.6186 15.1098 13.7218 14.707 13.7217C14.27 13.7231 13.8413 13.6025 13.4692 13.3734ZM31.0807 9.40639C31.2518 9.32003 31.3935 9.18488 31.4878 9.01802C31.5822 8.85116 31.6249 8.66008 31.6107 8.46893C31.5965 8.27777 31.5259 8.09513 31.4079 7.94407C31.2899 7.79302 31.1298 7.68033 30.9477 7.62025C30.7657 7.56018 30.57 7.55541 30.3852 7.60655C30.2005 7.6577 30.0351 7.76245 29.9099 7.90759C29.7846 8.05272 29.7053 8.23171 29.6817 8.42195C29.6582 8.61218 29.6916 8.80511 29.7777 8.97637C29.8936 9.20606 30.0959 9.38037 30.3402 9.461C30.5845 9.54163 30.8508 9.52199 31.0807 9.40639ZM24.5225 10.7107C24.6575 10.4722 24.8602 10.2792 25.1049 10.1559C25.2673 10.0739 25.4444 10.0248 25.6258 10.0113C25.8073 9.99776 25.9897 10.0202 26.1625 10.0772C26.3353 10.1342 26.4951 10.2248 26.6329 10.3437C26.7706 10.4626 26.8836 10.6075 26.9653 10.7701C27.0885 11.0148 27.1365 11.2905 27.103 11.5625C27.0695 11.8344 26.9561 12.0903 26.7772 12.2978C26.5983 12.5053 26.3619 12.6551 26.0978 12.7283C25.8338 12.8014 25.554 12.7946 25.2938 12.7087C25.0336 12.6228 24.8047 12.4617 24.6361 12.2458C24.4675 12.0298 24.3667 11.7687 24.3465 11.4954C24.3263 11.2222 24.3875 10.9491 24.5225 10.7107ZM18.1728 7.84908C17.9369 7.98823 17.665 8.05432 17.3915 8.03899C17.0245 8.01807 16.6808 7.85225 16.4359 7.57798C16.1911 7.30372 16.0653 6.94346 16.086 6.57641C16.1017 6.30295 16.1981 6.04028 16.3631 5.8216C16.528 5.60293 16.7541 5.43805 17.0127 5.34783C17.2713 5.2576 17.5509 5.24606 17.8161 5.31468C18.0813 5.3833 18.3201 5.52898 18.5025 5.73333C18.6849 5.93768 18.8027 6.19151 18.8408 6.46275C18.879 6.73398 18.8359 7.01045 18.717 7.25721C18.5981 7.50396 18.4087 7.70993 18.1728 7.84908ZM9.89706 22.1806C10.1417 22.0572 10.3443 21.864 10.4792 21.6255C10.6141 21.387 10.6753 21.1139 10.6549 20.8406C10.6345 20.5674 10.5336 20.3063 10.3648 20.0904C10.1961 19.8745 9.96709 19.7135 9.70683 19.6278C9.44657 19.542 9.16674 19.5354 8.90271 19.6087C8.63869 19.6821 8.40234 19.832 8.22356 20.0397C8.04478 20.2474 7.9316 20.5034 7.89833 20.7754C7.86506 21.0473 7.9132 21.3231 8.03666 21.5677C8.20215 21.8956 8.4911 22.1444 8.83997 22.2593C9.18884 22.3742 9.56907 22.3459 9.89706 22.1806ZM17.9115 11.5425C17.8689 11.02 18.0018 10.4982 18.2891 10.0597C18.5039 9.7324 18.7967 9.46367 19.1413 9.27779C19.4859 9.09191 19.8713 8.99472 20.2628 8.995C20.787 8.99567 21.296 9.17115 21.7093 9.49367C22.1226 9.81619 22.4165 10.2673 22.5445 10.7757C22.6725 11.284 22.6274 11.8205 22.4162 12.3003C22.205 12.7801 21.8398 13.1758 21.3784 13.4247C20.917 13.6736 20.3858 13.7615 19.8689 13.6745C19.3519 13.5875 18.8787 13.3306 18.5242 12.9445C18.1697 12.5583 17.9541 12.065 17.9115 11.5425ZM22.385 19.913C22.1962 19.5387 21.911 19.2215 21.5588 18.9942C21.2065 18.7669 20.8 18.6377 20.3812 18.6199C19.9623 18.6021 19.5463 18.6965 19.1761 18.8931C18.8058 19.0898 18.4948 19.3817 18.275 19.7386C18.0552 20.0956 17.9346 20.5048 17.9257 20.9239C17.9169 21.3431 18.02 21.757 18.2244 22.123C18.4289 22.4889 18.7273 22.7938 19.0889 23.0059C19.4504 23.2181 19.8621 23.33 20.2813 23.33C20.6501 23.3274 21.0132 23.2393 21.3422 23.0725C21.8985 22.7908 22.3206 22.3003 22.5161 21.7081C22.7115 21.116 22.6644 20.4705 22.385 19.913ZM25.7332 19.5213C26.0072 19.5191 26.2757 19.5981 26.5047 19.7485C26.8113 19.9506 27.0254 20.2659 27.0999 20.6255C27.1745 20.985 27.1035 21.3595 26.9026 21.6668C26.7522 21.8959 26.5373 22.0752 26.285 22.1821C26.0328 22.289 25.7544 22.3187 25.4853 22.2674C25.2161 22.2162 24.9682 22.0862 24.7729 21.8941C24.5776 21.7019 24.4437 21.4562 24.388 21.1879C24.3324 20.9196 24.3576 20.6408 24.4604 20.3869C24.5631 20.1329 24.7389 19.9151 24.9655 19.761C25.1921 19.6069 25.4592 19.5235 25.7332 19.5213ZM31.0125 16.2096C31.0256 15.9773 30.9696 15.7463 30.8514 15.5458C30.7333 15.3454 30.5584 15.1844 30.3488 15.0834C30.1392 14.9823 29.9043 14.9456 29.6739 14.978C29.4435 15.0104 29.2278 15.1103 29.0542 15.2652C28.8806 15.4202 28.7568 15.6231 28.6985 15.8483C28.6401 16.0736 28.6499 16.3111 28.7265 16.5308C28.8031 16.7505 28.9432 16.9426 29.1289 17.0827C29.3147 17.2228 29.5378 17.3048 29.7701 17.3181C30.0818 17.3357 30.3878 17.2288 30.6207 17.021C30.8537 16.8131 30.9946 16.5213 31.0125 16.2096ZM33.8515 15.475C33.9815 15.3986 34.1312 15.3625 34.2817 15.3711C34.4834 15.3831 34.6721 15.4745 34.8065 15.6253C34.9409 15.7761 35.0101 15.9741 34.9988 16.1758C34.9902 16.3263 34.9371 16.4709 34.8463 16.5912C34.7555 16.7115 34.631 16.8022 34.4886 16.8518C34.3463 16.9014 34.1924 16.9077 34.0465 16.8698C33.9006 16.832 33.7692 16.7517 33.6689 16.6392C33.5686 16.5266 33.5039 16.3869 33.483 16.2376C33.4622 16.0883 33.486 15.9361 33.5516 15.8004C33.6172 15.6647 33.7216 15.5514 33.8515 15.475ZM31.2133 22.9285C31.0529 22.8235 30.865 22.7683 30.6733 22.7701C30.4816 22.7718 30.2947 22.8303 30.1363 22.9383C29.9779 23.0462 29.855 23.1987 29.7832 23.3765C29.7114 23.5542 29.6939 23.7493 29.733 23.937C29.772 24.1247 29.8659 24.2966 30.0026 24.4309C30.1393 24.5653 30.3128 24.6561 30.5012 24.6919C30.6895 24.7277 30.8842 24.7068 31.0607 24.632C31.2372 24.5571 31.3875 24.4316 31.4927 24.2713C31.5626 24.1648 31.6108 24.0456 31.6346 23.9205C31.6583 23.7953 31.6572 23.6667 31.6313 23.542C31.6053 23.4173 31.5551 23.2989 31.4833 23.1937C31.4116 23.0884 31.3199 22.9983 31.2133 22.9285ZM9.1591 29.9198C9.30983 29.9186 9.45754 29.962 9.58356 30.0447C9.66727 30.0997 9.73934 30.1706 9.79565 30.2534C9.85195 30.3361 9.8914 30.4292 9.91172 30.5273C9.93205 30.6253 9.93286 30.7264 9.9141 30.8247C9.89535 30.9231 9.8574 31.0168 9.80243 31.1005C9.71967 31.2264 9.60141 31.3251 9.46262 31.3838C9.32382 31.4426 9.17071 31.4589 9.02265 31.4307C8.87459 31.4025 8.73822 31.331 8.63079 31.2252C8.52336 31.1195 8.44969 30.9843 8.41909 30.8367C8.38849 30.6891 8.40234 30.5358 8.45889 30.396C8.51544 30.2563 8.61214 30.1365 8.73677 30.0517C8.86141 29.967 9.00838 29.9211 9.1591 29.9198ZM25.5497 29.9645C25.4151 30.0323 25.3036 30.1386 25.2293 30.2698C25.1551 30.401 25.1215 30.5513 25.1326 30.7016C25.1438 30.852 25.1993 30.9956 25.2922 31.1144C25.385 31.2332 25.511 31.3218 25.6542 31.369C25.7973 31.4161 25.9513 31.4198 26.0966 31.3795C26.2418 31.3392 26.3719 31.2567 26.4703 31.1424C26.5686 31.0282 26.6309 30.8874 26.6493 30.7377C26.6676 30.5881 26.6411 30.4364 26.5732 30.3018C26.5283 30.2123 26.4661 30.1326 26.3903 30.0672C26.3145 30.0018 26.2265 29.952 26.1315 29.9207C26.0364 29.8893 25.936 29.8771 25.8362 29.8846C25.7364 29.8921 25.639 29.9192 25.5497 29.9645ZM17.0766 20.79C17.1193 21.3126 16.9864 21.8344 16.699 22.2729C16.4853 22.601 16.1928 22.8703 15.8483 23.0563C15.5038 23.2423 15.1181 23.339 14.7266 23.3377C14.2023 23.3373 13.6932 23.162 13.2797 22.8397C12.8662 22.5173 12.5721 22.0663 12.4438 21.5579C12.3156 21.0496 12.3606 20.513 12.5716 20.0331C12.7827 19.5531 13.1478 19.1573 13.6092 18.9083C14.0705 18.6592 14.6017 18.5712 15.1188 18.6581C15.6358 18.7449 16.1091 19.0018 16.4637 19.3879C16.8183 19.7741 17.034 20.2675 17.0766 20.79ZM11.9927 25.8894C11.7979 25.762 11.5698 25.6952 11.3371 25.6974C11.1045 25.6997 10.8777 25.7708 10.6854 25.902C10.4932 26.0331 10.3441 26.2182 10.2571 26.434C10.1701 26.6498 10.149 26.8866 10.1965 27.1144C10.244 27.3422 10.3579 27.5507 10.524 27.7138C10.69 27.8768 10.9006 27.987 11.1293 28.0303C11.3579 28.0736 11.5942 28.0482 11.8084 27.9573C12.0226 27.8663 12.205 27.7139 12.3326 27.5193C12.5034 27.2581 12.5636 26.9396 12.4999 26.634C12.4362 26.3284 12.2537 26.0606 11.9927 25.8894ZM16.9453 30.5323C17.1105 30.435 17.3008 30.3889 17.4923 30.3998C17.6194 30.407 17.7439 30.4392 17.8586 30.4946C17.9733 30.5499 18.076 30.6273 18.1607 30.7224C18.2455 30.8174 18.3107 30.9283 18.3526 31.0485C18.3946 31.1688 18.4124 31.2962 18.4051 31.4233C18.3941 31.6147 18.3266 31.7985 18.2111 31.9516C18.0956 32.1046 17.9374 32.22 17.7563 32.2831C17.5753 32.3462 17.3796 32.3542 17.194 32.3061C17.0084 32.258 16.8413 32.156 16.7137 32.0129C16.5861 31.8698 16.5037 31.6921 16.4771 31.5023C16.4505 31.3124 16.4808 31.1189 16.5641 30.9463C16.6474 30.7736 16.7801 30.6295 16.9453 30.5323ZM17.4968 24.2999C17.2231 24.2833 16.9506 24.3483 16.7138 24.4866C16.4771 24.625 16.2867 24.8305 16.1668 25.0771C16.0469 25.3238 16.003 25.6004 16.0405 25.8721C16.078 26.1437 16.1952 26.3982 16.3774 26.6031C16.5596 26.8081 16.7986 26.9543 17.0639 27.0234C17.3293 27.0924 17.6092 27.0812 17.8682 26.991C18.1272 26.9008 18.3536 26.7359 18.5188 26.5169C18.6839 26.298 18.7803 26.035 18.7959 25.7612C18.817 25.3953 18.6921 25.0359 18.4485 24.7619C18.205 24.488 17.8627 24.3218 17.4968 24.2999ZM22.665 26.2686C22.7792 26.0654 22.9511 25.9006 23.159 25.7951C23.2966 25.7249 23.4468 25.6825 23.6009 25.6704C23.755 25.6582 23.91 25.6766 24.0569 25.7245C24.2039 25.7723 24.34 25.8486 24.4574 25.9491C24.5748 26.0496 24.6713 26.1723 24.7413 26.3101C24.8472 26.5178 24.8892 26.7522 24.8619 26.9837C24.8346 27.2152 24.7392 27.4334 24.5879 27.6107C24.4365 27.7879 24.2359 27.9163 24.0115 27.9796C23.7872 28.0428 23.5491 28.038 23.3274 27.9659C23.1057 27.8937 22.9105 27.7574 22.7663 27.5743C22.6221 27.3911 22.5355 27.1692 22.5175 26.9368C22.4995 26.7044 22.5508 26.4719 22.665 26.2686Z" fill="#0033AD"/>
</svg>
