<svg width="32" height="34" viewBox="0 0 32 34" fill="none" xmlns="http://www.w3.org/2000/svg">
<path fill-rule="evenodd" clip-rule="evenodd" d="M17.0773 23.0972L9.0548 29.2951L14.7992 33.721C15.2821 34.093 15.9748 34.093 16.4576 33.721L30.5379 22.893L23.9299 17.8161L17.0773 23.0972ZM14.6153 23.433L12.0549 21.4598L12.0513 21.4669L2.85982e-05 12.3201C1.90613e-05 12.3222 1.52464e-05 12.3243 1.52462e-05 12.3263L1.51434e-05 13.5021L-4.58925e-05 13.5111L-4.66061e-05 21.6736C-4.66422e-05 22.0869 0.18888 22.4589 0.503758 22.7068L8.01314 28.4926L14.6153 23.433ZM0.63014 11.1958L7.22493 16.2625L14.7993 10.4252C14.8666 10.3734 14.9379 10.3288 15.0122 10.2914L22.2573 4.73899L16.4577 0.278922C15.9749 -0.0930418 15.2821 -0.0930419 14.7993 0.278922L0.63014 11.1958ZM23.3122 5.55016L16.7036 10.6147L24.9889 16.9999L24.9832 17.0044L31.2505 21.8195C31.2548 21.7779 31.2569 21.7361 31.2569 21.6943L31.2569 20.4983L31.257 20.4888L31.257 12.3057C31.257 11.913 31.068 11.5204 30.7532 11.2724L23.3122 5.55016Z" fill="white"/>
</svg>
