<svg width="19" height="24" viewBox="0 0 19 24" fill="none" xmlns="http://www.w3.org/2000/svg">
<path d="M9.1148 0C4.08839 0.0176986 0.0176986 4.08839 0 9.1148C0 10.1236 0.159288 11.1147 0.477864 12.0705C0.707946 12.7253 1.41589 13.0616 2.07074 12.8669C2.70789 12.6191 3.06187 11.9289 2.84948 11.274C2.584 10.5307 2.46011 9.73425 2.49551 8.95551C2.6017 5.32729 5.62817 2.47781 9.25639 2.584C12.8846 2.69019 15.7341 5.71666 15.6279 9.34488C15.5217 12.743 12.8492 15.504 9.45108 15.7164C9.45108 15.7164 8.17677 15.8049 7.53962 15.8757C7.30954 15.9111 7.07946 15.9465 6.84937 16.0173C6.81398 16.0527 6.76088 16.035 6.72549 15.9996C6.70779 15.9642 6.70779 15.9288 6.72549 15.8934L6.92017 14.8138L8.12368 9.38028C8.26527 8.70773 7.8405 8.03518 7.16795 7.8936C6.4954 7.75201 5.82285 8.17677 5.68126 8.84932C5.68126 8.84932 2.83178 22.1233 2.83178 22.2472C2.6725 22.902 3.06187 23.5569 3.71672 23.7162C3.73441 23.7162 3.76981 23.7339 3.78751 23.7339C4.44236 23.8932 5.09721 23.4861 5.2565 22.8312C5.2565 22.8135 5.2742 22.7958 5.2742 22.7781C5.30959 22.6189 5.68126 20.849 5.68126 20.849C5.94674 19.5216 7.02636 18.5128 8.35376 18.3004C8.63694 18.265 9.78735 18.1765 9.78735 18.1765C14.7961 17.7163 18.4774 13.274 18.0172 8.26526C17.5925 3.64592 13.7695 0.0884932 9.1148 0Z" fill="#1D1D1D"/>
<path d="M9.76963 20.9908C8.9378 20.8315 8.14136 21.3624 7.96438 22.1766C7.78739 22.9907 8.30065 23.7871 9.11479 23.9641C9.13249 23.9641 9.15018 23.9641 9.15018 23.9641C9.94662 24.1411 10.7431 23.6455 10.9377 22.8491C10.9377 22.8137 10.9554 22.796 10.9554 22.7606C11.097 21.9642 10.5661 21.1854 9.76963 20.9908Z" fill="#E6007A"/>
</svg>
